<?xml version="1.0" encoding="utf-8" standalone="no"?>
<!DOCTYPE svg PUBLIC "-//W3C//DTD SVG 1.1//EN"
  "http://www.w3.org/Graphics/SVG/1.1/DTD/svg11.dtd">
<svg xmlns:xlink="http://www.w3.org/1999/xlink" width="453.225312pt" height="337.354375pt" viewBox="0 0 453.225312 337.354375" xmlns="http://www.w3.org/2000/svg" version="1.1">
 <metadata>
  <rdf:RDF xmlns:dc="http://purl.org/dc/elements/1.1/" xmlns:cc="http://creativecommons.org/ns#" xmlns:rdf="http://www.w3.org/1999/02/22-rdf-syntax-ns#">
   <cc:Work>
    <dc:type rdf:resource="http://purl.org/dc/dcmitype/StillImage"/>
    <dc:date>2025-11-08T22:25:32.907062</dc:date>
    <dc:format>image/svg+xml</dc:format>
    <dc:creator>
     <cc:Agent>
      <dc:title>Matplotlib v3.9.1, https://matplotlib.org/</dc:title>
     </cc:Agent>
    </dc:creator>
   </cc:Work>
  </rdf:RDF>
 </metadata>
 <defs>
  <style type="text/css">*{stroke-linejoin: round; stroke-linecap: butt}</style>
 </defs>
 <g id="figure_1">
  <g id="patch_1">
   <path d="M 0 337.354375 
L 453.225312 337.354375 
L 453.225312 0 
L 0 0 
z
" style="fill: #ffffff"/>
  </g>
  <g id="axes_1">
   <g id="patch_2">
    <path d="M 43.78125 299.798125 
L 438.07375 299.798125 
L 438.07375 22.318125 
L 43.78125 22.318125 
z
" style="fill: #ffffff"/>
   </g>
   <g id="matplotlib.axis_1">
    <g id="xtick_1">
     <g id="line2d_1">
      <defs>
       <path id="m83f0e33ffa" d="M 0 0 
L 0 3.5 
" style="stroke: #000000; stroke-width: 0.8"/>
      </defs>
      <g>
       <use xlink:href="#m83f0e33ffa" x="43.78125" y="299.798125" style="stroke: #000000; stroke-width: 0.8"/>
      </g>
     </g>
     <g id="text_1">
      <!-- 0.0 -->
      <g transform="translate(35.829688 314.396563) scale(0.1 -0.1)">
       <defs>
        <path id="DejaVuSans-30" d="M 2034 4250 
Q 1547 4250 1301 3770 
Q 1056 3291 1056 2328 
Q 1056 1369 1301 889 
Q 1547 409 2034 409 
Q 2525 409 2770 889 
Q 3016 1369 3016 2328 
Q 3016 3291 2770 3770 
Q 2525 4250 2034 4250 
z
M 2034 4750 
Q 2819 4750 3233 4129 
Q 3647 3509 3647 2328 
Q 3647 1150 3233 529 
Q 2819 -91 2034 -91 
Q 1250 -91 836 529 
Q 422 1150 422 2328 
Q 422 3509 836 4129 
Q 1250 4750 2034 4750 
z
" transform="scale(0.015625)"/>
        <path id="DejaVuSans-2e" d="M 684 794 
L 1344 794 
L 1344 0 
L 684 0 
L 684 794 
z
" transform="scale(0.015625)"/>
       </defs>
       <use xlink:href="#DejaVuSans-30"/>
       <use xlink:href="#DejaVuSans-2e" x="63.623047"/>
       <use xlink:href="#DejaVuSans-30" x="95.410156"/>
      </g>
     </g>
    </g>
    <g id="xtick_2">
     <g id="line2d_2">
      <g>
       <use xlink:href="#m83f0e33ffa" x="122.63975" y="299.798125" style="stroke: #000000; stroke-width: 0.8"/>
      </g>
     </g>
     <g id="text_2">
      <!-- 0.2 -->
      <g transform="translate(114.688188 314.396563) scale(0.1 -0.1)">
       <defs>
        <path id="DejaVuSans-32" d="M 1228 531 
L 3431 531 
L 3431 0 
L 469 0 
L 469 531 
Q 828 903 1448 1529 
Q 2069 2156 2228 2338 
Q 2531 2678 2651 2914 
Q 2772 3150 2772 3378 
Q 2772 3750 2511 3984 
Q 2250 4219 1831 4219 
Q 1534 4219 1204 4116 
Q 875 4013 500 3803 
L 500 4441 
Q 881 4594 1212 4672 
Q 1544 4750 1819 4750 
Q 2544 4750 2975 4387 
Q 3406 4025 3406 3419 
Q 3406 3131 3298 2873 
Q 3191 2616 2906 2266 
Q 2828 2175 2409 1742 
Q 1991 1309 1228 531 
z
" transform="scale(0.015625)"/>
       </defs>
       <use xlink:href="#DejaVuSans-30"/>
       <use xlink:href="#DejaVuSans-2e" x="63.623047"/>
       <use xlink:href="#DejaVuSans-32" x="95.410156"/>
      </g>
     </g>
    </g>
    <g id="xtick_3">
     <g id="line2d_3">
      <g>
       <use xlink:href="#m83f0e33ffa" x="201.49825" y="299.798125" style="stroke: #000000; stroke-width: 0.8"/>
      </g>
     </g>
     <g id="text_3">
      <!-- 0.4 -->
      <g transform="translate(193.546688 314.396563) scale(0.1 -0.1)">
       <defs>
        <path id="DejaVuSans-34" d="M 2419 4116 
L 825 1625 
L 2419 1625 
L 2419 4116 
z
M 2253 4666 
L 3047 4666 
L 3047 1625 
L 3713 1625 
L 3713 1100 
L 3047 1100 
L 3047 0 
L 2419 0 
L 2419 1100 
L 313 1100 
L 313 1709 
L 2253 4666 
z
" transform="scale(0.015625)"/>
       </defs>
       <use xlink:href="#DejaVuSans-30"/>
       <use xlink:href="#DejaVuSans-2e" x="63.623047"/>
       <use xlink:href="#DejaVuSans-34" x="95.410156"/>
      </g>
     </g>
    </g>
    <g id="xtick_4">
     <g id="line2d_4">
      <g>
       <use xlink:href="#m83f0e33ffa" x="280.35675" y="299.798125" style="stroke: #000000; stroke-width: 0.8"/>
      </g>
     </g>
     <g id="text_4">
      <!-- 0.6 -->
      <g transform="translate(272.405188 314.396563) scale(0.1 -0.1)">
       <defs>
        <path id="DejaVuSans-36" d="M 2113 2584 
Q 1688 2584 1439 2293 
Q 1191 2003 1191 1497 
Q 1191 994 1439 701 
Q 1688 409 2113 409 
Q 2538 409 2786 701 
Q 3034 994 3034 1497 
Q 3034 2003 2786 2293 
Q 2538 2584 2113 2584 
z
M 3366 4563 
L 3366 3988 
Q 3128 4100 2886 4159 
Q 2644 4219 2406 4219 
Q 1781 4219 1451 3797 
Q 1122 3375 1075 2522 
Q 1259 2794 1537 2939 
Q 1816 3084 2150 3084 
Q 2853 3084 3261 2657 
Q 3669 2231 3669 1497 
Q 3669 778 3244 343 
Q 2819 -91 2113 -91 
Q 1303 -91 875 529 
Q 447 1150 447 2328 
Q 447 3434 972 4092 
Q 1497 4750 2381 4750 
Q 2619 4750 2861 4703 
Q 3103 4656 3366 4563 
z
" transform="scale(0.015625)"/>
       </defs>
       <use xlink:href="#DejaVuSans-30"/>
       <use xlink:href="#DejaVuSans-2e" x="63.623047"/>
       <use xlink:href="#DejaVuSans-36" x="95.410156"/>
      </g>
     </g>
    </g>
    <g id="xtick_5">
     <g id="line2d_5">
      <g>
       <use xlink:href="#m83f0e33ffa" x="359.21525" y="299.798125" style="stroke: #000000; stroke-width: 0.8"/>
      </g>
     </g>
     <g id="text_5">
      <!-- 0.8 -->
      <g transform="translate(351.263688 314.396563) scale(0.1 -0.1)">
       <defs>
        <path id="DejaVuSans-38" d="M 2034 2216 
Q 1584 2216 1326 1975 
Q 1069 1734 1069 1313 
Q 1069 891 1326 650 
Q 1584 409 2034 409 
Q 2484 409 2743 651 
Q 3003 894 3003 1313 
Q 3003 1734 2745 1975 
Q 2488 2216 2034 2216 
z
M 1403 2484 
Q 997 2584 770 2862 
Q 544 3141 544 3541 
Q 544 4100 942 4425 
Q 1341 4750 2034 4750 
Q 2731 4750 3128 4425 
Q 3525 4100 3525 3541 
Q 3525 3141 3298 2862 
Q 3072 2584 2669 2484 
Q 3125 2378 3379 2068 
Q 3634 1759 3634 1313 
Q 3634 634 3220 271 
Q 2806 -91 2034 -91 
Q 1263 -91 848 271 
Q 434 634 434 1313 
Q 434 1759 690 2068 
Q 947 2378 1403 2484 
z
M 1172 3481 
Q 1172 3119 1398 2916 
Q 1625 2713 2034 2713 
Q 2441 2713 2670 2916 
Q 2900 3119 2900 3481 
Q 2900 3844 2670 4047 
Q 2441 4250 2034 4250 
Q 1625 4250 1398 4047 
Q 1172 3844 1172 3481 
z
" transform="scale(0.015625)"/>
       </defs>
       <use xlink:href="#DejaVuSans-30"/>
       <use xlink:href="#DejaVuSans-2e" x="63.623047"/>
       <use xlink:href="#DejaVuSans-38" x="95.410156"/>
      </g>
     </g>
    </g>
    <g id="xtick_6">
     <g id="line2d_6">
      <g>
       <use xlink:href="#m83f0e33ffa" x="438.07375" y="299.798125" style="stroke: #000000; stroke-width: 0.8"/>
      </g>
     </g>
     <g id="text_6">
      <!-- 1.0 -->
      <g transform="translate(430.122187 314.396563) scale(0.1 -0.1)">
       <defs>
        <path id="DejaVuSans-31" d="M 794 531 
L 1825 531 
L 1825 4091 
L 703 3866 
L 703 4441 
L 1819 4666 
L 2450 4666 
L 2450 531 
L 3481 531 
L 3481 0 
L 794 0 
L 794 531 
z
" transform="scale(0.015625)"/>
       </defs>
       <use xlink:href="#DejaVuSans-31"/>
       <use xlink:href="#DejaVuSans-2e" x="63.623047"/>
       <use xlink:href="#DejaVuSans-30" x="95.410156"/>
      </g>
     </g>
    </g>
    <g id="text_7">
     <!-- False Positive Rate -->
     <g transform="translate(194.461094 328.074688) scale(0.1 -0.1)">
      <defs>
       <path id="DejaVuSans-46" d="M 628 4666 
L 3309 4666 
L 3309 4134 
L 1259 4134 
L 1259 2759 
L 3109 2759 
L 3109 2228 
L 1259 2228 
L 1259 0 
L 628 0 
L 628 4666 
z
" transform="scale(0.015625)"/>
       <path id="DejaVuSans-61" d="M 2194 1759 
Q 1497 1759 1228 1600 
Q 959 1441 959 1056 
Q 959 750 1161 570 
Q 1363 391 1709 391 
Q 2188 391 2477 730 
Q 2766 1069 2766 1631 
L 2766 1759 
L 2194 1759 
z
M 3341 1997 
L 3341 0 
L 2766 0 
L 2766 531 
Q 2569 213 2275 61 
Q 1981 -91 1556 -91 
Q 1019 -91 701 211 
Q 384 513 384 1019 
Q 384 1609 779 1909 
Q 1175 2209 1959 2209 
L 2766 2209 
L 2766 2266 
Q 2766 2663 2505 2880 
Q 2244 3097 1772 3097 
Q 1472 3097 1187 3025 
Q 903 2953 641 2809 
L 641 3341 
Q 956 3463 1253 3523 
Q 1550 3584 1831 3584 
Q 2591 3584 2966 3190 
Q 3341 2797 3341 1997 
z
" transform="scale(0.015625)"/>
       <path id="DejaVuSans-6c" d="M 603 4863 
L 1178 4863 
L 1178 0 
L 603 0 
L 603 4863 
z
" transform="scale(0.015625)"/>
       <path id="DejaVuSans-73" d="M 2834 3397 
L 2834 2853 
Q 2591 2978 2328 3040 
Q 2066 3103 1784 3103 
Q 1356 3103 1142 2972 
Q 928 2841 928 2578 
Q 928 2378 1081 2264 
Q 1234 2150 1697 2047 
L 1894 2003 
Q 2506 1872 2764 1633 
Q 3022 1394 3022 966 
Q 3022 478 2636 193 
Q 2250 -91 1575 -91 
Q 1294 -91 989 -36 
Q 684 19 347 128 
L 347 722 
Q 666 556 975 473 
Q 1284 391 1588 391 
Q 1994 391 2212 530 
Q 2431 669 2431 922 
Q 2431 1156 2273 1281 
Q 2116 1406 1581 1522 
L 1381 1569 
Q 847 1681 609 1914 
Q 372 2147 372 2553 
Q 372 3047 722 3315 
Q 1072 3584 1716 3584 
Q 2034 3584 2315 3537 
Q 2597 3491 2834 3397 
z
" transform="scale(0.015625)"/>
       <path id="DejaVuSans-65" d="M 3597 1894 
L 3597 1613 
L 953 1613 
Q 991 1019 1311 708 
Q 1631 397 2203 397 
Q 2534 397 2845 478 
Q 3156 559 3463 722 
L 3463 178 
Q 3153 47 2828 -22 
Q 2503 -91 2169 -91 
Q 1331 -91 842 396 
Q 353 884 353 1716 
Q 353 2575 817 3079 
Q 1281 3584 2069 3584 
Q 2775 3584 3186 3129 
Q 3597 2675 3597 1894 
z
M 3022 2063 
Q 3016 2534 2758 2815 
Q 2500 3097 2075 3097 
Q 1594 3097 1305 2825 
Q 1016 2553 972 2059 
L 3022 2063 
z
" transform="scale(0.015625)"/>
       <path id="DejaVuSans-20" transform="scale(0.015625)"/>
       <path id="DejaVuSans-50" d="M 1259 4147 
L 1259 2394 
L 2053 2394 
Q 2494 2394 2734 2622 
Q 2975 2850 2975 3272 
Q 2975 3691 2734 3919 
Q 2494 4147 2053 4147 
L 1259 4147 
z
M 628 4666 
L 2053 4666 
Q 2838 4666 3239 4311 
Q 3641 3956 3641 3272 
Q 3641 2581 3239 2228 
Q 2838 1875 2053 1875 
L 1259 1875 
L 1259 0 
L 628 0 
L 628 4666 
z
" transform="scale(0.015625)"/>
       <path id="DejaVuSans-6f" d="M 1959 3097 
Q 1497 3097 1228 2736 
Q 959 2375 959 1747 
Q 959 1119 1226 758 
Q 1494 397 1959 397 
Q 2419 397 2687 759 
Q 2956 1122 2956 1747 
Q 2956 2369 2687 2733 
Q 2419 3097 1959 3097 
z
M 1959 3584 
Q 2709 3584 3137 3096 
Q 3566 2609 3566 1747 
Q 3566 888 3137 398 
Q 2709 -91 1959 -91 
Q 1206 -91 779 398 
Q 353 888 353 1747 
Q 353 2609 779 3096 
Q 1206 3584 1959 3584 
z
" transform="scale(0.015625)"/>
       <path id="DejaVuSans-69" d="M 603 3500 
L 1178 3500 
L 1178 0 
L 603 0 
L 603 3500 
z
M 603 4863 
L 1178 4863 
L 1178 4134 
L 603 4134 
L 603 4863 
z
" transform="scale(0.015625)"/>
       <path id="DejaVuSans-74" d="M 1172 4494 
L 1172 3500 
L 2356 3500 
L 2356 3053 
L 1172 3053 
L 1172 1153 
Q 1172 725 1289 603 
Q 1406 481 1766 481 
L 2356 481 
L 2356 0 
L 1766 0 
Q 1100 0 847 248 
Q 594 497 594 1153 
L 594 3053 
L 172 3053 
L 172 3500 
L 594 3500 
L 594 4494 
L 1172 4494 
z
" transform="scale(0.015625)"/>
       <path id="DejaVuSans-76" d="M 191 3500 
L 800 3500 
L 1894 563 
L 2988 3500 
L 3597 3500 
L 2284 0 
L 1503 0 
L 191 3500 
z
" transform="scale(0.015625)"/>
       <path id="DejaVuSans-52" d="M 2841 2188 
Q 3044 2119 3236 1894 
Q 3428 1669 3622 1275 
L 4263 0 
L 3584 0 
L 2988 1197 
Q 2756 1666 2539 1819 
Q 2322 1972 1947 1972 
L 1259 1972 
L 1259 0 
L 628 0 
L 628 4666 
L 2053 4666 
Q 2853 4666 3247 4331 
Q 3641 3997 3641 3322 
Q 3641 2881 3436 2590 
Q 3231 2300 2841 2188 
z
M 1259 4147 
L 1259 2491 
L 2053 2491 
Q 2509 2491 2742 2702 
Q 2975 2913 2975 3322 
Q 2975 3731 2742 3939 
Q 2509 4147 2053 4147 
L 1259 4147 
z
" transform="scale(0.015625)"/>
      </defs>
      <use xlink:href="#DejaVuSans-46"/>
      <use xlink:href="#DejaVuSans-61" x="48.394531"/>
      <use xlink:href="#DejaVuSans-6c" x="109.673828"/>
      <use xlink:href="#DejaVuSans-73" x="137.457031"/>
      <use xlink:href="#DejaVuSans-65" x="189.556641"/>
      <use xlink:href="#DejaVuSans-20" x="251.080078"/>
      <use xlink:href="#DejaVuSans-50" x="282.867188"/>
      <use xlink:href="#DejaVuSans-6f" x="339.544922"/>
      <use xlink:href="#DejaVuSans-73" x="400.726562"/>
      <use xlink:href="#DejaVuSans-69" x="452.826172"/>
      <use xlink:href="#DejaVuSans-74" x="480.609375"/>
      <use xlink:href="#DejaVuSans-69" x="519.818359"/>
      <use xlink:href="#DejaVuSans-76" x="547.601562"/>
      <use xlink:href="#DejaVuSans-65" x="606.78125"/>
      <use xlink:href="#DejaVuSans-20" x="668.304688"/>
      <use xlink:href="#DejaVuSans-52" x="700.091797"/>
      <use xlink:href="#DejaVuSans-61" x="767.324219"/>
      <use xlink:href="#DejaVuSans-74" x="828.603516"/>
      <use xlink:href="#DejaVuSans-65" x="867.8125"/>
     </g>
    </g>
   </g>
   <g id="matplotlib.axis_2">
    <g id="ytick_1">
     <g id="line2d_7">
      <defs>
       <path id="mefd829c73b" d="M 0 0 
L -3.5 0 
" style="stroke: #000000; stroke-width: 0.8"/>
      </defs>
      <g>
       <use xlink:href="#mefd829c73b" x="43.78125" y="299.798125" style="stroke: #000000; stroke-width: 0.8"/>
      </g>
     </g>
     <g id="text_8">
      <!-- 0.0 -->
      <g transform="translate(20.878125 303.597344) scale(0.1 -0.1)">
       <use xlink:href="#DejaVuSans-30"/>
       <use xlink:href="#DejaVuSans-2e" x="63.623047"/>
       <use xlink:href="#DejaVuSans-30" x="95.410156"/>
      </g>
     </g>
    </g>
    <g id="ytick_2">
     <g id="line2d_8">
      <g>
       <use xlink:href="#mefd829c73b" x="43.78125" y="246.944792" style="stroke: #000000; stroke-width: 0.8"/>
      </g>
     </g>
     <g id="text_9">
      <!-- 0.2 -->
      <g transform="translate(20.878125 250.74401) scale(0.1 -0.1)">
       <use xlink:href="#DejaVuSans-30"/>
       <use xlink:href="#DejaVuSans-2e" x="63.623047"/>
       <use xlink:href="#DejaVuSans-32" x="95.410156"/>
      </g>
     </g>
    </g>
    <g id="ytick_3">
     <g id="line2d_9">
      <g>
       <use xlink:href="#mefd829c73b" x="43.78125" y="194.091458" style="stroke: #000000; stroke-width: 0.8"/>
      </g>
     </g>
     <g id="text_10">
      <!-- 0.4 -->
      <g transform="translate(20.878125 197.890677) scale(0.1 -0.1)">
       <use xlink:href="#DejaVuSans-30"/>
       <use xlink:href="#DejaVuSans-2e" x="63.623047"/>
       <use xlink:href="#DejaVuSans-34" x="95.410156"/>
      </g>
     </g>
    </g>
    <g id="ytick_4">
     <g id="line2d_10">
      <g>
       <use xlink:href="#mefd829c73b" x="43.78125" y="141.238125" style="stroke: #000000; stroke-width: 0.8"/>
      </g>
     </g>
     <g id="text_11">
      <!-- 0.6 -->
      <g transform="translate(20.878125 145.037344) scale(0.1 -0.1)">
       <use xlink:href="#DejaVuSans-30"/>
       <use xlink:href="#DejaVuSans-2e" x="63.623047"/>
       <use xlink:href="#DejaVuSans-36" x="95.410156"/>
      </g>
     </g>
    </g>
    <g id="ytick_5">
     <g id="line2d_11">
      <g>
       <use xlink:href="#mefd829c73b" x="43.78125" y="88.384792" style="stroke: #000000; stroke-width: 0.8"/>
      </g>
     </g>
     <g id="text_12">
      <!-- 0.8 -->
      <g transform="translate(20.878125 92.18401) scale(0.1 -0.1)">
       <use xlink:href="#DejaVuSans-30"/>
       <use xlink:href="#DejaVuSans-2e" x="63.623047"/>
       <use xlink:href="#DejaVuSans-38" x="95.410156"/>
      </g>
     </g>
    </g>
    <g id="ytick_6">
     <g id="line2d_12">
      <g>
       <use xlink:href="#mefd829c73b" x="43.78125" y="35.531458" style="stroke: #000000; stroke-width: 0.8"/>
      </g>
     </g>
     <g id="text_13">
      <!-- 1.0 -->
      <g transform="translate(20.878125 39.330677) scale(0.1 -0.1)">
       <use xlink:href="#DejaVuSans-31"/>
       <use xlink:href="#DejaVuSans-2e" x="63.623047"/>
       <use xlink:href="#DejaVuSans-30" x="95.410156"/>
      </g>
     </g>
    </g>
    <g id="text_14">
     <!-- True Positive Rate -->
     <g transform="translate(14.798438 205.587813) rotate(-90) scale(0.1 -0.1)">
      <defs>
       <path id="DejaVuSans-54" d="M -19 4666 
L 3928 4666 
L 3928 4134 
L 2272 4134 
L 2272 0 
L 1638 0 
L 1638 4134 
L -19 4134 
L -19 4666 
z
" transform="scale(0.015625)"/>
       <path id="DejaVuSans-72" d="M 2631 2963 
Q 2534 3019 2420 3045 
Q 2306 3072 2169 3072 
Q 1681 3072 1420 2755 
Q 1159 2438 1159 1844 
L 1159 0 
L 581 0 
L 581 3500 
L 1159 3500 
L 1159 2956 
Q 1341 3275 1631 3429 
Q 1922 3584 2338 3584 
Q 2397 3584 2469 3576 
Q 2541 3569 2628 3553 
L 2631 2963 
z
" transform="scale(0.015625)"/>
       <path id="DejaVuSans-75" d="M 544 1381 
L 544 3500 
L 1119 3500 
L 1119 1403 
Q 1119 906 1312 657 
Q 1506 409 1894 409 
Q 2359 409 2629 706 
Q 2900 1003 2900 1516 
L 2900 3500 
L 3475 3500 
L 3475 0 
L 2900 0 
L 2900 538 
Q 2691 219 2414 64 
Q 2138 -91 1772 -91 
Q 1169 -91 856 284 
Q 544 659 544 1381 
z
M 1991 3584 
L 1991 3584 
z
" transform="scale(0.015625)"/>
      </defs>
      <use xlink:href="#DejaVuSans-54"/>
      <use xlink:href="#DejaVuSans-72" x="46.333984"/>
      <use xlink:href="#DejaVuSans-75" x="87.447266"/>
      <use xlink:href="#DejaVuSans-65" x="150.826172"/>
      <use xlink:href="#DejaVuSans-20" x="212.349609"/>
      <use xlink:href="#DejaVuSans-50" x="244.136719"/>
      <use xlink:href="#DejaVuSans-6f" x="300.814453"/>
      <use xlink:href="#DejaVuSans-73" x="361.996094"/>
      <use xlink:href="#DejaVuSans-69" x="414.095703"/>
      <use xlink:href="#DejaVuSans-74" x="441.878906"/>
      <use xlink:href="#DejaVuSans-69" x="481.087891"/>
      <use xlink:href="#DejaVuSans-76" x="508.871094"/>
      <use xlink:href="#DejaVuSans-65" x="568.050781"/>
      <use xlink:href="#DejaVuSans-20" x="629.574219"/>
      <use xlink:href="#DejaVuSans-52" x="661.361328"/>
      <use xlink:href="#DejaVuSans-61" x="728.59375"/>
      <use xlink:href="#DejaVuSans-74" x="789.873047"/>
      <use xlink:href="#DejaVuSans-65" x="829.082031"/>
     </g>
    </g>
   </g>
   <g id="line2d_13">
    <path d="M 43.78125 299.798125 
L 43.78125 291.197731 
L 44.030172 291.197731 
L 44.030172 291.04136 
L 44.279094 291.04136 
L 44.279094 286.193865 
L 44.528016 286.193865 
L 44.528016 286.037494 
L 44.776938 286.037494 
L 44.776938 274.466054 
L 45.02586 274.466054 
L 45.02586 270.400413 
L 45.274782 270.400413 
L 45.274782 260.07994 
L 45.523704 260.07994 
L 45.523704 253.199624 
L 45.772626 253.199624 
L 45.772626 248.195758 
L 46.021548 248.195758 
L 46.021548 246.006567 
L 46.27047 246.006567 
L 46.27047 243.504634 
L 46.519392 243.504634 
L 46.519392 241.628184 
L 46.768314 241.628184 
L 46.768314 241.315443 
L 47.017236 241.315443 
L 47.017236 238.031656 
L 47.266158 238.031656 
L 47.266158 235.373352 
L 47.51508 235.373352 
L 47.51508 234.278756 
L 47.764003 234.278756 
L 47.764003 234.122385 
L 48.012925 234.122385 
L 48.012925 233.966015 
L 48.261847 233.966015 
L 48.261847 233.184161 
L 48.510769 233.184161 
L 48.510769 223.645541 
L 48.759691 223.645541 
L 48.759691 220.830867 
L 49.008613 220.830867 
L 49.008613 218.016192 
L 49.257535 218.016192 
L 49.257535 217.390709 
L 49.506457 217.390709 
L 49.506457 214.888776 
L 49.755379 214.888776 
L 49.755379 214.576034 
L 50.004301 214.576034 
L 50.004301 210.666764 
L 50.502145 210.666764 
L 50.502145 208.946685 
L 50.751067 208.946685 
L 50.751067 208.477573 
L 50.999989 208.477573 
L 50.999989 206.601123 
L 51.248911 206.601123 
L 51.248911 204.255561 
L 51.497833 204.255561 
L 51.497833 204.09919 
L 51.746755 204.09919 
L 51.746755 203.473707 
L 51.995677 203.473707 
L 51.995677 203.317336 
L 52.244599 203.317336 
L 52.244599 202.06637 
L 52.493521 202.06637 
L 52.493521 201.284516 
L 52.742443 201.284516 
L 52.742443 200.971774 
L 52.991365 200.971774 
L 52.991365 200.346291 
L 53.240287 200.346291 
L 53.240287 200.18992 
L 53.489209 200.18992 
L 53.489209 199.095324 
L 53.987053 199.095324 
L 53.987053 198.000729 
L 54.235975 198.000729 
L 54.235975 197.218875 
L 54.484897 197.218875 
L 54.484897 196.43702 
L 54.733819 196.43702 
L 54.733819 195.498796 
L 54.982741 195.498796 
L 54.982741 195.029683 
L 55.231664 195.029683 
L 55.231664 192.684121 
L 55.97843 192.684121 
L 55.97843 192.371379 
L 56.227352 192.371379 
L 56.227352 192.058638 
L 56.476274 192.058638 
L 56.476274 190.651301 
L 56.725196 190.651301 
L 56.725196 188.462109 
L 56.974118 188.462109 
L 56.974118 187.523884 
L 57.22304 187.523884 
L 57.22304 186.898401 
L 57.471962 186.898401 
L 57.471962 186.116547 
L 57.720884 186.116547 
L 57.720884 184.865581 
L 57.969806 184.865581 
L 57.969806 183.458243 
L 58.218728 183.458243 
L 58.218728 182.83276 
L 58.46765 182.83276 
L 58.46765 182.520018 
L 58.716572 182.520018 
L 58.716572 182.050906 
L 58.965494 182.050906 
L 58.965494 181.581794 
L 59.214416 181.581794 
L 59.214416 180.95631 
L 59.463338 180.95631 
L 59.463338 177.985265 
L 59.71226 177.985265 
L 59.71226 177.672523 
L 59.961182 177.672523 
L 59.961182 177.516153 
L 60.459026 177.516153 
L 60.459026 177.359782 
L 60.707948 177.359782 
L 60.707948 176.890669 
L 61.205792 176.890669 
L 61.205792 173.919624 
L 61.454714 173.919624 
L 61.454714 172.512287 
L 61.952558 172.512287 
L 61.952558 172.043174 
L 62.20148 172.043174 
L 62.20148 171.886804 
L 62.450402 171.886804 
L 62.450402 171.104949 
L 62.699324 171.104949 
L 62.699324 170.948579 
L 62.948247 170.948579 
L 62.948247 170.635837 
L 63.197169 170.635837 
L 63.197169 169.697612 
L 63.446091 169.697612 
L 63.446091 169.384871 
L 63.695013 169.384871 
L 63.695013 169.072129 
L 63.943935 169.072129 
L 63.943935 168.603017 
L 64.192857 168.603017 
L 64.192857 167.821162 
L 64.441779 167.821162 
L 64.441779 167.664792 
L 64.939623 167.664792 
L 64.939623 167.508421 
L 65.188545 167.508421 
L 65.188545 166.570196 
L 65.437467 166.570196 
L 65.437467 166.413825 
L 65.686389 166.413825 
L 65.686389 165.631971 
L 65.935311 165.631971 
L 65.935311 165.162859 
L 66.184233 165.162859 
L 66.184233 163.44278 
L 66.433155 163.44278 
L 66.433155 162.817297 
L 66.682077 162.817297 
L 66.682077 161.722701 
L 67.179921 161.722701 
L 67.179921 161.409959 
L 67.428843 161.409959 
L 67.428843 160.940847 
L 67.677765 160.940847 
L 67.677765 160.628105 
L 67.926687 160.628105 
L 67.926687 159.53351 
L 68.175609 159.53351 
L 68.175609 159.220768 
L 68.424531 159.220768 
L 68.424531 159.064397 
L 68.673453 159.064397 
L 68.673453 158.908026 
L 68.922375 158.908026 
L 68.922375 157.813431 
L 69.669141 157.813431 
L 69.669141 157.031577 
L 70.166985 157.031577 
L 70.166985 156.718835 
L 70.415908 156.718835 
L 70.415908 155.624239 
L 70.66483 155.624239 
L 70.66483 154.686015 
L 71.411596 154.686015 
L 71.411596 153.904161 
L 71.90944 153.904161 
L 71.90944 153.74779 
L 72.158362 153.74779 
L 72.158362 153.278677 
L 72.407284 153.278677 
L 72.407284 152.653194 
L 72.656206 152.653194 
L 72.656206 152.184082 
L 72.905128 152.184082 
L 72.905128 151.245857 
L 73.402972 151.245857 
L 73.402972 150.933115 
L 73.651894 150.933115 
L 73.651894 150.776744 
L 73.900816 150.776744 
L 73.900816 150.464003 
L 74.149738 150.464003 
L 74.149738 149.838519 
L 74.647582 149.838519 
L 74.647582 148.900295 
L 75.394348 148.900295 
L 75.394348 147.649328 
L 75.64327 147.649328 
L 75.64327 147.492957 
L 75.892192 147.492957 
L 75.892192 147.023845 
L 76.141114 147.023845 
L 76.141114 146.711103 
L 76.390036 146.711103 
L 76.390036 145.929249 
L 76.88788 145.929249 
L 76.88788 145.772878 
L 77.136802 145.772878 
L 77.136802 145.303766 
L 77.385724 145.303766 
L 77.385724 144.991024 
L 77.634646 144.991024 
L 77.634646 144.521912 
L 77.883568 144.521912 
L 77.883568 143.427316 
L 78.381413 143.427316 
L 78.381413 143.270946 
L 78.630335 143.270946 
L 78.630335 143.114575 
L 78.879257 143.114575 
L 78.879257 141.863608 
L 79.128179 141.863608 
L 79.128179 141.550867 
L 79.626023 141.550867 
L 79.626023 141.081754 
L 79.874945 141.081754 
L 79.874945 140.769013 
L 80.123867 140.769013 
L 80.123867 140.456271 
L 80.372789 140.456271 
L 80.372789 140.2999 
L 80.621711 140.2999 
L 80.621711 140.143529 
L 81.119555 140.143529 
L 81.119555 139.674417 
L 81.368477 139.674417 
L 81.368477 139.205304 
L 81.617399 139.205304 
L 81.617399 138.579821 
L 82.115243 138.579821 
L 82.115243 138.42345 
L 82.862009 138.42345 
L 82.862009 138.110709 
L 83.359853 138.110709 
L 83.359853 137.641596 
L 83.857697 137.641596 
L 83.857697 137.016113 
L 84.106619 137.016113 
L 84.106619 136.234259 
L 84.355541 136.234259 
L 84.355541 136.077888 
L 84.853385 136.077888 
L 84.853385 135.921518 
L 85.102307 135.921518 
L 85.102307 134.201439 
L 85.351229 134.201439 
L 85.351229 133.732326 
L 85.849074 133.732326 
L 85.849074 133.575955 
L 87.342606 133.575955 
L 87.342606 132.794101 
L 87.84045 132.794101 
L 87.84045 132.48136 
L 88.338294 132.48136 
L 88.338294 132.324989 
L 88.587216 132.324989 
L 88.587216 131.543135 
L 88.836138 131.543135 
L 88.836138 131.074022 
L 89.333982 131.074022 
L 89.333982 130.761281 
L 89.582904 130.761281 
L 89.582904 129.979427 
L 89.831826 129.979427 
L 89.831826 129.666685 
L 91.076436 129.666685 
L 91.076436 129.510314 
L 91.325358 129.510314 
L 91.325358 129.353944 
L 91.823202 129.353944 
L 91.823202 129.197573 
L 92.072124 129.197573 
L 92.072124 129.041202 
L 92.321046 129.041202 
L 92.321046 128.572089 
L 92.569968 128.572089 
L 92.569968 128.102977 
L 93.565657 128.102977 
L 93.565657 127.477494 
L 93.814579 127.477494 
L 93.814579 127.164752 
L 94.063501 127.164752 
L 94.063501 127.008381 
L 94.561345 127.008381 
L 94.561345 126.69564 
L 94.810267 126.69564 
L 94.810267 126.070157 
L 95.557033 126.070157 
L 95.557033 125.288303 
L 96.054877 125.288303 
L 96.054877 124.662819 
L 96.552721 124.662819 
L 96.552721 124.350078 
L 97.797331 124.350078 
L 97.797331 124.037336 
L 98.046253 124.037336 
L 98.046253 123.880965 
L 98.544097 123.880965 
L 98.544097 123.411853 
L 98.793019 123.411853 
L 98.793019 123.255482 
L 99.041941 123.255482 
L 99.041941 123.099111 
L 99.788707 123.099111 
L 99.788707 122.78637 
L 100.037629 122.78637 
L 100.037629 122.473628 
L 100.535473 122.473628 
L 100.535473 122.004516 
L 100.784396 122.004516 
L 100.784396 121.691774 
L 101.28224 121.691774 
L 101.28224 121.535403 
L 102.029006 121.535403 
L 102.029006 121.379032 
L 102.277928 121.379032 
L 102.277928 121.222661 
L 103.273616 121.222661 
L 103.273616 120.90992 
L 103.77146 120.90992 
L 103.77146 120.753549 
L 104.020382 120.753549 
L 104.020382 120.597178 
L 104.269304 120.597178 
L 104.269304 120.440807 
L 104.767148 120.440807 
L 104.767148 120.128066 
L 105.762836 120.128066 
L 105.762836 119.971695 
L 106.26068 119.971695 
L 106.26068 119.658953 
L 106.758524 119.658953 
L 106.758524 119.502583 
L 107.256368 119.502583 
L 107.256368 119.346212 
L 107.754212 119.346212 
L 107.754212 118.877099 
L 108.749901 118.877099 
L 108.749901 118.251616 
L 109.496667 118.251616 
L 109.496667 118.095245 
L 109.745589 118.095245 
L 109.745589 117.938875 
L 111.239121 117.938875 
L 111.239121 117.782504 
L 111.488043 117.782504 
L 111.488043 117.469762 
L 112.483731 117.469762 
L 112.483731 117.00065 
L 112.981575 117.00065 
L 112.981575 116.844279 
L 113.728341 116.844279 
L 113.728341 116.687908 
L 114.475107 116.687908 
L 114.475107 116.531537 
L 114.724029 116.531537 
L 114.724029 116.218796 
L 114.972951 116.218796 
L 114.972951 115.906054 
L 115.470795 115.906054 
L 115.470795 115.749683 
L 115.719717 115.749683 
L 115.719717 113.873233 
L 116.715406 113.873233 
L 116.715406 113.560492 
L 116.964328 113.560492 
L 116.964328 113.404121 
L 117.462172 113.404121 
L 117.462172 113.24775 
L 118.208938 113.24775 
L 118.208938 113.091379 
L 118.45786 113.091379 
L 118.45786 112.935009 
L 119.204626 112.935009 
L 119.204626 112.778638 
L 119.951392 112.778638 
L 119.951392 112.622267 
L 120.449236 112.622267 
L 120.449236 111.996784 
L 120.94708 111.996784 
L 120.94708 111.840413 
L 121.196002 111.840413 
L 121.196002 111.684042 
L 121.444924 111.684042 
L 121.444924 111.371301 
L 122.19169 111.371301 
L 122.19169 110.745817 
L 122.440612 110.745817 
L 122.440612 110.589446 
L 122.689534 110.589446 
L 122.689534 110.433076 
L 122.938456 110.433076 
L 122.938456 109.651222 
L 123.436301 109.651222 
L 123.436301 109.33848 
L 123.685223 109.33848 
L 123.685223 109.025738 
L 124.680911 109.025738 
L 124.680911 108.869368 
L 124.929833 108.869368 
L 124.929833 108.712997 
L 125.427677 108.712997 
L 125.427677 108.400255 
L 125.676599 108.400255 
L 125.676599 108.087514 
L 126.423365 108.087514 
L 126.423365 107.931143 
L 126.672287 107.931143 
L 126.672287 107.618401 
L 126.921209 107.618401 
L 126.921209 107.30566 
L 127.170131 107.30566 
L 127.170131 106.992918 
L 127.667975 106.992918 
L 127.667975 106.836547 
L 128.414741 106.836547 
L 128.414741 106.680176 
L 128.663663 106.680176 
L 128.663663 106.523805 
L 128.912585 106.523805 
L 128.912585 106.054693 
L 129.410429 106.054693 
L 129.410429 105.585581 
L 129.659351 105.585581 
L 129.659351 105.272839 
L 129.908273 105.272839 
L 129.908273 104.960097 
L 130.157195 104.960097 
L 130.157195 104.803727 
L 130.655039 104.803727 
L 130.655039 104.178243 
L 131.152884 104.178243 
L 131.152884 104.021873 
L 131.401806 104.021873 
L 131.401806 103.865502 
L 131.650728 103.865502 
L 131.650728 103.709131 
L 131.89965 103.709131 
L 131.89965 103.55276 
L 132.148572 103.55276 
L 132.148572 103.240018 
L 132.397494 103.240018 
L 132.397494 102.927277 
L 132.895338 102.927277 
L 132.895338 102.770906 
L 133.14426 102.770906 
L 133.14426 102.301794 
L 133.642104 102.301794 
L 133.642104 102.145423 
L 133.891026 102.145423 
L 133.891026 101.989052 
L 134.139948 101.989052 
L 134.139948 101.67631 
L 135.135636 101.67631 
L 135.135636 101.51994 
L 135.384558 101.51994 
L 135.384558 101.363569 
L 135.63348 101.363569 
L 135.63348 101.207198 
L 135.882402 101.207198 
L 135.882402 100.894456 
L 136.380246 100.894456 
L 136.380246 100.738086 
L 136.87809 100.738086 
L 136.87809 100.268973 
L 137.375934 100.268973 
L 137.375934 99.799861 
L 137.624856 99.799861 
L 137.624856 99.64349 
L 137.873778 99.64349 
L 137.873778 99.487119 
L 138.620545 99.487119 
L 138.620545 99.018007 
L 139.367311 99.018007 
L 139.367311 98.861636 
L 139.616233 98.861636 
L 139.616233 98.705265 
L 140.114077 98.705265 
L 140.114077 98.548894 
L 143.101141 95.577849 
L 143.350063 95.577849 
L 143.350063 94.795995 
L 143.598985 94.795995 
L 143.598985 94.170512 
L 143.847907 94.170512 
L 143.847907 94.014141 
L 144.345751 94.014141 
L 144.345751 93.85777 
L 144.594673 93.85777 
L 144.594673 93.701399 
L 144.843595 93.701399 
L 144.843595 93.388658 
L 145.590361 93.388658 
L 145.590361 93.232287 
L 145.839283 93.232287 
L 145.839283 93.075916 
L 146.088205 93.075916 
L 146.088205 92.919545 
L 146.337128 92.919545 
L 146.337128 92.763174 
L 146.58605 92.763174 
L 146.58605 92.450433 
L 147.083894 92.450433 
L 147.083894 92.137691 
L 147.83066 92.137691 
L 147.83066 91.98132 
L 149.07527 91.98132 
L 149.07527 91.824949 
L 149.324192 91.824949 
L 149.324192 91.668579 
L 150.568802 91.668579 
L 150.568802 91.512208 
L 151.066646 91.512208 
L 151.066646 91.199466 
L 151.56449 91.199466 
L 151.56449 90.886725 
L 151.813412 90.886725 
L 151.813412 90.417612 
L 152.062334 90.417612 
L 152.062334 90.261241 
L 152.311256 90.261241 
L 152.311256 90.104871 
L 153.058022 90.104871 
L 153.058022 89.792129 
L 153.306944 89.792129 
L 153.306944 89.479387 
L 153.804789 89.479387 
L 153.804789 89.166646 
L 154.302633 89.166646 
L 154.302633 89.010275 
L 154.800477 89.010275 
L 154.800477 88.853904 
L 156.294009 88.853904 
L 156.294009 88.541162 
L 156.791853 88.541162 
L 156.791853 88.384792 
L 157.538619 88.384792 
L 157.538619 88.228421 
L 157.787541 88.228421 
L 157.787541 87.915679 
L 158.036463 87.915679 
L 158.036463 87.290196 
L 158.285385 87.290196 
L 158.285385 87.133825 
L 158.783229 87.133825 
L 158.783229 86.977454 
L 159.281073 86.977454 
L 159.281073 86.664713 
L 159.529995 86.664713 
L 159.529995 86.508342 
L 159.778917 86.508342 
L 159.778917 86.1956 
L 161.272449 86.1956 
L 161.272449 85.882859 
L 162.019216 85.882859 
L 162.019216 85.726488 
L 162.765982 85.726488 
L 162.765982 85.570117 
L 163.263826 85.570117 
L 163.263826 85.413746 
L 163.512748 85.413746 
L 163.512748 84.944634 
L 165.00628 84.944634 
L 165.00628 84.006409 
L 165.255202 84.006409 
L 165.255202 83.850038 
L 165.753046 83.850038 
L 165.753046 83.380926 
L 166.001968 83.380926 
L 166.001968 83.224555 
L 166.997656 83.224555 
L 166.997656 83.068184 
L 167.4955 83.068184 
L 167.4955 82.755443 
L 167.744422 82.755443 
L 167.744422 82.599072 
L 167.993344 82.599072 
L 167.993344 82.442701 
L 168.242266 82.442701 
L 168.242266 82.28633 
L 169.486877 82.28633 
L 169.486877 82.129959 
L 169.735799 82.129959 
L 169.735799 81.973589 
L 170.233643 81.973589 
L 170.233643 81.817218 
L 170.482565 81.817218 
L 170.482565 81.660847 
L 172.225019 81.660847 
L 172.225019 81.504476 
L 172.722863 81.504476 
L 172.722863 81.035364 
L 173.967473 81.035364 
L 173.967473 80.878993 
L 174.216395 80.878993 
L 174.216395 80.722622 
L 174.714239 80.722622 
L 174.714239 80.566251 
L 175.212083 80.566251 
L 175.212083 80.40988 
L 175.709927 80.40988 
L 175.709927 80.25351 
L 176.705616 80.25351 
L 176.705616 80.097139 
L 177.950226 80.097139 
L 177.950226 79.784397 
L 178.696992 79.784397 
L 178.696992 79.628026 
L 179.443758 79.628026 
L 179.443758 79.471656 
L 180.190524 79.471656 
L 180.190524 78.846172 
L 180.688368 78.846172 
L 180.688368 78.533431 
L 181.435134 78.533431 
L 181.435134 78.064318 
L 181.932978 78.064318 
L 181.932978 77.907947 
L 182.1819 77.907947 
L 182.1819 77.595206 
L 182.679744 77.595206 
L 182.679744 77.438835 
L 182.928666 77.438835 
L 182.928666 77.282464 
L 183.675432 77.282464 
L 183.675432 77.126093 
L 184.173277 77.126093 
L 184.173277 76.813352 
L 184.422199 76.813352 
L 184.422199 76.656981 
L 184.671121 76.656981 
L 184.671121 76.50061 
L 186.662497 76.50061 
L 186.662497 76.187869 
L 187.658185 76.187869 
L 187.658185 75.875127 
L 188.404951 75.875127 
L 188.404951 75.718756 
L 189.151717 75.718756 
L 189.151717 75.562385 
L 189.400639 75.562385 
L 189.400639 75.093273 
L 189.898483 75.093273 
L 189.898483 74.780531 
L 191.88986 74.780531 
L 191.88986 74.624161 
L 192.138782 74.624161 
L 192.138782 74.46779 
L 192.387704 74.46779 
L 192.387704 74.311419 
L 192.885548 74.311419 
L 192.885548 74.155048 
L 193.632314 74.155048 
L 193.632314 73.998677 
L 194.37908 73.998677 
L 194.37908 73.842306 
L 194.628002 73.842306 
L 194.628002 73.529565 
L 195.374768 73.529565 
L 195.374768 73.216823 
L 195.62369 73.216823 
L 195.62369 72.904082 
L 195.872612 72.904082 
L 195.872612 72.747711 
L 196.121534 72.747711 
L 196.121534 72.278598 
L 196.370456 72.278598 
L 196.370456 72.122228 
L 197.117222 72.122228 
L 197.117222 71.965857 
L 197.615066 71.965857 
L 197.615066 71.496744 
L 199.108598 71.496744 
L 199.108598 71.184003 
L 199.357521 71.184003 
L 199.357521 71.027632 
L 200.104287 71.027632 
L 200.104287 70.871261 
L 200.353209 70.871261 
L 200.353209 70.558519 
L 201.099975 70.558519 
L 201.099975 70.402149 
L 201.348897 70.402149 
L 201.348897 70.245778 
L 201.597819 70.245778 
L 201.597819 69.776665 
L 202.095663 69.776665 
L 202.095663 69.620295 
L 202.344585 69.620295 
L 202.344585 69.463924 
L 202.593507 69.463924 
L 202.593507 69.307553 
L 203.838117 69.307553 
L 203.838117 69.151182 
L 205.082727 69.151182 
L 205.082727 68.838441 
L 205.829493 68.838441 
L 205.829493 68.68207 
L 206.078415 68.68207 
L 206.078415 68.525699 
L 206.825182 68.525699 
L 206.825182 68.212957 
L 207.323026 68.212957 
L 207.323026 68.056587 
L 207.571948 68.056587 
L 207.571948 67.900216 
L 208.318714 67.900216 
L 208.318714 67.587474 
L 209.563324 67.587474 
L 209.563324 67.431103 
L 210.559012 67.431103 
L 210.559012 67.118362 
L 211.305778 67.118362 
L 211.305778 66.961991 
L 211.803622 66.961991 
L 211.803622 66.80562 
L 212.301466 66.80562 
L 212.301466 66.649249 
L 212.79931 66.649249 
L 212.79931 66.492878 
L 213.297154 66.492878 
L 213.297154 66.336508 
L 215.039609 66.336508 
L 215.039609 66.180137 
L 215.786375 66.180137 
L 215.786375 66.023766 
L 216.035297 66.023766 
L 216.035297 65.711024 
L 216.782063 65.711024 
L 216.782063 65.554654 
L 217.279907 65.554654 
L 217.279907 65.398283 
L 217.528829 65.398283 
L 217.528829 65.241912 
L 218.275595 65.241912 
L 218.275595 65.085541 
L 221.262659 65.085541 
L 221.262659 64.92917 
L 223.254036 64.92917 
L 223.254036 64.616429 
L 224.249724 64.616429 
L 224.249724 64.460058 
L 224.498646 64.460058 
L 224.498646 64.147316 
L 226.987866 64.147316 
L 226.987866 63.678204 
L 228.481398 63.678204 
L 228.481398 63.521833 
L 228.73032 63.521833 
L 228.73032 63.209091 
L 229.228164 63.209091 
L 229.228164 62.739979 
L 229.726009 62.739979 
L 229.726009 62.583608 
L 231.966307 62.583608 
L 231.966307 62.114496 
L 232.215229 62.114496 
L 232.215229 61.958125 
L 232.464151 61.958125 
L 232.464151 61.801754 
L 232.713073 61.801754 
L 232.713073 61.645383 
L 233.459839 61.645383 
L 233.459839 61.489013 
L 233.708761 61.489013 
L 233.708761 61.0199 
L 233.957683 61.0199 
L 233.957683 60.707159 
L 234.953371 60.707159 
L 234.953371 60.550788 
L 238.189358 60.550788 
L 238.189358 60.394417 
L 239.185046 60.394417 
L 239.185046 60.238046 
L 240.678578 60.238046 
L 240.678578 60.081675 
L 241.674266 60.081675 
L 241.674266 59.768934 
L 242.421032 59.768934 
L 242.421032 59.612563 
L 242.669954 59.612563 
L 242.669954 59.456192 
L 243.41672 59.456192 
L 243.41672 59.299821 
L 244.66133 59.299821 
L 244.66133 59.14345 
L 245.159175 59.14345 
L 245.159175 58.98708 
L 246.403785 58.98708 
L 246.403785 58.517967 
L 247.399473 58.517967 
L 247.399473 58.205226 
L 247.897317 58.205226 
L 247.897317 58.048855 
L 249.888693 58.048855 
L 249.888693 57.736113 
L 250.386537 57.736113 
L 250.386537 57.579742 
L 251.382225 57.579742 
L 251.382225 57.423372 
L 252.128991 57.423372 
L 252.128991 57.267001 
L 252.626836 57.267001 
L 252.626836 57.11063 
L 252.875758 57.11063 
L 252.875758 56.954259 
L 253.622524 56.954259 
L 253.622524 56.797888 
L 254.867134 56.797888 
L 254.867134 56.485147 
L 256.85851 56.485147 
L 256.85851 56.328776 
L 257.356354 56.328776 
L 257.356354 56.172405 
L 259.845574 56.172405 
L 259.845574 56.016034 
L 260.841263 56.016034 
L 260.841263 55.859663 
L 261.339107 55.859663 
L 261.339107 55.703293 
L 262.085873 55.703293 
L 262.085873 55.546922 
L 262.583717 55.546922 
L 262.583717 55.390551 
L 262.832639 55.390551 
L 262.832639 55.23418 
L 263.579405 55.23418 
L 263.579405 55.077809 
L 264.824015 55.077809 
L 264.824015 54.921439 
L 266.317547 54.921439 
L 266.317547 54.452326 
L 266.815391 54.452326 
L 266.815391 54.295955 
L 267.064313 54.295955 
L 267.064313 54.139585 
L 267.313235 54.139585 
L 267.313235 53.670472 
L 267.81108 53.670472 
L 267.81108 53.20136 
L 268.060002 53.20136 
L 268.060002 53.044989 
L 268.557846 53.044989 
L 268.557846 52.888618 
L 273.536286 52.888618 
L 273.536286 52.732247 
L 273.785208 52.732247 
L 273.785208 52.575876 
L 274.03413 52.575876 
L 274.03413 52.419506 
L 276.523351 52.419506 
L 276.523351 52.263135 
L 277.767961 52.263135 
L 277.767961 52.106764 
L 279.261493 52.106764 
L 279.261493 51.950393 
L 282.995324 51.950393 
L 282.995324 51.794022 
L 284.239934 51.794022 
L 284.239934 51.637652 
L 286.23131 51.637652 
L 286.23131 51.481281 
L 288.222686 51.481281 
L 288.222686 51.32491 
L 288.72053 51.32491 
L 288.72053 51.012168 
L 289.467296 51.012168 
L 289.467296 50.699427 
L 290.960829 50.699427 
L 290.960829 50.543056 
L 292.205439 50.543056 
L 292.205439 50.386685 
L 294.196815 50.386685 
L 294.196815 50.230314 
L 294.694659 50.230314 
L 294.694659 49.917573 
L 295.939269 49.917573 
L 295.939269 49.761202 
L 296.934957 49.761202 
L 296.934957 49.604831 
L 298.42849 49.604831 
L 298.42849 49.44846 
L 299.922022 49.44846 
L 299.922022 49.292089 
L 301.913398 49.292089 
L 301.913398 49.135719 
L 306.145073 49.135719 
L 306.145073 48.979348 
L 306.393995 48.979348 
L 306.393995 48.822977 
L 306.891839 48.822977 
L 306.891839 48.666606 
L 308.136449 48.666606 
L 308.136449 48.197494 
L 310.625669 48.197494 
L 310.625669 48.041123 
L 310.874591 48.041123 
L 310.874591 47.728381 
L 311.123513 47.728381 
L 311.123513 47.572011 
L 311.372435 47.572011 
L 311.372435 47.41564 
L 312.368123 47.41564 
L 312.368123 47.259269 
L 312.617045 47.259269 
L 312.617045 47.102898 
L 312.865967 47.102898 
L 312.865967 46.946527 
L 313.363812 46.946527 
L 313.363812 46.790157 
L 313.612734 46.790157 
L 313.612734 46.633786 
L 314.3595 46.633786 
L 314.3595 46.477415 
L 314.857344 46.477415 
L 314.857344 46.321044 
L 315.853032 46.321044 
L 315.853032 46.164673 
L 319.33794 46.164673 
L 319.33794 45.851932 
L 319.586862 45.851932 
L 319.586862 45.695561 
L 321.080395 45.695561 
L 321.080395 45.53919 
L 321.578239 45.53919 
L 321.578239 45.382819 
L 321.827161 45.382819 
L 321.827161 45.226448 
L 322.325005 45.226448 
L 322.325005 45.070078 
L 323.818537 45.070078 
L 323.818537 44.913707 
L 325.063147 44.913707 
L 325.063147 44.600965 
L 325.560991 44.600965 
L 325.560991 44.444594 
L 330.539432 44.444594 
L 330.539432 44.288224 
L 332.281886 44.288224 
L 332.281886 44.131853 
L 332.530808 44.131853 
L 332.530808 43.975482 
L 333.526496 43.975482 
L 333.526496 43.819111 
L 334.02434 43.819111 
L 334.02434 43.66274 
L 334.522184 43.66274 
L 334.522184 43.50637 
L 337.758171 43.50637 
L 337.758171 43.349999 
L 339.251703 43.349999 
L 339.251703 43.193628 
L 340.994157 43.193628 
L 340.994157 42.880886 
L 341.740923 42.880886 
L 341.740923 42.724516 
L 341.989845 42.724516 
L 341.989845 42.568145 
L 342.985533 42.568145 
L 342.985533 42.255403 
L 345.972598 42.255403 
L 345.972598 42.099032 
L 347.715052 42.099032 
L 347.715052 41.942661 
L 350.453194 41.942661 
L 350.453194 41.786291 
L 351.946727 41.786291 
L 351.946727 41.62992 
L 352.942415 41.62992 
L 352.942415 41.473549 
L 357.671933 41.473549 
L 357.671933 41.317178 
L 359.66331 41.317178 
L 359.66331 41.160807 
L 360.410076 41.160807 
L 360.410076 41.004437 
L 361.903608 41.004437 
L 361.903608 40.848066 
L 362.899296 40.848066 
L 362.899296 40.691695 
L 363.646062 40.691695 
L 363.646062 40.535324 
L 364.890672 40.535324 
L 364.890672 40.378953 
L 367.877737 40.378953 
L 367.877737 40.222583 
L 373.105099 40.222583 
L 373.105099 40.066212 
L 373.602943 40.066212 
L 373.602943 39.909841 
L 374.34971 39.909841 
L 374.34971 39.75347 
L 379.825994 39.75347 
L 379.825994 39.440729 
L 380.074916 39.440729 
L 380.074916 39.284358 
L 382.066293 39.284358 
L 382.066293 39.127987 
L 383.559825 39.127987 
L 383.559825 38.971616 
L 385.551201 38.971616 
L 385.551201 38.815245 
L 390.031798 38.815245 
L 390.031798 38.658875 
L 390.529642 38.658875 
L 390.529642 38.502504 
L 393.018862 38.502504 
L 393.018862 38.189762 
L 393.516706 38.189762 
L 393.516706 38.033391 
L 395.508082 38.033391 
L 395.508082 37.87702 
L 398.992991 37.87702 
L 398.992991 37.72065 
L 403.224665 37.72065 
L 403.224665 37.564279 
L 406.460652 37.564279 
L 406.460652 37.407908 
L 409.447716 37.407908 
L 409.447716 37.251537 
L 410.941248 37.251537 
L 410.941248 37.095166 
L 413.679391 37.095166 
L 413.679391 36.938796 
L 415.919689 36.938796 
L 415.919689 36.782425 
L 416.168611 36.782425 
L 416.168611 36.626054 
L 416.417533 36.626054 
L 416.417533 36.469683 
L 422.889506 36.469683 
L 422.889506 36.313312 
L 429.610401 36.313312 
L 429.610401 36.156942 
L 430.606089 36.156942 
L 430.606089 36.000571 
L 433.842075 36.000571 
L 433.842075 35.531458 
L 438.07375 35.531458 
L 438.07375 35.531458 
" clip-path="url(#p30a39a3c71)" style="fill: none; stroke: #008000; stroke-width: 1.5; stroke-linecap: square"/>
   </g>
   <g id="line2d_14">
    <path d="M 43.78125 299.798125 
L 438.07375 35.531458 
" clip-path="url(#p30a39a3c71)" style="fill: none; stroke-dasharray: 5.55,2.4; stroke-dashoffset: 0; stroke: #000000; stroke-width: 1.5"/>
   </g>
   <g id="patch_3">
    <path d="M 43.78125 299.798125 
L 43.78125 22.318125 
" style="fill: none; stroke: #000000; stroke-width: 0.8; stroke-linejoin: miter; stroke-linecap: square"/>
   </g>
   <g id="patch_4">
    <path d="M 438.07375 299.798125 
L 438.07375 22.318125 
" style="fill: none; stroke: #000000; stroke-width: 0.8; stroke-linejoin: miter; stroke-linecap: square"/>
   </g>
   <g id="patch_5">
    <path d="M 43.78125 299.798125 
L 438.07375 299.798125 
" style="fill: none; stroke: #000000; stroke-width: 0.8; stroke-linejoin: miter; stroke-linecap: square"/>
   </g>
   <g id="patch_6">
    <path d="M 43.78125 22.318125 
L 438.07375 22.318125 
" style="fill: none; stroke: #000000; stroke-width: 0.8; stroke-linejoin: miter; stroke-linecap: square"/>
   </g>
   <g id="text_15">
    <!-- ROC Curve -->
    <g transform="translate(208.236875 16.318125) scale(0.12 -0.12)">
     <defs>
      <path id="DejaVuSans-4f" d="M 2522 4238 
Q 1834 4238 1429 3725 
Q 1025 3213 1025 2328 
Q 1025 1447 1429 934 
Q 1834 422 2522 422 
Q 3209 422 3611 934 
Q 4013 1447 4013 2328 
Q 4013 3213 3611 3725 
Q 3209 4238 2522 4238 
z
M 2522 4750 
Q 3503 4750 4090 4092 
Q 4678 3434 4678 2328 
Q 4678 1225 4090 567 
Q 3503 -91 2522 -91 
Q 1538 -91 948 565 
Q 359 1222 359 2328 
Q 359 3434 948 4092 
Q 1538 4750 2522 4750 
z
" transform="scale(0.015625)"/>
      <path id="DejaVuSans-43" d="M 4122 4306 
L 4122 3641 
Q 3803 3938 3442 4084 
Q 3081 4231 2675 4231 
Q 1875 4231 1450 3742 
Q 1025 3253 1025 2328 
Q 1025 1406 1450 917 
Q 1875 428 2675 428 
Q 3081 428 3442 575 
Q 3803 722 4122 1019 
L 4122 359 
Q 3791 134 3420 21 
Q 3050 -91 2638 -91 
Q 1578 -91 968 557 
Q 359 1206 359 2328 
Q 359 3453 968 4101 
Q 1578 4750 2638 4750 
Q 3056 4750 3426 4639 
Q 3797 4528 4122 4306 
z
" transform="scale(0.015625)"/>
     </defs>
     <use xlink:href="#DejaVuSans-52"/>
     <use xlink:href="#DejaVuSans-4f" x="69.482422"/>
     <use xlink:href="#DejaVuSans-43" x="148.193359"/>
     <use xlink:href="#DejaVuSans-20" x="218.017578"/>
     <use xlink:href="#DejaVuSans-43" x="249.804688"/>
     <use xlink:href="#DejaVuSans-75" x="319.628906"/>
     <use xlink:href="#DejaVuSans-72" x="383.007812"/>
     <use xlink:href="#DejaVuSans-76" x="424.121094"/>
     <use xlink:href="#DejaVuSans-65" x="483.300781"/>
    </g>
   </g>
   <g id="legend_1">
    <g id="patch_7">
     <path d="M 308.131563 294.798125 
L 431.07375 294.798125 
Q 433.07375 294.798125 433.07375 292.798125 
L 433.07375 279.12 
Q 433.07375 277.12 431.07375 277.12 
L 308.131563 277.12 
Q 306.131563 277.12 306.131563 279.12 
L 306.131563 292.798125 
Q 306.131563 294.798125 308.131563 294.798125 
z
" style="fill: #ffffff; opacity: 0.8; stroke: #cccccc; stroke-linejoin: miter"/>
    </g>
    <g id="line2d_15">
     <path d="M 310.131563 285.218438 
L 320.131563 285.218438 
L 330.131563 285.218438 
" style="fill: none; stroke: #008000; stroke-width: 1.5; stroke-linecap: square"/>
    </g>
    <g id="text_16">
     <!-- SVM (AUC = 0.84) -->
     <g transform="translate(338.131563 288.718438) scale(0.1 -0.1)">
      <defs>
       <path id="DejaVuSans-53" d="M 3425 4513 
L 3425 3897 
Q 3066 4069 2747 4153 
Q 2428 4238 2131 4238 
Q 1616 4238 1336 4038 
Q 1056 3838 1056 3469 
Q 1056 3159 1242 3001 
Q 1428 2844 1947 2747 
L 2328 2669 
Q 3034 2534 3370 2195 
Q 3706 1856 3706 1288 
Q 3706 609 3251 259 
Q 2797 -91 1919 -91 
Q 1588 -91 1214 -16 
Q 841 59 441 206 
L 441 856 
Q 825 641 1194 531 
Q 1563 422 1919 422 
Q 2459 422 2753 634 
Q 3047 847 3047 1241 
Q 3047 1584 2836 1778 
Q 2625 1972 2144 2069 
L 1759 2144 
Q 1053 2284 737 2584 
Q 422 2884 422 3419 
Q 422 4038 858 4394 
Q 1294 4750 2059 4750 
Q 2388 4750 2728 4690 
Q 3069 4631 3425 4513 
z
" transform="scale(0.015625)"/>
       <path id="DejaVuSans-56" d="M 1831 0 
L 50 4666 
L 709 4666 
L 2188 738 
L 3669 4666 
L 4325 4666 
L 2547 0 
L 1831 0 
z
" transform="scale(0.015625)"/>
       <path id="DejaVuSans-4d" d="M 628 4666 
L 1569 4666 
L 2759 1491 
L 3956 4666 
L 4897 4666 
L 4897 0 
L 4281 0 
L 4281 4097 
L 3078 897 
L 2444 897 
L 1241 4097 
L 1241 0 
L 628 0 
L 628 4666 
z
" transform="scale(0.015625)"/>
       <path id="DejaVuSans-28" d="M 1984 4856 
Q 1566 4138 1362 3434 
Q 1159 2731 1159 2009 
Q 1159 1288 1364 580 
Q 1569 -128 1984 -844 
L 1484 -844 
Q 1016 -109 783 600 
Q 550 1309 550 2009 
Q 550 2706 781 3412 
Q 1013 4119 1484 4856 
L 1984 4856 
z
" transform="scale(0.015625)"/>
       <path id="DejaVuSans-41" d="M 2188 4044 
L 1331 1722 
L 3047 1722 
L 2188 4044 
z
M 1831 4666 
L 2547 4666 
L 4325 0 
L 3669 0 
L 3244 1197 
L 1141 1197 
L 716 0 
L 50 0 
L 1831 4666 
z
" transform="scale(0.015625)"/>
       <path id="DejaVuSans-55" d="M 556 4666 
L 1191 4666 
L 1191 1831 
Q 1191 1081 1462 751 
Q 1734 422 2344 422 
Q 2950 422 3222 751 
Q 3494 1081 3494 1831 
L 3494 4666 
L 4128 4666 
L 4128 1753 
Q 4128 841 3676 375 
Q 3225 -91 2344 -91 
Q 1459 -91 1007 375 
Q 556 841 556 1753 
L 556 4666 
z
" transform="scale(0.015625)"/>
       <path id="DejaVuSans-3d" d="M 678 2906 
L 4684 2906 
L 4684 2381 
L 678 2381 
L 678 2906 
z
M 678 1631 
L 4684 1631 
L 4684 1100 
L 678 1100 
L 678 1631 
z
" transform="scale(0.015625)"/>
       <path id="DejaVuSans-29" d="M 513 4856 
L 1013 4856 
Q 1481 4119 1714 3412 
Q 1947 2706 1947 2009 
Q 1947 1309 1714 600 
Q 1481 -109 1013 -844 
L 513 -844 
Q 928 -128 1133 580 
Q 1338 1288 1338 2009 
Q 1338 2731 1133 3434 
Q 928 4138 513 4856 
z
" transform="scale(0.015625)"/>
      </defs>
      <use xlink:href="#DejaVuSans-53"/>
      <use xlink:href="#DejaVuSans-56" x="63.476562"/>
      <use xlink:href="#DejaVuSans-4d" x="131.884766"/>
      <use xlink:href="#DejaVuSans-20" x="218.164062"/>
      <use xlink:href="#DejaVuSans-28" x="249.951172"/>
      <use xlink:href="#DejaVuSans-41" x="288.964844"/>
      <use xlink:href="#DejaVuSans-55" x="357.373047"/>
      <use xlink:href="#DejaVuSans-43" x="430.566406"/>
      <use xlink:href="#DejaVuSans-20" x="500.390625"/>
      <use xlink:href="#DejaVuSans-3d" x="532.177734"/>
      <use xlink:href="#DejaVuSans-20" x="615.966797"/>
      <use xlink:href="#DejaVuSans-30" x="647.753906"/>
      <use xlink:href="#DejaVuSans-2e" x="711.376953"/>
      <use xlink:href="#DejaVuSans-38" x="743.164062"/>
      <use xlink:href="#DejaVuSans-34" x="806.787109"/>
      <use xlink:href="#DejaVuSans-29" x="870.410156"/>
     </g>
    </g>
   </g>
  </g>
 </g>
 <defs>
  <clipPath id="p30a39a3c71">
   <rect x="43.78125" y="22.318125" width="394.2925" height="277.48"/>
  </clipPath>
 </defs>
</svg>
