<?xml version="1.0" encoding="utf-8" standalone="no"?>
<!DOCTYPE svg PUBLIC "-//W3C//DTD SVG 1.1//EN"
  "http://www.w3.org/Graphics/SVG/1.1/DTD/svg11.dtd">
<svg xmlns:xlink="http://www.w3.org/1999/xlink" width="453.225312pt" height="337.354375pt" viewBox="0 0 453.225312 337.354375" xmlns="http://www.w3.org/2000/svg" version="1.1">
 <metadata>
  <rdf:RDF xmlns:dc="http://purl.org/dc/elements/1.1/" xmlns:cc="http://creativecommons.org/ns#" xmlns:rdf="http://www.w3.org/1999/02/22-rdf-syntax-ns#">
   <cc:Work>
    <dc:type rdf:resource="http://purl.org/dc/dcmitype/StillImage"/>
    <dc:date>2025-11-08T22:44:54.780182</dc:date>
    <dc:format>image/svg+xml</dc:format>
    <dc:creator>
     <cc:Agent>
      <dc:title>Matplotlib v3.9.1, https://matplotlib.org/</dc:title>
     </cc:Agent>
    </dc:creator>
   </cc:Work>
  </rdf:RDF>
 </metadata>
 <defs>
  <style type="text/css">*{stroke-linejoin: round; stroke-linecap: butt}</style>
 </defs>
 <g id="figure_1">
  <g id="patch_1">
   <path d="M 0 337.354375 
L 453.225312 337.354375 
L 453.225312 0 
L 0 0 
z
" style="fill: #ffffff"/>
  </g>
  <g id="axes_1">
   <g id="patch_2">
    <path d="M 43.78125 299.798125 
L 438.07375 299.798125 
L 438.07375 22.318125 
L 43.78125 22.318125 
z
" style="fill: #ffffff"/>
   </g>
   <g id="matplotlib.axis_1">
    <g id="xtick_1">
     <g id="line2d_1">
      <defs>
       <path id="mc1c6eebaeb" d="M 0 0 
L 0 3.5 
" style="stroke: #000000; stroke-width: 0.8"/>
      </defs>
      <g>
       <use xlink:href="#mc1c6eebaeb" x="43.78125" y="299.798125" style="stroke: #000000; stroke-width: 0.8"/>
      </g>
     </g>
     <g id="text_1">
      <!-- 0.0 -->
      <g transform="translate(35.829688 314.396563) scale(0.1 -0.1)">
       <defs>
        <path id="DejaVuSans-30" d="M 2034 4250 
Q 1547 4250 1301 3770 
Q 1056 3291 1056 2328 
Q 1056 1369 1301 889 
Q 1547 409 2034 409 
Q 2525 409 2770 889 
Q 3016 1369 3016 2328 
Q 3016 3291 2770 3770 
Q 2525 4250 2034 4250 
z
M 2034 4750 
Q 2819 4750 3233 4129 
Q 3647 3509 3647 2328 
Q 3647 1150 3233 529 
Q 2819 -91 2034 -91 
Q 1250 -91 836 529 
Q 422 1150 422 2328 
Q 422 3509 836 4129 
Q 1250 4750 2034 4750 
z
" transform="scale(0.015625)"/>
        <path id="DejaVuSans-2e" d="M 684 794 
L 1344 794 
L 1344 0 
L 684 0 
L 684 794 
z
" transform="scale(0.015625)"/>
       </defs>
       <use xlink:href="#DejaVuSans-30"/>
       <use xlink:href="#DejaVuSans-2e" x="63.623047"/>
       <use xlink:href="#DejaVuSans-30" x="95.410156"/>
      </g>
     </g>
    </g>
    <g id="xtick_2">
     <g id="line2d_2">
      <g>
       <use xlink:href="#mc1c6eebaeb" x="122.63975" y="299.798125" style="stroke: #000000; stroke-width: 0.8"/>
      </g>
     </g>
     <g id="text_2">
      <!-- 0.2 -->
      <g transform="translate(114.688188 314.396563) scale(0.1 -0.1)">
       <defs>
        <path id="DejaVuSans-32" d="M 1228 531 
L 3431 531 
L 3431 0 
L 469 0 
L 469 531 
Q 828 903 1448 1529 
Q 2069 2156 2228 2338 
Q 2531 2678 2651 2914 
Q 2772 3150 2772 3378 
Q 2772 3750 2511 3984 
Q 2250 4219 1831 4219 
Q 1534 4219 1204 4116 
Q 875 4013 500 3803 
L 500 4441 
Q 881 4594 1212 4672 
Q 1544 4750 1819 4750 
Q 2544 4750 2975 4387 
Q 3406 4025 3406 3419 
Q 3406 3131 3298 2873 
Q 3191 2616 2906 2266 
Q 2828 2175 2409 1742 
Q 1991 1309 1228 531 
z
" transform="scale(0.015625)"/>
       </defs>
       <use xlink:href="#DejaVuSans-30"/>
       <use xlink:href="#DejaVuSans-2e" x="63.623047"/>
       <use xlink:href="#DejaVuSans-32" x="95.410156"/>
      </g>
     </g>
    </g>
    <g id="xtick_3">
     <g id="line2d_3">
      <g>
       <use xlink:href="#mc1c6eebaeb" x="201.49825" y="299.798125" style="stroke: #000000; stroke-width: 0.8"/>
      </g>
     </g>
     <g id="text_3">
      <!-- 0.4 -->
      <g transform="translate(193.546688 314.396563) scale(0.1 -0.1)">
       <defs>
        <path id="DejaVuSans-34" d="M 2419 4116 
L 825 1625 
L 2419 1625 
L 2419 4116 
z
M 2253 4666 
L 3047 4666 
L 3047 1625 
L 3713 1625 
L 3713 1100 
L 3047 1100 
L 3047 0 
L 2419 0 
L 2419 1100 
L 313 1100 
L 313 1709 
L 2253 4666 
z
" transform="scale(0.015625)"/>
       </defs>
       <use xlink:href="#DejaVuSans-30"/>
       <use xlink:href="#DejaVuSans-2e" x="63.623047"/>
       <use xlink:href="#DejaVuSans-34" x="95.410156"/>
      </g>
     </g>
    </g>
    <g id="xtick_4">
     <g id="line2d_4">
      <g>
       <use xlink:href="#mc1c6eebaeb" x="280.35675" y="299.798125" style="stroke: #000000; stroke-width: 0.8"/>
      </g>
     </g>
     <g id="text_4">
      <!-- 0.6 -->
      <g transform="translate(272.405188 314.396563) scale(0.1 -0.1)">
       <defs>
        <path id="DejaVuSans-36" d="M 2113 2584 
Q 1688 2584 1439 2293 
Q 1191 2003 1191 1497 
Q 1191 994 1439 701 
Q 1688 409 2113 409 
Q 2538 409 2786 701 
Q 3034 994 3034 1497 
Q 3034 2003 2786 2293 
Q 2538 2584 2113 2584 
z
M 3366 4563 
L 3366 3988 
Q 3128 4100 2886 4159 
Q 2644 4219 2406 4219 
Q 1781 4219 1451 3797 
Q 1122 3375 1075 2522 
Q 1259 2794 1537 2939 
Q 1816 3084 2150 3084 
Q 2853 3084 3261 2657 
Q 3669 2231 3669 1497 
Q 3669 778 3244 343 
Q 2819 -91 2113 -91 
Q 1303 -91 875 529 
Q 447 1150 447 2328 
Q 447 3434 972 4092 
Q 1497 4750 2381 4750 
Q 2619 4750 2861 4703 
Q 3103 4656 3366 4563 
z
" transform="scale(0.015625)"/>
       </defs>
       <use xlink:href="#DejaVuSans-30"/>
       <use xlink:href="#DejaVuSans-2e" x="63.623047"/>
       <use xlink:href="#DejaVuSans-36" x="95.410156"/>
      </g>
     </g>
    </g>
    <g id="xtick_5">
     <g id="line2d_5">
      <g>
       <use xlink:href="#mc1c6eebaeb" x="359.21525" y="299.798125" style="stroke: #000000; stroke-width: 0.8"/>
      </g>
     </g>
     <g id="text_5">
      <!-- 0.8 -->
      <g transform="translate(351.263688 314.396563) scale(0.1 -0.1)">
       <defs>
        <path id="DejaVuSans-38" d="M 2034 2216 
Q 1584 2216 1326 1975 
Q 1069 1734 1069 1313 
Q 1069 891 1326 650 
Q 1584 409 2034 409 
Q 2484 409 2743 651 
Q 3003 894 3003 1313 
Q 3003 1734 2745 1975 
Q 2488 2216 2034 2216 
z
M 1403 2484 
Q 997 2584 770 2862 
Q 544 3141 544 3541 
Q 544 4100 942 4425 
Q 1341 4750 2034 4750 
Q 2731 4750 3128 4425 
Q 3525 4100 3525 3541 
Q 3525 3141 3298 2862 
Q 3072 2584 2669 2484 
Q 3125 2378 3379 2068 
Q 3634 1759 3634 1313 
Q 3634 634 3220 271 
Q 2806 -91 2034 -91 
Q 1263 -91 848 271 
Q 434 634 434 1313 
Q 434 1759 690 2068 
Q 947 2378 1403 2484 
z
M 1172 3481 
Q 1172 3119 1398 2916 
Q 1625 2713 2034 2713 
Q 2441 2713 2670 2916 
Q 2900 3119 2900 3481 
Q 2900 3844 2670 4047 
Q 2441 4250 2034 4250 
Q 1625 4250 1398 4047 
Q 1172 3844 1172 3481 
z
" transform="scale(0.015625)"/>
       </defs>
       <use xlink:href="#DejaVuSans-30"/>
       <use xlink:href="#DejaVuSans-2e" x="63.623047"/>
       <use xlink:href="#DejaVuSans-38" x="95.410156"/>
      </g>
     </g>
    </g>
    <g id="xtick_6">
     <g id="line2d_6">
      <g>
       <use xlink:href="#mc1c6eebaeb" x="438.07375" y="299.798125" style="stroke: #000000; stroke-width: 0.8"/>
      </g>
     </g>
     <g id="text_6">
      <!-- 1.0 -->
      <g transform="translate(430.122187 314.396563) scale(0.1 -0.1)">
       <defs>
        <path id="DejaVuSans-31" d="M 794 531 
L 1825 531 
L 1825 4091 
L 703 3866 
L 703 4441 
L 1819 4666 
L 2450 4666 
L 2450 531 
L 3481 531 
L 3481 0 
L 794 0 
L 794 531 
z
" transform="scale(0.015625)"/>
       </defs>
       <use xlink:href="#DejaVuSans-31"/>
       <use xlink:href="#DejaVuSans-2e" x="63.623047"/>
       <use xlink:href="#DejaVuSans-30" x="95.410156"/>
      </g>
     </g>
    </g>
    <g id="text_7">
     <!-- False Positive Rate -->
     <g transform="translate(194.461094 328.074688) scale(0.1 -0.1)">
      <defs>
       <path id="DejaVuSans-46" d="M 628 4666 
L 3309 4666 
L 3309 4134 
L 1259 4134 
L 1259 2759 
L 3109 2759 
L 3109 2228 
L 1259 2228 
L 1259 0 
L 628 0 
L 628 4666 
z
" transform="scale(0.015625)"/>
       <path id="DejaVuSans-61" d="M 2194 1759 
Q 1497 1759 1228 1600 
Q 959 1441 959 1056 
Q 959 750 1161 570 
Q 1363 391 1709 391 
Q 2188 391 2477 730 
Q 2766 1069 2766 1631 
L 2766 1759 
L 2194 1759 
z
M 3341 1997 
L 3341 0 
L 2766 0 
L 2766 531 
Q 2569 213 2275 61 
Q 1981 -91 1556 -91 
Q 1019 -91 701 211 
Q 384 513 384 1019 
Q 384 1609 779 1909 
Q 1175 2209 1959 2209 
L 2766 2209 
L 2766 2266 
Q 2766 2663 2505 2880 
Q 2244 3097 1772 3097 
Q 1472 3097 1187 3025 
Q 903 2953 641 2809 
L 641 3341 
Q 956 3463 1253 3523 
Q 1550 3584 1831 3584 
Q 2591 3584 2966 3190 
Q 3341 2797 3341 1997 
z
" transform="scale(0.015625)"/>
       <path id="DejaVuSans-6c" d="M 603 4863 
L 1178 4863 
L 1178 0 
L 603 0 
L 603 4863 
z
" transform="scale(0.015625)"/>
       <path id="DejaVuSans-73" d="M 2834 3397 
L 2834 2853 
Q 2591 2978 2328 3040 
Q 2066 3103 1784 3103 
Q 1356 3103 1142 2972 
Q 928 2841 928 2578 
Q 928 2378 1081 2264 
Q 1234 2150 1697 2047 
L 1894 2003 
Q 2506 1872 2764 1633 
Q 3022 1394 3022 966 
Q 3022 478 2636 193 
Q 2250 -91 1575 -91 
Q 1294 -91 989 -36 
Q 684 19 347 128 
L 347 722 
Q 666 556 975 473 
Q 1284 391 1588 391 
Q 1994 391 2212 530 
Q 2431 669 2431 922 
Q 2431 1156 2273 1281 
Q 2116 1406 1581 1522 
L 1381 1569 
Q 847 1681 609 1914 
Q 372 2147 372 2553 
Q 372 3047 722 3315 
Q 1072 3584 1716 3584 
Q 2034 3584 2315 3537 
Q 2597 3491 2834 3397 
z
" transform="scale(0.015625)"/>
       <path id="DejaVuSans-65" d="M 3597 1894 
L 3597 1613 
L 953 1613 
Q 991 1019 1311 708 
Q 1631 397 2203 397 
Q 2534 397 2845 478 
Q 3156 559 3463 722 
L 3463 178 
Q 3153 47 2828 -22 
Q 2503 -91 2169 -91 
Q 1331 -91 842 396 
Q 353 884 353 1716 
Q 353 2575 817 3079 
Q 1281 3584 2069 3584 
Q 2775 3584 3186 3129 
Q 3597 2675 3597 1894 
z
M 3022 2063 
Q 3016 2534 2758 2815 
Q 2500 3097 2075 3097 
Q 1594 3097 1305 2825 
Q 1016 2553 972 2059 
L 3022 2063 
z
" transform="scale(0.015625)"/>
       <path id="DejaVuSans-20" transform="scale(0.015625)"/>
       <path id="DejaVuSans-50" d="M 1259 4147 
L 1259 2394 
L 2053 2394 
Q 2494 2394 2734 2622 
Q 2975 2850 2975 3272 
Q 2975 3691 2734 3919 
Q 2494 4147 2053 4147 
L 1259 4147 
z
M 628 4666 
L 2053 4666 
Q 2838 4666 3239 4311 
Q 3641 3956 3641 3272 
Q 3641 2581 3239 2228 
Q 2838 1875 2053 1875 
L 1259 1875 
L 1259 0 
L 628 0 
L 628 4666 
z
" transform="scale(0.015625)"/>
       <path id="DejaVuSans-6f" d="M 1959 3097 
Q 1497 3097 1228 2736 
Q 959 2375 959 1747 
Q 959 1119 1226 758 
Q 1494 397 1959 397 
Q 2419 397 2687 759 
Q 2956 1122 2956 1747 
Q 2956 2369 2687 2733 
Q 2419 3097 1959 3097 
z
M 1959 3584 
Q 2709 3584 3137 3096 
Q 3566 2609 3566 1747 
Q 3566 888 3137 398 
Q 2709 -91 1959 -91 
Q 1206 -91 779 398 
Q 353 888 353 1747 
Q 353 2609 779 3096 
Q 1206 3584 1959 3584 
z
" transform="scale(0.015625)"/>
       <path id="DejaVuSans-69" d="M 603 3500 
L 1178 3500 
L 1178 0 
L 603 0 
L 603 3500 
z
M 603 4863 
L 1178 4863 
L 1178 4134 
L 603 4134 
L 603 4863 
z
" transform="scale(0.015625)"/>
       <path id="DejaVuSans-74" d="M 1172 4494 
L 1172 3500 
L 2356 3500 
L 2356 3053 
L 1172 3053 
L 1172 1153 
Q 1172 725 1289 603 
Q 1406 481 1766 481 
L 2356 481 
L 2356 0 
L 1766 0 
Q 1100 0 847 248 
Q 594 497 594 1153 
L 594 3053 
L 172 3053 
L 172 3500 
L 594 3500 
L 594 4494 
L 1172 4494 
z
" transform="scale(0.015625)"/>
       <path id="DejaVuSans-76" d="M 191 3500 
L 800 3500 
L 1894 563 
L 2988 3500 
L 3597 3500 
L 2284 0 
L 1503 0 
L 191 3500 
z
" transform="scale(0.015625)"/>
       <path id="DejaVuSans-52" d="M 2841 2188 
Q 3044 2119 3236 1894 
Q 3428 1669 3622 1275 
L 4263 0 
L 3584 0 
L 2988 1197 
Q 2756 1666 2539 1819 
Q 2322 1972 1947 1972 
L 1259 1972 
L 1259 0 
L 628 0 
L 628 4666 
L 2053 4666 
Q 2853 4666 3247 4331 
Q 3641 3997 3641 3322 
Q 3641 2881 3436 2590 
Q 3231 2300 2841 2188 
z
M 1259 4147 
L 1259 2491 
L 2053 2491 
Q 2509 2491 2742 2702 
Q 2975 2913 2975 3322 
Q 2975 3731 2742 3939 
Q 2509 4147 2053 4147 
L 1259 4147 
z
" transform="scale(0.015625)"/>
      </defs>
      <use xlink:href="#DejaVuSans-46"/>
      <use xlink:href="#DejaVuSans-61" x="48.394531"/>
      <use xlink:href="#DejaVuSans-6c" x="109.673828"/>
      <use xlink:href="#DejaVuSans-73" x="137.457031"/>
      <use xlink:href="#DejaVuSans-65" x="189.556641"/>
      <use xlink:href="#DejaVuSans-20" x="251.080078"/>
      <use xlink:href="#DejaVuSans-50" x="282.867188"/>
      <use xlink:href="#DejaVuSans-6f" x="339.544922"/>
      <use xlink:href="#DejaVuSans-73" x="400.726562"/>
      <use xlink:href="#DejaVuSans-69" x="452.826172"/>
      <use xlink:href="#DejaVuSans-74" x="480.609375"/>
      <use xlink:href="#DejaVuSans-69" x="519.818359"/>
      <use xlink:href="#DejaVuSans-76" x="547.601562"/>
      <use xlink:href="#DejaVuSans-65" x="606.78125"/>
      <use xlink:href="#DejaVuSans-20" x="668.304688"/>
      <use xlink:href="#DejaVuSans-52" x="700.091797"/>
      <use xlink:href="#DejaVuSans-61" x="767.324219"/>
      <use xlink:href="#DejaVuSans-74" x="828.603516"/>
      <use xlink:href="#DejaVuSans-65" x="867.8125"/>
     </g>
    </g>
   </g>
   <g id="matplotlib.axis_2">
    <g id="ytick_1">
     <g id="line2d_7">
      <defs>
       <path id="m25a47619bb" d="M 0 0 
L -3.5 0 
" style="stroke: #000000; stroke-width: 0.8"/>
      </defs>
      <g>
       <use xlink:href="#m25a47619bb" x="43.78125" y="299.798125" style="stroke: #000000; stroke-width: 0.8"/>
      </g>
     </g>
     <g id="text_8">
      <!-- 0.0 -->
      <g transform="translate(20.878125 303.597344) scale(0.1 -0.1)">
       <use xlink:href="#DejaVuSans-30"/>
       <use xlink:href="#DejaVuSans-2e" x="63.623047"/>
       <use xlink:href="#DejaVuSans-30" x="95.410156"/>
      </g>
     </g>
    </g>
    <g id="ytick_2">
     <g id="line2d_8">
      <g>
       <use xlink:href="#m25a47619bb" x="43.78125" y="246.944792" style="stroke: #000000; stroke-width: 0.8"/>
      </g>
     </g>
     <g id="text_9">
      <!-- 0.2 -->
      <g transform="translate(20.878125 250.74401) scale(0.1 -0.1)">
       <use xlink:href="#DejaVuSans-30"/>
       <use xlink:href="#DejaVuSans-2e" x="63.623047"/>
       <use xlink:href="#DejaVuSans-32" x="95.410156"/>
      </g>
     </g>
    </g>
    <g id="ytick_3">
     <g id="line2d_9">
      <g>
       <use xlink:href="#m25a47619bb" x="43.78125" y="194.091458" style="stroke: #000000; stroke-width: 0.8"/>
      </g>
     </g>
     <g id="text_10">
      <!-- 0.4 -->
      <g transform="translate(20.878125 197.890677) scale(0.1 -0.1)">
       <use xlink:href="#DejaVuSans-30"/>
       <use xlink:href="#DejaVuSans-2e" x="63.623047"/>
       <use xlink:href="#DejaVuSans-34" x="95.410156"/>
      </g>
     </g>
    </g>
    <g id="ytick_4">
     <g id="line2d_10">
      <g>
       <use xlink:href="#m25a47619bb" x="43.78125" y="141.238125" style="stroke: #000000; stroke-width: 0.8"/>
      </g>
     </g>
     <g id="text_11">
      <!-- 0.6 -->
      <g transform="translate(20.878125 145.037344) scale(0.1 -0.1)">
       <use xlink:href="#DejaVuSans-30"/>
       <use xlink:href="#DejaVuSans-2e" x="63.623047"/>
       <use xlink:href="#DejaVuSans-36" x="95.410156"/>
      </g>
     </g>
    </g>
    <g id="ytick_5">
     <g id="line2d_11">
      <g>
       <use xlink:href="#m25a47619bb" x="43.78125" y="88.384792" style="stroke: #000000; stroke-width: 0.8"/>
      </g>
     </g>
     <g id="text_12">
      <!-- 0.8 -->
      <g transform="translate(20.878125 92.18401) scale(0.1 -0.1)">
       <use xlink:href="#DejaVuSans-30"/>
       <use xlink:href="#DejaVuSans-2e" x="63.623047"/>
       <use xlink:href="#DejaVuSans-38" x="95.410156"/>
      </g>
     </g>
    </g>
    <g id="ytick_6">
     <g id="line2d_12">
      <g>
       <use xlink:href="#m25a47619bb" x="43.78125" y="35.531458" style="stroke: #000000; stroke-width: 0.8"/>
      </g>
     </g>
     <g id="text_13">
      <!-- 1.0 -->
      <g transform="translate(20.878125 39.330677) scale(0.1 -0.1)">
       <use xlink:href="#DejaVuSans-31"/>
       <use xlink:href="#DejaVuSans-2e" x="63.623047"/>
       <use xlink:href="#DejaVuSans-30" x="95.410156"/>
      </g>
     </g>
    </g>
    <g id="text_14">
     <!-- True Positive Rate -->
     <g transform="translate(14.798438 205.587813) rotate(-90) scale(0.1 -0.1)">
      <defs>
       <path id="DejaVuSans-54" d="M -19 4666 
L 3928 4666 
L 3928 4134 
L 2272 4134 
L 2272 0 
L 1638 0 
L 1638 4134 
L -19 4134 
L -19 4666 
z
" transform="scale(0.015625)"/>
       <path id="DejaVuSans-72" d="M 2631 2963 
Q 2534 3019 2420 3045 
Q 2306 3072 2169 3072 
Q 1681 3072 1420 2755 
Q 1159 2438 1159 1844 
L 1159 0 
L 581 0 
L 581 3500 
L 1159 3500 
L 1159 2956 
Q 1341 3275 1631 3429 
Q 1922 3584 2338 3584 
Q 2397 3584 2469 3576 
Q 2541 3569 2628 3553 
L 2631 2963 
z
" transform="scale(0.015625)"/>
       <path id="DejaVuSans-75" d="M 544 1381 
L 544 3500 
L 1119 3500 
L 1119 1403 
Q 1119 906 1312 657 
Q 1506 409 1894 409 
Q 2359 409 2629 706 
Q 2900 1003 2900 1516 
L 2900 3500 
L 3475 3500 
L 3475 0 
L 2900 0 
L 2900 538 
Q 2691 219 2414 64 
Q 2138 -91 1772 -91 
Q 1169 -91 856 284 
Q 544 659 544 1381 
z
M 1991 3584 
L 1991 3584 
z
" transform="scale(0.015625)"/>
      </defs>
      <use xlink:href="#DejaVuSans-54"/>
      <use xlink:href="#DejaVuSans-72" x="46.333984"/>
      <use xlink:href="#DejaVuSans-75" x="87.447266"/>
      <use xlink:href="#DejaVuSans-65" x="150.826172"/>
      <use xlink:href="#DejaVuSans-20" x="212.349609"/>
      <use xlink:href="#DejaVuSans-50" x="244.136719"/>
      <use xlink:href="#DejaVuSans-6f" x="300.814453"/>
      <use xlink:href="#DejaVuSans-73" x="361.996094"/>
      <use xlink:href="#DejaVuSans-69" x="414.095703"/>
      <use xlink:href="#DejaVuSans-74" x="441.878906"/>
      <use xlink:href="#DejaVuSans-69" x="481.087891"/>
      <use xlink:href="#DejaVuSans-76" x="508.871094"/>
      <use xlink:href="#DejaVuSans-65" x="568.050781"/>
      <use xlink:href="#DejaVuSans-20" x="629.574219"/>
      <use xlink:href="#DejaVuSans-52" x="661.361328"/>
      <use xlink:href="#DejaVuSans-61" x="728.59375"/>
      <use xlink:href="#DejaVuSans-74" x="789.873047"/>
      <use xlink:href="#DejaVuSans-65" x="829.082031"/>
     </g>
    </g>
   </g>
   <g id="line2d_13">
    <path d="M 43.78125 299.798125 
L 43.78125 293.230551 
L 43.967942 293.230551 
L 43.967942 291.197731 
L 44.154633 291.197731 
L 44.154633 290.884989 
L 44.341325 290.884989 
L 44.341325 272.120492 
L 44.528016 272.120492 
L 44.528016 267.272997 
L 44.714708 267.272997 
L 44.714708 256.014299 
L 44.901399 256.014299 
L 44.901399 251.166804 
L 45.088091 251.166804 
L 45.088091 249.915837 
L 45.274782 249.915837 
L 45.274782 246.162938 
L 45.461474 246.162938 
L 45.461474 239.438993 
L 45.648165 239.438993 
L 45.648165 236.93706 
L 45.834857 236.93706 
L 45.834857 231.776823 
L 46.021548 231.776823 
L 46.021548 229.118519 
L 46.20824 229.118519 
L 46.20824 219.423529 
L 46.394931 219.423529 
L 46.394931 218.641675 
L 46.581623 218.641675 
L 46.581623 210.510393 
L 46.768314 210.510393 
L 46.768314 209.88491 
L 46.955006 209.88491 
L 46.955006 207.539348 
L 47.141697 207.539348 
L 47.141697 205.350157 
L 47.328389 205.350157 
L 47.328389 204.411932 
L 47.51508 204.411932 
L 47.51508 203.786448 
L 47.701772 203.786448 
L 47.701772 202.22274 
L 47.888464 202.22274 
L 47.888464 198.626212 
L 48.075155 198.626212 
L 48.075155 198.31347 
L 48.261847 198.31347 
L 48.261847 191.276784 
L 48.448538 191.276784 
L 48.448538 190.182188 
L 48.63523 190.182188 
L 48.63523 189.243963 
L 48.821921 189.243963 
L 48.821921 180.643569 
L 49.008613 180.643569 
L 49.008613 179.548973 
L 49.195304 179.548973 
L 49.195304 176.734299 
L 49.381996 176.734299 
L 49.381996 176.421557 
L 49.755379 176.421557 
L 49.755379 173.450512 
L 49.94207 173.450512 
L 49.94207 172.199545 
L 50.128762 172.199545 
L 50.128762 172.043174 
L 50.502145 172.043174 
L 50.502145 171.886804 
L 50.688836 171.886804 
L 50.688836 169.697612 
L 50.875528 169.697612 
L 50.875528 167.508421 
L 51.248911 167.508421 
L 51.248911 166.882938 
L 51.435603 166.882938 
L 51.435603 162.191813 
L 51.622294 162.191813 
L 51.622294 161.722701 
L 51.808986 161.722701 
L 51.808986 159.064397 
L 51.995677 159.064397 
L 51.995677 158.126172 
L 52.182369 158.126172 
L 52.182369 153.278677 
L 52.36906 153.278677 
L 52.36906 153.122306 
L 52.742443 153.122306 
L 52.742443 152.653194 
L 53.862592 152.653194 
L 53.862592 151.87134 
L 54.235975 151.87134 
L 54.235975 151.245857 
L 54.422667 151.245857 
L 54.422667 151.089486 
L 54.609358 151.089486 
L 54.609358 150.933115 
L 54.79605 150.933115 
L 54.79605 150.620374 
L 54.982741 150.620374 
L 54.982741 150.307632 
L 55.169433 150.307632 
L 55.169433 150.151261 
L 55.356125 150.151261 
L 55.356125 149.682149 
L 55.542816 149.682149 
L 55.542816 149.056665 
L 55.729508 149.056665 
L 55.729508 148.431182 
L 55.916199 148.431182 
L 55.916199 147.492957 
L 56.102891 147.492957 
L 56.102891 145.460137 
L 56.289582 145.460137 
L 56.289582 145.147395 
L 56.476274 145.147395 
L 56.476274 144.678283 
L 56.662965 144.678283 
L 56.662965 143.427316 
L 57.036348 143.427316 
L 57.036348 143.270946 
L 57.409731 143.270946 
L 57.409731 142.332721 
L 57.596423 142.332721 
L 57.596423 140.769013 
L 57.783114 140.769013 
L 57.783114 140.2999 
L 57.969806 140.2999 
L 57.969806 139.361675 
L 58.156497 139.361675 
L 58.156497 137.641596 
L 58.343189 137.641596 
L 58.343189 134.357809 
L 58.52988 134.357809 
L 58.52988 132.168618 
L 58.716572 132.168618 
L 58.716572 131.543135 
L 58.903263 131.543135 
L 58.903263 130.917652 
L 59.276647 130.917652 
L 59.276647 129.979427 
L 59.65003 129.979427 
L 59.65003 129.353944 
L 59.836721 129.353944 
L 59.836721 129.041202 
L 60.023413 129.041202 
L 60.023413 128.415719 
L 60.210104 128.415719 
L 60.210104 128.259348 
L 60.396796 128.259348 
L 60.396796 128.102977 
L 60.583487 128.102977 
L 60.583487 127.790235 
L 60.770179 127.790235 
L 60.770179 127.477494 
L 60.95687 127.477494 
L 60.95687 126.852011 
L 61.143562 126.852011 
L 61.143562 126.382898 
L 61.330253 126.382898 
L 61.330253 125.444673 
L 61.516945 125.444673 
L 61.516945 124.975561 
L 61.703636 124.975561 
L 61.703636 124.506448 
L 61.890328 124.506448 
L 61.890328 123.568224 
L 62.077019 123.568224 
L 62.077019 122.629999 
L 62.263711 122.629999 
L 62.263711 122.160886 
L 62.450402 122.160886 
L 62.450402 121.691774 
L 62.637094 121.691774 
L 62.637094 120.440807 
L 62.823786 120.440807 
L 62.823786 119.815324 
L 63.010477 119.815324 
L 63.010477 119.03347 
L 63.38386 119.03347 
L 63.38386 118.564358 
L 63.570552 118.564358 
L 63.570552 115.436942 
L 63.757243 115.436942 
L 63.757243 114.655088 
L 63.943935 114.655088 
L 63.943935 114.185975 
L 64.130626 114.185975 
L 64.130626 113.873233 
L 64.690701 113.873233 
L 64.690701 112.778638 
L 64.877392 112.778638 
L 64.877392 112.622267 
L 65.064084 112.622267 
L 65.064084 111.840413 
L 65.250775 111.840413 
L 65.250775 111.527671 
L 65.437467 111.527671 
L 65.437467 109.651222 
L 65.624158 109.651222 
L 65.624158 109.182109 
L 65.997541 109.182109 
L 65.997541 108.556626 
L 66.184233 108.556626 
L 66.184233 108.400255 
L 66.370924 108.400255 
L 66.370924 108.087514 
L 66.744308 108.087514 
L 66.744308 107.30566 
L 66.930999 107.30566 
L 66.930999 106.523805 
L 67.117691 106.523805 
L 67.117691 106.367435 
L 67.304382 106.367435 
L 67.304382 106.211064 
L 67.677765 106.211064 
L 67.677765 105.116468 
L 67.864457 105.116468 
L 67.864457 104.178243 
L 68.051148 104.178243 
L 68.051148 103.865502 
L 68.23784 103.865502 
L 68.23784 103.709131 
L 68.611223 103.709131 
L 68.611223 103.55276 
L 68.797914 103.55276 
L 68.797914 103.396389 
L 69.171297 103.396389 
L 69.171297 103.240018 
L 69.357989 103.240018 
L 69.357989 102.301794 
L 69.731372 102.301794 
L 69.731372 101.832681 
L 70.291446 101.832681 
L 70.291446 101.51994 
L 70.478138 101.51994 
L 70.478138 101.363569 
L 70.851521 101.363569 
L 70.851521 100.894456 
L 71.224904 100.894456 
L 71.224904 100.112602 
L 71.411596 100.112602 
L 71.411596 99.956232 
L 71.598287 99.956232 
L 71.598287 99.799861 
L 71.784979 99.799861 
L 71.784979 99.64349 
L 71.97167 99.64349 
L 71.97167 99.330748 
L 72.345053 99.330748 
L 72.345053 99.174377 
L 72.718436 99.174377 
L 72.718436 97.76704 
L 73.091819 97.76704 
L 73.091819 97.610669 
L 73.278511 97.610669 
L 73.278511 97.454299 
L 73.465202 97.454299 
L 73.465202 97.297928 
L 73.651894 97.297928 
L 73.651894 96.828815 
L 73.838585 96.828815 
L 73.838585 96.359703 
L 74.025277 96.359703 
L 74.025277 95.89059 
L 74.211969 95.89059 
L 74.211969 94.795995 
L 74.39866 94.795995 
L 74.39866 94.483253 
L 75.145426 94.483253 
L 75.145426 93.545028 
L 75.332118 93.545028 
L 75.332118 93.388658 
L 75.518809 93.388658 
L 75.518809 93.232287 
L 75.705501 93.232287 
L 75.705501 92.294062 
L 75.892192 92.294062 
L 75.892192 92.137691 
L 76.078884 92.137691 
L 76.078884 91.824949 
L 76.638958 91.824949 
L 76.638958 91.355837 
L 77.199033 91.355837 
L 77.199033 91.043095 
L 77.945799 91.043095 
L 77.945799 90.730354 
L 78.132491 90.730354 
L 78.132491 90.417612 
L 78.319182 90.417612 
L 78.319182 89.792129 
L 79.065948 89.792129 
L 79.065948 89.166646 
L 79.25264 89.166646 
L 79.25264 88.697533 
L 79.439331 88.697533 
L 79.439331 88.384792 
L 79.999406 88.384792 
L 79.999406 88.228421 
L 80.186097 88.228421 
L 80.186097 88.07205 
L 80.372789 88.07205 
L 80.372789 87.915679 
L 80.55948 87.915679 
L 80.55948 87.602938 
L 80.746172 87.602938 
L 80.746172 87.446567 
L 81.306246 87.446567 
L 81.306246 87.290196 
L 82.053013 87.290196 
L 82.053013 87.133825 
L 82.239704 87.133825 
L 82.239704 86.977454 
L 82.799779 86.977454 
L 82.799779 86.821084 
L 83.173162 86.821084 
L 83.173162 86.508342 
L 83.359853 86.508342 
L 83.359853 86.03923 
L 83.546545 86.03923 
L 83.546545 84.944634 
L 83.733236 84.944634 
L 83.733236 84.788263 
L 84.106619 84.788263 
L 84.106619 83.850038 
L 84.293311 83.850038 
L 84.293311 83.224555 
L 84.480002 83.224555 
L 84.480002 82.755443 
L 84.666694 82.755443 
L 84.666694 82.599072 
L 85.040077 82.599072 
L 85.040077 82.28633 
L 85.226768 82.28633 
L 85.226768 82.129959 
L 85.973535 82.129959 
L 85.973535 81.973589 
L 86.160226 81.973589 
L 86.160226 81.348105 
L 86.346918 81.348105 
L 86.346918 81.191734 
L 86.720301 81.191734 
L 86.720301 81.035364 
L 88.400524 81.035364 
L 88.400524 80.566251 
L 88.587216 80.566251 
L 88.587216 80.40988 
L 88.773907 80.40988 
L 88.773907 80.25351 
L 88.960599 80.25351 
L 88.960599 79.940768 
L 89.14729 79.940768 
L 89.14729 79.315285 
L 89.333982 79.315285 
L 89.333982 79.158914 
L 89.520674 79.158914 
L 89.520674 78.846172 
L 89.894057 78.846172 
L 89.894057 78.689802 
L 90.454131 78.689802 
L 90.454131 78.220689 
L 90.640823 78.220689 
L 90.640823 78.064318 
L 91.014206 78.064318 
L 91.014206 77.751577 
L 91.387589 77.751577 
L 91.387589 77.595206 
L 91.760972 77.595206 
L 93.627887 76.187869 
L 93.814579 76.187869 
L 93.814579 76.031498 
L 94.374653 76.031498 
L 94.374653 75.875127 
L 94.934728 75.875127 
L 94.934728 75.562385 
L 95.121419 75.562385 
L 95.121419 75.406015 
L 95.308111 75.406015 
L 95.308111 75.249644 
L 95.494802 75.249644 
L 95.494802 75.093273 
L 97.175026 75.093273 
L 97.175026 74.936902 
L 97.921792 74.936902 
L 97.921792 74.780531 
L 98.481867 74.780531 
L 98.481867 74.624161 
L 98.668558 74.624161 
L 98.668558 74.155048 
L 99.228633 74.155048 
L 99.228633 73.842306 
L 99.602016 73.842306 
L 99.602016 73.529565 
L 99.788707 73.529565 
L 99.788707 73.373194 
L 100.16209 73.373194 
L 100.16209 73.060452 
L 100.535473 73.060452 
L 100.535473 72.904082 
L 101.095548 72.904082 
L 101.095548 72.434969 
L 101.28224 72.434969 
L 101.28224 72.278598 
L 101.468931 72.278598 
L 101.468931 72.122228 
L 101.655623 72.122228 
L 101.655623 71.965857 
L 101.842314 71.965857 
L 101.842314 71.809486 
L 102.029006 71.809486 
L 102.029006 71.184003 
L 102.402389 71.184003 
L 102.402389 70.71489 
L 102.58908 70.71489 
L 102.58908 70.402149 
L 102.775772 70.402149 
L 102.775772 70.089407 
L 103.149155 70.089407 
L 103.149155 69.776665 
L 103.335846 69.776665 
L 103.335846 69.463924 
L 103.895921 69.463924 
L 103.895921 69.151182 
L 104.082612 69.151182 
L 104.082612 68.994811 
L 104.269304 68.994811 
L 104.269304 68.838441 
L 104.642687 68.838441 
L 104.642687 68.68207 
L 104.829379 68.68207 
L 104.829379 68.369328 
L 105.762836 68.369328 
L 105.762836 68.212957 
L 105.949528 68.212957 
L 105.949528 68.056587 
L 106.322911 68.056587 
L 106.322911 67.900216 
L 107.069677 67.900216 
L 107.069677 67.587474 
L 107.256368 67.587474 
L 107.256368 67.118362 
L 107.44306 67.118362 
L 107.44306 66.80562 
L 108.563209 66.80562 
L 108.563209 66.649249 
L 109.496667 66.649249 
L 109.496667 66.492878 
L 110.056741 66.492878 
L 110.056741 66.336508 
L 110.803507 66.336508 
L 110.803507 66.023766 
L 110.990199 66.023766 
L 110.990199 65.554654 
L 111.923656 65.554654 
L 111.923656 65.241912 
L 112.29704 65.241912 
L 112.29704 65.085541 
L 113.230497 65.085541 
L 113.230497 64.92917 
L 113.790572 64.92917 
L 113.790572 64.616429 
L 115.097412 64.616429 
L 115.097412 63.990946 
L 115.657487 63.990946 
L 115.657487 63.834575 
L 116.404253 63.834575 
L 116.404253 63.521833 
L 116.777636 63.521833 
L 116.777636 63.365462 
L 116.964328 63.365462 
L 116.964328 63.209091 
L 117.337711 63.209091 
L 117.337711 63.052721 
L 118.271168 63.052721 
L 118.271168 62.89635 
L 118.45786 62.89635 
L 118.45786 62.739979 
L 119.204626 62.739979 
L 119.204626 62.583608 
L 119.578009 62.583608 
L 119.578009 62.427237 
L 120.698158 62.427237 
L 120.698158 62.270867 
L 122.19169 62.270867 
L 122.19169 61.645383 
L 122.565073 61.645383 
L 122.565073 61.489013 
L 122.751765 61.489013 
L 122.751765 61.332642 
L 122.938456 61.332642 
L 122.938456 61.176271 
L 123.685223 61.176271 
L 123.685223 61.0199 
L 124.61868 61.0199 
L 124.61868 60.863529 
L 125.178755 60.863529 
L 125.178755 60.707159 
L 125.738829 60.707159 
L 125.738829 59.925304 
L 126.112212 59.925304 
L 126.112212 59.768934 
L 127.232362 59.768934 
L 127.232362 59.612563 
L 127.979128 59.612563 
L 127.979128 59.299821 
L 128.725894 59.299821 
L 128.725894 59.14345 
L 128.912585 59.14345 
L 128.912585 58.830709 
L 129.285968 58.830709 
L 129.285968 58.674338 
L 130.032734 58.674338 
L 130.032734 58.517967 
L 130.966192 58.517967 
L 130.966192 58.361596 
L 131.526267 58.361596 
L 131.526267 58.205226 
L 132.086341 58.205226 
L 132.086341 58.048855 
L 132.273033 58.048855 
L 132.273033 57.736113 
L 132.833107 57.736113 
L 132.833107 57.11063 
L 133.019799 57.11063 
L 133.019799 56.954259 
L 133.579873 56.954259 
L 133.579873 56.641518 
L 134.326639 56.641518 
L 134.326639 56.485147 
L 134.513331 56.485147 
L 134.513331 56.016034 
L 134.886714 56.016034 
L 134.886714 55.859663 
L 135.073406 55.859663 
L 135.073406 55.703293 
L 136.940321 55.703293 
L 136.940321 54.765068 
L 137.687087 54.765068 
L 137.687087 53.983214 
L 137.873778 53.983214 
L 137.873778 53.670472 
L 138.06047 53.670472 
L 138.06047 53.514101 
L 138.433853 53.514101 
L 138.433853 53.357731 
L 138.993928 53.357731 
L 138.993928 53.044989 
L 139.927385 53.044989 
L 139.927385 52.888618 
L 140.300768 52.888618 
L 140.300768 52.732247 
L 141.980992 52.732247 
L 141.980992 52.263135 
L 142.354375 52.263135 
L 142.354375 52.106764 
L 145.714822 52.106764 
L 145.714822 51.950393 
L 145.901514 51.950393 
L 145.901514 51.794022 
L 146.834972 51.794022 
L 146.834972 51.637652 
L 147.021663 51.637652 
L 147.021663 51.481281 
L 147.208355 51.481281 
L 147.208355 51.32491 
L 148.141812 51.32491 
L 148.141812 51.168539 
L 148.328504 51.168539 
L 148.328504 51.012168 
L 149.261961 51.012168 
L 149.261961 50.855798 
L 151.50226 50.855798 
L 151.50226 50.543056 
L 152.062334 50.543056 
L 152.062334 50.230314 
L 153.182483 50.230314 
L 153.182483 50.073944 
L 153.555866 50.073944 
L 153.555866 49.917573 
L 155.422782 49.917573 
L 155.422782 49.761202 
L 155.609473 49.761202 
L 155.609473 49.604831 
L 156.542931 49.604831 
L 156.542931 49.44846 
L 157.103005 49.44846 
L 157.103005 49.292089 
L 157.849772 49.292089 
L 157.849772 49.135719 
L 158.223155 49.135719 
L 158.223155 48.979348 
L 158.596538 48.979348 
L 158.596538 48.822977 
L 159.343304 48.822977 
L 159.343304 48.666606 
L 160.650144 48.666606 
L 160.650144 48.510235 
L 161.023527 48.510235 
L 161.023527 48.353865 
L 161.956985 48.353865 
L 161.956985 48.197494 
L 162.143677 48.197494 
L 162.143677 48.041123 
L 165.504124 48.041123 
L 165.504124 47.728381 
L 167.371039 47.728381 
L 167.371039 47.41564 
L 167.931114 47.41564 
L 167.931114 47.259269 
L 169.424646 47.259269 
L 169.424646 47.102898 
L 169.798029 47.102898 
L 169.798029 46.946527 
L 171.10487 46.946527 
L 171.10487 46.790157 
L 171.291561 46.790157 
L 171.291561 46.633786 
L 171.851636 46.633786 
L 171.851636 46.477415 
L 172.038327 46.477415 
L 172.038327 46.321044 
L 172.598402 46.321044 
L 172.598402 46.164673 
L 172.785094 46.164673 
L 172.785094 46.008303 
L 177.26569 46.008303 
L 177.26569 45.851932 
L 178.945914 45.851932 
L 178.945914 45.695561 
L 180.812829 45.695561 
L 180.812829 45.53919 
L 182.306361 45.53919 
L 182.306361 45.382819 
L 183.613202 45.382819 
L 183.613202 45.226448 
L 183.986585 45.226448 
L 183.986585 45.070078 
L 184.359968 45.070078 
L 184.359968 44.913707 
L 184.54666 44.913707 
L 184.54666 44.757336 
L 186.413575 44.757336 
L 186.413575 44.600965 
L 187.720415 44.600965 
L 187.720415 44.444594 
L 189.587331 44.444594 
L 189.587331 44.131853 
L 191.827629 44.131853 
L 191.827629 43.975482 
L 192.761087 43.975482 
L 192.761087 43.819111 
L 193.507853 43.819111 
L 193.507853 43.66274 
L 195.374768 43.66274 
L 195.374768 43.50637 
L 197.801758 43.50637 
L 197.801758 43.349999 
L 199.855365 43.349999 
L 199.855365 43.193628 
L 200.602131 43.193628 
L 200.602131 42.880886 
L 203.029121 42.880886 
L 203.029121 42.568145 
L 204.14927 42.568145 
L 204.14927 42.411774 
L 206.202876 42.411774 
L 206.202876 42.255403 
L 207.696409 42.255403 
L 207.696409 42.099032 
L 208.629866 42.099032 
L 208.629866 41.942661 
L 209.003249 41.942661 
L 209.003249 41.786291 
L 210.31009 41.786291 
L 210.31009 41.62992 
L 211.430239 41.62992 
L 211.430239 41.473549 
L 212.550388 41.473549 
L 212.550388 41.317178 
L 212.923771 41.317178 
L 212.923771 41.160807 
L 214.977378 41.160807 
L 214.977378 41.004437 
L 218.337826 41.004437 
L 218.337826 40.848066 
L 220.951507 40.848066 
L 220.951507 40.691695 
L 221.698273 40.691695 
L 221.698273 40.535324 
L 225.805487 40.535324 
L 225.805487 40.378953 
L 226.738944 40.378953 
L 226.738944 40.222583 
L 228.232476 40.222583 
L 228.232476 40.066212 
L 232.33969 40.066212 
L 232.33969 39.909841 
L 232.899764 39.909841 
L 232.899764 39.75347 
L 233.273147 39.75347 
L 233.273147 39.597099 
L 238.313819 39.597099 
L 238.313819 39.440729 
L 239.807351 39.440729 
L 239.807351 39.284358 
L 240.554117 39.284358 
L 240.554117 39.127987 
L 248.021778 39.127987 
L 248.021778 38.971616 
L 248.395161 38.971616 
L 248.395161 38.815245 
L 251.568917 38.815245 
L 251.568917 38.658875 
L 255.116056 38.658875 
L 255.116056 38.502504 
L 259.223269 38.502504 
L 259.223269 38.346133 
L 262.397025 38.346133 
L 262.397025 38.189762 
L 263.703866 38.189762 
L 263.703866 38.033391 
L 264.077249 38.033391 
L 264.077249 37.87702 
L 264.824015 37.87702 
L 264.824015 37.72065 
L 266.317547 37.72065 
L 266.317547 37.564279 
L 270.984835 37.564279 
L 270.984835 37.407908 
L 274.905357 37.407908 
L 274.905357 37.251537 
L 276.39889 37.251537 
L 276.39889 37.095166 
L 279.385954 37.095166 
L 279.385954 36.938796 
L 281.066178 36.938796 
L 281.066178 36.782425 
L 298.055107 36.782425 
L 298.055107 36.626054 
L 300.295405 36.626054 
L 300.295405 36.469683 
L 301.042171 36.469683 
L 301.042171 36.313312 
L 311.870279 36.313312 
L 311.870279 36.156942 
L 348.835201 36.156942 
L 348.835201 36.000571 
L 353.129106 36.000571 
L 353.129106 35.8442 
L 368.437811 35.8442 
L 368.437811 35.687829 
L 387.667038 35.687829 
L 387.667038 35.531458 
L 438.07375 35.531458 
L 438.07375 35.531458 
" clip-path="url(#p1a7fc9184f)" style="fill: none; stroke: #008000; stroke-width: 1.5; stroke-linecap: square"/>
   </g>
   <g id="line2d_14">
    <path d="M 43.78125 299.798125 
L 438.07375 35.531458 
" clip-path="url(#p1a7fc9184f)" style="fill: none; stroke-dasharray: 5.55,2.4; stroke-dashoffset: 0; stroke: #000000; stroke-width: 1.5"/>
   </g>
   <g id="patch_3">
    <path d="M 43.78125 299.798125 
L 43.78125 22.318125 
" style="fill: none; stroke: #000000; stroke-width: 0.8; stroke-linejoin: miter; stroke-linecap: square"/>
   </g>
   <g id="patch_4">
    <path d="M 438.07375 299.798125 
L 438.07375 22.318125 
" style="fill: none; stroke: #000000; stroke-width: 0.8; stroke-linejoin: miter; stroke-linecap: square"/>
   </g>
   <g id="patch_5">
    <path d="M 43.78125 299.798125 
L 438.07375 299.798125 
" style="fill: none; stroke: #000000; stroke-width: 0.8; stroke-linejoin: miter; stroke-linecap: square"/>
   </g>
   <g id="patch_6">
    <path d="M 43.78125 22.318125 
L 438.07375 22.318125 
" style="fill: none; stroke: #000000; stroke-width: 0.8; stroke-linejoin: miter; stroke-linecap: square"/>
   </g>
   <g id="text_15">
    <!-- ROC Curve -->
    <g transform="translate(208.236875 16.318125) scale(0.12 -0.12)">
     <defs>
      <path id="DejaVuSans-4f" d="M 2522 4238 
Q 1834 4238 1429 3725 
Q 1025 3213 1025 2328 
Q 1025 1447 1429 934 
Q 1834 422 2522 422 
Q 3209 422 3611 934 
Q 4013 1447 4013 2328 
Q 4013 3213 3611 3725 
Q 3209 4238 2522 4238 
z
M 2522 4750 
Q 3503 4750 4090 4092 
Q 4678 3434 4678 2328 
Q 4678 1225 4090 567 
Q 3503 -91 2522 -91 
Q 1538 -91 948 565 
Q 359 1222 359 2328 
Q 359 3434 948 4092 
Q 1538 4750 2522 4750 
z
" transform="scale(0.015625)"/>
      <path id="DejaVuSans-43" d="M 4122 4306 
L 4122 3641 
Q 3803 3938 3442 4084 
Q 3081 4231 2675 4231 
Q 1875 4231 1450 3742 
Q 1025 3253 1025 2328 
Q 1025 1406 1450 917 
Q 1875 428 2675 428 
Q 3081 428 3442 575 
Q 3803 722 4122 1019 
L 4122 359 
Q 3791 134 3420 21 
Q 3050 -91 2638 -91 
Q 1578 -91 968 557 
Q 359 1206 359 2328 
Q 359 3453 968 4101 
Q 1578 4750 2638 4750 
Q 3056 4750 3426 4639 
Q 3797 4528 4122 4306 
z
" transform="scale(0.015625)"/>
     </defs>
     <use xlink:href="#DejaVuSans-52"/>
     <use xlink:href="#DejaVuSans-4f" x="69.482422"/>
     <use xlink:href="#DejaVuSans-43" x="148.193359"/>
     <use xlink:href="#DejaVuSans-20" x="218.017578"/>
     <use xlink:href="#DejaVuSans-43" x="249.804688"/>
     <use xlink:href="#DejaVuSans-75" x="319.628906"/>
     <use xlink:href="#DejaVuSans-72" x="383.007812"/>
     <use xlink:href="#DejaVuSans-76" x="424.121094"/>
     <use xlink:href="#DejaVuSans-65" x="483.300781"/>
    </g>
   </g>
   <g id="legend_1">
    <g id="patch_7">
     <path d="M 308.131563 294.798125 
L 431.07375 294.798125 
Q 433.07375 294.798125 433.07375 292.798125 
L 433.07375 279.12 
Q 433.07375 277.12 431.07375 277.12 
L 308.131563 277.12 
Q 306.131563 277.12 306.131563 279.12 
L 306.131563 292.798125 
Q 306.131563 294.798125 308.131563 294.798125 
z
" style="fill: #ffffff; opacity: 0.8; stroke: #cccccc; stroke-linejoin: miter"/>
    </g>
    <g id="line2d_15">
     <path d="M 310.131563 285.218438 
L 320.131563 285.218438 
L 330.131563 285.218438 
" style="fill: none; stroke: #008000; stroke-width: 1.5; stroke-linecap: square"/>
    </g>
    <g id="text_16">
     <!-- SVM (AUC = 0.94) -->
     <g transform="translate(338.131563 288.718438) scale(0.1 -0.1)">
      <defs>
       <path id="DejaVuSans-53" d="M 3425 4513 
L 3425 3897 
Q 3066 4069 2747 4153 
Q 2428 4238 2131 4238 
Q 1616 4238 1336 4038 
Q 1056 3838 1056 3469 
Q 1056 3159 1242 3001 
Q 1428 2844 1947 2747 
L 2328 2669 
Q 3034 2534 3370 2195 
Q 3706 1856 3706 1288 
Q 3706 609 3251 259 
Q 2797 -91 1919 -91 
Q 1588 -91 1214 -16 
Q 841 59 441 206 
L 441 856 
Q 825 641 1194 531 
Q 1563 422 1919 422 
Q 2459 422 2753 634 
Q 3047 847 3047 1241 
Q 3047 1584 2836 1778 
Q 2625 1972 2144 2069 
L 1759 2144 
Q 1053 2284 737 2584 
Q 422 2884 422 3419 
Q 422 4038 858 4394 
Q 1294 4750 2059 4750 
Q 2388 4750 2728 4690 
Q 3069 4631 3425 4513 
z
" transform="scale(0.015625)"/>
       <path id="DejaVuSans-56" d="M 1831 0 
L 50 4666 
L 709 4666 
L 2188 738 
L 3669 4666 
L 4325 4666 
L 2547 0 
L 1831 0 
z
" transform="scale(0.015625)"/>
       <path id="DejaVuSans-4d" d="M 628 4666 
L 1569 4666 
L 2759 1491 
L 3956 4666 
L 4897 4666 
L 4897 0 
L 4281 0 
L 4281 4097 
L 3078 897 
L 2444 897 
L 1241 4097 
L 1241 0 
L 628 0 
L 628 4666 
z
" transform="scale(0.015625)"/>
       <path id="DejaVuSans-28" d="M 1984 4856 
Q 1566 4138 1362 3434 
Q 1159 2731 1159 2009 
Q 1159 1288 1364 580 
Q 1569 -128 1984 -844 
L 1484 -844 
Q 1016 -109 783 600 
Q 550 1309 550 2009 
Q 550 2706 781 3412 
Q 1013 4119 1484 4856 
L 1984 4856 
z
" transform="scale(0.015625)"/>
       <path id="DejaVuSans-41" d="M 2188 4044 
L 1331 1722 
L 3047 1722 
L 2188 4044 
z
M 1831 4666 
L 2547 4666 
L 4325 0 
L 3669 0 
L 3244 1197 
L 1141 1197 
L 716 0 
L 50 0 
L 1831 4666 
z
" transform="scale(0.015625)"/>
       <path id="DejaVuSans-55" d="M 556 4666 
L 1191 4666 
L 1191 1831 
Q 1191 1081 1462 751 
Q 1734 422 2344 422 
Q 2950 422 3222 751 
Q 3494 1081 3494 1831 
L 3494 4666 
L 4128 4666 
L 4128 1753 
Q 4128 841 3676 375 
Q 3225 -91 2344 -91 
Q 1459 -91 1007 375 
Q 556 841 556 1753 
L 556 4666 
z
" transform="scale(0.015625)"/>
       <path id="DejaVuSans-3d" d="M 678 2906 
L 4684 2906 
L 4684 2381 
L 678 2381 
L 678 2906 
z
M 678 1631 
L 4684 1631 
L 4684 1100 
L 678 1100 
L 678 1631 
z
" transform="scale(0.015625)"/>
       <path id="DejaVuSans-39" d="M 703 97 
L 703 672 
Q 941 559 1184 500 
Q 1428 441 1663 441 
Q 2288 441 2617 861 
Q 2947 1281 2994 2138 
Q 2813 1869 2534 1725 
Q 2256 1581 1919 1581 
Q 1219 1581 811 2004 
Q 403 2428 403 3163 
Q 403 3881 828 4315 
Q 1253 4750 1959 4750 
Q 2769 4750 3195 4129 
Q 3622 3509 3622 2328 
Q 3622 1225 3098 567 
Q 2575 -91 1691 -91 
Q 1453 -91 1209 -44 
Q 966 3 703 97 
z
M 1959 2075 
Q 2384 2075 2632 2365 
Q 2881 2656 2881 3163 
Q 2881 3666 2632 3958 
Q 2384 4250 1959 4250 
Q 1534 4250 1286 3958 
Q 1038 3666 1038 3163 
Q 1038 2656 1286 2365 
Q 1534 2075 1959 2075 
z
" transform="scale(0.015625)"/>
       <path id="DejaVuSans-29" d="M 513 4856 
L 1013 4856 
Q 1481 4119 1714 3412 
Q 1947 2706 1947 2009 
Q 1947 1309 1714 600 
Q 1481 -109 1013 -844 
L 513 -844 
Q 928 -128 1133 580 
Q 1338 1288 1338 2009 
Q 1338 2731 1133 3434 
Q 928 4138 513 4856 
z
" transform="scale(0.015625)"/>
      </defs>
      <use xlink:href="#DejaVuSans-53"/>
      <use xlink:href="#DejaVuSans-56" x="63.476562"/>
      <use xlink:href="#DejaVuSans-4d" x="131.884766"/>
      <use xlink:href="#DejaVuSans-20" x="218.164062"/>
      <use xlink:href="#DejaVuSans-28" x="249.951172"/>
      <use xlink:href="#DejaVuSans-41" x="288.964844"/>
      <use xlink:href="#DejaVuSans-55" x="357.373047"/>
      <use xlink:href="#DejaVuSans-43" x="430.566406"/>
      <use xlink:href="#DejaVuSans-20" x="500.390625"/>
      <use xlink:href="#DejaVuSans-3d" x="532.177734"/>
      <use xlink:href="#DejaVuSans-20" x="615.966797"/>
      <use xlink:href="#DejaVuSans-30" x="647.753906"/>
      <use xlink:href="#DejaVuSans-2e" x="711.376953"/>
      <use xlink:href="#DejaVuSans-39" x="743.164062"/>
      <use xlink:href="#DejaVuSans-34" x="806.787109"/>
      <use xlink:href="#DejaVuSans-29" x="870.410156"/>
     </g>
    </g>
   </g>
  </g>
 </g>
 <defs>
  <clipPath id="p1a7fc9184f">
   <rect x="43.78125" y="22.318125" width="394.2925" height="277.48"/>
  </clipPath>
 </defs>
</svg>
