<?xml version="1.0" encoding="utf-8" standalone="no"?>
<!DOCTYPE svg PUBLIC "-//W3C//DTD SVG 1.1//EN"
  "http://www.w3.org/Graphics/SVG/1.1/DTD/svg11.dtd">
<svg xmlns:xlink="http://www.w3.org/1999/xlink" width="453.225312pt" height="337.354375pt" viewBox="0 0 453.225312 337.354375" xmlns="http://www.w3.org/2000/svg" version="1.1">
 <metadata>
  <rdf:RDF xmlns:dc="http://purl.org/dc/elements/1.1/" xmlns:cc="http://creativecommons.org/ns#" xmlns:rdf="http://www.w3.org/1999/02/22-rdf-syntax-ns#">
   <cc:Work>
    <dc:type rdf:resource="http://purl.org/dc/dcmitype/StillImage"/>
    <dc:date>2025-11-08T22:33:55.303513</dc:date>
    <dc:format>image/svg+xml</dc:format>
    <dc:creator>
     <cc:Agent>
      <dc:title>Matplotlib v3.9.1, https://matplotlib.org/</dc:title>
     </cc:Agent>
    </dc:creator>
   </cc:Work>
  </rdf:RDF>
 </metadata>
 <defs>
  <style type="text/css">*{stroke-linejoin: round; stroke-linecap: butt}</style>
 </defs>
 <g id="figure_1">
  <g id="patch_1">
   <path d="M 0 337.354375 
L 453.225312 337.354375 
L 453.225312 0 
L 0 0 
z
" style="fill: #ffffff"/>
  </g>
  <g id="axes_1">
   <g id="patch_2">
    <path d="M 43.78125 299.798125 
L 438.07375 299.798125 
L 438.07375 22.318125 
L 43.78125 22.318125 
z
" style="fill: #ffffff"/>
   </g>
   <g id="matplotlib.axis_1">
    <g id="xtick_1">
     <g id="line2d_1">
      <defs>
       <path id="mde5869878e" d="M 0 0 
L 0 3.5 
" style="stroke: #000000; stroke-width: 0.8"/>
      </defs>
      <g>
       <use xlink:href="#mde5869878e" x="43.78125" y="299.798125" style="stroke: #000000; stroke-width: 0.8"/>
      </g>
     </g>
     <g id="text_1">
      <!-- 0.0 -->
      <g transform="translate(35.829688 314.396563) scale(0.1 -0.1)">
       <defs>
        <path id="DejaVuSans-30" d="M 2034 4250 
Q 1547 4250 1301 3770 
Q 1056 3291 1056 2328 
Q 1056 1369 1301 889 
Q 1547 409 2034 409 
Q 2525 409 2770 889 
Q 3016 1369 3016 2328 
Q 3016 3291 2770 3770 
Q 2525 4250 2034 4250 
z
M 2034 4750 
Q 2819 4750 3233 4129 
Q 3647 3509 3647 2328 
Q 3647 1150 3233 529 
Q 2819 -91 2034 -91 
Q 1250 -91 836 529 
Q 422 1150 422 2328 
Q 422 3509 836 4129 
Q 1250 4750 2034 4750 
z
" transform="scale(0.015625)"/>
        <path id="DejaVuSans-2e" d="M 684 794 
L 1344 794 
L 1344 0 
L 684 0 
L 684 794 
z
" transform="scale(0.015625)"/>
       </defs>
       <use xlink:href="#DejaVuSans-30"/>
       <use xlink:href="#DejaVuSans-2e" x="63.623047"/>
       <use xlink:href="#DejaVuSans-30" x="95.410156"/>
      </g>
     </g>
    </g>
    <g id="xtick_2">
     <g id="line2d_2">
      <g>
       <use xlink:href="#mde5869878e" x="122.63975" y="299.798125" style="stroke: #000000; stroke-width: 0.8"/>
      </g>
     </g>
     <g id="text_2">
      <!-- 0.2 -->
      <g transform="translate(114.688188 314.396563) scale(0.1 -0.1)">
       <defs>
        <path id="DejaVuSans-32" d="M 1228 531 
L 3431 531 
L 3431 0 
L 469 0 
L 469 531 
Q 828 903 1448 1529 
Q 2069 2156 2228 2338 
Q 2531 2678 2651 2914 
Q 2772 3150 2772 3378 
Q 2772 3750 2511 3984 
Q 2250 4219 1831 4219 
Q 1534 4219 1204 4116 
Q 875 4013 500 3803 
L 500 4441 
Q 881 4594 1212 4672 
Q 1544 4750 1819 4750 
Q 2544 4750 2975 4387 
Q 3406 4025 3406 3419 
Q 3406 3131 3298 2873 
Q 3191 2616 2906 2266 
Q 2828 2175 2409 1742 
Q 1991 1309 1228 531 
z
" transform="scale(0.015625)"/>
       </defs>
       <use xlink:href="#DejaVuSans-30"/>
       <use xlink:href="#DejaVuSans-2e" x="63.623047"/>
       <use xlink:href="#DejaVuSans-32" x="95.410156"/>
      </g>
     </g>
    </g>
    <g id="xtick_3">
     <g id="line2d_3">
      <g>
       <use xlink:href="#mde5869878e" x="201.49825" y="299.798125" style="stroke: #000000; stroke-width: 0.8"/>
      </g>
     </g>
     <g id="text_3">
      <!-- 0.4 -->
      <g transform="translate(193.546688 314.396563) scale(0.1 -0.1)">
       <defs>
        <path id="DejaVuSans-34" d="M 2419 4116 
L 825 1625 
L 2419 1625 
L 2419 4116 
z
M 2253 4666 
L 3047 4666 
L 3047 1625 
L 3713 1625 
L 3713 1100 
L 3047 1100 
L 3047 0 
L 2419 0 
L 2419 1100 
L 313 1100 
L 313 1709 
L 2253 4666 
z
" transform="scale(0.015625)"/>
       </defs>
       <use xlink:href="#DejaVuSans-30"/>
       <use xlink:href="#DejaVuSans-2e" x="63.623047"/>
       <use xlink:href="#DejaVuSans-34" x="95.410156"/>
      </g>
     </g>
    </g>
    <g id="xtick_4">
     <g id="line2d_4">
      <g>
       <use xlink:href="#mde5869878e" x="280.35675" y="299.798125" style="stroke: #000000; stroke-width: 0.8"/>
      </g>
     </g>
     <g id="text_4">
      <!-- 0.6 -->
      <g transform="translate(272.405188 314.396563) scale(0.1 -0.1)">
       <defs>
        <path id="DejaVuSans-36" d="M 2113 2584 
Q 1688 2584 1439 2293 
Q 1191 2003 1191 1497 
Q 1191 994 1439 701 
Q 1688 409 2113 409 
Q 2538 409 2786 701 
Q 3034 994 3034 1497 
Q 3034 2003 2786 2293 
Q 2538 2584 2113 2584 
z
M 3366 4563 
L 3366 3988 
Q 3128 4100 2886 4159 
Q 2644 4219 2406 4219 
Q 1781 4219 1451 3797 
Q 1122 3375 1075 2522 
Q 1259 2794 1537 2939 
Q 1816 3084 2150 3084 
Q 2853 3084 3261 2657 
Q 3669 2231 3669 1497 
Q 3669 778 3244 343 
Q 2819 -91 2113 -91 
Q 1303 -91 875 529 
Q 447 1150 447 2328 
Q 447 3434 972 4092 
Q 1497 4750 2381 4750 
Q 2619 4750 2861 4703 
Q 3103 4656 3366 4563 
z
" transform="scale(0.015625)"/>
       </defs>
       <use xlink:href="#DejaVuSans-30"/>
       <use xlink:href="#DejaVuSans-2e" x="63.623047"/>
       <use xlink:href="#DejaVuSans-36" x="95.410156"/>
      </g>
     </g>
    </g>
    <g id="xtick_5">
     <g id="line2d_5">
      <g>
       <use xlink:href="#mde5869878e" x="359.21525" y="299.798125" style="stroke: #000000; stroke-width: 0.8"/>
      </g>
     </g>
     <g id="text_5">
      <!-- 0.8 -->
      <g transform="translate(351.263688 314.396563) scale(0.1 -0.1)">
       <defs>
        <path id="DejaVuSans-38" d="M 2034 2216 
Q 1584 2216 1326 1975 
Q 1069 1734 1069 1313 
Q 1069 891 1326 650 
Q 1584 409 2034 409 
Q 2484 409 2743 651 
Q 3003 894 3003 1313 
Q 3003 1734 2745 1975 
Q 2488 2216 2034 2216 
z
M 1403 2484 
Q 997 2584 770 2862 
Q 544 3141 544 3541 
Q 544 4100 942 4425 
Q 1341 4750 2034 4750 
Q 2731 4750 3128 4425 
Q 3525 4100 3525 3541 
Q 3525 3141 3298 2862 
Q 3072 2584 2669 2484 
Q 3125 2378 3379 2068 
Q 3634 1759 3634 1313 
Q 3634 634 3220 271 
Q 2806 -91 2034 -91 
Q 1263 -91 848 271 
Q 434 634 434 1313 
Q 434 1759 690 2068 
Q 947 2378 1403 2484 
z
M 1172 3481 
Q 1172 3119 1398 2916 
Q 1625 2713 2034 2713 
Q 2441 2713 2670 2916 
Q 2900 3119 2900 3481 
Q 2900 3844 2670 4047 
Q 2441 4250 2034 4250 
Q 1625 4250 1398 4047 
Q 1172 3844 1172 3481 
z
" transform="scale(0.015625)"/>
       </defs>
       <use xlink:href="#DejaVuSans-30"/>
       <use xlink:href="#DejaVuSans-2e" x="63.623047"/>
       <use xlink:href="#DejaVuSans-38" x="95.410156"/>
      </g>
     </g>
    </g>
    <g id="xtick_6">
     <g id="line2d_6">
      <g>
       <use xlink:href="#mde5869878e" x="438.07375" y="299.798125" style="stroke: #000000; stroke-width: 0.8"/>
      </g>
     </g>
     <g id="text_6">
      <!-- 1.0 -->
      <g transform="translate(430.122187 314.396563) scale(0.1 -0.1)">
       <defs>
        <path id="DejaVuSans-31" d="M 794 531 
L 1825 531 
L 1825 4091 
L 703 3866 
L 703 4441 
L 1819 4666 
L 2450 4666 
L 2450 531 
L 3481 531 
L 3481 0 
L 794 0 
L 794 531 
z
" transform="scale(0.015625)"/>
       </defs>
       <use xlink:href="#DejaVuSans-31"/>
       <use xlink:href="#DejaVuSans-2e" x="63.623047"/>
       <use xlink:href="#DejaVuSans-30" x="95.410156"/>
      </g>
     </g>
    </g>
    <g id="text_7">
     <!-- False Positive Rate -->
     <g transform="translate(194.461094 328.074688) scale(0.1 -0.1)">
      <defs>
       <path id="DejaVuSans-46" d="M 628 4666 
L 3309 4666 
L 3309 4134 
L 1259 4134 
L 1259 2759 
L 3109 2759 
L 3109 2228 
L 1259 2228 
L 1259 0 
L 628 0 
L 628 4666 
z
" transform="scale(0.015625)"/>
       <path id="DejaVuSans-61" d="M 2194 1759 
Q 1497 1759 1228 1600 
Q 959 1441 959 1056 
Q 959 750 1161 570 
Q 1363 391 1709 391 
Q 2188 391 2477 730 
Q 2766 1069 2766 1631 
L 2766 1759 
L 2194 1759 
z
M 3341 1997 
L 3341 0 
L 2766 0 
L 2766 531 
Q 2569 213 2275 61 
Q 1981 -91 1556 -91 
Q 1019 -91 701 211 
Q 384 513 384 1019 
Q 384 1609 779 1909 
Q 1175 2209 1959 2209 
L 2766 2209 
L 2766 2266 
Q 2766 2663 2505 2880 
Q 2244 3097 1772 3097 
Q 1472 3097 1187 3025 
Q 903 2953 641 2809 
L 641 3341 
Q 956 3463 1253 3523 
Q 1550 3584 1831 3584 
Q 2591 3584 2966 3190 
Q 3341 2797 3341 1997 
z
" transform="scale(0.015625)"/>
       <path id="DejaVuSans-6c" d="M 603 4863 
L 1178 4863 
L 1178 0 
L 603 0 
L 603 4863 
z
" transform="scale(0.015625)"/>
       <path id="DejaVuSans-73" d="M 2834 3397 
L 2834 2853 
Q 2591 2978 2328 3040 
Q 2066 3103 1784 3103 
Q 1356 3103 1142 2972 
Q 928 2841 928 2578 
Q 928 2378 1081 2264 
Q 1234 2150 1697 2047 
L 1894 2003 
Q 2506 1872 2764 1633 
Q 3022 1394 3022 966 
Q 3022 478 2636 193 
Q 2250 -91 1575 -91 
Q 1294 -91 989 -36 
Q 684 19 347 128 
L 347 722 
Q 666 556 975 473 
Q 1284 391 1588 391 
Q 1994 391 2212 530 
Q 2431 669 2431 922 
Q 2431 1156 2273 1281 
Q 2116 1406 1581 1522 
L 1381 1569 
Q 847 1681 609 1914 
Q 372 2147 372 2553 
Q 372 3047 722 3315 
Q 1072 3584 1716 3584 
Q 2034 3584 2315 3537 
Q 2597 3491 2834 3397 
z
" transform="scale(0.015625)"/>
       <path id="DejaVuSans-65" d="M 3597 1894 
L 3597 1613 
L 953 1613 
Q 991 1019 1311 708 
Q 1631 397 2203 397 
Q 2534 397 2845 478 
Q 3156 559 3463 722 
L 3463 178 
Q 3153 47 2828 -22 
Q 2503 -91 2169 -91 
Q 1331 -91 842 396 
Q 353 884 353 1716 
Q 353 2575 817 3079 
Q 1281 3584 2069 3584 
Q 2775 3584 3186 3129 
Q 3597 2675 3597 1894 
z
M 3022 2063 
Q 3016 2534 2758 2815 
Q 2500 3097 2075 3097 
Q 1594 3097 1305 2825 
Q 1016 2553 972 2059 
L 3022 2063 
z
" transform="scale(0.015625)"/>
       <path id="DejaVuSans-20" transform="scale(0.015625)"/>
       <path id="DejaVuSans-50" d="M 1259 4147 
L 1259 2394 
L 2053 2394 
Q 2494 2394 2734 2622 
Q 2975 2850 2975 3272 
Q 2975 3691 2734 3919 
Q 2494 4147 2053 4147 
L 1259 4147 
z
M 628 4666 
L 2053 4666 
Q 2838 4666 3239 4311 
Q 3641 3956 3641 3272 
Q 3641 2581 3239 2228 
Q 2838 1875 2053 1875 
L 1259 1875 
L 1259 0 
L 628 0 
L 628 4666 
z
" transform="scale(0.015625)"/>
       <path id="DejaVuSans-6f" d="M 1959 3097 
Q 1497 3097 1228 2736 
Q 959 2375 959 1747 
Q 959 1119 1226 758 
Q 1494 397 1959 397 
Q 2419 397 2687 759 
Q 2956 1122 2956 1747 
Q 2956 2369 2687 2733 
Q 2419 3097 1959 3097 
z
M 1959 3584 
Q 2709 3584 3137 3096 
Q 3566 2609 3566 1747 
Q 3566 888 3137 398 
Q 2709 -91 1959 -91 
Q 1206 -91 779 398 
Q 353 888 353 1747 
Q 353 2609 779 3096 
Q 1206 3584 1959 3584 
z
" transform="scale(0.015625)"/>
       <path id="DejaVuSans-69" d="M 603 3500 
L 1178 3500 
L 1178 0 
L 603 0 
L 603 3500 
z
M 603 4863 
L 1178 4863 
L 1178 4134 
L 603 4134 
L 603 4863 
z
" transform="scale(0.015625)"/>
       <path id="DejaVuSans-74" d="M 1172 4494 
L 1172 3500 
L 2356 3500 
L 2356 3053 
L 1172 3053 
L 1172 1153 
Q 1172 725 1289 603 
Q 1406 481 1766 481 
L 2356 481 
L 2356 0 
L 1766 0 
Q 1100 0 847 248 
Q 594 497 594 1153 
L 594 3053 
L 172 3053 
L 172 3500 
L 594 3500 
L 594 4494 
L 1172 4494 
z
" transform="scale(0.015625)"/>
       <path id="DejaVuSans-76" d="M 191 3500 
L 800 3500 
L 1894 563 
L 2988 3500 
L 3597 3500 
L 2284 0 
L 1503 0 
L 191 3500 
z
" transform="scale(0.015625)"/>
       <path id="DejaVuSans-52" d="M 2841 2188 
Q 3044 2119 3236 1894 
Q 3428 1669 3622 1275 
L 4263 0 
L 3584 0 
L 2988 1197 
Q 2756 1666 2539 1819 
Q 2322 1972 1947 1972 
L 1259 1972 
L 1259 0 
L 628 0 
L 628 4666 
L 2053 4666 
Q 2853 4666 3247 4331 
Q 3641 3997 3641 3322 
Q 3641 2881 3436 2590 
Q 3231 2300 2841 2188 
z
M 1259 4147 
L 1259 2491 
L 2053 2491 
Q 2509 2491 2742 2702 
Q 2975 2913 2975 3322 
Q 2975 3731 2742 3939 
Q 2509 4147 2053 4147 
L 1259 4147 
z
" transform="scale(0.015625)"/>
      </defs>
      <use xlink:href="#DejaVuSans-46"/>
      <use xlink:href="#DejaVuSans-61" x="48.394531"/>
      <use xlink:href="#DejaVuSans-6c" x="109.673828"/>
      <use xlink:href="#DejaVuSans-73" x="137.457031"/>
      <use xlink:href="#DejaVuSans-65" x="189.556641"/>
      <use xlink:href="#DejaVuSans-20" x="251.080078"/>
      <use xlink:href="#DejaVuSans-50" x="282.867188"/>
      <use xlink:href="#DejaVuSans-6f" x="339.544922"/>
      <use xlink:href="#DejaVuSans-73" x="400.726562"/>
      <use xlink:href="#DejaVuSans-69" x="452.826172"/>
      <use xlink:href="#DejaVuSans-74" x="480.609375"/>
      <use xlink:href="#DejaVuSans-69" x="519.818359"/>
      <use xlink:href="#DejaVuSans-76" x="547.601562"/>
      <use xlink:href="#DejaVuSans-65" x="606.78125"/>
      <use xlink:href="#DejaVuSans-20" x="668.304688"/>
      <use xlink:href="#DejaVuSans-52" x="700.091797"/>
      <use xlink:href="#DejaVuSans-61" x="767.324219"/>
      <use xlink:href="#DejaVuSans-74" x="828.603516"/>
      <use xlink:href="#DejaVuSans-65" x="867.8125"/>
     </g>
    </g>
   </g>
   <g id="matplotlib.axis_2">
    <g id="ytick_1">
     <g id="line2d_7">
      <defs>
       <path id="m1473c86f8b" d="M 0 0 
L -3.5 0 
" style="stroke: #000000; stroke-width: 0.8"/>
      </defs>
      <g>
       <use xlink:href="#m1473c86f8b" x="43.78125" y="299.798125" style="stroke: #000000; stroke-width: 0.8"/>
      </g>
     </g>
     <g id="text_8">
      <!-- 0.0 -->
      <g transform="translate(20.878125 303.597344) scale(0.1 -0.1)">
       <use xlink:href="#DejaVuSans-30"/>
       <use xlink:href="#DejaVuSans-2e" x="63.623047"/>
       <use xlink:href="#DejaVuSans-30" x="95.410156"/>
      </g>
     </g>
    </g>
    <g id="ytick_2">
     <g id="line2d_8">
      <g>
       <use xlink:href="#m1473c86f8b" x="43.78125" y="246.944792" style="stroke: #000000; stroke-width: 0.8"/>
      </g>
     </g>
     <g id="text_9">
      <!-- 0.2 -->
      <g transform="translate(20.878125 250.74401) scale(0.1 -0.1)">
       <use xlink:href="#DejaVuSans-30"/>
       <use xlink:href="#DejaVuSans-2e" x="63.623047"/>
       <use xlink:href="#DejaVuSans-32" x="95.410156"/>
      </g>
     </g>
    </g>
    <g id="ytick_3">
     <g id="line2d_9">
      <g>
       <use xlink:href="#m1473c86f8b" x="43.78125" y="194.091458" style="stroke: #000000; stroke-width: 0.8"/>
      </g>
     </g>
     <g id="text_10">
      <!-- 0.4 -->
      <g transform="translate(20.878125 197.890677) scale(0.1 -0.1)">
       <use xlink:href="#DejaVuSans-30"/>
       <use xlink:href="#DejaVuSans-2e" x="63.623047"/>
       <use xlink:href="#DejaVuSans-34" x="95.410156"/>
      </g>
     </g>
    </g>
    <g id="ytick_4">
     <g id="line2d_10">
      <g>
       <use xlink:href="#m1473c86f8b" x="43.78125" y="141.238125" style="stroke: #000000; stroke-width: 0.8"/>
      </g>
     </g>
     <g id="text_11">
      <!-- 0.6 -->
      <g transform="translate(20.878125 145.037344) scale(0.1 -0.1)">
       <use xlink:href="#DejaVuSans-30"/>
       <use xlink:href="#DejaVuSans-2e" x="63.623047"/>
       <use xlink:href="#DejaVuSans-36" x="95.410156"/>
      </g>
     </g>
    </g>
    <g id="ytick_5">
     <g id="line2d_11">
      <g>
       <use xlink:href="#m1473c86f8b" x="43.78125" y="88.384792" style="stroke: #000000; stroke-width: 0.8"/>
      </g>
     </g>
     <g id="text_12">
      <!-- 0.8 -->
      <g transform="translate(20.878125 92.18401) scale(0.1 -0.1)">
       <use xlink:href="#DejaVuSans-30"/>
       <use xlink:href="#DejaVuSans-2e" x="63.623047"/>
       <use xlink:href="#DejaVuSans-38" x="95.410156"/>
      </g>
     </g>
    </g>
    <g id="ytick_6">
     <g id="line2d_12">
      <g>
       <use xlink:href="#m1473c86f8b" x="43.78125" y="35.531458" style="stroke: #000000; stroke-width: 0.8"/>
      </g>
     </g>
     <g id="text_13">
      <!-- 1.0 -->
      <g transform="translate(20.878125 39.330677) scale(0.1 -0.1)">
       <use xlink:href="#DejaVuSans-31"/>
       <use xlink:href="#DejaVuSans-2e" x="63.623047"/>
       <use xlink:href="#DejaVuSans-30" x="95.410156"/>
      </g>
     </g>
    </g>
    <g id="text_14">
     <!-- True Positive Rate -->
     <g transform="translate(14.798438 205.587813) rotate(-90) scale(0.1 -0.1)">
      <defs>
       <path id="DejaVuSans-54" d="M -19 4666 
L 3928 4666 
L 3928 4134 
L 2272 4134 
L 2272 0 
L 1638 0 
L 1638 4134 
L -19 4134 
L -19 4666 
z
" transform="scale(0.015625)"/>
       <path id="DejaVuSans-72" d="M 2631 2963 
Q 2534 3019 2420 3045 
Q 2306 3072 2169 3072 
Q 1681 3072 1420 2755 
Q 1159 2438 1159 1844 
L 1159 0 
L 581 0 
L 581 3500 
L 1159 3500 
L 1159 2956 
Q 1341 3275 1631 3429 
Q 1922 3584 2338 3584 
Q 2397 3584 2469 3576 
Q 2541 3569 2628 3553 
L 2631 2963 
z
" transform="scale(0.015625)"/>
       <path id="DejaVuSans-75" d="M 544 1381 
L 544 3500 
L 1119 3500 
L 1119 1403 
Q 1119 906 1312 657 
Q 1506 409 1894 409 
Q 2359 409 2629 706 
Q 2900 1003 2900 1516 
L 2900 3500 
L 3475 3500 
L 3475 0 
L 2900 0 
L 2900 538 
Q 2691 219 2414 64 
Q 2138 -91 1772 -91 
Q 1169 -91 856 284 
Q 544 659 544 1381 
z
M 1991 3584 
L 1991 3584 
z
" transform="scale(0.015625)"/>
      </defs>
      <use xlink:href="#DejaVuSans-54"/>
      <use xlink:href="#DejaVuSans-72" x="46.333984"/>
      <use xlink:href="#DejaVuSans-75" x="87.447266"/>
      <use xlink:href="#DejaVuSans-65" x="150.826172"/>
      <use xlink:href="#DejaVuSans-20" x="212.349609"/>
      <use xlink:href="#DejaVuSans-50" x="244.136719"/>
      <use xlink:href="#DejaVuSans-6f" x="300.814453"/>
      <use xlink:href="#DejaVuSans-73" x="361.996094"/>
      <use xlink:href="#DejaVuSans-69" x="414.095703"/>
      <use xlink:href="#DejaVuSans-74" x="441.878906"/>
      <use xlink:href="#DejaVuSans-69" x="481.087891"/>
      <use xlink:href="#DejaVuSans-76" x="508.871094"/>
      <use xlink:href="#DejaVuSans-65" x="568.050781"/>
      <use xlink:href="#DejaVuSans-20" x="629.574219"/>
      <use xlink:href="#DejaVuSans-52" x="661.361328"/>
      <use xlink:href="#DejaVuSans-61" x="728.59375"/>
      <use xlink:href="#DejaVuSans-74" x="789.873047"/>
      <use xlink:href="#DejaVuSans-65" x="829.082031"/>
     </g>
    </g>
   </g>
   <g id="line2d_13">
    <path d="M 43.78125 299.798125 
L 43.78125 296.82708 
L 44.030172 296.82708 
L 44.030172 291.666843 
L 44.279094 291.666843 
L 44.279094 284.317415 
L 44.528016 284.317415 
L 44.528016 282.128224 
L 44.776938 282.128224 
L 44.776938 274.935166 
L 45.02586 274.935166 
L 45.02586 274.466054 
L 45.274782 274.466054 
L 45.274782 273.371458 
L 45.523704 273.371458 
L 45.523704 271.80775 
L 45.772626 271.80775 
L 45.772626 271.651379 
L 46.021548 271.651379 
L 46.021548 269.77493 
L 46.27047 269.77493 
L 46.27047 267.89848 
L 46.519392 267.89848 
L 46.519392 266.803884 
L 47.017236 266.803884 
L 47.017236 261.956389 
L 47.266158 261.956389 
L 47.266158 258.672602 
L 47.51508 258.672602 
L 47.51508 254.919703 
L 47.764003 254.919703 
L 47.764003 254.45059 
L 48.012925 254.45059 
L 48.012925 254.137849 
L 48.261847 254.137849 
L 48.261847 252.886882 
L 48.510769 252.886882 
L 48.510769 251.010433 
L 48.759691 251.010433 
L 48.759691 249.290354 
L 49.008613 249.290354 
L 49.008613 241.784555 
L 49.257535 241.784555 
L 49.257535 240.377218 
L 49.506457 240.377218 
L 49.506457 239.438993 
L 49.755379 239.438993 
L 49.755379 239.282622 
L 50.004301 239.282622 
L 50.004301 238.96988 
L 50.253223 238.96988 
L 50.253223 238.344397 
L 50.502145 238.344397 
L 50.502145 237.406172 
L 50.751067 237.406172 
L 50.751067 237.093431 
L 50.999989 237.093431 
L 50.999989 236.93706 
L 51.248911 236.93706 
L 51.248911 236.780689 
L 51.497833 236.780689 
L 51.497833 235.998835 
L 51.746755 235.998835 
L 51.746755 235.373352 
L 52.244599 235.373352 
L 52.244599 231.464082 
L 52.493521 231.464082 
L 52.493521 231.15134 
L 52.742443 231.15134 
L 52.742443 229.118519 
L 52.991365 229.118519 
L 52.991365 228.180295 
L 53.240287 228.180295 
L 53.240287 225.678362 
L 53.489209 225.678362 
L 53.489209 225.521991 
L 53.738131 225.521991 
L 53.738131 225.209249 
L 53.987053 225.209249 
L 53.987053 223.801912 
L 54.235975 223.801912 
L 54.235975 222.863687 
L 54.484897 222.863687 
L 54.484897 221.925462 
L 54.733819 221.925462 
L 54.733819 221.769091 
L 54.982741 221.769091 
L 54.982741 220.987237 
L 55.231664 220.987237 
L 55.231664 220.049013 
L 55.480586 220.049013 
L 55.480586 218.016192 
L 55.729508 218.016192 
L 55.729508 216.296113 
L 55.97843 216.296113 
L 55.97843 216.139742 
L 56.227352 216.139742 
L 56.227352 214.419663 
L 56.476274 214.419663 
L 56.476274 211.292247 
L 56.725196 211.292247 
L 56.725196 211.135876 
L 57.22304 211.135876 
L 57.22304 210.510393 
L 57.471962 210.510393 
L 57.471962 210.197652 
L 57.720884 210.197652 
L 57.720884 210.041281 
L 58.218728 210.041281 
L 58.218728 209.88491 
L 58.46765 209.88491 
L 58.46765 209.728539 
L 58.716572 209.728539 
L 58.716572 207.852089 
L 58.965494 207.852089 
L 58.965494 206.601123 
L 59.214416 206.601123 
L 59.214416 205.97564 
L 59.463338 205.97564 
L 59.463338 205.193786 
L 59.71226 205.193786 
L 59.71226 205.037415 
L 59.961182 205.037415 
L 59.961182 204.881044 
L 60.210104 204.881044 
L 60.210104 204.411932 
L 60.459026 204.411932 
L 60.459026 203.942819 
L 60.707948 203.942819 
L 60.707948 202.848224 
L 60.95687 202.848224 
L 60.95687 202.379111 
L 61.205792 202.379111 
L 61.205792 201.440886 
L 61.454714 201.440886 
L 61.454714 200.033549 
L 61.703636 200.033549 
L 61.703636 199.564437 
L 61.952558 199.564437 
L 61.952558 199.408066 
L 62.20148 199.408066 
L 62.20148 197.531616 
L 62.699324 197.531616 
L 62.699324 196.906133 
L 62.948247 196.906133 
L 62.948247 194.560571 
L 63.197169 194.560571 
L 63.197169 193.309604 
L 63.943935 193.309604 
L 63.943935 192.52775 
L 64.441779 192.52775 
L 64.441779 192.371379 
L 64.690701 192.371379 
L 64.690701 191.745896 
L 64.939623 191.745896 
L 64.939623 191.589525 
L 65.188545 191.589525 
L 65.188545 190.807671 
L 65.437467 190.807671 
L 65.437467 190.338559 
L 65.686389 190.338559 
L 65.686389 189.869446 
L 65.935311 189.869446 
L 65.935311 189.400334 
L 66.184233 189.400334 
L 66.184233 187.680255 
L 66.433155 187.680255 
L 66.433155 187.367514 
L 66.930999 187.367514 
L 66.930999 185.803805 
L 67.179921 185.803805 
L 67.179921 184.70921 
L 67.428843 184.70921 
L 67.428843 184.552839 
L 67.677765 184.552839 
L 67.677765 183.458243 
L 68.175609 183.458243 
L 68.175609 183.301873 
L 68.922375 183.301873 
L 68.922375 183.145502 
L 69.171297 183.145502 
L 69.171297 182.520018 
L 69.420219 182.520018 
L 69.420219 181.894535 
L 69.918063 181.894535 
L 69.918063 181.581794 
L 70.415908 181.581794 
L 70.415908 181.425423 
L 70.66483 181.425423 
L 70.66483 180.330827 
L 70.913752 180.330827 
L 70.913752 179.548973 
L 71.162674 179.548973 
L 71.162674 179.392602 
L 71.411596 179.392602 
L 71.411596 178.767119 
L 71.90944 178.767119 
L 71.90944 177.516153 
L 72.407284 177.516153 
L 72.407284 177.359782 
L 72.656206 177.359782 
L 72.656206 177.04704 
L 72.905128 177.04704 
L 72.905128 176.421557 
L 73.15405 176.421557 
L 73.15405 176.265186 
L 73.402972 176.265186 
L 73.402972 175.952445 
L 73.900816 175.952445 
L 73.900816 175.796074 
L 74.149738 175.796074 
L 74.149738 175.639703 
L 74.39866 175.639703 
L 74.39866 175.326961 
L 74.896504 175.326961 
L 74.896504 174.701478 
L 75.145426 174.701478 
L 75.145426 174.545107 
L 75.394348 174.545107 
L 75.394348 174.075995 
L 75.64327 174.075995 
L 75.64327 173.294141 
L 76.390036 173.294141 
L 76.390036 173.13777 
L 76.638958 173.13777 
L 76.638958 172.981399 
L 76.88788 172.981399 
L 76.88788 172.199545 
L 77.136802 172.199545 
L 77.136802 171.886804 
L 77.385724 171.886804 
L 77.385724 171.26132 
L 77.634646 171.26132 
L 77.634646 170.948579 
L 78.132491 170.948579 
L 78.132491 170.635837 
L 78.381413 170.635837 
L 78.381413 170.166725 
L 78.630335 170.166725 
L 78.630335 169.384871 
L 79.128179 169.384871 
L 79.128179 169.2285 
L 79.626023 169.2285 
L 79.626023 169.072129 
L 80.123867 169.072129 
L 80.123867 168.446646 
L 80.372789 168.446646 
L 80.372789 167.821162 
L 80.870633 167.821162 
L 80.870633 166.570196 
L 81.368477 166.570196 
L 81.368477 165.631971 
L 81.617399 165.631971 
L 81.617399 165.31923 
L 82.613087 165.31923 
L 82.613087 164.850117 
L 83.359853 164.850117 
L 83.359853 163.755521 
L 83.608775 163.755521 
L 83.608775 162.817297 
L 84.106619 162.817297 
L 84.106619 162.504555 
L 84.355541 162.504555 
L 84.355541 161.879072 
L 84.604463 161.879072 
L 84.604463 161.409959 
L 84.853385 161.409959 
L 84.853385 160.158993 
L 85.102307 160.158993 
L 85.102307 159.846251 
L 85.351229 159.846251 
L 85.351229 158.751656 
L 85.600152 158.751656 
L 85.600152 158.282543 
L 85.849074 158.282543 
L 85.849074 158.126172 
L 86.097996 158.126172 
L 86.097996 157.969802 
L 86.346918 157.969802 
L 86.346918 157.813431 
L 86.844762 157.813431 
L 86.844762 157.65706 
L 87.093684 157.65706 
L 87.093684 157.500689 
L 87.591528 157.500689 
L 87.591528 156.718835 
L 87.84045 156.718835 
L 87.84045 156.406093 
L 88.089372 156.406093 
L 88.089372 156.249723 
L 88.338294 156.249723 
L 88.338294 155.624239 
L 88.587216 155.624239 
L 88.587216 155.467869 
L 88.836138 155.467869 
L 88.836138 155.155127 
L 89.08506 155.155127 
L 89.08506 154.998756 
L 89.333982 154.998756 
L 89.333982 154.686015 
L 89.831826 154.686015 
L 89.831826 154.529644 
L 90.080748 154.529644 
L 90.080748 154.060531 
L 90.32967 154.060531 
L 90.32967 153.74779 
L 90.827514 153.74779 
L 90.827514 152.965936 
L 92.072124 152.965936 
L 92.072124 151.714969 
L 92.321046 151.714969 
L 92.321046 151.402228 
L 92.569968 151.402228 
L 92.569968 150.776744 
L 93.067813 150.776744 
L 93.067813 150.464003 
L 93.316735 150.464003 
L 93.316735 149.99489 
L 94.063501 149.99489 
L 94.063501 149.525778 
L 94.810267 149.525778 
L 94.810267 149.369407 
L 95.059189 149.369407 
L 95.059189 149.213036 
L 95.308111 149.213036 
L 95.308111 149.056665 
L 95.557033 149.056665 
L 95.557033 148.431182 
L 96.303799 148.431182 
L 96.303799 148.118441 
L 97.050565 148.118441 
L 97.050565 147.805699 
L 97.548409 147.805699 
L 97.548409 147.492957 
L 97.797331 147.492957 
L 97.797331 146.241991 
L 98.046253 146.241991 
L 98.046253 145.460137 
L 98.295175 145.460137 
L 98.295175 145.303766 
L 98.544097 145.303766 
L 98.544097 144.678283 
L 98.793019 144.678283 
L 98.793019 144.521912 
L 99.290863 144.521912 
L 99.290863 144.20917 
L 99.788707 144.20917 
L 99.788707 144.0528 
L 100.037629 144.0528 
L 100.037629 143.896429 
L 100.535473 143.896429 
L 100.535473 143.740058 
L 100.784396 143.740058 
L 100.784396 143.270946 
L 101.033318 143.270946 
L 101.033318 142.958204 
L 101.28224 142.958204 
L 101.28224 142.645462 
L 101.531162 142.645462 
L 101.531162 142.489091 
L 102.029006 142.489091 
L 102.029006 142.332721 
L 102.277928 142.332721 
L 102.277928 141.707237 
L 102.52685 141.707237 
L 102.52685 141.394496 
L 103.024694 141.394496 
L 103.024694 141.238125 
L 103.273616 141.238125 
L 103.273616 140.925383 
L 103.522538 140.925383 
L 103.522538 140.2999 
L 103.77146 140.2999 
L 103.77146 139.830788 
L 104.020382 139.830788 
L 104.020382 139.674417 
L 105.264992 139.674417 
L 105.264992 139.361675 
L 105.513914 139.361675 
L 105.513914 139.205304 
L 106.26068 139.205304 
L 106.26068 138.110709 
L 106.758524 138.110709 
L 106.758524 137.797967 
L 107.007446 137.797967 
L 107.007446 137.641596 
L 107.50529 137.641596 
L 107.50529 137.485226 
L 107.754212 137.485226 
L 107.754212 137.328855 
L 108.003134 137.328855 
L 108.003134 137.172484 
L 108.252057 137.172484 
L 108.252057 136.859742 
L 108.500979 136.859742 
L 108.500979 136.703372 
L 108.749901 136.703372 
L 108.749901 136.547001 
L 108.998823 136.547001 
L 108.998823 136.077888 
L 109.247745 136.077888 
L 109.247745 135.296034 
L 109.496667 135.296034 
L 109.496667 135.139663 
L 109.994511 135.139663 
L 109.994511 134.51418 
L 110.243433 134.51418 
L 110.243433 134.357809 
L 110.492355 134.357809 
L 110.492355 134.201439 
L 110.741277 134.201439 
L 110.741277 133.888697 
L 110.990199 133.888697 
L 110.990199 133.732326 
L 111.239121 133.732326 
L 111.239121 133.575955 
L 111.736965 133.575955 
L 111.736965 133.106843 
L 111.985887 133.106843 
L 111.985887 132.637731 
L 112.732653 132.637731 
L 112.732653 132.48136 
L 112.981575 132.48136 
L 112.981575 132.324989 
L 113.230497 132.324989 
L 113.230497 132.168618 
L 113.728341 132.168618 
L 113.728341 131.543135 
L 114.475107 131.543135 
L 114.475107 131.074022 
L 115.719717 131.074022 
L 115.719717 130.292168 
L 117.21325 130.292168 
L 117.21325 130.135798 
L 117.462172 130.135798 
L 117.462172 129.823056 
L 117.711094 129.823056 
L 117.711094 129.666685 
L 117.960016 129.666685 
L 117.960016 129.510314 
L 118.208938 129.510314 
L 118.208938 129.041202 
L 118.706782 129.041202 
L 118.706782 128.72846 
L 119.453548 128.72846 
L 119.453548 128.572089 
L 119.70247 128.572089 
L 119.70247 128.415719 
L 119.951392 128.415719 
L 119.951392 128.259348 
L 120.449236 128.259348 
L 120.449236 128.102977 
L 120.698158 128.102977 
L 120.698158 127.946606 
L 121.196002 127.946606 
L 121.196002 127.477494 
L 122.19169 127.477494 
L 122.19169 127.321123 
L 122.689534 127.321123 
L 122.689534 127.008381 
L 122.938456 127.008381 
L 122.938456 126.382898 
L 123.436301 126.382898 
L 123.436301 126.070157 
L 123.685223 126.070157 
L 123.685223 125.913786 
L 123.934145 125.913786 
L 123.934145 125.757415 
L 124.183067 125.757415 
L 124.183067 125.288303 
L 124.431989 125.288303 
L 124.431989 125.131932 
L 124.929833 125.131932 
L 124.929833 124.506448 
L 125.925521 124.506448 
L 125.925521 124.350078 
L 126.174443 124.350078 
L 126.174443 123.411853 
L 126.423365 123.411853 
L 126.423365 123.099111 
L 127.667975 123.099111 
L 127.667975 122.94274 
L 128.663663 122.94274 
L 128.663663 122.78637 
L 129.161507 122.78637 
L 129.161507 122.629999 
L 129.410429 122.629999 
L 129.410429 122.004516 
L 129.659351 122.004516 
L 129.659351 121.691774 
L 130.157195 121.691774 
L 130.157195 121.535403 
L 131.650728 121.535403 
L 131.650728 121.222661 
L 131.89965 121.222661 
L 131.89965 121.066291 
L 132.397494 121.066291 
L 132.397494 120.753549 
L 132.646416 120.753549 
L 132.646416 120.128066 
L 133.14426 120.128066 
L 133.14426 119.815324 
L 133.393182 119.815324 
L 133.393182 119.502583 
L 135.135636 119.502583 
L 135.135636 119.346212 
L 135.63348 119.346212 
L 135.63348 119.189841 
L 135.882402 119.189841 
L 135.882402 118.407987 
L 136.629168 118.407987 
L 136.629168 118.251616 
L 136.87809 118.251616 
L 136.87809 118.095245 
L 137.127012 118.095245 
L 137.127012 117.938875 
L 137.375934 117.938875 
L 137.375934 117.782504 
L 137.624856 117.782504 
L 137.624856 117.469762 
L 137.873778 117.469762 
L 137.873778 117.313391 
L 138.1227 117.313391 
L 138.1227 117.15702 
L 138.371622 117.15702 
L 138.371622 117.00065 
L 139.118389 117.00065 
L 139.118389 116.844279 
L 139.367311 116.844279 
L 139.367311 116.687908 
L 139.616233 116.687908 
L 139.616233 116.218796 
L 139.865155 116.218796 
L 139.865155 116.062425 
L 140.114077 116.062425 
L 140.114077 115.906054 
L 141.607609 115.906054 
L 141.607609 115.749683 
L 143.847907 115.749683 
L 143.847907 115.593312 
L 144.345751 115.593312 
L 144.345751 115.280571 
L 144.594673 115.280571 
L 144.594673 114.498717 
L 144.843595 114.498717 
L 144.843595 114.185975 
L 145.092517 114.185975 
L 145.092517 113.560492 
L 147.332816 113.560492 
L 147.332816 113.404121 
L 147.581738 113.404121 
L 147.581738 113.24775 
L 148.079582 113.24775 
L 148.079582 113.091379 
L 149.573114 113.091379 
L 149.573114 112.935009 
L 150.070958 112.935009 
L 150.070958 112.309525 
L 150.31988 112.309525 
L 150.31988 112.153155 
L 150.817724 112.153155 
L 150.817724 111.996784 
L 151.066646 111.996784 
L 151.066646 111.371301 
L 151.56449 111.371301 
L 151.56449 111.21493 
L 152.062334 111.21493 
L 152.062334 111.058559 
L 152.8091 111.058559 
L 152.8091 110.745817 
L 153.306944 110.745817 
L 153.306944 110.589446 
L 153.555866 110.589446 
L 153.555866 110.276705 
L 154.302633 110.276705 
L 154.302633 110.120334 
L 154.800477 110.120334 
L 154.800477 109.963963 
L 155.049399 109.963963 
L 155.049399 109.494851 
L 155.298321 109.494851 
L 155.298321 109.025738 
L 155.547243 109.025738 
L 155.547243 108.869368 
L 155.796165 108.869368 
L 155.796165 108.556626 
L 156.542931 108.556626 
L 156.542931 108.243884 
L 156.791853 108.243884 
L 156.791853 108.087514 
L 157.289697 108.087514 
L 157.289697 107.618401 
L 157.538619 107.618401 
L 157.538619 107.46203 
L 158.783229 107.46203 
L 158.783229 107.149289 
L 159.032151 107.149289 
L 159.032151 106.680176 
L 159.529995 106.680176 
L 159.529995 106.523805 
L 160.525683 106.523805 
L 160.525683 106.054693 
L 161.023527 106.054693 
L 161.023527 105.898322 
L 162.268138 105.898322 
L 162.268138 105.585581 
L 163.263826 105.585581 
L 163.263826 105.116468 
L 163.512748 105.116468 
L 163.512748 104.803727 
L 163.76167 104.803727 
L 163.76167 104.334614 
L 164.508436 104.334614 
L 164.508436 104.178243 
L 164.757358 104.178243 
L 164.757358 104.021873 
L 165.504124 104.021873 
L 165.504124 103.865502 
L 166.25089 103.865502 
L 166.25089 103.55276 
L 166.499812 103.55276 
L 166.499812 103.240018 
L 166.748734 103.240018 
L 166.748734 102.927277 
L 166.997656 102.927277 
L 166.997656 102.770906 
L 167.246578 102.770906 
L 167.246578 101.989052 
L 167.744422 101.989052 
L 167.744422 101.832681 
L 168.242266 101.832681 
L 168.242266 101.51994 
L 169.237955 101.51994 
L 169.237955 101.207198 
L 169.486877 101.207198 
L 169.486877 101.050827 
L 169.984721 101.050827 
L 169.984721 100.894456 
L 170.233643 100.894456 
L 170.233643 100.581715 
L 170.482565 100.581715 
L 170.482565 100.268973 
L 170.980409 100.268973 
L 170.980409 99.956232 
L 171.478253 99.956232 
L 171.478253 99.64349 
L 171.727175 99.64349 
L 171.727175 99.174377 
L 171.976097 99.174377 
L 171.976097 99.018007 
L 172.225019 99.018007 
L 172.225019 98.861636 
L 172.971785 98.861636 
L 172.971785 98.548894 
L 173.220707 98.548894 
L 173.220707 98.392523 
L 173.718551 98.392523 
L 173.718551 98.236153 
L 174.216395 98.236153 
L 174.216395 98.079782 
L 176.705616 98.079782 
L 176.705616 97.76704 
L 176.954538 97.76704 
L 176.954538 97.610669 
L 177.20346 97.610669 
L 177.20346 97.454299 
L 177.452382 97.454299 
L 177.452382 97.141557 
L 178.199148 97.141557 
L 178.199148 96.828815 
L 178.696992 96.828815 
L 178.696992 96.516074 
L 179.194836 96.516074 
L 179.194836 96.359703 
L 180.190524 96.359703 
L 180.190524 96.203332 
L 181.435134 96.203332 
L 181.435134 96.046961 
L 181.932978 96.046961 
L 181.932978 95.89059 
L 182.1819 95.89059 
L 182.1819 95.577849 
L 182.430822 95.577849 
L 182.430822 95.265107 
L 182.679744 95.265107 
L 182.679744 95.108736 
L 183.42651 95.108736 
L 183.42651 94.639624 
L 183.924354 94.639624 
L 183.924354 94.326882 
L 184.920043 94.326882 
L 184.920043 94.170512 
L 185.168965 94.170512 
L 185.168965 93.545028 
L 185.417887 93.545028 
L 185.417887 93.388658 
L 185.915731 93.388658 
L 185.915731 93.232287 
L 186.662497 93.232287 
L 186.662497 92.919545 
L 187.658185 92.919545 
L 187.658185 92.606804 
L 188.156029 92.606804 
L 188.156029 92.137691 
L 188.404951 92.137691 
L 188.404951 91.668579 
L 188.653873 91.668579 
L 188.653873 91.512208 
L 188.902795 91.512208 
L 188.902795 91.355837 
L 189.151717 91.355837 
L 189.151717 91.199466 
L 189.649561 91.199466 
L 189.649561 90.730354 
L 189.898483 90.730354 
L 189.898483 90.573983 
L 190.396327 90.573983 
L 190.396327 90.261241 
L 191.392015 90.261241 
L 191.392015 90.104871 
L 191.640938 90.104871 
L 191.640938 89.9485 
L 191.88986 89.9485 
L 191.88986 89.792129 
L 192.885548 89.792129 
L 192.885548 89.635758 
L 193.383392 89.635758 
L 193.383392 89.323017 
L 194.130158 89.323017 
L 194.130158 89.166646 
L 194.628002 89.166646 
L 194.628002 89.010275 
L 194.876924 89.010275 
L 194.876924 88.697533 
L 195.62369 88.697533 
L 195.62369 88.541162 
L 196.121534 88.541162 
L 196.121534 88.07205 
L 196.8683 88.07205 
L 196.8683 87.915679 
L 198.11291 87.915679 
L 198.11291 87.759308 
L 198.361832 87.759308 
L 198.361832 87.602938 
L 198.610754 87.602938 
L 198.610754 87.290196 
L 199.108598 87.290196 
L 199.108598 87.133825 
L 199.855365 87.133825 
L 199.855365 86.977454 
L 200.104287 86.977454 
L 200.104287 86.821084 
L 201.099975 86.821084 
L 201.099975 86.508342 
L 201.846741 86.508342 
L 201.846741 86.351971 
L 203.589195 86.351971 
L 203.589195 86.1956 
L 204.087039 86.1956 
L 204.087039 86.03923 
L 204.833805 86.03923 
L 204.833805 85.726488 
L 205.580571 85.726488 
L 205.580571 85.570117 
L 206.078415 85.570117 
L 206.078415 85.413746 
L 206.576259 85.413746 
L 206.576259 85.101005 
L 206.825182 85.101005 
L 206.825182 84.16278 
L 207.323026 84.16278 
L 207.323026 84.006409 
L 207.571948 84.006409 
L 207.571948 83.850038 
L 207.82087 83.850038 
L 207.82087 83.537297 
L 208.069792 83.537297 
L 208.069792 83.380926 
L 208.816558 83.380926 
L 208.816558 83.224555 
L 210.061168 83.224555 
L 210.061168 82.755443 
L 210.559012 82.755443 
L 210.559012 82.442701 
L 210.807934 82.442701 
L 210.807934 82.129959 
L 211.056856 82.129959 
L 211.056856 81.660847 
L 211.803622 81.660847 
L 211.803622 81.504476 
L 212.052544 81.504476 
L 212.052544 81.348105 
L 212.550388 81.348105 
L 212.550388 81.035364 
L 213.048232 81.035364 
L 213.048232 80.878993 
L 213.794998 80.878993 
L 213.794998 80.722622 
L 214.04392 80.722622 
L 214.04392 80.566251 
L 214.541765 80.566251 
L 214.541765 80.40988 
L 215.537453 80.40988 
L 215.537453 80.25351 
L 216.035297 80.25351 
L 216.035297 80.097139 
L 217.030985 80.097139 
L 217.030985 79.940768 
L 219.271283 79.940768 
L 219.271283 79.784397 
L 220.764815 79.784397 
L 220.764815 79.628026 
L 222.258348 79.628026 
L 222.258348 79.471656 
L 222.756192 79.471656 
L 222.756192 79.002543 
L 223.254036 79.002543 
L 223.254036 78.533431 
L 223.502958 78.533431 
L 223.502958 78.37706 
L 224.249724 78.37706 
L 224.249724 78.220689 
L 224.498646 78.220689 
L 224.498646 78.064318 
L 226.738944 78.064318 
L 226.738944 77.907947 
L 227.236788 77.907947 
L 227.236788 77.751577 
L 227.48571 77.751577 
L 227.48571 77.595206 
L 227.734632 77.595206 
L 227.734632 77.438835 
L 227.983554 77.438835 
L 227.983554 77.282464 
L 228.232476 77.282464 
L 228.232476 77.126093 
L 228.481398 77.126093 
L 228.481398 76.969723 
L 228.979242 76.969723 
L 228.979242 76.813352 
L 229.228164 76.813352 
L 229.228164 76.50061 
L 229.974931 76.50061 
L 229.974931 76.187869 
L 231.468463 76.187869 
L 231.468463 76.031498 
L 232.464151 76.031498 
L 232.464151 75.875127 
L 232.961995 75.875127 
L 232.961995 75.718756 
L 235.451215 75.718756 
L 235.451215 75.562385 
L 235.700137 75.562385 
L 235.700137 75.406015 
L 236.695825 75.406015 
L 236.695825 75.249644 
L 237.442592 75.249644 
L 237.442592 75.093273 
L 238.43828 75.093273 
L 238.43828 74.936902 
L 239.185046 74.936902 
L 239.185046 74.780531 
L 239.433968 74.780531 
L 239.433968 74.624161 
L 241.176422 74.624161 
L 241.176422 74.46779 
L 241.674266 74.46779 
L 241.674266 74.311419 
L 241.923188 74.311419 
L 241.923188 74.155048 
L 242.17211 74.155048 
L 242.17211 73.842306 
L 242.918876 73.842306 
L 242.918876 73.529565 
L 243.665642 73.529565 
L 243.665642 72.904082 
L 244.66133 72.904082 
L 244.66133 72.747711 
L 246.403785 72.747711 
L 246.403785 72.59134 
L 247.150551 72.59134 
L 247.150551 72.434969 
L 247.648395 72.434969 
L 247.648395 72.278598 
L 248.395161 72.278598 
L 248.395161 71.653115 
L 248.644083 71.653115 
L 248.644083 71.496744 
L 250.137615 71.496744 
L 250.137615 71.340374 
L 250.386537 71.340374 
L 250.386537 71.184003 
L 250.884381 71.184003 
L 250.884381 71.027632 
L 251.631147 71.027632 
L 251.631147 70.71489 
L 252.128991 70.71489 
L 252.128991 70.558519 
L 252.626836 70.558519 
L 252.626836 70.402149 
L 253.373602 70.402149 
L 253.373602 70.089407 
L 254.867134 70.089407 
L 254.867134 69.933036 
L 255.6139 69.933036 
L 255.6139 69.776665 
L 255.862822 69.776665 
L 255.862822 69.620295 
L 256.111744 69.620295 
L 256.111744 69.151182 
L 256.609588 69.151182 
L 256.609588 68.838441 
L 257.107432 68.838441 
L 257.107432 68.68207 
L 257.356354 68.68207 
L 257.356354 68.525699 
L 257.605276 68.525699 
L 257.605276 68.369328 
L 258.10312 68.369328 
L 258.10312 67.900216 
L 258.600964 67.900216 
L 258.600964 67.743845 
L 258.849886 67.743845 
L 258.849886 67.431103 
L 259.098808 67.431103 
L 259.098808 66.961991 
L 260.841263 66.961991 
L 260.841263 66.80562 
L 261.588029 66.80562 
L 261.588029 66.649249 
L 262.583717 66.649249 
L 262.583717 66.180137 
L 262.832639 66.180137 
L 262.832639 66.023766 
L 263.828327 66.023766 
L 263.828327 65.867395 
L 264.824015 65.867395 
L 264.824015 65.711024 
L 265.321859 65.711024 
L 265.321859 65.398283 
L 265.570781 65.398283 
L 265.570781 65.085541 
L 266.317547 65.085541 
L 266.317547 64.92917 
L 266.566469 64.92917 
L 266.566469 64.616429 
L 267.064313 64.616429 
L 267.064313 64.460058 
L 267.81108 64.460058 
L 267.81108 64.147316 
L 268.060002 64.147316 
L 268.060002 63.990946 
L 269.05569 63.990946 
L 269.05569 63.834575 
L 269.304612 63.834575 
L 269.304612 63.678204 
L 269.553534 63.678204 
L 269.553534 63.521833 
L 270.3003 63.521833 
L 270.3003 63.365462 
L 270.549222 63.365462 
L 270.549222 63.209091 
L 273.536286 63.209091 
L 273.536286 63.052721 
L 274.03413 63.052721 
L 274.03413 62.427237 
L 274.780896 62.427237 
L 274.780896 62.270867 
L 276.772273 62.270867 
L 276.772273 61.801754 
L 278.016883 61.801754 
L 278.016883 61.645383 
L 278.763649 61.645383 
L 278.763649 61.489013 
L 279.012571 61.489013 
L 279.012571 61.332642 
L 279.261493 61.332642 
L 279.261493 61.0199 
L 279.510415 61.0199 
L 279.510415 60.863529 
L 280.755025 60.863529 
L 280.755025 60.550788 
L 281.501791 60.550788 
L 281.501791 60.394417 
L 281.750713 60.394417 
L 281.750713 60.238046 
L 283.244246 60.238046 
L 283.244246 59.925304 
L 284.488856 59.925304 
L 284.488856 59.768934 
L 284.737778 59.768934 
L 284.737778 59.612563 
L 284.9867 59.612563 
L 284.9867 59.299821 
L 285.235622 59.299821 
L 285.235622 59.14345 
L 285.733466 59.14345 
L 285.733466 58.830709 
L 285.982388 58.830709 
L 285.982388 58.674338 
L 287.973764 58.674338 
L 287.973764 58.517967 
L 288.222686 58.517967 
L 288.222686 58.361596 
L 288.471608 58.361596 
L 288.471608 58.205226 
L 288.969452 58.205226 
L 288.969452 58.048855 
L 290.462985 58.048855 
L 290.462985 57.892484 
L 291.707595 57.892484 
L 291.707595 57.736113 
L 294.445737 57.736113 
L 294.445737 57.423372 
L 294.694659 57.423372 
L 294.694659 56.954259 
L 295.939269 56.954259 
L 295.939269 56.797888 
L 296.188191 56.797888 
L 296.188191 56.485147 
L 296.437113 56.485147 
L 296.437113 56.172405 
L 297.432801 56.172405 
L 297.432801 56.016034 
L 297.681723 56.016034 
L 297.681723 55.703293 
L 297.930646 55.703293 
L 297.930646 55.390551 
L 298.42849 55.390551 
L 298.42849 55.23418 
L 299.424178 55.23418 
L 299.424178 54.765068 
L 299.6731 54.765068 
L 299.6731 54.608697 
L 300.170944 54.608697 
L 300.170944 54.452326 
L 302.909086 54.452326 
L 302.909086 54.139585 
L 304.402618 54.139585 
L 304.402618 53.983214 
L 305.398307 53.983214 
L 305.398307 53.826843 
L 306.642917 53.826843 
L 306.642917 53.670472 
L 307.389683 53.670472 
L 307.389683 53.357731 
L 307.887527 53.357731 
L 307.887527 53.20136 
L 308.883215 53.20136 
L 308.883215 52.732247 
L 310.625669 52.732247 
L 310.625669 52.419506 
L 311.621357 52.419506 
L 311.621357 52.263135 
L 313.11489 52.263135 
L 313.11489 52.106764 
L 314.110578 52.106764 
L 314.110578 51.950393 
L 314.608422 51.950393 
L 314.608422 51.794022 
L 315.355188 51.794022 
L 315.355188 51.637652 
L 315.853032 51.637652 
L 315.853032 51.481281 
L 317.346564 51.481281 
L 317.346564 51.32491 
L 317.844408 51.32491 
L 317.844408 51.168539 
L 318.342252 51.168539 
L 318.342252 51.012168 
L 319.089018 51.012168 
L 319.089018 50.855798 
L 321.080395 50.855798 
L 321.080395 50.386685 
L 321.827161 50.386685 
L 321.827161 50.230314 
L 329.0459 50.230314 
L 329.0459 50.073944 
L 329.294822 50.073944 
L 329.294822 49.917573 
L 329.543744 49.917573 
L 329.543744 49.761202 
L 330.041588 49.761202 
L 330.041588 49.604831 
L 330.29051 49.604831 
L 330.29051 49.44846 
L 330.539432 49.44846 
L 330.539432 49.135719 
L 330.788354 49.135719 
L 330.788354 48.822977 
L 331.037276 48.822977 
L 331.037276 48.666606 
L 334.02434 48.666606 
L 334.02434 48.353865 
L 337.758171 48.353865 
L 337.758171 48.041123 
L 338.007093 48.041123 
L 338.007093 47.884752 
L 338.504937 47.884752 
L 338.504937 47.572011 
L 339.002781 47.572011 
L 339.002781 47.41564 
L 340.496313 47.41564 
L 340.496313 47.259269 
L 340.994157 47.259269 
L 340.994157 47.102898 
L 341.492001 47.102898 
L 341.492001 46.946527 
L 342.487689 46.946527 
L 342.487689 46.008303 
L 344.727988 46.008303 
L 344.727988 45.851932 
L 345.474754 45.851932 
L 345.474754 45.695561 
L 346.22152 45.695561 
L 346.22152 45.53919 
L 350.702116 45.53919 
L 350.702116 45.382819 
L 352.444571 45.382819 
L 352.444571 45.226448 
L 352.693493 45.226448 
L 352.693493 45.070078 
L 355.182713 45.070078 
L 355.182713 44.913707 
L 355.431635 44.913707 
L 355.431635 44.757336 
L 356.676245 44.757336 
L 356.676245 44.600965 
L 358.169777 44.600965 
L 358.169777 44.444594 
L 358.667622 44.444594 
L 358.667622 44.288224 
L 359.165466 44.288224 
L 359.165466 44.131853 
L 362.401452 44.131853 
L 362.401452 43.819111 
L 364.890672 43.819111 
L 364.890672 43.50637 
L 366.135283 43.50637 
L 366.135283 43.349999 
L 366.633127 43.349999 
L 366.633127 43.193628 
L 367.379893 43.193628 
L 367.379893 43.037257 
L 368.126659 43.037257 
L 368.126659 42.880886 
L 368.375581 42.880886 
L 368.375581 42.724516 
L 368.873425 42.724516 
L 368.873425 42.568145 
L 370.366957 42.568145 
L 370.366957 42.255403 
L 370.615879 42.255403 
L 370.615879 42.099032 
L 372.607255 42.099032 
L 372.607255 41.942661 
L 373.105099 41.942661 
L 373.105099 41.786291 
L 374.100788 41.786291 
L 374.100788 41.62992 
L 374.847554 41.62992 
L 374.847554 41.317178 
L 375.345398 41.317178 
L 375.345398 41.160807 
L 376.341086 41.160807 
L 376.341086 41.004437 
L 377.336774 41.004437 
L 377.336774 40.848066 
L 378.332462 40.848066 
L 378.332462 40.691695 
L 379.32815 40.691695 
L 379.32815 40.535324 
L 384.057669 40.535324 
L 384.057669 40.378953 
L 384.555513 40.378953 
L 384.555513 40.222583 
L 387.293655 40.222583 
L 387.293655 40.066212 
L 390.031798 40.066212 
L 390.031798 39.909841 
L 390.778564 39.909841 
L 390.778564 39.75347 
L 392.023174 39.75347 
L 392.023174 39.440729 
L 393.018862 39.440729 
L 393.018862 39.127987 
L 393.267784 39.127987 
L 393.267784 38.971616 
L 399.241913 38.971616 
L 399.241913 38.815245 
L 401.482211 38.815245 
L 401.482211 38.658875 
L 402.975743 38.658875 
L 402.975743 38.502504 
L 403.971432 38.502504 
L 403.971432 38.346133 
L 404.469276 38.346133 
L 404.469276 38.189762 
L 406.460652 38.189762 
L 406.460652 37.87702 
L 406.958496 37.87702 
L 406.958496 37.72065 
L 407.207418 37.72065 
L 407.207418 37.564279 
L 409.447716 37.564279 
L 409.447716 37.407908 
L 411.936937 37.407908 
L 411.936937 37.251537 
L 415.919689 37.251537 
L 415.919689 37.095166 
L 422.889506 37.095166 
L 422.889506 36.938796 
L 424.383038 36.938796 
L 424.383038 36.782425 
L 425.87657 36.782425 
L 425.87657 36.626054 
L 426.125492 36.626054 
L 426.125492 36.469683 
L 429.361479 36.469683 
L 429.361479 36.313312 
L 429.610401 36.313312 
L 429.610401 36.156942 
L 431.601777 36.156942 
L 431.601777 36.000571 
L 433.344231 36.000571 
L 433.344231 35.8442 
L 435.086686 35.8442 
L 435.086686 35.687829 
L 437.575906 35.687829 
L 437.575906 35.531458 
L 438.07375 35.531458 
L 438.07375 35.531458 
" clip-path="url(#pfd92749989)" style="fill: none; stroke: #008000; stroke-width: 1.5; stroke-linecap: square"/>
   </g>
   <g id="line2d_14">
    <path d="M 43.78125 299.798125 
L 438.07375 35.531458 
" clip-path="url(#pfd92749989)" style="fill: none; stroke-dasharray: 5.55,2.4; stroke-dashoffset: 0; stroke: #000000; stroke-width: 1.5"/>
   </g>
   <g id="patch_3">
    <path d="M 43.78125 299.798125 
L 43.78125 22.318125 
" style="fill: none; stroke: #000000; stroke-width: 0.8; stroke-linejoin: miter; stroke-linecap: square"/>
   </g>
   <g id="patch_4">
    <path d="M 438.07375 299.798125 
L 438.07375 22.318125 
" style="fill: none; stroke: #000000; stroke-width: 0.8; stroke-linejoin: miter; stroke-linecap: square"/>
   </g>
   <g id="patch_5">
    <path d="M 43.78125 299.798125 
L 438.07375 299.798125 
" style="fill: none; stroke: #000000; stroke-width: 0.8; stroke-linejoin: miter; stroke-linecap: square"/>
   </g>
   <g id="patch_6">
    <path d="M 43.78125 22.318125 
L 438.07375 22.318125 
" style="fill: none; stroke: #000000; stroke-width: 0.8; stroke-linejoin: miter; stroke-linecap: square"/>
   </g>
   <g id="text_15">
    <!-- ROC Curve -->
    <g transform="translate(208.236875 16.318125) scale(0.12 -0.12)">
     <defs>
      <path id="DejaVuSans-4f" d="M 2522 4238 
Q 1834 4238 1429 3725 
Q 1025 3213 1025 2328 
Q 1025 1447 1429 934 
Q 1834 422 2522 422 
Q 3209 422 3611 934 
Q 4013 1447 4013 2328 
Q 4013 3213 3611 3725 
Q 3209 4238 2522 4238 
z
M 2522 4750 
Q 3503 4750 4090 4092 
Q 4678 3434 4678 2328 
Q 4678 1225 4090 567 
Q 3503 -91 2522 -91 
Q 1538 -91 948 565 
Q 359 1222 359 2328 
Q 359 3434 948 4092 
Q 1538 4750 2522 4750 
z
" transform="scale(0.015625)"/>
      <path id="DejaVuSans-43" d="M 4122 4306 
L 4122 3641 
Q 3803 3938 3442 4084 
Q 3081 4231 2675 4231 
Q 1875 4231 1450 3742 
Q 1025 3253 1025 2328 
Q 1025 1406 1450 917 
Q 1875 428 2675 428 
Q 3081 428 3442 575 
Q 3803 722 4122 1019 
L 4122 359 
Q 3791 134 3420 21 
Q 3050 -91 2638 -91 
Q 1578 -91 968 557 
Q 359 1206 359 2328 
Q 359 3453 968 4101 
Q 1578 4750 2638 4750 
Q 3056 4750 3426 4639 
Q 3797 4528 4122 4306 
z
" transform="scale(0.015625)"/>
     </defs>
     <use xlink:href="#DejaVuSans-52"/>
     <use xlink:href="#DejaVuSans-4f" x="69.482422"/>
     <use xlink:href="#DejaVuSans-43" x="148.193359"/>
     <use xlink:href="#DejaVuSans-20" x="218.017578"/>
     <use xlink:href="#DejaVuSans-43" x="249.804688"/>
     <use xlink:href="#DejaVuSans-75" x="319.628906"/>
     <use xlink:href="#DejaVuSans-72" x="383.007812"/>
     <use xlink:href="#DejaVuSans-76" x="424.121094"/>
     <use xlink:href="#DejaVuSans-65" x="483.300781"/>
    </g>
   </g>
   <g id="legend_1">
    <g id="patch_7">
     <path d="M 317.24875 294.798125 
L 431.07375 294.798125 
Q 433.07375 294.798125 433.07375 292.798125 
L 433.07375 279.12 
Q 433.07375 277.12 431.07375 277.12 
L 317.24875 277.12 
Q 315.24875 277.12 315.24875 279.12 
L 315.24875 292.798125 
Q 315.24875 294.798125 317.24875 294.798125 
z
" style="fill: #ffffff; opacity: 0.8; stroke: #cccccc; stroke-linejoin: miter"/>
    </g>
    <g id="line2d_15">
     <path d="M 319.24875 285.218438 
L 329.24875 285.218438 
L 339.24875 285.218438 
" style="fill: none; stroke: #008000; stroke-width: 1.5; stroke-linecap: square"/>
    </g>
    <g id="text_16">
     <!-- RF (AUC = 0.80) -->
     <g transform="translate(347.24875 288.718438) scale(0.1 -0.1)">
      <defs>
       <path id="DejaVuSans-28" d="M 1984 4856 
Q 1566 4138 1362 3434 
Q 1159 2731 1159 2009 
Q 1159 1288 1364 580 
Q 1569 -128 1984 -844 
L 1484 -844 
Q 1016 -109 783 600 
Q 550 1309 550 2009 
Q 550 2706 781 3412 
Q 1013 4119 1484 4856 
L 1984 4856 
z
" transform="scale(0.015625)"/>
       <path id="DejaVuSans-41" d="M 2188 4044 
L 1331 1722 
L 3047 1722 
L 2188 4044 
z
M 1831 4666 
L 2547 4666 
L 4325 0 
L 3669 0 
L 3244 1197 
L 1141 1197 
L 716 0 
L 50 0 
L 1831 4666 
z
" transform="scale(0.015625)"/>
       <path id="DejaVuSans-55" d="M 556 4666 
L 1191 4666 
L 1191 1831 
Q 1191 1081 1462 751 
Q 1734 422 2344 422 
Q 2950 422 3222 751 
Q 3494 1081 3494 1831 
L 3494 4666 
L 4128 4666 
L 4128 1753 
Q 4128 841 3676 375 
Q 3225 -91 2344 -91 
Q 1459 -91 1007 375 
Q 556 841 556 1753 
L 556 4666 
z
" transform="scale(0.015625)"/>
       <path id="DejaVuSans-3d" d="M 678 2906 
L 4684 2906 
L 4684 2381 
L 678 2381 
L 678 2906 
z
M 678 1631 
L 4684 1631 
L 4684 1100 
L 678 1100 
L 678 1631 
z
" transform="scale(0.015625)"/>
       <path id="DejaVuSans-29" d="M 513 4856 
L 1013 4856 
Q 1481 4119 1714 3412 
Q 1947 2706 1947 2009 
Q 1947 1309 1714 600 
Q 1481 -109 1013 -844 
L 513 -844 
Q 928 -128 1133 580 
Q 1338 1288 1338 2009 
Q 1338 2731 1133 3434 
Q 928 4138 513 4856 
z
" transform="scale(0.015625)"/>
      </defs>
      <use xlink:href="#DejaVuSans-52"/>
      <use xlink:href="#DejaVuSans-46" x="69.482422"/>
      <use xlink:href="#DejaVuSans-20" x="127.001953"/>
      <use xlink:href="#DejaVuSans-28" x="158.789062"/>
      <use xlink:href="#DejaVuSans-41" x="197.802734"/>
      <use xlink:href="#DejaVuSans-55" x="266.210938"/>
      <use xlink:href="#DejaVuSans-43" x="339.404297"/>
      <use xlink:href="#DejaVuSans-20" x="409.228516"/>
      <use xlink:href="#DejaVuSans-3d" x="441.015625"/>
      <use xlink:href="#DejaVuSans-20" x="524.804688"/>
      <use xlink:href="#DejaVuSans-30" x="556.591797"/>
      <use xlink:href="#DejaVuSans-2e" x="620.214844"/>
      <use xlink:href="#DejaVuSans-38" x="652.001953"/>
      <use xlink:href="#DejaVuSans-30" x="715.625"/>
      <use xlink:href="#DejaVuSans-29" x="779.248047"/>
     </g>
    </g>
   </g>
  </g>
 </g>
 <defs>
  <clipPath id="pfd92749989">
   <rect x="43.78125" y="22.318125" width="394.2925" height="277.48"/>
  </clipPath>
 </defs>
</svg>
