<?xml version="1.0" encoding="utf-8" standalone="no"?>
<!DOCTYPE svg PUBLIC "-//W3C//DTD SVG 1.1//EN"
  "http://www.w3.org/Graphics/SVG/1.1/DTD/svg11.dtd">
<svg xmlns:xlink="http://www.w3.org/1999/xlink" width="453.225312pt" height="337.354375pt" viewBox="0 0 453.225312 337.354375" xmlns="http://www.w3.org/2000/svg" version="1.1">
 <metadata>
  <rdf:RDF xmlns:dc="http://purl.org/dc/elements/1.1/" xmlns:cc="http://creativecommons.org/ns#" xmlns:rdf="http://www.w3.org/1999/02/22-rdf-syntax-ns#">
   <cc:Work>
    <dc:type rdf:resource="http://purl.org/dc/dcmitype/StillImage"/>
    <dc:date>2025-11-08T18:00:04.980574</dc:date>
    <dc:format>image/svg+xml</dc:format>
    <dc:creator>
     <cc:Agent>
      <dc:title>Matplotlib v3.9.1, https://matplotlib.org/</dc:title>
     </cc:Agent>
    </dc:creator>
   </cc:Work>
  </rdf:RDF>
 </metadata>
 <defs>
  <style type="text/css">*{stroke-linejoin: round; stroke-linecap: butt}</style>
 </defs>
 <g id="figure_1">
  <g id="patch_1">
   <path d="M 0 337.354375 
L 453.225312 337.354375 
L 453.225312 0 
L 0 0 
z
" style="fill: #ffffff"/>
  </g>
  <g id="axes_1">
   <g id="patch_2">
    <path d="M 43.78125 299.798125 
L 438.07375 299.798125 
L 438.07375 22.318125 
L 43.78125 22.318125 
z
" style="fill: #ffffff"/>
   </g>
   <g id="matplotlib.axis_1">
    <g id="xtick_1">
     <g id="line2d_1">
      <defs>
       <path id="m23b290d816" d="M 0 0 
L 0 3.5 
" style="stroke: #000000; stroke-width: 0.8"/>
      </defs>
      <g>
       <use xlink:href="#m23b290d816" x="43.78125" y="299.798125" style="stroke: #000000; stroke-width: 0.8"/>
      </g>
     </g>
     <g id="text_1">
      <!-- 0.0 -->
      <g transform="translate(35.829688 314.396563) scale(0.1 -0.1)">
       <defs>
        <path id="DejaVuSans-30" d="M 2034 4250 
Q 1547 4250 1301 3770 
Q 1056 3291 1056 2328 
Q 1056 1369 1301 889 
Q 1547 409 2034 409 
Q 2525 409 2770 889 
Q 3016 1369 3016 2328 
Q 3016 3291 2770 3770 
Q 2525 4250 2034 4250 
z
M 2034 4750 
Q 2819 4750 3233 4129 
Q 3647 3509 3647 2328 
Q 3647 1150 3233 529 
Q 2819 -91 2034 -91 
Q 1250 -91 836 529 
Q 422 1150 422 2328 
Q 422 3509 836 4129 
Q 1250 4750 2034 4750 
z
" transform="scale(0.015625)"/>
        <path id="DejaVuSans-2e" d="M 684 794 
L 1344 794 
L 1344 0 
L 684 0 
L 684 794 
z
" transform="scale(0.015625)"/>
       </defs>
       <use xlink:href="#DejaVuSans-30"/>
       <use xlink:href="#DejaVuSans-2e" x="63.623047"/>
       <use xlink:href="#DejaVuSans-30" x="95.410156"/>
      </g>
     </g>
    </g>
    <g id="xtick_2">
     <g id="line2d_2">
      <g>
       <use xlink:href="#m23b290d816" x="122.63975" y="299.798125" style="stroke: #000000; stroke-width: 0.8"/>
      </g>
     </g>
     <g id="text_2">
      <!-- 0.2 -->
      <g transform="translate(114.688188 314.396563) scale(0.1 -0.1)">
       <defs>
        <path id="DejaVuSans-32" d="M 1228 531 
L 3431 531 
L 3431 0 
L 469 0 
L 469 531 
Q 828 903 1448 1529 
Q 2069 2156 2228 2338 
Q 2531 2678 2651 2914 
Q 2772 3150 2772 3378 
Q 2772 3750 2511 3984 
Q 2250 4219 1831 4219 
Q 1534 4219 1204 4116 
Q 875 4013 500 3803 
L 500 4441 
Q 881 4594 1212 4672 
Q 1544 4750 1819 4750 
Q 2544 4750 2975 4387 
Q 3406 4025 3406 3419 
Q 3406 3131 3298 2873 
Q 3191 2616 2906 2266 
Q 2828 2175 2409 1742 
Q 1991 1309 1228 531 
z
" transform="scale(0.015625)"/>
       </defs>
       <use xlink:href="#DejaVuSans-30"/>
       <use xlink:href="#DejaVuSans-2e" x="63.623047"/>
       <use xlink:href="#DejaVuSans-32" x="95.410156"/>
      </g>
     </g>
    </g>
    <g id="xtick_3">
     <g id="line2d_3">
      <g>
       <use xlink:href="#m23b290d816" x="201.49825" y="299.798125" style="stroke: #000000; stroke-width: 0.8"/>
      </g>
     </g>
     <g id="text_3">
      <!-- 0.4 -->
      <g transform="translate(193.546688 314.396563) scale(0.1 -0.1)">
       <defs>
        <path id="DejaVuSans-34" d="M 2419 4116 
L 825 1625 
L 2419 1625 
L 2419 4116 
z
M 2253 4666 
L 3047 4666 
L 3047 1625 
L 3713 1625 
L 3713 1100 
L 3047 1100 
L 3047 0 
L 2419 0 
L 2419 1100 
L 313 1100 
L 313 1709 
L 2253 4666 
z
" transform="scale(0.015625)"/>
       </defs>
       <use xlink:href="#DejaVuSans-30"/>
       <use xlink:href="#DejaVuSans-2e" x="63.623047"/>
       <use xlink:href="#DejaVuSans-34" x="95.410156"/>
      </g>
     </g>
    </g>
    <g id="xtick_4">
     <g id="line2d_4">
      <g>
       <use xlink:href="#m23b290d816" x="280.35675" y="299.798125" style="stroke: #000000; stroke-width: 0.8"/>
      </g>
     </g>
     <g id="text_4">
      <!-- 0.6 -->
      <g transform="translate(272.405188 314.396563) scale(0.1 -0.1)">
       <defs>
        <path id="DejaVuSans-36" d="M 2113 2584 
Q 1688 2584 1439 2293 
Q 1191 2003 1191 1497 
Q 1191 994 1439 701 
Q 1688 409 2113 409 
Q 2538 409 2786 701 
Q 3034 994 3034 1497 
Q 3034 2003 2786 2293 
Q 2538 2584 2113 2584 
z
M 3366 4563 
L 3366 3988 
Q 3128 4100 2886 4159 
Q 2644 4219 2406 4219 
Q 1781 4219 1451 3797 
Q 1122 3375 1075 2522 
Q 1259 2794 1537 2939 
Q 1816 3084 2150 3084 
Q 2853 3084 3261 2657 
Q 3669 2231 3669 1497 
Q 3669 778 3244 343 
Q 2819 -91 2113 -91 
Q 1303 -91 875 529 
Q 447 1150 447 2328 
Q 447 3434 972 4092 
Q 1497 4750 2381 4750 
Q 2619 4750 2861 4703 
Q 3103 4656 3366 4563 
z
" transform="scale(0.015625)"/>
       </defs>
       <use xlink:href="#DejaVuSans-30"/>
       <use xlink:href="#DejaVuSans-2e" x="63.623047"/>
       <use xlink:href="#DejaVuSans-36" x="95.410156"/>
      </g>
     </g>
    </g>
    <g id="xtick_5">
     <g id="line2d_5">
      <g>
       <use xlink:href="#m23b290d816" x="359.21525" y="299.798125" style="stroke: #000000; stroke-width: 0.8"/>
      </g>
     </g>
     <g id="text_5">
      <!-- 0.8 -->
      <g transform="translate(351.263688 314.396563) scale(0.1 -0.1)">
       <defs>
        <path id="DejaVuSans-38" d="M 2034 2216 
Q 1584 2216 1326 1975 
Q 1069 1734 1069 1313 
Q 1069 891 1326 650 
Q 1584 409 2034 409 
Q 2484 409 2743 651 
Q 3003 894 3003 1313 
Q 3003 1734 2745 1975 
Q 2488 2216 2034 2216 
z
M 1403 2484 
Q 997 2584 770 2862 
Q 544 3141 544 3541 
Q 544 4100 942 4425 
Q 1341 4750 2034 4750 
Q 2731 4750 3128 4425 
Q 3525 4100 3525 3541 
Q 3525 3141 3298 2862 
Q 3072 2584 2669 2484 
Q 3125 2378 3379 2068 
Q 3634 1759 3634 1313 
Q 3634 634 3220 271 
Q 2806 -91 2034 -91 
Q 1263 -91 848 271 
Q 434 634 434 1313 
Q 434 1759 690 2068 
Q 947 2378 1403 2484 
z
M 1172 3481 
Q 1172 3119 1398 2916 
Q 1625 2713 2034 2713 
Q 2441 2713 2670 2916 
Q 2900 3119 2900 3481 
Q 2900 3844 2670 4047 
Q 2441 4250 2034 4250 
Q 1625 4250 1398 4047 
Q 1172 3844 1172 3481 
z
" transform="scale(0.015625)"/>
       </defs>
       <use xlink:href="#DejaVuSans-30"/>
       <use xlink:href="#DejaVuSans-2e" x="63.623047"/>
       <use xlink:href="#DejaVuSans-38" x="95.410156"/>
      </g>
     </g>
    </g>
    <g id="xtick_6">
     <g id="line2d_6">
      <g>
       <use xlink:href="#m23b290d816" x="438.07375" y="299.798125" style="stroke: #000000; stroke-width: 0.8"/>
      </g>
     </g>
     <g id="text_6">
      <!-- 1.0 -->
      <g transform="translate(430.122187 314.396563) scale(0.1 -0.1)">
       <defs>
        <path id="DejaVuSans-31" d="M 794 531 
L 1825 531 
L 1825 4091 
L 703 3866 
L 703 4441 
L 1819 4666 
L 2450 4666 
L 2450 531 
L 3481 531 
L 3481 0 
L 794 0 
L 794 531 
z
" transform="scale(0.015625)"/>
       </defs>
       <use xlink:href="#DejaVuSans-31"/>
       <use xlink:href="#DejaVuSans-2e" x="63.623047"/>
       <use xlink:href="#DejaVuSans-30" x="95.410156"/>
      </g>
     </g>
    </g>
    <g id="text_7">
     <!-- False Positive Rate -->
     <g transform="translate(194.461094 328.074688) scale(0.1 -0.1)">
      <defs>
       <path id="DejaVuSans-46" d="M 628 4666 
L 3309 4666 
L 3309 4134 
L 1259 4134 
L 1259 2759 
L 3109 2759 
L 3109 2228 
L 1259 2228 
L 1259 0 
L 628 0 
L 628 4666 
z
" transform="scale(0.015625)"/>
       <path id="DejaVuSans-61" d="M 2194 1759 
Q 1497 1759 1228 1600 
Q 959 1441 959 1056 
Q 959 750 1161 570 
Q 1363 391 1709 391 
Q 2188 391 2477 730 
Q 2766 1069 2766 1631 
L 2766 1759 
L 2194 1759 
z
M 3341 1997 
L 3341 0 
L 2766 0 
L 2766 531 
Q 2569 213 2275 61 
Q 1981 -91 1556 -91 
Q 1019 -91 701 211 
Q 384 513 384 1019 
Q 384 1609 779 1909 
Q 1175 2209 1959 2209 
L 2766 2209 
L 2766 2266 
Q 2766 2663 2505 2880 
Q 2244 3097 1772 3097 
Q 1472 3097 1187 3025 
Q 903 2953 641 2809 
L 641 3341 
Q 956 3463 1253 3523 
Q 1550 3584 1831 3584 
Q 2591 3584 2966 3190 
Q 3341 2797 3341 1997 
z
" transform="scale(0.015625)"/>
       <path id="DejaVuSans-6c" d="M 603 4863 
L 1178 4863 
L 1178 0 
L 603 0 
L 603 4863 
z
" transform="scale(0.015625)"/>
       <path id="DejaVuSans-73" d="M 2834 3397 
L 2834 2853 
Q 2591 2978 2328 3040 
Q 2066 3103 1784 3103 
Q 1356 3103 1142 2972 
Q 928 2841 928 2578 
Q 928 2378 1081 2264 
Q 1234 2150 1697 2047 
L 1894 2003 
Q 2506 1872 2764 1633 
Q 3022 1394 3022 966 
Q 3022 478 2636 193 
Q 2250 -91 1575 -91 
Q 1294 -91 989 -36 
Q 684 19 347 128 
L 347 722 
Q 666 556 975 473 
Q 1284 391 1588 391 
Q 1994 391 2212 530 
Q 2431 669 2431 922 
Q 2431 1156 2273 1281 
Q 2116 1406 1581 1522 
L 1381 1569 
Q 847 1681 609 1914 
Q 372 2147 372 2553 
Q 372 3047 722 3315 
Q 1072 3584 1716 3584 
Q 2034 3584 2315 3537 
Q 2597 3491 2834 3397 
z
" transform="scale(0.015625)"/>
       <path id="DejaVuSans-65" d="M 3597 1894 
L 3597 1613 
L 953 1613 
Q 991 1019 1311 708 
Q 1631 397 2203 397 
Q 2534 397 2845 478 
Q 3156 559 3463 722 
L 3463 178 
Q 3153 47 2828 -22 
Q 2503 -91 2169 -91 
Q 1331 -91 842 396 
Q 353 884 353 1716 
Q 353 2575 817 3079 
Q 1281 3584 2069 3584 
Q 2775 3584 3186 3129 
Q 3597 2675 3597 1894 
z
M 3022 2063 
Q 3016 2534 2758 2815 
Q 2500 3097 2075 3097 
Q 1594 3097 1305 2825 
Q 1016 2553 972 2059 
L 3022 2063 
z
" transform="scale(0.015625)"/>
       <path id="DejaVuSans-20" transform="scale(0.015625)"/>
       <path id="DejaVuSans-50" d="M 1259 4147 
L 1259 2394 
L 2053 2394 
Q 2494 2394 2734 2622 
Q 2975 2850 2975 3272 
Q 2975 3691 2734 3919 
Q 2494 4147 2053 4147 
L 1259 4147 
z
M 628 4666 
L 2053 4666 
Q 2838 4666 3239 4311 
Q 3641 3956 3641 3272 
Q 3641 2581 3239 2228 
Q 2838 1875 2053 1875 
L 1259 1875 
L 1259 0 
L 628 0 
L 628 4666 
z
" transform="scale(0.015625)"/>
       <path id="DejaVuSans-6f" d="M 1959 3097 
Q 1497 3097 1228 2736 
Q 959 2375 959 1747 
Q 959 1119 1226 758 
Q 1494 397 1959 397 
Q 2419 397 2687 759 
Q 2956 1122 2956 1747 
Q 2956 2369 2687 2733 
Q 2419 3097 1959 3097 
z
M 1959 3584 
Q 2709 3584 3137 3096 
Q 3566 2609 3566 1747 
Q 3566 888 3137 398 
Q 2709 -91 1959 -91 
Q 1206 -91 779 398 
Q 353 888 353 1747 
Q 353 2609 779 3096 
Q 1206 3584 1959 3584 
z
" transform="scale(0.015625)"/>
       <path id="DejaVuSans-69" d="M 603 3500 
L 1178 3500 
L 1178 0 
L 603 0 
L 603 3500 
z
M 603 4863 
L 1178 4863 
L 1178 4134 
L 603 4134 
L 603 4863 
z
" transform="scale(0.015625)"/>
       <path id="DejaVuSans-74" d="M 1172 4494 
L 1172 3500 
L 2356 3500 
L 2356 3053 
L 1172 3053 
L 1172 1153 
Q 1172 725 1289 603 
Q 1406 481 1766 481 
L 2356 481 
L 2356 0 
L 1766 0 
Q 1100 0 847 248 
Q 594 497 594 1153 
L 594 3053 
L 172 3053 
L 172 3500 
L 594 3500 
L 594 4494 
L 1172 4494 
z
" transform="scale(0.015625)"/>
       <path id="DejaVuSans-76" d="M 191 3500 
L 800 3500 
L 1894 563 
L 2988 3500 
L 3597 3500 
L 2284 0 
L 1503 0 
L 191 3500 
z
" transform="scale(0.015625)"/>
       <path id="DejaVuSans-52" d="M 2841 2188 
Q 3044 2119 3236 1894 
Q 3428 1669 3622 1275 
L 4263 0 
L 3584 0 
L 2988 1197 
Q 2756 1666 2539 1819 
Q 2322 1972 1947 1972 
L 1259 1972 
L 1259 0 
L 628 0 
L 628 4666 
L 2053 4666 
Q 2853 4666 3247 4331 
Q 3641 3997 3641 3322 
Q 3641 2881 3436 2590 
Q 3231 2300 2841 2188 
z
M 1259 4147 
L 1259 2491 
L 2053 2491 
Q 2509 2491 2742 2702 
Q 2975 2913 2975 3322 
Q 2975 3731 2742 3939 
Q 2509 4147 2053 4147 
L 1259 4147 
z
" transform="scale(0.015625)"/>
      </defs>
      <use xlink:href="#DejaVuSans-46"/>
      <use xlink:href="#DejaVuSans-61" x="48.394531"/>
      <use xlink:href="#DejaVuSans-6c" x="109.673828"/>
      <use xlink:href="#DejaVuSans-73" x="137.457031"/>
      <use xlink:href="#DejaVuSans-65" x="189.556641"/>
      <use xlink:href="#DejaVuSans-20" x="251.080078"/>
      <use xlink:href="#DejaVuSans-50" x="282.867188"/>
      <use xlink:href="#DejaVuSans-6f" x="339.544922"/>
      <use xlink:href="#DejaVuSans-73" x="400.726562"/>
      <use xlink:href="#DejaVuSans-69" x="452.826172"/>
      <use xlink:href="#DejaVuSans-74" x="480.609375"/>
      <use xlink:href="#DejaVuSans-69" x="519.818359"/>
      <use xlink:href="#DejaVuSans-76" x="547.601562"/>
      <use xlink:href="#DejaVuSans-65" x="606.78125"/>
      <use xlink:href="#DejaVuSans-20" x="668.304688"/>
      <use xlink:href="#DejaVuSans-52" x="700.091797"/>
      <use xlink:href="#DejaVuSans-61" x="767.324219"/>
      <use xlink:href="#DejaVuSans-74" x="828.603516"/>
      <use xlink:href="#DejaVuSans-65" x="867.8125"/>
     </g>
    </g>
   </g>
   <g id="matplotlib.axis_2">
    <g id="ytick_1">
     <g id="line2d_7">
      <defs>
       <path id="m9eeed24cf7" d="M 0 0 
L -3.5 0 
" style="stroke: #000000; stroke-width: 0.8"/>
      </defs>
      <g>
       <use xlink:href="#m9eeed24cf7" x="43.78125" y="299.798125" style="stroke: #000000; stroke-width: 0.8"/>
      </g>
     </g>
     <g id="text_8">
      <!-- 0.0 -->
      <g transform="translate(20.878125 303.597344) scale(0.1 -0.1)">
       <use xlink:href="#DejaVuSans-30"/>
       <use xlink:href="#DejaVuSans-2e" x="63.623047"/>
       <use xlink:href="#DejaVuSans-30" x="95.410156"/>
      </g>
     </g>
    </g>
    <g id="ytick_2">
     <g id="line2d_8">
      <g>
       <use xlink:href="#m9eeed24cf7" x="43.78125" y="246.944792" style="stroke: #000000; stroke-width: 0.8"/>
      </g>
     </g>
     <g id="text_9">
      <!-- 0.2 -->
      <g transform="translate(20.878125 250.74401) scale(0.1 -0.1)">
       <use xlink:href="#DejaVuSans-30"/>
       <use xlink:href="#DejaVuSans-2e" x="63.623047"/>
       <use xlink:href="#DejaVuSans-32" x="95.410156"/>
      </g>
     </g>
    </g>
    <g id="ytick_3">
     <g id="line2d_9">
      <g>
       <use xlink:href="#m9eeed24cf7" x="43.78125" y="194.091458" style="stroke: #000000; stroke-width: 0.8"/>
      </g>
     </g>
     <g id="text_10">
      <!-- 0.4 -->
      <g transform="translate(20.878125 197.890677) scale(0.1 -0.1)">
       <use xlink:href="#DejaVuSans-30"/>
       <use xlink:href="#DejaVuSans-2e" x="63.623047"/>
       <use xlink:href="#DejaVuSans-34" x="95.410156"/>
      </g>
     </g>
    </g>
    <g id="ytick_4">
     <g id="line2d_10">
      <g>
       <use xlink:href="#m9eeed24cf7" x="43.78125" y="141.238125" style="stroke: #000000; stroke-width: 0.8"/>
      </g>
     </g>
     <g id="text_11">
      <!-- 0.6 -->
      <g transform="translate(20.878125 145.037344) scale(0.1 -0.1)">
       <use xlink:href="#DejaVuSans-30"/>
       <use xlink:href="#DejaVuSans-2e" x="63.623047"/>
       <use xlink:href="#DejaVuSans-36" x="95.410156"/>
      </g>
     </g>
    </g>
    <g id="ytick_5">
     <g id="line2d_11">
      <g>
       <use xlink:href="#m9eeed24cf7" x="43.78125" y="88.384792" style="stroke: #000000; stroke-width: 0.8"/>
      </g>
     </g>
     <g id="text_12">
      <!-- 0.8 -->
      <g transform="translate(20.878125 92.18401) scale(0.1 -0.1)">
       <use xlink:href="#DejaVuSans-30"/>
       <use xlink:href="#DejaVuSans-2e" x="63.623047"/>
       <use xlink:href="#DejaVuSans-38" x="95.410156"/>
      </g>
     </g>
    </g>
    <g id="ytick_6">
     <g id="line2d_12">
      <g>
       <use xlink:href="#m9eeed24cf7" x="43.78125" y="35.531458" style="stroke: #000000; stroke-width: 0.8"/>
      </g>
     </g>
     <g id="text_13">
      <!-- 1.0 -->
      <g transform="translate(20.878125 39.330677) scale(0.1 -0.1)">
       <use xlink:href="#DejaVuSans-31"/>
       <use xlink:href="#DejaVuSans-2e" x="63.623047"/>
       <use xlink:href="#DejaVuSans-30" x="95.410156"/>
      </g>
     </g>
    </g>
    <g id="text_14">
     <!-- True Positive Rate -->
     <g transform="translate(14.798438 205.587813) rotate(-90) scale(0.1 -0.1)">
      <defs>
       <path id="DejaVuSans-54" d="M -19 4666 
L 3928 4666 
L 3928 4134 
L 2272 4134 
L 2272 0 
L 1638 0 
L 1638 4134 
L -19 4134 
L -19 4666 
z
" transform="scale(0.015625)"/>
       <path id="DejaVuSans-72" d="M 2631 2963 
Q 2534 3019 2420 3045 
Q 2306 3072 2169 3072 
Q 1681 3072 1420 2755 
Q 1159 2438 1159 1844 
L 1159 0 
L 581 0 
L 581 3500 
L 1159 3500 
L 1159 2956 
Q 1341 3275 1631 3429 
Q 1922 3584 2338 3584 
Q 2397 3584 2469 3576 
Q 2541 3569 2628 3553 
L 2631 2963 
z
" transform="scale(0.015625)"/>
       <path id="DejaVuSans-75" d="M 544 1381 
L 544 3500 
L 1119 3500 
L 1119 1403 
Q 1119 906 1312 657 
Q 1506 409 1894 409 
Q 2359 409 2629 706 
Q 2900 1003 2900 1516 
L 2900 3500 
L 3475 3500 
L 3475 0 
L 2900 0 
L 2900 538 
Q 2691 219 2414 64 
Q 2138 -91 1772 -91 
Q 1169 -91 856 284 
Q 544 659 544 1381 
z
M 1991 3584 
L 1991 3584 
z
" transform="scale(0.015625)"/>
      </defs>
      <use xlink:href="#DejaVuSans-54"/>
      <use xlink:href="#DejaVuSans-72" x="46.333984"/>
      <use xlink:href="#DejaVuSans-75" x="87.447266"/>
      <use xlink:href="#DejaVuSans-65" x="150.826172"/>
      <use xlink:href="#DejaVuSans-20" x="212.349609"/>
      <use xlink:href="#DejaVuSans-50" x="244.136719"/>
      <use xlink:href="#DejaVuSans-6f" x="300.814453"/>
      <use xlink:href="#DejaVuSans-73" x="361.996094"/>
      <use xlink:href="#DejaVuSans-69" x="414.095703"/>
      <use xlink:href="#DejaVuSans-74" x="441.878906"/>
      <use xlink:href="#DejaVuSans-69" x="481.087891"/>
      <use xlink:href="#DejaVuSans-76" x="508.871094"/>
      <use xlink:href="#DejaVuSans-65" x="568.050781"/>
      <use xlink:href="#DejaVuSans-20" x="629.574219"/>
      <use xlink:href="#DejaVuSans-52" x="661.361328"/>
      <use xlink:href="#DejaVuSans-61" x="728.59375"/>
      <use xlink:href="#DejaVuSans-74" x="789.873047"/>
      <use xlink:href="#DejaVuSans-65" x="829.082031"/>
     </g>
    </g>
   </g>
   <g id="line2d_13">
    <path d="M 43.78125 299.798125 
L 43.78125 298.871524 
L 44.136789 298.871524 
L 44.136789 285.528466 
L 44.492328 285.528466 
L 44.492328 283.860584 
L 44.847866 283.860584 
L 44.847866 282.563342 
L 45.203405 282.563342 
L 45.203405 280.52482 
L 45.558944 280.52482 
L 45.558944 275.150533 
L 45.914483 275.150533 
L 45.914483 274.965212 
L 46.270021 274.965212 
L 46.270021 269.961566 
L 46.62556 269.961566 
L 46.62556 268.293684 
L 46.981099 268.293684 
L 46.981099 267.552403 
L 47.336638 267.552403 
L 47.336638 263.660678 
L 48.047715 263.660678 
L 48.047715 263.104717 
L 48.403254 263.104717 
L 48.403254 255.506587 
L 48.758793 255.506587 
L 48.758793 250.873581 
L 49.114332 250.873581 
L 49.114332 248.649738 
L 49.46987 248.649738 
L 49.46987 248.464418 
L 49.825409 248.464418 
L 49.825409 243.646091 
L 50.180948 243.646091 
L 50.180948 234.380079 
L 50.536487 234.380079 
L 50.536487 232.156236 
L 50.892025 232.156236 
L 50.892025 230.673674 
L 51.247564 230.673674 
L 51.247564 230.117714 
L 51.603103 230.117714 
L 51.603103 228.079191 
L 51.958642 228.079191 
L 51.958642 227.70855 
L 52.314181 227.70855 
L 52.314181 224.743427 
L 53.025258 224.743427 
L 53.025258 221.963623 
L 53.380797 221.963623 
L 53.380797 221.407662 
L 53.736336 221.407662 
L 53.736336 220.851701 
L 54.091874 220.851701 
L 54.091874 219.9251 
L 54.447413 219.9251 
L 54.447413 217.886578 
L 54.802952 217.886578 
L 54.802952 216.959976 
L 55.158491 216.959976 
L 55.158491 213.624212 
L 55.51403 213.624212 
L 55.51403 211.95633 
L 55.869568 211.95633 
L 55.869568 211.585689 
L 56.225107 211.585689 
L 56.225107 209.547167 
L 56.580646 209.547167 
L 56.580646 208.620565 
L 56.936185 208.620565 
L 56.936185 208.064605 
L 57.291723 208.064605 
L 57.291723 207.138003 
L 57.647262 207.138003 
L 57.647262 206.952683 
L 58.002801 206.952683 
L 58.002801 206.582043 
L 58.35834 206.582043 
L 58.35834 206.396722 
L 58.713878 206.396722 
L 58.713878 206.026082 
L 59.069417 206.026082 
L 59.069417 205.284801 
L 59.424956 205.284801 
L 59.424956 203.246278 
L 59.780495 203.246278 
L 59.780495 202.504997 
L 60.491572 202.504997 
L 60.491572 200.466475 
L 60.847111 200.466475 
L 60.847111 199.354553 
L 62.269266 199.354553 
L 62.269266 194.536227 
L 62.624805 194.536227 
L 62.624805 191.200463 
L 62.980344 191.200463 
L 62.980344 190.644502 
L 63.335883 190.644502 
L 63.335883 189.903221 
L 63.691421 189.903221 
L 63.691421 189.53258 
L 64.04696 189.53258 
L 64.04696 188.050018 
L 64.402499 188.050018 
L 64.402499 186.567456 
L 64.758038 186.567456 
L 64.758038 186.196816 
L 65.113576 186.196816 
L 65.113576 183.787653 
L 65.469115 183.787653 
L 65.469115 183.602333 
L 65.824654 183.602333 
L 65.824654 181.56381 
L 66.535732 181.56381 
L 66.535732 179.154647 
L 66.89127 179.154647 
L 66.89127 178.413366 
L 67.602348 178.413366 
L 67.602348 177.857405 
L 67.957887 177.857405 
L 67.957887 176.004203 
L 68.313425 176.004203 
L 68.313425 175.633562 
L 68.668964 175.633562 
L 68.668964 174.892281 
L 69.024503 174.892281 
L 69.024503 174.33632 
L 70.446658 174.33632 
L 70.446658 173.039079 
L 70.802197 173.039079 
L 70.802197 171.556517 
L 71.157736 171.556517 
L 71.157736 170.444595 
L 71.513274 170.444595 
L 71.513274 169.703314 
L 71.868813 169.703314 
L 71.868813 169.332674 
L 72.224352 169.332674 
L 72.224352 168.962033 
L 72.579891 168.962033 
L 72.579891 167.850112 
L 73.290968 167.850112 
L 73.290968 167.479471 
L 73.646507 167.479471 
L 73.646507 166.55287 
L 74.002046 166.55287 
L 74.002046 166.36755 
L 74.357585 166.36755 
L 74.357585 165.996909 
L 75.068662 165.996909 
L 75.068662 163.958387 
L 75.77974 163.958387 
L 75.77974 163.587746 
L 76.490817 163.587746 
L 76.490817 162.846465 
L 76.846356 162.846465 
L 76.846356 162.105184 
L 77.557433 162.105184 
L 77.557433 161.919864 
L 77.912972 161.919864 
L 77.912972 161.734544 
L 78.268511 161.734544 
L 78.268511 161.178583 
L 78.62405 161.178583 
L 78.62405 160.807943 
L 78.979589 160.807943 
L 78.979589 159.881341 
L 79.335127 159.881341 
L 79.335127 158.76942 
L 79.690666 158.76942 
L 79.690666 158.5841 
L 80.046205 158.5841 
L 80.046205 158.39878 
L 80.401744 158.39878 
L 80.401744 153.765773 
L 80.757282 153.765773 
L 80.757282 153.024492 
L 81.46836 153.024492 
L 81.46836 152.468532 
L 82.534976 152.468532 
L 82.534976 151.912571 
L 83.246054 151.912571 
L 83.246054 151.541931 
L 83.601593 151.541931 
L 83.601593 151.35661 
L 83.957131 151.35661 
L 83.957131 150.244689 
L 84.31267 150.244689 
L 84.31267 149.318088 
L 85.023748 149.318088 
L 85.023748 147.094245 
L 86.090364 147.094245 
L 86.090364 146.908924 
L 86.445903 146.908924 
L 86.445903 146.538284 
L 86.801442 146.538284 
L 86.801442 144.685082 
L 87.15698 144.685082 
L 87.15698 143.75848 
L 87.512519 143.75848 
L 87.512519 142.831879 
L 87.868058 142.831879 
L 87.868058 141.905278 
L 88.223597 141.905278 
L 88.223597 141.534637 
L 88.579135 141.534637 
L 88.579135 140.978677 
L 89.290213 140.978677 
L 89.290213 140.422716 
L 89.645752 140.422716 
L 89.645752 140.052075 
L 90.001291 140.052075 
L 90.001291 139.496115 
L 90.356829 139.496115 
L 90.356829 138.013553 
L 90.712368 138.013553 
L 90.712368 136.901631 
L 91.423446 136.901631 
L 91.423446 136.16035 
L 92.134523 136.16035 
L 92.134523 135.97503 
L 92.490062 135.97503 
L 92.490062 135.233749 
L 93.20114 135.233749 
L 93.20114 135.048429 
L 93.556678 135.048429 
L 93.556678 134.863109 
L 93.912217 134.863109 
L 93.912217 134.121828 
L 94.267756 134.121828 
L 94.267756 133.380547 
L 95.334372 133.380547 
L 95.334372 133.195226 
L 95.689911 133.195226 
L 95.689911 132.824586 
L 96.04545 132.824586 
L 96.04545 132.268625 
L 96.400989 132.268625 
L 96.400989 131.156704 
L 97.112066 131.156704 
L 97.112066 130.971384 
L 97.467605 130.971384 
L 97.467605 130.786063 
L 97.823144 130.786063 
L 97.823144 130.600743 
L 98.178682 130.600743 
L 98.178682 130.230103 
L 98.534221 130.230103 
L 98.534221 130.044782 
L 98.88976 130.044782 
L 98.88976 129.859462 
L 99.600837 129.859462 
L 99.600837 129.674142 
L 100.311915 129.674142 
L 100.311915 129.118181 
L 101.378531 129.118181 
L 101.378531 128.19158 
L 102.089609 128.19158 
L 102.089609 128.00626 
L 102.445148 128.00626 
L 102.445148 126.894338 
L 102.800686 126.894338 
L 102.800686 126.709018 
L 103.156225 126.709018 
L 103.156225 125.597096 
L 103.511764 125.597096 
L 103.511764 125.411776 
L 103.867303 125.411776 
L 103.867303 125.226456 
L 104.57838 125.226456 
L 104.57838 124.485175 
L 105.289458 124.485175 
L 105.289458 124.299855 
L 106.000535 124.299855 
L 106.000535 124.114535 
L 106.356074 124.114535 
L 106.356074 123.743894 
L 107.42269 123.743894 
L 107.42269 123.187933 
L 108.133768 123.187933 
L 108.133768 123.002613 
L 108.489307 123.002613 
L 108.489307 122.631973 
L 108.844846 122.631973 
L 108.844846 121.705371 
L 109.200384 121.705371 
L 109.200384 121.520051 
L 109.555923 121.520051 
L 109.555923 121.334731 
L 109.911462 121.334731 
L 109.911462 120.037489 
L 110.267001 120.037489 
L 110.267001 119.666849 
L 110.978078 119.666849 
L 110.978078 119.296208 
L 111.689156 119.296208 
L 111.689156 119.110888 
L 112.044695 119.110888 
L 112.044695 118.369607 
L 112.400233 118.369607 
L 112.400233 118.184287 
L 112.755772 118.184287 
L 112.755772 117.628326 
L 113.111311 117.628326 
L 113.111311 116.887045 
L 114.177927 116.887045 
L 114.177927 116.516405 
L 114.533466 116.516405 
L 114.533466 115.775124 
L 114.889005 115.775124 
L 114.889005 115.033843 
L 115.600082 115.033843 
L 115.600082 114.848522 
L 115.955621 114.848522 
L 115.955621 114.292562 
L 116.666699 114.292562 
L 116.666699 113.736601 
L 117.022237 113.736601 
L 117.022237 113.551281 
L 117.733315 113.551281 
L 117.733315 113.36596 
L 118.799931 113.36596 
L 118.799931 112.254039 
L 119.15547 112.254039 
L 119.15547 111.883398 
L 119.511009 111.883398 
L 119.511009 111.698078 
L 120.222086 111.698078 
L 120.222086 111.327438 
L 120.577625 111.327438 
L 120.577625 111.142118 
L 120.933164 111.142118 
L 120.933164 110.215516 
L 121.644241 110.215516 
L 121.644241 110.030196 
L 122.710858 110.030196 
L 122.710858 109.659556 
L 123.066397 109.659556 
L 123.066397 109.103595 
L 123.421935 109.103595 
L 123.421935 108.918275 
L 123.777474 108.918275 
L 123.777474 108.732954 
L 124.84409 108.732954 
L 124.84409 108.547634 
L 125.199629 108.547634 
L 125.199629 107.065072 
L 125.555168 107.065072 
L 125.555168 106.509111 
L 126.266245 106.509111 
L 126.266245 106.323791 
L 126.621784 106.323791 
L 126.621784 105.953151 
L 128.043939 105.953151 
L 128.043939 105.58251 
L 128.755017 105.58251 
L 128.755017 105.39719 
L 129.466094 105.39719 
L 129.466094 104.285269 
L 129.821633 104.285269 
L 129.821633 103.914628 
L 130.177172 103.914628 
L 130.177172 103.729308 
L 130.532711 103.729308 
L 130.532711 103.543988 
L 130.88825 103.543988 
L 130.88825 102.988027 
L 131.243788 102.988027 
L 131.243788 102.246746 
L 131.599327 102.246746 
L 131.599327 100.949504 
L 131.954866 100.949504 
L 131.954866 100.764184 
L 132.665943 100.764184 
L 132.665943 100.393543 
L 133.021482 100.393543 
L 133.021482 99.837583 
L 133.73256 99.837583 
L 133.73256 99.096302 
L 134.443637 99.096302 
L 134.443637 98.910981 
L 134.799176 98.910981 
L 134.799176 98.355021 
L 135.865792 98.355021 
L 135.865792 98.169701 
L 137.287947 98.169701 
L 137.287947 97.98438 
L 137.643486 97.98438 
L 137.643486 97.79906 
L 139.065641 97.79906 
L 139.065641 97.61374 
L 140.132258 97.61374 
L 140.132258 97.243099 
L 140.487796 97.243099 
L 140.487796 96.131178 
L 140.843335 96.131178 
L 140.843335 95.945858 
L 141.198874 95.945858 
L 141.198874 95.204577 
L 141.909952 95.204577 
L 141.909952 94.648616 
L 143.332107 94.648616 
L 143.332107 93.722015 
L 143.687645 93.722015 
L 143.687645 93.536694 
L 144.043184 93.536694 
L 144.043184 93.166054 
L 144.398723 93.166054 
L 144.398723 92.795413 
L 145.1098 92.795413 
L 145.1098 92.610093 
L 145.820878 92.610093 
L 145.820878 92.054132 
L 146.176417 92.054132 
L 146.176417 91.498172 
L 146.887494 91.498172 
L 146.887494 90.756891 
L 148.309649 90.756891 
L 148.309649 90.38625 
L 150.087343 90.38625 
L 150.087343 89.83029 
L 150.442882 89.83029 
L 150.442882 89.644969 
L 150.798421 89.644969 
L 150.798421 89.459649 
L 151.509498 89.459649 
L 151.509498 89.274329 
L 151.865037 89.274329 
L 151.865037 88.903688 
L 152.576115 88.903688 
L 152.576115 88.347728 
L 152.931654 88.347728 
L 152.931654 87.977087 
L 153.99827 87.977087 
L 153.99827 87.421126 
L 154.353809 87.421126 
L 154.353809 87.235806 
L 154.709347 87.235806 
L 154.709347 87.050486 
L 156.131502 87.050486 
L 156.131502 86.679845 
L 157.198119 86.679845 
L 157.198119 86.309205 
L 158.264735 86.309205 
L 158.264735 85.938564 
L 158.620274 85.938564 
L 158.620274 85.382604 
L 158.975813 85.382604 
L 158.975813 85.197283 
L 160.042429 85.197283 
L 160.042429 84.826643 
L 160.397968 84.826643 
L 160.397968 84.456003 
L 160.753507 84.456003 
L 160.753507 83.529401 
L 161.109045 83.529401 
L 161.109045 83.158761 
L 162.175662 83.158761 
L 162.175662 82.78812 
L 162.5312 82.78812 
L 162.5312 82.41748 
L 163.242278 82.41748 
L 163.242278 82.23216 
L 164.308894 82.23216 
L 164.308894 81.861519 
L 165.019972 81.861519 
L 165.019972 81.305558 
L 165.375511 81.305558 
L 165.375511 80.934918 
L 165.731049 80.934918 
L 165.731049 80.749598 
L 166.086588 80.749598 
L 166.086588 80.193637 
L 166.442127 80.193637 
L 166.442127 80.008317 
L 167.508743 80.008317 
L 167.508743 79.637676 
L 168.219821 79.637676 
L 168.219821 79.452356 
L 169.641976 79.452356 
L 169.641976 78.896395 
L 170.353053 78.896395 
L 170.353053 78.525755 
L 171.775209 78.525755 
L 171.775209 78.340434 
L 172.486286 78.340434 
L 172.486286 77.969794 
L 172.841825 77.969794 
L 172.841825 77.784474 
L 173.197364 77.784474 
L 173.197364 77.413833 
L 174.26398 77.413833 
L 174.26398 76.672552 
L 174.619519 76.672552 
L 174.619519 76.487232 
L 175.330596 76.487232 
L 175.330596 75.745951 
L 175.686135 75.745951 
L 175.686135 75.560631 
L 176.397213 75.560631 
L 176.397213 75.18999 
L 176.752751 75.18999 
L 176.752751 74.63403 
L 177.463829 74.63403 
L 177.463829 74.448709 
L 177.819368 74.448709 
L 177.819368 73.892749 
L 178.174906 73.892749 
L 178.174906 73.336788 
L 178.530445 73.336788 
L 178.530445 72.780827 
L 178.885984 72.780827 
L 178.885984 72.595507 
L 179.241523 72.595507 
L 179.241523 72.224866 
L 180.308139 72.224866 
L 180.308139 71.668906 
L 181.730294 71.668906 
L 181.730294 71.483585 
L 182.085833 71.483585 
L 182.085833 71.298265 
L 182.441372 71.298265 
L 182.441372 71.112945 
L 183.507988 71.112945 
L 183.507988 70.927625 
L 184.930143 70.927625 
L 186.707837 70.186344 
L 187.063376 70.186344 
L 187.063376 69.445063 
L 187.418915 69.445063 
L 187.418915 69.259743 
L 189.196608 69.259743 
L 189.196608 69.074422 
L 189.552147 69.074422 
L 189.552147 67.777181 
L 189.907686 67.777181 
L 189.907686 66.665259 
L 191.329841 66.665259 
L 191.329841 65.923978 
L 192.040919 65.923978 
L 192.040919 65.738658 
L 192.396457 65.738658 
L 192.396457 65.553338 
L 192.751996 65.553338 
L 192.751996 65.182697 
L 194.174151 65.182697 
L 194.174151 64.812057 
L 194.52969 64.812057 
L 194.52969 64.626737 
L 195.240768 64.626737 
L 195.240768 64.256096 
L 196.307384 64.256096 
L 196.307384 64.070776 
L 197.018461 64.070776 
L 197.018461 62.958854 
L 197.374 62.958854 
L 197.374 62.402894 
L 198.085078 62.402894 
L 198.085078 62.032253 
L 199.507233 62.032253 
L 199.507233 61.846933 
L 199.862772 61.846933 
L 199.862772 61.661613 
L 200.573849 61.661613 
L 200.573849 61.290972 
L 200.929388 61.290972 
L 200.929388 61.105652 
L 201.284927 61.105652 
L 201.284927 60.735011 
L 201.996004 60.735011 
L 201.996004 59.99373 
L 202.351543 59.99373 
L 202.351543 59.80841 
L 203.773698 59.80841 
L 203.773698 59.62309 
L 204.484776 59.62309 
L 204.484776 58.881809 
L 204.840314 58.881809 
L 204.840314 58.696489 
L 205.906931 58.696489 
L 205.906931 58.325848 
L 207.329086 58.325848 
L 207.329086 58.140528 
L 208.395702 58.140528 
L 208.395702 57.955208 
L 209.462319 57.955208 
L 209.462319 57.769888 
L 209.817857 57.769888 
L 209.817857 57.399247 
L 210.173396 57.399247 
L 210.173396 57.028607 
L 211.240012 57.028607 
L 211.240012 56.657966 
L 211.595551 56.657966 
L 211.595551 56.287326 
L 211.95109 56.287326 
L 211.95109 56.102005 
L 213.373245 56.102005 
L 213.373245 55.360724 
L 214.7954 55.360724 
L 214.7954 54.804764 
L 215.150939 54.804764 
L 215.150939 54.434123 
L 216.928633 54.434123 
L 216.928633 54.248803 
L 217.284172 54.248803 
L 217.284172 53.878162 
L 218.350788 53.878162 
L 218.350788 53.692842 
L 219.417404 53.692842 
L 219.417404 53.507522 
L 220.484021 53.507522 
L 220.484021 53.322202 
L 220.839559 53.322202 
L 220.839559 53.136881 
L 222.972792 53.136881 
L 222.972792 52.951561 
L 225.817102 52.951561 
L 225.817102 52.580921 
L 226.172641 52.580921 
L 226.172641 52.3956 
L 226.52818 52.3956 
L 226.52818 52.02496 
L 226.883718 52.02496 
L 226.883718 51.83964 
L 227.239257 51.83964 
L 227.239257 51.468999 
L 227.594796 51.468999 
L 227.594796 51.283679 
L 228.661412 51.283679 
L 228.661412 51.098359 
L 229.37249 51.098359 
L 229.37249 50.913039 
L 230.083567 50.913039 
L 230.083567 50.727718 
L 230.439106 50.727718 
L 230.439106 50.542398 
L 234.350033 50.542398 
L 234.350033 50.357078 
L 235.416649 50.357078 
L 235.416649 50.171758 
L 237.194343 50.171758 
L 237.194343 49.615797 
L 237.549882 49.615797 
L 237.549882 49.245156 
L 237.90542 49.245156 
L 237.90542 48.874516 
L 238.260959 48.874516 
L 238.260959 48.689196 
L 241.460808 48.689196 
L 241.460808 48.318555 
L 241.816347 48.318555 
L 241.816347 48.133235 
L 242.527424 48.133235 
L 242.527424 47.577274 
L 247.149429 47.577274 
L 247.149429 47.391954 
L 249.282661 47.391954 
L 249.282661 47.206634 
L 251.060355 47.206634 
L 251.060355 47.021313 
L 252.126971 47.021313 
L 252.126971 46.650673 
L 253.549126 46.650673 
L 253.549126 46.465353 
L 255.682359 46.465353 
L 255.682359 46.280032 
L 262.437596 46.280032 
L 262.437596 46.094712 
L 264.926367 46.094712 
L 264.926367 45.909392 
L 267.0596 45.909392 
L 267.0596 45.724072 
L 268.126216 45.724072 
L 268.126216 45.538751 
L 268.481755 45.538751 
L 268.481755 45.353431 
L 268.837294 45.353431 
L 268.837294 45.168111 
L 269.90391 45.168111 
L 269.90391 44.982791 
L 270.614988 44.982791 
L 270.614988 44.79747 
L 274.170375 44.79747 
L 274.170375 44.42683 
L 275.59253 44.42683 
L 275.59253 44.24151 
L 277.014686 44.24151 
L 277.014686 44.05619 
L 278.792379 44.05619 
L 278.792379 43.870869 
L 279.503457 43.870869 
L 279.503457 43.685549 
L 282.347767 43.685549 
L 282.347767 43.500229 
L 285.547616 43.500229 
L 285.547616 42.944268 
L 286.614232 42.944268 
L 286.614232 42.758948 
L 291.947314 42.758948 
L 291.947314 42.573628 
L 293.725008 42.573628 
L 293.725008 42.388307 
L 295.858241 42.388307 
L 295.858241 42.202987 
L 296.213779 42.202987 
L 296.213779 41.832347 
L 298.347012 41.832347 
L 298.347012 41.647026 
L 298.702551 41.647026 
L 298.702551 41.461706 
L 300.835783 41.461706 
L 300.835783 41.276386 
L 301.546861 41.276386 
L 301.546861 41.091066 
L 305.102249 41.091066 
L 305.102249 40.905745 
L 305.457787 40.905745 
L 305.457787 40.720425 
L 306.168865 40.720425 
L 306.168865 40.535105 
L 312.568563 40.535105 
L 312.568563 40.349785 
L 313.27964 40.349785 
L 313.27964 40.164464 
L 316.123951 40.164464 
L 316.123951 39.979144 
L 323.234726 39.979144 
L 323.234726 39.793824 
L 327.85673 39.793824 
L 327.85673 39.608504 
L 329.278885 39.608504 
L 329.278885 39.423183 
L 338.522893 39.423183 
L 338.522893 39.237863 
L 341.367204 39.237863 
L 341.367204 39.052543 
L 342.078281 39.052543 
L 342.078281 38.867223 
L 346.344746 38.867223 
L 346.344746 38.681902 
L 346.700285 38.681902 
L 346.700285 38.496582 
L 347.411363 38.496582 
L 347.411363 38.311262 
L 360.210759 38.311262 
L 360.210759 38.125942 
L 360.566297 38.125942 
L 360.566297 37.940621 
L 364.477224 37.940621 
L 364.477224 37.755301 
L 369.810305 37.755301 
L 369.810305 37.569981 
L 376.565542 37.569981 
L 376.565542 37.384661 
L 385.098473 37.384661 
L 385.098473 37.199341 
L 385.454011 37.199341 
L 385.454011 37.01402 
L 386.165089 37.01402 
L 386.165089 36.8287 
L 386.520628 36.8287 
L 386.520628 36.64338 
L 398.253407 36.64338 
L 398.253407 36.45806 
L 407.852954 36.45806 
L 407.852954 36.272739 
L 410.341726 36.272739 
L 410.341726 36.087419 
L 411.052803 36.087419 
L 411.052803 35.902099 
L 421.718966 35.902099 
L 421.718966 35.716779 
L 432.029591 35.716779 
L 432.029591 35.531458 
L 438.07375 35.531458 
L 438.07375 35.531458 
" clip-path="url(#p6081a55963)" style="fill: none; stroke: #008000; stroke-width: 1.5; stroke-linecap: square"/>
   </g>
   <g id="line2d_14">
    <path d="M 43.78125 299.798125 
L 438.07375 35.531458 
" clip-path="url(#p6081a55963)" style="fill: none; stroke-dasharray: 5.55,2.4; stroke-dashoffset: 0; stroke: #000000; stroke-width: 1.5"/>
   </g>
   <g id="patch_3">
    <path d="M 43.78125 299.798125 
L 43.78125 22.318125 
" style="fill: none; stroke: #000000; stroke-width: 0.8; stroke-linejoin: miter; stroke-linecap: square"/>
   </g>
   <g id="patch_4">
    <path d="M 438.07375 299.798125 
L 438.07375 22.318125 
" style="fill: none; stroke: #000000; stroke-width: 0.8; stroke-linejoin: miter; stroke-linecap: square"/>
   </g>
   <g id="patch_5">
    <path d="M 43.78125 299.798125 
L 438.07375 299.798125 
" style="fill: none; stroke: #000000; stroke-width: 0.8; stroke-linejoin: miter; stroke-linecap: square"/>
   </g>
   <g id="patch_6">
    <path d="M 43.78125 22.318125 
L 438.07375 22.318125 
" style="fill: none; stroke: #000000; stroke-width: 0.8; stroke-linejoin: miter; stroke-linecap: square"/>
   </g>
   <g id="text_15">
    <!-- ROC Curve -->
    <g transform="translate(208.236875 16.318125) scale(0.12 -0.12)">
     <defs>
      <path id="DejaVuSans-4f" d="M 2522 4238 
Q 1834 4238 1429 3725 
Q 1025 3213 1025 2328 
Q 1025 1447 1429 934 
Q 1834 422 2522 422 
Q 3209 422 3611 934 
Q 4013 1447 4013 2328 
Q 4013 3213 3611 3725 
Q 3209 4238 2522 4238 
z
M 2522 4750 
Q 3503 4750 4090 4092 
Q 4678 3434 4678 2328 
Q 4678 1225 4090 567 
Q 3503 -91 2522 -91 
Q 1538 -91 948 565 
Q 359 1222 359 2328 
Q 359 3434 948 4092 
Q 1538 4750 2522 4750 
z
" transform="scale(0.015625)"/>
      <path id="DejaVuSans-43" d="M 4122 4306 
L 4122 3641 
Q 3803 3938 3442 4084 
Q 3081 4231 2675 4231 
Q 1875 4231 1450 3742 
Q 1025 3253 1025 2328 
Q 1025 1406 1450 917 
Q 1875 428 2675 428 
Q 3081 428 3442 575 
Q 3803 722 4122 1019 
L 4122 359 
Q 3791 134 3420 21 
Q 3050 -91 2638 -91 
Q 1578 -91 968 557 
Q 359 1206 359 2328 
Q 359 3453 968 4101 
Q 1578 4750 2638 4750 
Q 3056 4750 3426 4639 
Q 3797 4528 4122 4306 
z
" transform="scale(0.015625)"/>
     </defs>
     <use xlink:href="#DejaVuSans-52"/>
     <use xlink:href="#DejaVuSans-4f" x="69.482422"/>
     <use xlink:href="#DejaVuSans-43" x="148.193359"/>
     <use xlink:href="#DejaVuSans-20" x="218.017578"/>
     <use xlink:href="#DejaVuSans-43" x="249.804688"/>
     <use xlink:href="#DejaVuSans-75" x="319.628906"/>
     <use xlink:href="#DejaVuSans-72" x="383.007812"/>
     <use xlink:href="#DejaVuSans-76" x="424.121094"/>
     <use xlink:href="#DejaVuSans-65" x="483.300781"/>
    </g>
   </g>
   <g id="legend_1">
    <g id="patch_7">
     <path d="M 308.131563 294.798125 
L 431.07375 294.798125 
Q 433.07375 294.798125 433.07375 292.798125 
L 433.07375 279.12 
Q 433.07375 277.12 431.07375 277.12 
L 308.131563 277.12 
Q 306.131563 277.12 306.131563 279.12 
L 306.131563 292.798125 
Q 306.131563 294.798125 308.131563 294.798125 
z
" style="fill: #ffffff; opacity: 0.8; stroke: #cccccc; stroke-linejoin: miter"/>
    </g>
    <g id="line2d_15">
     <path d="M 310.131563 285.218438 
L 320.131563 285.218438 
L 330.131563 285.218438 
" style="fill: none; stroke: #008000; stroke-width: 1.5; stroke-linecap: square"/>
    </g>
    <g id="text_16">
     <!-- SVM (AUC = 0.85) -->
     <g transform="translate(338.131563 288.718438) scale(0.1 -0.1)">
      <defs>
       <path id="DejaVuSans-53" d="M 3425 4513 
L 3425 3897 
Q 3066 4069 2747 4153 
Q 2428 4238 2131 4238 
Q 1616 4238 1336 4038 
Q 1056 3838 1056 3469 
Q 1056 3159 1242 3001 
Q 1428 2844 1947 2747 
L 2328 2669 
Q 3034 2534 3370 2195 
Q 3706 1856 3706 1288 
Q 3706 609 3251 259 
Q 2797 -91 1919 -91 
Q 1588 -91 1214 -16 
Q 841 59 441 206 
L 441 856 
Q 825 641 1194 531 
Q 1563 422 1919 422 
Q 2459 422 2753 634 
Q 3047 847 3047 1241 
Q 3047 1584 2836 1778 
Q 2625 1972 2144 2069 
L 1759 2144 
Q 1053 2284 737 2584 
Q 422 2884 422 3419 
Q 422 4038 858 4394 
Q 1294 4750 2059 4750 
Q 2388 4750 2728 4690 
Q 3069 4631 3425 4513 
z
" transform="scale(0.015625)"/>
       <path id="DejaVuSans-56" d="M 1831 0 
L 50 4666 
L 709 4666 
L 2188 738 
L 3669 4666 
L 4325 4666 
L 2547 0 
L 1831 0 
z
" transform="scale(0.015625)"/>
       <path id="DejaVuSans-4d" d="M 628 4666 
L 1569 4666 
L 2759 1491 
L 3956 4666 
L 4897 4666 
L 4897 0 
L 4281 0 
L 4281 4097 
L 3078 897 
L 2444 897 
L 1241 4097 
L 1241 0 
L 628 0 
L 628 4666 
z
" transform="scale(0.015625)"/>
       <path id="DejaVuSans-28" d="M 1984 4856 
Q 1566 4138 1362 3434 
Q 1159 2731 1159 2009 
Q 1159 1288 1364 580 
Q 1569 -128 1984 -844 
L 1484 -844 
Q 1016 -109 783 600 
Q 550 1309 550 2009 
Q 550 2706 781 3412 
Q 1013 4119 1484 4856 
L 1984 4856 
z
" transform="scale(0.015625)"/>
       <path id="DejaVuSans-41" d="M 2188 4044 
L 1331 1722 
L 3047 1722 
L 2188 4044 
z
M 1831 4666 
L 2547 4666 
L 4325 0 
L 3669 0 
L 3244 1197 
L 1141 1197 
L 716 0 
L 50 0 
L 1831 4666 
z
" transform="scale(0.015625)"/>
       <path id="DejaVuSans-55" d="M 556 4666 
L 1191 4666 
L 1191 1831 
Q 1191 1081 1462 751 
Q 1734 422 2344 422 
Q 2950 422 3222 751 
Q 3494 1081 3494 1831 
L 3494 4666 
L 4128 4666 
L 4128 1753 
Q 4128 841 3676 375 
Q 3225 -91 2344 -91 
Q 1459 -91 1007 375 
Q 556 841 556 1753 
L 556 4666 
z
" transform="scale(0.015625)"/>
       <path id="DejaVuSans-3d" d="M 678 2906 
L 4684 2906 
L 4684 2381 
L 678 2381 
L 678 2906 
z
M 678 1631 
L 4684 1631 
L 4684 1100 
L 678 1100 
L 678 1631 
z
" transform="scale(0.015625)"/>
       <path id="DejaVuSans-35" d="M 691 4666 
L 3169 4666 
L 3169 4134 
L 1269 4134 
L 1269 2991 
Q 1406 3038 1543 3061 
Q 1681 3084 1819 3084 
Q 2600 3084 3056 2656 
Q 3513 2228 3513 1497 
Q 3513 744 3044 326 
Q 2575 -91 1722 -91 
Q 1428 -91 1123 -41 
Q 819 9 494 109 
L 494 744 
Q 775 591 1075 516 
Q 1375 441 1709 441 
Q 2250 441 2565 725 
Q 2881 1009 2881 1497 
Q 2881 1984 2565 2268 
Q 2250 2553 1709 2553 
Q 1456 2553 1204 2497 
Q 953 2441 691 2322 
L 691 4666 
z
" transform="scale(0.015625)"/>
       <path id="DejaVuSans-29" d="M 513 4856 
L 1013 4856 
Q 1481 4119 1714 3412 
Q 1947 2706 1947 2009 
Q 1947 1309 1714 600 
Q 1481 -109 1013 -844 
L 513 -844 
Q 928 -128 1133 580 
Q 1338 1288 1338 2009 
Q 1338 2731 1133 3434 
Q 928 4138 513 4856 
z
" transform="scale(0.015625)"/>
      </defs>
      <use xlink:href="#DejaVuSans-53"/>
      <use xlink:href="#DejaVuSans-56" x="63.476562"/>
      <use xlink:href="#DejaVuSans-4d" x="131.884766"/>
      <use xlink:href="#DejaVuSans-20" x="218.164062"/>
      <use xlink:href="#DejaVuSans-28" x="249.951172"/>
      <use xlink:href="#DejaVuSans-41" x="288.964844"/>
      <use xlink:href="#DejaVuSans-55" x="357.373047"/>
      <use xlink:href="#DejaVuSans-43" x="430.566406"/>
      <use xlink:href="#DejaVuSans-20" x="500.390625"/>
      <use xlink:href="#DejaVuSans-3d" x="532.177734"/>
      <use xlink:href="#DejaVuSans-20" x="615.966797"/>
      <use xlink:href="#DejaVuSans-30" x="647.753906"/>
      <use xlink:href="#DejaVuSans-2e" x="711.376953"/>
      <use xlink:href="#DejaVuSans-38" x="743.164062"/>
      <use xlink:href="#DejaVuSans-35" x="806.787109"/>
      <use xlink:href="#DejaVuSans-29" x="870.410156"/>
     </g>
    </g>
   </g>
  </g>
 </g>
 <defs>
  <clipPath id="p6081a55963">
   <rect x="43.78125" y="22.318125" width="394.2925" height="277.48"/>
  </clipPath>
 </defs>
</svg>
