<?xml version="1.0" encoding="utf-8" standalone="no"?>
<!DOCTYPE svg PUBLIC "-//W3C//DTD SVG 1.1//EN"
  "http://www.w3.org/Graphics/SVG/1.1/DTD/svg11.dtd">
<svg xmlns:xlink="http://www.w3.org/1999/xlink" width="453.225312pt" height="337.354375pt" viewBox="0 0 453.225312 337.354375" xmlns="http://www.w3.org/2000/svg" version="1.1">
 <metadata>
  <rdf:RDF xmlns:dc="http://purl.org/dc/elements/1.1/" xmlns:cc="http://creativecommons.org/ns#" xmlns:rdf="http://www.w3.org/1999/02/22-rdf-syntax-ns#">
   <cc:Work>
    <dc:type rdf:resource="http://purl.org/dc/dcmitype/StillImage"/>
    <dc:date>2025-11-08T18:05:33.139919</dc:date>
    <dc:format>image/svg+xml</dc:format>
    <dc:creator>
     <cc:Agent>
      <dc:title>Matplotlib v3.9.1, https://matplotlib.org/</dc:title>
     </cc:Agent>
    </dc:creator>
   </cc:Work>
  </rdf:RDF>
 </metadata>
 <defs>
  <style type="text/css">*{stroke-linejoin: round; stroke-linecap: butt}</style>
 </defs>
 <g id="figure_1">
  <g id="patch_1">
   <path d="M 0 337.354375 
L 453.225312 337.354375 
L 453.225312 0 
L 0 0 
z
" style="fill: #ffffff"/>
  </g>
  <g id="axes_1">
   <g id="patch_2">
    <path d="M 43.78125 299.798125 
L 438.07375 299.798125 
L 438.07375 22.318125 
L 43.78125 22.318125 
z
" style="fill: #ffffff"/>
   </g>
   <g id="matplotlib.axis_1">
    <g id="xtick_1">
     <g id="line2d_1">
      <defs>
       <path id="m83085fdbf0" d="M 0 0 
L 0 3.5 
" style="stroke: #000000; stroke-width: 0.8"/>
      </defs>
      <g>
       <use xlink:href="#m83085fdbf0" x="43.78125" y="299.798125" style="stroke: #000000; stroke-width: 0.8"/>
      </g>
     </g>
     <g id="text_1">
      <!-- 0.0 -->
      <g transform="translate(35.829688 314.396563) scale(0.1 -0.1)">
       <defs>
        <path id="DejaVuSans-30" d="M 2034 4250 
Q 1547 4250 1301 3770 
Q 1056 3291 1056 2328 
Q 1056 1369 1301 889 
Q 1547 409 2034 409 
Q 2525 409 2770 889 
Q 3016 1369 3016 2328 
Q 3016 3291 2770 3770 
Q 2525 4250 2034 4250 
z
M 2034 4750 
Q 2819 4750 3233 4129 
Q 3647 3509 3647 2328 
Q 3647 1150 3233 529 
Q 2819 -91 2034 -91 
Q 1250 -91 836 529 
Q 422 1150 422 2328 
Q 422 3509 836 4129 
Q 1250 4750 2034 4750 
z
" transform="scale(0.015625)"/>
        <path id="DejaVuSans-2e" d="M 684 794 
L 1344 794 
L 1344 0 
L 684 0 
L 684 794 
z
" transform="scale(0.015625)"/>
       </defs>
       <use xlink:href="#DejaVuSans-30"/>
       <use xlink:href="#DejaVuSans-2e" x="63.623047"/>
       <use xlink:href="#DejaVuSans-30" x="95.410156"/>
      </g>
     </g>
    </g>
    <g id="xtick_2">
     <g id="line2d_2">
      <g>
       <use xlink:href="#m83085fdbf0" x="122.63975" y="299.798125" style="stroke: #000000; stroke-width: 0.8"/>
      </g>
     </g>
     <g id="text_2">
      <!-- 0.2 -->
      <g transform="translate(114.688188 314.396563) scale(0.1 -0.1)">
       <defs>
        <path id="DejaVuSans-32" d="M 1228 531 
L 3431 531 
L 3431 0 
L 469 0 
L 469 531 
Q 828 903 1448 1529 
Q 2069 2156 2228 2338 
Q 2531 2678 2651 2914 
Q 2772 3150 2772 3378 
Q 2772 3750 2511 3984 
Q 2250 4219 1831 4219 
Q 1534 4219 1204 4116 
Q 875 4013 500 3803 
L 500 4441 
Q 881 4594 1212 4672 
Q 1544 4750 1819 4750 
Q 2544 4750 2975 4387 
Q 3406 4025 3406 3419 
Q 3406 3131 3298 2873 
Q 3191 2616 2906 2266 
Q 2828 2175 2409 1742 
Q 1991 1309 1228 531 
z
" transform="scale(0.015625)"/>
       </defs>
       <use xlink:href="#DejaVuSans-30"/>
       <use xlink:href="#DejaVuSans-2e" x="63.623047"/>
       <use xlink:href="#DejaVuSans-32" x="95.410156"/>
      </g>
     </g>
    </g>
    <g id="xtick_3">
     <g id="line2d_3">
      <g>
       <use xlink:href="#m83085fdbf0" x="201.49825" y="299.798125" style="stroke: #000000; stroke-width: 0.8"/>
      </g>
     </g>
     <g id="text_3">
      <!-- 0.4 -->
      <g transform="translate(193.546688 314.396563) scale(0.1 -0.1)">
       <defs>
        <path id="DejaVuSans-34" d="M 2419 4116 
L 825 1625 
L 2419 1625 
L 2419 4116 
z
M 2253 4666 
L 3047 4666 
L 3047 1625 
L 3713 1625 
L 3713 1100 
L 3047 1100 
L 3047 0 
L 2419 0 
L 2419 1100 
L 313 1100 
L 313 1709 
L 2253 4666 
z
" transform="scale(0.015625)"/>
       </defs>
       <use xlink:href="#DejaVuSans-30"/>
       <use xlink:href="#DejaVuSans-2e" x="63.623047"/>
       <use xlink:href="#DejaVuSans-34" x="95.410156"/>
      </g>
     </g>
    </g>
    <g id="xtick_4">
     <g id="line2d_4">
      <g>
       <use xlink:href="#m83085fdbf0" x="280.35675" y="299.798125" style="stroke: #000000; stroke-width: 0.8"/>
      </g>
     </g>
     <g id="text_4">
      <!-- 0.6 -->
      <g transform="translate(272.405188 314.396563) scale(0.1 -0.1)">
       <defs>
        <path id="DejaVuSans-36" d="M 2113 2584 
Q 1688 2584 1439 2293 
Q 1191 2003 1191 1497 
Q 1191 994 1439 701 
Q 1688 409 2113 409 
Q 2538 409 2786 701 
Q 3034 994 3034 1497 
Q 3034 2003 2786 2293 
Q 2538 2584 2113 2584 
z
M 3366 4563 
L 3366 3988 
Q 3128 4100 2886 4159 
Q 2644 4219 2406 4219 
Q 1781 4219 1451 3797 
Q 1122 3375 1075 2522 
Q 1259 2794 1537 2939 
Q 1816 3084 2150 3084 
Q 2853 3084 3261 2657 
Q 3669 2231 3669 1497 
Q 3669 778 3244 343 
Q 2819 -91 2113 -91 
Q 1303 -91 875 529 
Q 447 1150 447 2328 
Q 447 3434 972 4092 
Q 1497 4750 2381 4750 
Q 2619 4750 2861 4703 
Q 3103 4656 3366 4563 
z
" transform="scale(0.015625)"/>
       </defs>
       <use xlink:href="#DejaVuSans-30"/>
       <use xlink:href="#DejaVuSans-2e" x="63.623047"/>
       <use xlink:href="#DejaVuSans-36" x="95.410156"/>
      </g>
     </g>
    </g>
    <g id="xtick_5">
     <g id="line2d_5">
      <g>
       <use xlink:href="#m83085fdbf0" x="359.21525" y="299.798125" style="stroke: #000000; stroke-width: 0.8"/>
      </g>
     </g>
     <g id="text_5">
      <!-- 0.8 -->
      <g transform="translate(351.263688 314.396563) scale(0.1 -0.1)">
       <defs>
        <path id="DejaVuSans-38" d="M 2034 2216 
Q 1584 2216 1326 1975 
Q 1069 1734 1069 1313 
Q 1069 891 1326 650 
Q 1584 409 2034 409 
Q 2484 409 2743 651 
Q 3003 894 3003 1313 
Q 3003 1734 2745 1975 
Q 2488 2216 2034 2216 
z
M 1403 2484 
Q 997 2584 770 2862 
Q 544 3141 544 3541 
Q 544 4100 942 4425 
Q 1341 4750 2034 4750 
Q 2731 4750 3128 4425 
Q 3525 4100 3525 3541 
Q 3525 3141 3298 2862 
Q 3072 2584 2669 2484 
Q 3125 2378 3379 2068 
Q 3634 1759 3634 1313 
Q 3634 634 3220 271 
Q 2806 -91 2034 -91 
Q 1263 -91 848 271 
Q 434 634 434 1313 
Q 434 1759 690 2068 
Q 947 2378 1403 2484 
z
M 1172 3481 
Q 1172 3119 1398 2916 
Q 1625 2713 2034 2713 
Q 2441 2713 2670 2916 
Q 2900 3119 2900 3481 
Q 2900 3844 2670 4047 
Q 2441 4250 2034 4250 
Q 1625 4250 1398 4047 
Q 1172 3844 1172 3481 
z
" transform="scale(0.015625)"/>
       </defs>
       <use xlink:href="#DejaVuSans-30"/>
       <use xlink:href="#DejaVuSans-2e" x="63.623047"/>
       <use xlink:href="#DejaVuSans-38" x="95.410156"/>
      </g>
     </g>
    </g>
    <g id="xtick_6">
     <g id="line2d_6">
      <g>
       <use xlink:href="#m83085fdbf0" x="438.07375" y="299.798125" style="stroke: #000000; stroke-width: 0.8"/>
      </g>
     </g>
     <g id="text_6">
      <!-- 1.0 -->
      <g transform="translate(430.122187 314.396563) scale(0.1 -0.1)">
       <defs>
        <path id="DejaVuSans-31" d="M 794 531 
L 1825 531 
L 1825 4091 
L 703 3866 
L 703 4441 
L 1819 4666 
L 2450 4666 
L 2450 531 
L 3481 531 
L 3481 0 
L 794 0 
L 794 531 
z
" transform="scale(0.015625)"/>
       </defs>
       <use xlink:href="#DejaVuSans-31"/>
       <use xlink:href="#DejaVuSans-2e" x="63.623047"/>
       <use xlink:href="#DejaVuSans-30" x="95.410156"/>
      </g>
     </g>
    </g>
    <g id="text_7">
     <!-- False Positive Rate -->
     <g transform="translate(194.461094 328.074688) scale(0.1 -0.1)">
      <defs>
       <path id="DejaVuSans-46" d="M 628 4666 
L 3309 4666 
L 3309 4134 
L 1259 4134 
L 1259 2759 
L 3109 2759 
L 3109 2228 
L 1259 2228 
L 1259 0 
L 628 0 
L 628 4666 
z
" transform="scale(0.015625)"/>
       <path id="DejaVuSans-61" d="M 2194 1759 
Q 1497 1759 1228 1600 
Q 959 1441 959 1056 
Q 959 750 1161 570 
Q 1363 391 1709 391 
Q 2188 391 2477 730 
Q 2766 1069 2766 1631 
L 2766 1759 
L 2194 1759 
z
M 3341 1997 
L 3341 0 
L 2766 0 
L 2766 531 
Q 2569 213 2275 61 
Q 1981 -91 1556 -91 
Q 1019 -91 701 211 
Q 384 513 384 1019 
Q 384 1609 779 1909 
Q 1175 2209 1959 2209 
L 2766 2209 
L 2766 2266 
Q 2766 2663 2505 2880 
Q 2244 3097 1772 3097 
Q 1472 3097 1187 3025 
Q 903 2953 641 2809 
L 641 3341 
Q 956 3463 1253 3523 
Q 1550 3584 1831 3584 
Q 2591 3584 2966 3190 
Q 3341 2797 3341 1997 
z
" transform="scale(0.015625)"/>
       <path id="DejaVuSans-6c" d="M 603 4863 
L 1178 4863 
L 1178 0 
L 603 0 
L 603 4863 
z
" transform="scale(0.015625)"/>
       <path id="DejaVuSans-73" d="M 2834 3397 
L 2834 2853 
Q 2591 2978 2328 3040 
Q 2066 3103 1784 3103 
Q 1356 3103 1142 2972 
Q 928 2841 928 2578 
Q 928 2378 1081 2264 
Q 1234 2150 1697 2047 
L 1894 2003 
Q 2506 1872 2764 1633 
Q 3022 1394 3022 966 
Q 3022 478 2636 193 
Q 2250 -91 1575 -91 
Q 1294 -91 989 -36 
Q 684 19 347 128 
L 347 722 
Q 666 556 975 473 
Q 1284 391 1588 391 
Q 1994 391 2212 530 
Q 2431 669 2431 922 
Q 2431 1156 2273 1281 
Q 2116 1406 1581 1522 
L 1381 1569 
Q 847 1681 609 1914 
Q 372 2147 372 2553 
Q 372 3047 722 3315 
Q 1072 3584 1716 3584 
Q 2034 3584 2315 3537 
Q 2597 3491 2834 3397 
z
" transform="scale(0.015625)"/>
       <path id="DejaVuSans-65" d="M 3597 1894 
L 3597 1613 
L 953 1613 
Q 991 1019 1311 708 
Q 1631 397 2203 397 
Q 2534 397 2845 478 
Q 3156 559 3463 722 
L 3463 178 
Q 3153 47 2828 -22 
Q 2503 -91 2169 -91 
Q 1331 -91 842 396 
Q 353 884 353 1716 
Q 353 2575 817 3079 
Q 1281 3584 2069 3584 
Q 2775 3584 3186 3129 
Q 3597 2675 3597 1894 
z
M 3022 2063 
Q 3016 2534 2758 2815 
Q 2500 3097 2075 3097 
Q 1594 3097 1305 2825 
Q 1016 2553 972 2059 
L 3022 2063 
z
" transform="scale(0.015625)"/>
       <path id="DejaVuSans-20" transform="scale(0.015625)"/>
       <path id="DejaVuSans-50" d="M 1259 4147 
L 1259 2394 
L 2053 2394 
Q 2494 2394 2734 2622 
Q 2975 2850 2975 3272 
Q 2975 3691 2734 3919 
Q 2494 4147 2053 4147 
L 1259 4147 
z
M 628 4666 
L 2053 4666 
Q 2838 4666 3239 4311 
Q 3641 3956 3641 3272 
Q 3641 2581 3239 2228 
Q 2838 1875 2053 1875 
L 1259 1875 
L 1259 0 
L 628 0 
L 628 4666 
z
" transform="scale(0.015625)"/>
       <path id="DejaVuSans-6f" d="M 1959 3097 
Q 1497 3097 1228 2736 
Q 959 2375 959 1747 
Q 959 1119 1226 758 
Q 1494 397 1959 397 
Q 2419 397 2687 759 
Q 2956 1122 2956 1747 
Q 2956 2369 2687 2733 
Q 2419 3097 1959 3097 
z
M 1959 3584 
Q 2709 3584 3137 3096 
Q 3566 2609 3566 1747 
Q 3566 888 3137 398 
Q 2709 -91 1959 -91 
Q 1206 -91 779 398 
Q 353 888 353 1747 
Q 353 2609 779 3096 
Q 1206 3584 1959 3584 
z
" transform="scale(0.015625)"/>
       <path id="DejaVuSans-69" d="M 603 3500 
L 1178 3500 
L 1178 0 
L 603 0 
L 603 3500 
z
M 603 4863 
L 1178 4863 
L 1178 4134 
L 603 4134 
L 603 4863 
z
" transform="scale(0.015625)"/>
       <path id="DejaVuSans-74" d="M 1172 4494 
L 1172 3500 
L 2356 3500 
L 2356 3053 
L 1172 3053 
L 1172 1153 
Q 1172 725 1289 603 
Q 1406 481 1766 481 
L 2356 481 
L 2356 0 
L 1766 0 
Q 1100 0 847 248 
Q 594 497 594 1153 
L 594 3053 
L 172 3053 
L 172 3500 
L 594 3500 
L 594 4494 
L 1172 4494 
z
" transform="scale(0.015625)"/>
       <path id="DejaVuSans-76" d="M 191 3500 
L 800 3500 
L 1894 563 
L 2988 3500 
L 3597 3500 
L 2284 0 
L 1503 0 
L 191 3500 
z
" transform="scale(0.015625)"/>
       <path id="DejaVuSans-52" d="M 2841 2188 
Q 3044 2119 3236 1894 
Q 3428 1669 3622 1275 
L 4263 0 
L 3584 0 
L 2988 1197 
Q 2756 1666 2539 1819 
Q 2322 1972 1947 1972 
L 1259 1972 
L 1259 0 
L 628 0 
L 628 4666 
L 2053 4666 
Q 2853 4666 3247 4331 
Q 3641 3997 3641 3322 
Q 3641 2881 3436 2590 
Q 3231 2300 2841 2188 
z
M 1259 4147 
L 1259 2491 
L 2053 2491 
Q 2509 2491 2742 2702 
Q 2975 2913 2975 3322 
Q 2975 3731 2742 3939 
Q 2509 4147 2053 4147 
L 1259 4147 
z
" transform="scale(0.015625)"/>
      </defs>
      <use xlink:href="#DejaVuSans-46"/>
      <use xlink:href="#DejaVuSans-61" x="48.394531"/>
      <use xlink:href="#DejaVuSans-6c" x="109.673828"/>
      <use xlink:href="#DejaVuSans-73" x="137.457031"/>
      <use xlink:href="#DejaVuSans-65" x="189.556641"/>
      <use xlink:href="#DejaVuSans-20" x="251.080078"/>
      <use xlink:href="#DejaVuSans-50" x="282.867188"/>
      <use xlink:href="#DejaVuSans-6f" x="339.544922"/>
      <use xlink:href="#DejaVuSans-73" x="400.726562"/>
      <use xlink:href="#DejaVuSans-69" x="452.826172"/>
      <use xlink:href="#DejaVuSans-74" x="480.609375"/>
      <use xlink:href="#DejaVuSans-69" x="519.818359"/>
      <use xlink:href="#DejaVuSans-76" x="547.601562"/>
      <use xlink:href="#DejaVuSans-65" x="606.78125"/>
      <use xlink:href="#DejaVuSans-20" x="668.304688"/>
      <use xlink:href="#DejaVuSans-52" x="700.091797"/>
      <use xlink:href="#DejaVuSans-61" x="767.324219"/>
      <use xlink:href="#DejaVuSans-74" x="828.603516"/>
      <use xlink:href="#DejaVuSans-65" x="867.8125"/>
     </g>
    </g>
   </g>
   <g id="matplotlib.axis_2">
    <g id="ytick_1">
     <g id="line2d_7">
      <defs>
       <path id="ma142805af7" d="M 0 0 
L -3.5 0 
" style="stroke: #000000; stroke-width: 0.8"/>
      </defs>
      <g>
       <use xlink:href="#ma142805af7" x="43.78125" y="299.798125" style="stroke: #000000; stroke-width: 0.8"/>
      </g>
     </g>
     <g id="text_8">
      <!-- 0.0 -->
      <g transform="translate(20.878125 303.597344) scale(0.1 -0.1)">
       <use xlink:href="#DejaVuSans-30"/>
       <use xlink:href="#DejaVuSans-2e" x="63.623047"/>
       <use xlink:href="#DejaVuSans-30" x="95.410156"/>
      </g>
     </g>
    </g>
    <g id="ytick_2">
     <g id="line2d_8">
      <g>
       <use xlink:href="#ma142805af7" x="43.78125" y="246.944792" style="stroke: #000000; stroke-width: 0.8"/>
      </g>
     </g>
     <g id="text_9">
      <!-- 0.2 -->
      <g transform="translate(20.878125 250.74401) scale(0.1 -0.1)">
       <use xlink:href="#DejaVuSans-30"/>
       <use xlink:href="#DejaVuSans-2e" x="63.623047"/>
       <use xlink:href="#DejaVuSans-32" x="95.410156"/>
      </g>
     </g>
    </g>
    <g id="ytick_3">
     <g id="line2d_9">
      <g>
       <use xlink:href="#ma142805af7" x="43.78125" y="194.091458" style="stroke: #000000; stroke-width: 0.8"/>
      </g>
     </g>
     <g id="text_10">
      <!-- 0.4 -->
      <g transform="translate(20.878125 197.890677) scale(0.1 -0.1)">
       <use xlink:href="#DejaVuSans-30"/>
       <use xlink:href="#DejaVuSans-2e" x="63.623047"/>
       <use xlink:href="#DejaVuSans-34" x="95.410156"/>
      </g>
     </g>
    </g>
    <g id="ytick_4">
     <g id="line2d_10">
      <g>
       <use xlink:href="#ma142805af7" x="43.78125" y="141.238125" style="stroke: #000000; stroke-width: 0.8"/>
      </g>
     </g>
     <g id="text_11">
      <!-- 0.6 -->
      <g transform="translate(20.878125 145.037344) scale(0.1 -0.1)">
       <use xlink:href="#DejaVuSans-30"/>
       <use xlink:href="#DejaVuSans-2e" x="63.623047"/>
       <use xlink:href="#DejaVuSans-36" x="95.410156"/>
      </g>
     </g>
    </g>
    <g id="ytick_5">
     <g id="line2d_11">
      <g>
       <use xlink:href="#ma142805af7" x="43.78125" y="88.384792" style="stroke: #000000; stroke-width: 0.8"/>
      </g>
     </g>
     <g id="text_12">
      <!-- 0.8 -->
      <g transform="translate(20.878125 92.18401) scale(0.1 -0.1)">
       <use xlink:href="#DejaVuSans-30"/>
       <use xlink:href="#DejaVuSans-2e" x="63.623047"/>
       <use xlink:href="#DejaVuSans-38" x="95.410156"/>
      </g>
     </g>
    </g>
    <g id="ytick_6">
     <g id="line2d_12">
      <g>
       <use xlink:href="#ma142805af7" x="43.78125" y="35.531458" style="stroke: #000000; stroke-width: 0.8"/>
      </g>
     </g>
     <g id="text_13">
      <!-- 1.0 -->
      <g transform="translate(20.878125 39.330677) scale(0.1 -0.1)">
       <use xlink:href="#DejaVuSans-31"/>
       <use xlink:href="#DejaVuSans-2e" x="63.623047"/>
       <use xlink:href="#DejaVuSans-30" x="95.410156"/>
      </g>
     </g>
    </g>
    <g id="text_14">
     <!-- True Positive Rate -->
     <g transform="translate(14.798438 205.587813) rotate(-90) scale(0.1 -0.1)">
      <defs>
       <path id="DejaVuSans-54" d="M -19 4666 
L 3928 4666 
L 3928 4134 
L 2272 4134 
L 2272 0 
L 1638 0 
L 1638 4134 
L -19 4134 
L -19 4666 
z
" transform="scale(0.015625)"/>
       <path id="DejaVuSans-72" d="M 2631 2963 
Q 2534 3019 2420 3045 
Q 2306 3072 2169 3072 
Q 1681 3072 1420 2755 
Q 1159 2438 1159 1844 
L 1159 0 
L 581 0 
L 581 3500 
L 1159 3500 
L 1159 2956 
Q 1341 3275 1631 3429 
Q 1922 3584 2338 3584 
Q 2397 3584 2469 3576 
Q 2541 3569 2628 3553 
L 2631 2963 
z
" transform="scale(0.015625)"/>
       <path id="DejaVuSans-75" d="M 544 1381 
L 544 3500 
L 1119 3500 
L 1119 1403 
Q 1119 906 1312 657 
Q 1506 409 1894 409 
Q 2359 409 2629 706 
Q 2900 1003 2900 1516 
L 2900 3500 
L 3475 3500 
L 3475 0 
L 2900 0 
L 2900 538 
Q 2691 219 2414 64 
Q 2138 -91 1772 -91 
Q 1169 -91 856 284 
Q 544 659 544 1381 
z
M 1991 3584 
L 1991 3584 
z
" transform="scale(0.015625)"/>
      </defs>
      <use xlink:href="#DejaVuSans-54"/>
      <use xlink:href="#DejaVuSans-72" x="46.333984"/>
      <use xlink:href="#DejaVuSans-75" x="87.447266"/>
      <use xlink:href="#DejaVuSans-65" x="150.826172"/>
      <use xlink:href="#DejaVuSans-20" x="212.349609"/>
      <use xlink:href="#DejaVuSans-50" x="244.136719"/>
      <use xlink:href="#DejaVuSans-6f" x="300.814453"/>
      <use xlink:href="#DejaVuSans-73" x="361.996094"/>
      <use xlink:href="#DejaVuSans-69" x="414.095703"/>
      <use xlink:href="#DejaVuSans-74" x="441.878906"/>
      <use xlink:href="#DejaVuSans-69" x="481.087891"/>
      <use xlink:href="#DejaVuSans-76" x="508.871094"/>
      <use xlink:href="#DejaVuSans-65" x="568.050781"/>
      <use xlink:href="#DejaVuSans-20" x="629.574219"/>
      <use xlink:href="#DejaVuSans-52" x="661.361328"/>
      <use xlink:href="#DejaVuSans-61" x="728.59375"/>
      <use xlink:href="#DejaVuSans-74" x="789.873047"/>
      <use xlink:href="#DejaVuSans-65" x="829.082031"/>
     </g>
    </g>
   </g>
   <g id="line2d_13">
    <path d="M 43.78125 299.798125 
L 43.78125 298.547652 
L 44.030172 298.547652 
L 44.030172 296.880354 
L 44.279094 296.880354 
L 44.279094 294.379408 
L 44.776938 294.379408 
L 44.776938 291.878461 
L 45.02586 291.878461 
L 45.02586 291.253225 
L 45.274782 291.253225 
L 45.274782 290.419576 
L 45.523704 290.419576 
L 45.523704 289.585927 
L 45.772626 289.585927 
L 45.772626 289.169103 
L 46.021548 289.169103 
L 46.021548 282.083088 
L 46.27047 282.083088 
L 46.27047 281.874676 
L 46.519392 281.874676 
L 46.519392 279.998966 
L 46.768314 279.998966 
L 46.768314 279.165317 
L 47.017236 279.165317 
L 47.017236 275.62231 
L 47.266158 275.62231 
L 47.266158 275.413898 
L 47.51508 275.413898 
L 47.51508 275.205486 
L 47.764003 275.205486 
L 47.764003 273.538188 
L 48.261847 273.538188 
L 48.261847 273.121364 
L 48.510769 273.121364 
L 48.510769 268.536295 
L 48.759691 268.536295 
L 48.759691 267.702647 
L 49.008613 267.702647 
L 49.008613 266.452173 
L 49.506457 266.452173 
L 49.506457 266.035349 
L 49.755379 266.035349 
L 49.755379 264.368051 
L 50.004301 264.368051 
L 50.004301 263.742815 
L 50.253223 263.742815 
L 50.253223 263.117578 
L 50.502145 263.117578 
L 50.502145 261.658693 
L 50.751067 261.658693 
L 50.751067 259.991395 
L 50.999989 259.991395 
L 50.999989 258.949334 
L 51.248911 258.949334 
L 51.248911 256.6568 
L 51.497833 256.6568 
L 51.497833 256.031563 
L 51.995677 256.031563 
L 51.995677 255.406327 
L 52.493521 255.406327 
L 52.493521 254.155854 
L 52.742443 253.947442 
L 53.489209 253.947442 
L 53.489209 253.739029 
L 53.738131 253.739029 
L 53.738131 252.488556 
L 54.235975 252.488556 
L 54.235975 252.071732 
L 54.484897 252.071732 
L 54.484897 251.86332 
L 55.231664 251.86332 
L 55.231664 251.654907 
L 55.729508 251.654907 
L 55.729508 249.779198 
L 55.97843 249.779198 
L 55.97843 248.945549 
L 56.227352 248.945549 
L 56.227352 245.402541 
L 56.476274 245.402541 
L 56.476274 245.194129 
L 56.725196 245.194129 
L 56.725196 244.36048 
L 56.974118 244.36048 
L 56.974118 244.152068 
L 57.22304 244.152068 
L 57.22304 243.318419 
L 57.471962 243.318419 
L 57.471962 242.693183 
L 57.720884 242.693183 
L 57.720884 242.067946 
L 58.218728 242.067946 
L 58.218728 241.859534 
L 59.71226 241.859534 
L 59.71226 241.44271 
L 60.210104 241.44271 
L 60.210104 241.234297 
L 60.459026 241.234297 
L 60.459026 240.609061 
L 60.707948 240.609061 
L 60.707948 239.358588 
L 61.454714 239.358588 
L 61.454714 237.274466 
L 61.703636 237.274466 
L 61.703636 235.81558 
L 61.952558 235.81558 
L 61.952558 235.398756 
L 62.20148 235.398756 
L 62.20148 233.939871 
L 62.699324 233.939871 
L 62.699324 233.106222 
L 62.948247 233.106222 
L 62.948247 231.230512 
L 63.695013 231.230512 
L 63.695013 230.396863 
L 63.943935 230.396863 
L 63.943935 230.188451 
L 64.192857 230.188451 
L 64.192857 229.771627 
L 64.441779 229.771627 
L 64.441779 229.14639 
L 64.690701 229.14639 
L 64.690701 228.937978 
L 64.939623 228.937978 
L 64.939623 228.729566 
L 65.188545 228.729566 
L 65.188545 227.895917 
L 65.437467 227.895917 
L 65.437467 227.687505 
L 65.686389 227.687505 
L 65.686389 226.853856 
L 65.935311 226.853856 
L 65.935311 226.645444 
L 66.184233 226.645444 
L 66.184233 226.437031 
L 66.433155 226.437031 
L 66.433155 226.228619 
L 66.930999 226.228619 
L 66.930999 224.561322 
L 67.179921 224.561322 
L 67.179921 223.936085 
L 67.428843 223.936085 
L 67.428843 222.685612 
L 67.926687 222.685612 
L 67.926687 222.060375 
L 68.424531 222.060375 
L 68.424531 220.184665 
L 68.922375 220.184665 
L 68.922375 219.976253 
L 69.171297 219.976253 
L 69.171297 218.934192 
L 69.420219 218.934192 
L 69.420219 217.475307 
L 69.669141 217.475307 
L 69.669141 217.058483 
L 70.166985 217.058483 
L 70.166985 215.599597 
L 70.415908 215.599597 
L 70.415908 215.182773 
L 70.913752 215.182773 
L 70.913752 214.557536 
L 71.162674 214.557536 
L 71.162674 212.681826 
L 71.660518 212.681826 
L 71.660518 212.05659 
L 71.90944 212.05659 
L 71.90944 210.806117 
L 72.158362 210.806117 
L 72.158362 210.597704 
L 72.407284 210.597704 
L 72.407284 208.513582 
L 72.656206 208.513582 
L 72.656206 207.888346 
L 72.905128 207.888346 
L 72.905128 207.679934 
L 73.651894 207.679934 
L 73.651894 206.637873 
L 73.900816 206.637873 
L 73.900816 206.42946 
L 74.647582 206.42946 
L 74.647582 206.221048 
L 74.896504 206.221048 
L 74.896504 206.012636 
L 75.145426 206.012636 
L 75.145426 205.595812 
L 75.892192 205.595812 
L 75.892192 204.762163 
L 76.390036 204.762163 
L 76.390036 204.553751 
L 76.638958 204.553751 
L 76.638958 202.469629 
L 76.88788 202.469629 
L 76.88788 202.261216 
L 77.136802 202.261216 
L 77.136802 202.052804 
L 77.385724 202.052804 
L 77.385724 201.844392 
L 77.634646 201.844392 
L 77.634646 200.385507 
L 77.883568 200.385507 
L 77.883568 199.968682 
L 78.132491 199.968682 
L 78.132491 198.926621 
L 78.381413 198.926621 
L 78.381413 198.509797 
L 78.879257 198.509797 
L 78.879257 197.88456 
L 79.128179 197.88456 
L 79.128179 197.259324 
L 79.626023 197.259324 
L 79.626023 196.842499 
L 79.874945 196.842499 
L 79.874945 196.634087 
L 80.123867 196.634087 
L 80.123867 196.008851 
L 80.372789 196.008851 
L 80.372789 195.383614 
L 80.621711 195.383614 
L 80.621711 194.96679 
L 80.870633 194.96679 
L 80.870633 194.549965 
L 81.119555 194.549965 
L 81.119555 194.341553 
L 81.368477 194.341553 
L 81.368477 193.507904 
L 81.617399 193.507904 
L 81.617399 193.09108 
L 82.364165 193.09108 
L 82.364165 192.465843 
L 82.862009 192.465843 
L 82.862009 192.257431 
L 83.110931 192.257431 
L 83.110931 191.840607 
L 83.359853 191.840607 
L 83.359853 191.423782 
L 83.608775 191.423782 
L 83.608775 190.381721 
L 83.857697 190.381721 
L 83.857697 189.964897 
L 84.106619 189.964897 
L 84.106619 189.33966 
L 84.355541 189.33966 
L 84.355541 187.46395 
L 84.604463 187.46395 
L 84.604463 186.421889 
L 84.853385 186.421889 
L 84.853385 184.754592 
L 85.351229 184.754592 
L 85.351229 184.54618 
L 85.600152 184.54618 
L 85.600152 183.504119 
L 85.849074 183.504119 
L 85.849074 182.462058 
L 86.844762 182.462058 
L 86.844762 180.377936 
L 87.342606 180.377936 
L 87.342606 179.335875 
L 88.089372 179.335875 
L 88.089372 178.085402 
L 88.338294 178.085402 
L 88.338294 177.876989 
L 88.587216 177.876989 
L 88.587216 177.460165 
L 88.836138 177.460165 
L 88.836138 176.834928 
L 89.08506 176.834928 
L 89.08506 176.00128 
L 89.831826 176.00128 
L 89.831826 174.959219 
L 90.080748 174.959219 
L 90.080748 174.333982 
L 90.578592 174.333982 
L 90.578592 173.083509 
L 90.827514 173.083509 
L 90.827514 172.875097 
L 91.076436 172.875097 
L 91.076436 172.666684 
L 91.57428 172.666684 
L 91.57428 172.458272 
L 92.321046 172.458272 
L 92.321046 172.24986 
L 92.569968 172.24986 
L 92.569968 172.041448 
L 93.067813 172.041448 
L 93.067813 170.37415 
L 93.316735 170.37415 
L 93.316735 169.748914 
L 94.063501 169.748914 
L 94.063501 169.123677 
L 94.312423 169.123677 
L 94.312423 168.915265 
L 94.810267 168.915265 
L 94.810267 168.706853 
L 95.308111 168.706853 
L 95.308111 167.873204 
L 95.557033 167.873204 
L 95.557033 167.664792 
L 95.805955 167.664792 
L 95.805955 167.247967 
L 96.054877 167.247967 
L 96.054877 166.622731 
L 96.552721 166.622731 
L 96.552721 165.58067 
L 96.801643 165.58067 
L 96.801643 164.538609 
L 97.050565 164.538609 
L 97.050565 163.496548 
L 97.548409 163.496548 
L 97.548409 163.288136 
L 97.797331 163.288136 
L 97.797331 162.871311 
L 99.041941 162.871311 
L 99.041941 162.662899 
L 99.290863 162.662899 
L 99.290863 162.454487 
L 99.539785 162.454487 
L 99.539785 161.82925 
L 100.037629 161.82925 
L 100.037629 160.370365 
L 100.286551 160.370365 
L 100.286551 159.95354 
L 100.535473 159.95354 
L 100.535473 159.328304 
L 101.531162 159.328304 
L 101.531162 159.119892 
L 101.780084 159.119892 
L 101.780084 158.911479 
L 102.029006 158.911479 
L 102.029006 158.494655 
L 102.52685 158.494655 
L 102.52685 158.286243 
L 102.775772 158.286243 
L 102.775772 158.077831 
L 103.273616 158.077831 
L 103.273616 157.869418 
L 103.77146 157.869418 
L 103.77146 156.827357 
L 104.020382 156.827357 
L 104.020382 156.618945 
L 104.269304 156.618945 
L 104.269304 156.202121 
L 104.518226 156.202121 
L 104.518226 155.993709 
L 104.767148 155.993709 
L 104.767148 155.16006 
L 105.01607 155.16006 
L 105.01607 154.951648 
L 105.264992 154.951648 
L 105.264992 154.743235 
L 105.762836 154.743235 
L 105.762836 154.117999 
L 106.011758 154.117999 
L 106.011758 153.701174 
L 106.26068 153.701174 
L 106.26068 153.28435 
L 107.256368 153.28435 
L 107.256368 153.075938 
L 108.500979 153.075938 
L 108.500979 152.867526 
L 108.749901 152.867526 
L 108.749901 151.617052 
L 108.998823 151.617052 
L 108.998823 151.40864 
L 109.247745 151.40864 
L 109.247745 150.783404 
L 109.496667 150.783404 
L 109.496667 149.949755 
L 109.994511 149.949755 
L 109.994511 149.741343 
L 110.741277 149.741343 
L 110.741277 149.53293 
L 110.990199 149.53293 
L 110.990199 148.699282 
L 111.488043 148.699282 
L 111.488043 148.074045 
L 111.736965 148.074045 
L 111.736965 147.448808 
L 111.985887 147.448808 
L 111.985887 147.240396 
L 112.981575 147.240396 
L 112.981575 147.031984 
L 113.230497 147.031984 
L 113.230497 145.781511 
L 113.479419 145.781511 
L 113.479419 145.573099 
L 113.728341 145.573099 
L 113.728341 144.73945 
L 113.977263 144.73945 
L 113.977263 144.322626 
L 114.226185 144.322626 
L 114.226185 144.114213 
L 115.470795 144.114213 
L 115.470795 143.697389 
L 115.719717 143.697389 
L 115.719717 143.072152 
L 116.964328 143.072152 
L 116.964328 142.238504 
L 117.21325 142.238504 
L 117.21325 141.821679 
L 117.462172 141.821679 
L 117.462172 140.779618 
L 117.711094 140.779618 
L 117.711094 139.529145 
L 118.208938 139.529145 
L 118.208938 139.112321 
L 118.706782 139.112321 
L 118.706782 138.695496 
L 118.955704 138.695496 
L 122.440612 135.569313 
L 122.689534 135.569313 
L 122.689534 135.152489 
L 123.934145 135.152489 
L 123.934145 134.31884 
L 124.431989 134.31884 
L 124.431989 134.110428 
L 124.680911 134.110428 
L 124.680911 133.902016 
L 124.929833 133.902016 
L 124.929833 133.485191 
L 125.427677 133.485191 
L 125.427677 133.276779 
L 125.676599 133.276779 
L 125.676599 133.068367 
L 126.174443 133.068367 
L 126.174443 132.651542 
L 127.419053 132.651542 
L 127.419053 132.44313 
L 127.916897 132.44313 
L 127.916897 131.817894 
L 128.414741 131.817894 
L 128.414741 131.609481 
L 128.912585 131.609481 
L 128.912585 131.192657 
L 129.659351 131.192657 
L 129.659351 130.984245 
L 129.908273 130.984245 
L 129.908273 129.942184 
L 130.655039 129.942184 
L 130.655039 129.525359 
L 130.903961 129.525359 
L 130.903961 128.900123 
L 131.401806 128.900123 
L 131.401806 128.483299 
L 131.650728 128.274886 
L 131.650728 128.066474 
L 131.89965 128.066474 
L 131.89965 127.858062 
L 132.397494 127.858062 
L 132.397494 127.64965 
L 132.646416 127.64965 
L 132.646416 127.024413 
L 133.14426 127.024413 
L 133.14426 126.816001 
L 133.891026 126.816001 
L 133.891026 126.607589 
L 134.637792 126.607589 
L 134.637792 126.399177 
L 135.135636 126.399177 
L 135.135636 126.190764 
L 135.882402 126.190764 
L 135.882402 125.982352 
L 136.131324 125.982352 
L 136.131324 125.565528 
L 137.624856 125.565528 
L 137.624856 125.357116 
L 138.371622 125.357116 
L 138.371622 125.148703 
L 138.869467 125.148703 
L 138.869467 124.940291 
L 139.118389 124.940291 
L 139.118389 124.106642 
L 139.367311 124.106642 
L 139.367311 123.89823 
L 139.616233 123.89823 
L 139.616233 123.481406 
L 139.865155 123.481406 
L 139.865155 123.064581 
L 140.114077 123.064581 
L 140.114077 122.647757 
L 140.860843 122.647757 
L 140.860843 121.814108 
L 141.358687 121.814108 
L 141.358687 120.772047 
L 141.607609 120.772047 
L 141.607609 120.355223 
L 142.603297 120.355223 
L 142.603297 120.146811 
L 142.852219 120.146811 
L 142.852219 119.938398 
L 143.101141 119.938398 
L 143.101141 119.729986 
L 144.594673 119.729986 
L 144.594673 119.521574 
L 146.58605 119.521574 
L 146.58605 119.313162 
L 147.83066 119.313162 
L 147.83066 118.687925 
L 148.328504 118.687925 
L 148.328504 118.479513 
L 148.826348 118.479513 
L 148.826348 117.854276 
L 149.324192 117.854276 
L 149.324192 117.22904 
L 150.070958 117.22904 
L 150.070958 116.812215 
L 150.31988 116.812215 
L 150.31988 115.978567 
L 151.066646 115.978567 
L 151.066646 115.770154 
L 151.315568 115.770154 
L 151.315568 115.561742 
L 152.062334 115.561742 
L 152.062334 115.144918 
L 152.560178 115.144918 
L 152.560178 114.936506 
L 153.306944 114.936506 
L 153.306944 114.728093 
L 153.555866 114.728093 
L 153.555866 114.519681 
L 155.298321 114.519681 
L 155.298321 114.102857 
L 156.045087 114.102857 
L 156.045087 113.686032 
L 156.294009 113.686032 
L 156.294009 113.47762 
L 156.542931 113.47762 
L 156.542931 113.269208 
L 156.791853 113.269208 
L 156.791853 113.060796 
L 158.036463 113.060796 
L 158.036463 112.643971 
L 158.285385 112.643971 
L 158.285385 112.435559 
L 158.534307 112.435559 
L 158.534307 112.227147 
L 158.783229 112.227147 
L 158.783229 112.018735 
L 159.281073 112.018735 
L 159.281073 111.60191 
L 159.778917 111.60191 
L 159.778917 111.393498 
L 160.525683 111.393498 
L 160.525683 111.185086 
L 160.774605 111.185086 
L 160.774605 110.976674 
L 161.272449 110.976674 
L 161.272449 110.768262 
L 161.770294 110.768262 
L 161.770294 110.55985 
L 162.51706 110.55985 
L 162.51706 109.934613 
L 162.765982 109.934613 
L 162.765982 109.726201 
L 163.512748 109.726201 
L 163.512748 109.517789 
L 163.76167 109.517789 
L 163.76167 109.100964 
L 164.259514 109.100964 
L 164.259514 108.892552 
L 165.753046 108.892552 
L 165.753046 108.475728 
L 167.744422 108.475728 
L 167.744422 108.058903 
L 168.242266 108.058903 
L 168.242266 107.850491 
L 169.486877 107.850491 
L 169.486877 107.642079 
L 169.735799 107.642079 
L 169.735799 107.225254 
L 170.233643 107.225254 
L 170.233643 106.80843 
L 170.980409 106.80843 
L 170.980409 106.391606 
L 171.976097 106.391606 
L 171.976097 106.183193 
L 172.225019 106.183193 
L 172.225019 105.766369 
L 172.722863 105.766369 
L 172.722863 105.557957 
L 173.220707 105.557957 
L 173.220707 105.141132 
L 173.469629 105.141132 
L 173.469629 104.93272 
L 174.216395 104.93272 
L 174.216395 104.099071 
L 174.714239 104.099071 
L 174.714239 103.682247 
L 174.963161 103.682247 
L 174.963161 103.473835 
L 175.212083 103.473835 
L 175.212083 103.265423 
L 175.709927 103.265423 
L 175.709927 103.05701 
L 176.207771 103.05701 
L 176.207771 102.640186 
L 176.705616 102.640186 
L 176.705616 102.431774 
L 176.954538 102.431774 
L 176.954538 102.014949 
L 177.452382 102.014949 
L 177.452382 101.598125 
L 177.701304 101.598125 
L 177.701304 101.181301 
L 178.199148 101.181301 
L 178.199148 100.556064 
L 178.945914 100.556064 
L 178.945914 100.347652 
L 179.443758 100.347652 
L 179.443758 99.722415 
L 179.69268 99.722415 
L 179.69268 99.514003 
L 180.190524 99.514003 
L 180.190524 99.097179 
L 181.186212 99.097179 
L 181.186212 98.888766 
L 181.435134 98.888766 
L 181.435134 98.471942 
L 181.684056 98.471942 
L 181.684056 97.846705 
L 181.932978 97.846705 
L 181.932978 97.638293 
L 182.430822 97.638293 
L 182.430822 97.429881 
L 183.177588 97.429881 
L 183.177588 97.013057 
L 183.675432 97.013057 
L 183.675432 96.804644 
L 184.920043 96.804644 
L 184.920043 96.596232 
L 185.666809 96.596232 
L 185.666809 96.179408 
L 186.164653 96.179408 
L 186.164653 95.970996 
L 186.413575 95.970996 
L 186.413575 95.762583 
L 189.151717 95.762583 
L 189.151717 95.554171 
L 189.649561 95.554171 
L 189.649561 95.137347 
L 190.147405 95.137347 
L 190.147405 94.720522 
L 190.396327 94.720522 
L 190.396327 94.303698 
L 190.894171 94.303698 
L 190.894171 93.886874 
L 191.143093 93.886874 
L 191.143093 93.678461 
L 191.392015 93.678461 
L 191.392015 93.261637 
L 192.387704 93.261637 
L 192.387704 92.6364 
L 193.13447 92.6364 
L 193.13447 92.427988 
L 195.872612 92.427988 
L 195.872612 92.219576 
L 196.619378 92.219576 
L 196.619378 91.802752 
L 196.8683 91.802752 
L 196.8683 91.385927 
L 197.615066 91.385927 
L 197.615066 90.760691 
L 198.11291 90.760691 
L 198.11291 90.552279 
L 199.606443 90.552279 
L 199.606443 89.301805 
L 201.099975 89.301805 
L 201.099975 89.093393 
L 201.846741 89.093393 
L 201.846741 88.884981 
L 202.095663 88.884981 
L 202.095663 88.468157 
L 202.344585 88.468157 
L 202.344585 88.259744 
L 202.593507 88.259744 
L 202.593507 88.051332 
L 202.842429 88.051332 
L 202.842429 87.84292 
L 203.340273 87.84292 
L 203.340273 87.634508 
L 204.335961 87.634508 
L 204.335961 87.426096 
L 204.584883 87.426096 
L 204.584883 87.217683 
L 205.082727 87.217683 
L 205.082727 87.009271 
L 205.580571 87.009271 
L 205.580571 86.800859 
L 206.327337 86.800859 
L 206.327337 86.592447 
L 207.074104 86.592447 
L 207.074104 86.384035 
L 209.06548 86.384035 
L 209.06548 85.96721 
L 209.314402 85.96721 
L 209.314402 85.550386 
L 209.812246 85.550386 
L 209.812246 85.341974 
L 210.061168 85.341974 
L 210.061168 85.133561 
L 211.803622 85.133561 
L 211.803622 84.925149 
L 213.546076 84.925149 
L 213.546076 84.716737 
L 213.794998 84.716737 
L 213.794998 84.508325 
L 215.288531 84.508325 
L 215.288531 84.0915 
L 215.537453 84.0915 
L 215.537453 83.466264 
L 215.786375 83.466264 
L 215.786375 83.049439 
L 216.533141 83.049439 
L 216.533141 82.841027 
L 216.782063 82.841027 
L 216.782063 82.632615 
L 217.030985 82.632615 
L 217.030985 82.424203 
L 217.528829 82.424203 
L 217.528829 81.798966 
L 219.520205 81.798966 
L 219.520205 81.590554 
L 219.769127 81.590554 
L 219.769127 81.382142 
L 221.262659 81.382142 
L 221.262659 80.756905 
L 222.50727 80.756905 
L 222.50727 80.340081 
L 222.756192 80.340081 
L 222.756192 80.131669 
L 225.992178 80.131669 
L 225.992178 79.923256 
L 226.490022 79.923256 
L 226.490022 79.714844 
L 226.987866 79.714844 
L 226.987866 79.506432 
L 229.228164 79.506432 
L 229.228164 79.089608 
L 229.974931 79.089608 
L 229.974931 78.881195 
L 230.472775 78.881195 
L 230.472775 78.672783 
L 230.970619 78.672783 
L 230.970619 78.464371 
L 232.961995 78.464371 
L 232.961995 78.255959 
L 234.455527 78.255959 
L 234.455527 78.047547 
L 234.704449 78.047547 
L 234.704449 77.839134 
L 235.451215 77.839134 
L 235.451215 77.630722 
L 236.197981 77.630722 
L 236.197981 77.42231 
L 237.691514 77.42231 
L 237.691514 77.213898 
L 239.68289 77.213898 
L 239.68289 76.797073 
L 239.931812 76.797073 
L 239.931812 76.588661 
L 240.180734 76.588661 
L 240.180734 76.380249 
L 240.678578 76.380249 
L 240.678578 76.171837 
L 242.421032 76.171837 
L 242.421032 75.963425 
L 243.914564 75.963425 
L 243.914564 75.755012 
L 244.910253 75.755012 
L 244.910253 75.338188 
L 245.408097 75.338188 
L 245.408097 75.129776 
L 245.657019 75.129776 
L 245.657019 74.921364 
L 246.652707 74.921364 
L 246.652707 74.712951 
L 247.399473 74.712951 
L 247.399473 74.296127 
L 249.888693 74.296127 
L 249.888693 74.087715 
L 250.137615 74.087715 
L 250.137615 73.879303 
L 250.635459 73.879303 
L 250.635459 73.670891 
L 251.631147 73.670891 
L 251.631147 73.254066 
L 252.377914 73.254066 
L 252.377914 73.045654 
L 252.626836 73.045654 
L 252.626836 72.003593 
L 253.622524 72.003593 
L 253.622524 71.795181 
L 254.618212 71.795181 
L 254.618212 71.586769 
L 255.364978 71.586769 
L 255.364978 71.378356 
L 256.360666 71.378356 
L 256.360666 71.169944 
L 256.609588 71.169944 
L 256.609588 70.961532 
L 258.849886 70.961532 
L 258.849886 70.544708 
L 259.845574 70.544708 
L 259.845574 70.336295 
L 262.334795 70.336295 
L 262.334795 70.127883 
L 262.832639 70.127883 
L 262.832639 69.919471 
L 264.824015 69.919471 
L 264.824015 69.502647 
L 265.819703 69.502647 
L 265.819703 69.294234 
L 266.068625 69.294234 
L 266.068625 69.085822 
L 267.064313 69.085822 
L 267.064313 68.87741 
L 269.05569 68.87741 
L 269.05569 68.668998 
L 269.304612 68.668998 
L 269.304612 68.460586 
L 270.051378 68.460586 
L 270.051378 68.043761 
L 270.3003 68.043761 
L 270.3003 67.835349 
L 271.047066 67.835349 
L 271.047066 67.626937 
L 271.54491 67.626937 
L 271.54491 67.210112 
L 272.540598 67.210112 
L 272.540598 66.793288 
L 273.038442 66.793288 
L 273.038442 66.584876 
L 275.278741 66.584876 
L 275.278741 66.376464 
L 276.523351 66.376464 
L 276.523351 65.959639 
L 276.772273 65.959639 
L 276.772273 65.751227 
L 278.016883 65.751227 
L 278.016883 65.542815 
L 279.759337 65.542815 
L 279.759337 64.917578 
L 281.501791 64.917578 
L 281.501791 64.709166 
L 281.750713 64.709166 
L 281.750713 64.500754 
L 285.235622 64.500754 
L 285.235622 64.292342 
L 285.484544 64.292342 
L 285.484544 63.875517 
L 287.973764 63.875517 
L 287.973764 63.667105 
L 288.222686 63.667105 
L 288.222686 63.458693 
L 289.467296 63.458693 
L 289.467296 63.250281 
L 289.96514 63.250281 
L 289.96514 63.041868 
L 290.711907 63.041868 
L 290.711907 62.833456 
L 291.707595 62.833456 
L 291.707595 62.625044 
L 292.454361 62.625044 
L 292.454361 62.20822 
L 292.952205 62.20822 
L 292.952205 61.582983 
L 293.201127 61.582983 
L 293.201127 60.957746 
L 295.939269 60.957746 
L 296.437113 60.749334 
L 298.42849 60.749334 
L 298.42849 60.540922 
L 299.424178 60.540922 
L 299.424178 60.33251 
L 299.922022 60.33251 
L 299.922022 59.915685 
L 301.166632 59.915685 
L 301.166632 59.707273 
L 302.411242 59.707273 
L 302.411242 59.498861 
L 303.40693 59.498861 
L 303.40693 59.290449 
L 305.647229 59.290449 
L 305.647229 59.082037 
L 305.896151 59.082037 
L 305.896151 58.873624 
L 306.393995 58.873624 
L 306.393995 58.665212 
L 311.372435 58.665212 
L 311.372435 58.248388 
L 311.621357 58.248388 
L 311.621357 58.039976 
L 312.119201 58.039976 
L 312.119201 57.831563 
L 314.3595 57.831563 
L 314.3595 57.623151 
L 314.608422 57.623151 
L 314.608422 57.414739 
L 315.60411 57.414739 
L 315.60411 57.206327 
L 319.586862 57.206327 
L 319.586862 56.997915 
L 320.582551 56.997915 
L 320.582551 56.789502 
L 322.076083 56.789502 
L 322.076083 56.58109 
L 323.320693 56.58109 
L 323.320693 56.372678 
L 323.818537 56.372678 
L 323.818537 56.164266 
L 325.312069 56.164266 
L 325.312069 55.955854 
L 325.560991 55.955854 
L 325.560991 55.747442 
L 327.054523 55.747442 
L 327.054523 55.122205 
L 328.548056 55.122205 
L 328.548056 54.705381 
L 329.543744 54.705381 
L 329.543744 54.496968 
L 330.29051 54.496968 
L 330.29051 54.288556 
L 331.784042 54.288556 
L 331.784042 54.080144 
L 332.032964 54.080144 
L 332.032964 53.871732 
L 332.281886 53.871732 
L 332.281886 53.66332 
L 334.771106 53.66332 
L 335.020028 53.454907 
L 335.766795 53.454907 
L 336.015717 53.246495 
L 337.509249 53.246495 
L 337.509249 53.038083 
L 337.758171 53.038083 
L 337.758171 52.829671 
L 338.753859 52.829671 
L 338.753859 52.621259 
L 341.243079 52.621259 
L 341.243079 52.204434 
L 341.740923 52.204434 
L 341.740923 51.996022 
L 343.234455 51.996022 
L 343.234455 51.78761 
L 343.483378 51.78761 
L 343.483378 51.579198 
L 343.7323 51.579198 
L 343.7323 51.370785 
L 346.968286 51.370785 
L 346.968286 51.162373 
L 347.46613 51.162373 
L 347.46613 50.745549 
L 348.71074 50.745549 
L 348.71074 50.537137 
L 349.457506 50.537137 
L 349.457506 50.328724 
L 351.199961 50.328724 
L 351.199961 49.9119 
L 351.697805 49.9119 
L 351.697805 49.703488 
L 352.195649 49.703488 
L 352.195649 49.495076 
L 352.444571 49.495076 
L 352.444571 49.286663 
L 354.684869 49.286663 
L 354.684869 49.078251 
L 355.680557 49.078251 
L 355.680557 48.661427 
L 356.676245 48.661427 
L 356.676245 48.453015 
L 358.667622 48.453015 
L 358.667622 48.244602 
L 358.916544 48.244602 
L 358.916544 48.03619 
L 359.165466 48.03619 
L 359.165466 47.827778 
L 361.654686 47.827778 
L 361.654686 47.619366 
L 361.903608 47.619366 
L 361.903608 47.202541 
L 362.401452 47.202541 
L 362.401452 46.994129 
L 364.143906 46.994129 
L 364.143906 46.785717 
L 364.392828 46.785717 
L 364.392828 46.577305 
L 369.122347 46.577305 
L 369.122347 46.368893 
L 369.869113 46.368893 
L 369.869113 46.16048 
L 371.113723 46.16048 
L 371.113723 45.952068 
L 372.109411 45.952068 
L 372.109411 45.743656 
L 372.856177 45.743656 
L 372.856177 45.535244 
L 375.345398 45.535244 
L 375.59432 45.326832 
L 377.336774 45.326832 
L 377.336774 44.910007 
L 379.079228 44.910007 
L 379.079228 44.701595 
L 379.577072 44.701595 
L 379.577072 44.493183 
L 381.568449 44.493183 
L 381.568449 44.284771 
L 383.559825 44.284771 
L 383.559825 44.076358 
L 384.804435 44.076358 
L 384.804435 43.867946 
L 386.546889 43.867946 
L 386.546889 43.659534 
L 388.538265 43.659534 
L 388.538265 43.451122 
L 389.285032 43.451122 
L 389.285032 43.24271 
L 390.031798 43.24271 
L 390.031798 43.034297 
L 390.28072 43.034297 
L 390.28072 42.617473 
L 390.778564 42.617473 
L 390.778564 42.409061 
L 392.023174 42.409061 
L 392.023174 42.200649 
L 392.76994 42.200649 
L 392.76994 41.992236 
L 393.765628 41.992236 
L 393.765628 41.783824 
L 394.01455 41.783824 
L 394.01455 41.367 
L 396.503771 41.367 
L 396.503771 41.158588 
L 398.744069 41.158588 
L 398.744069 40.950175 
L 399.241913 40.950175 
L 399.241913 40.741763 
L 399.490835 40.741763 
L 399.490835 40.324939 
L 400.237601 40.324939 
L 400.237601 40.116527 
L 401.731133 40.116527 
L 401.980055 39.908114 
L 402.477899 39.908114 
L 402.477899 39.699702 
L 405.464964 39.699702 
L 405.464964 39.49129 
L 406.958496 39.49129 
L 406.958496 39.282878 
L 408.452028 39.282878 
L 408.452028 38.866053 
L 409.198794 38.866053 
L 409.198794 38.657641 
L 411.439092 38.657641 
L 411.439092 38.449229 
L 411.936937 38.449229 
L 411.936937 38.240817 
L 412.932625 38.240817 
L 412.932625 38.032405 
L 418.657831 38.032405 
L 418.657831 37.823993 
L 418.906753 37.823993 
L 418.906753 37.61558 
L 420.89813 37.61558 
L 420.89813 37.407168 
L 421.147052 37.407168 
L 421.147052 37.198756 
L 421.644896 37.198756 
L 421.644896 36.990344 
L 430.606089 36.990344 
L 430.606089 36.781932 
L 432.348543 36.781932 
L 432.348543 36.573519 
L 433.095309 36.573519 
L 433.095309 36.365107 
L 435.335608 36.365107 
L 435.335608 36.156695 
L 436.331296 36.156695 
L 436.331296 35.739871 
L 436.82914 35.739871 
L 436.82914 35.531458 
L 438.07375 35.531458 
L 438.07375 35.531458 
" clip-path="url(#p10a2ec12cc)" style="fill: none; stroke: #008000; stroke-width: 1.5; stroke-linecap: square"/>
   </g>
   <g id="line2d_14">
    <path d="M 43.78125 299.798125 
L 438.07375 35.531458 
" clip-path="url(#p10a2ec12cc)" style="fill: none; stroke-dasharray: 5.55,2.4; stroke-dashoffset: 0; stroke: #000000; stroke-width: 1.5"/>
   </g>
   <g id="patch_3">
    <path d="M 43.78125 299.798125 
L 43.78125 22.318125 
" style="fill: none; stroke: #000000; stroke-width: 0.8; stroke-linejoin: miter; stroke-linecap: square"/>
   </g>
   <g id="patch_4">
    <path d="M 438.07375 299.798125 
L 438.07375 22.318125 
" style="fill: none; stroke: #000000; stroke-width: 0.8; stroke-linejoin: miter; stroke-linecap: square"/>
   </g>
   <g id="patch_5">
    <path d="M 43.78125 299.798125 
L 438.07375 299.798125 
" style="fill: none; stroke: #000000; stroke-width: 0.8; stroke-linejoin: miter; stroke-linecap: square"/>
   </g>
   <g id="patch_6">
    <path d="M 43.78125 22.318125 
L 438.07375 22.318125 
" style="fill: none; stroke: #000000; stroke-width: 0.8; stroke-linejoin: miter; stroke-linecap: square"/>
   </g>
   <g id="text_15">
    <!-- ROC Curve -->
    <g transform="translate(208.236875 16.318125) scale(0.12 -0.12)">
     <defs>
      <path id="DejaVuSans-4f" d="M 2522 4238 
Q 1834 4238 1429 3725 
Q 1025 3213 1025 2328 
Q 1025 1447 1429 934 
Q 1834 422 2522 422 
Q 3209 422 3611 934 
Q 4013 1447 4013 2328 
Q 4013 3213 3611 3725 
Q 3209 4238 2522 4238 
z
M 2522 4750 
Q 3503 4750 4090 4092 
Q 4678 3434 4678 2328 
Q 4678 1225 4090 567 
Q 3503 -91 2522 -91 
Q 1538 -91 948 565 
Q 359 1222 359 2328 
Q 359 3434 948 4092 
Q 1538 4750 2522 4750 
z
" transform="scale(0.015625)"/>
      <path id="DejaVuSans-43" d="M 4122 4306 
L 4122 3641 
Q 3803 3938 3442 4084 
Q 3081 4231 2675 4231 
Q 1875 4231 1450 3742 
Q 1025 3253 1025 2328 
Q 1025 1406 1450 917 
Q 1875 428 2675 428 
Q 3081 428 3442 575 
Q 3803 722 4122 1019 
L 4122 359 
Q 3791 134 3420 21 
Q 3050 -91 2638 -91 
Q 1578 -91 968 557 
Q 359 1206 359 2328 
Q 359 3453 968 4101 
Q 1578 4750 2638 4750 
Q 3056 4750 3426 4639 
Q 3797 4528 4122 4306 
z
" transform="scale(0.015625)"/>
     </defs>
     <use xlink:href="#DejaVuSans-52"/>
     <use xlink:href="#DejaVuSans-4f" x="69.482422"/>
     <use xlink:href="#DejaVuSans-43" x="148.193359"/>
     <use xlink:href="#DejaVuSans-20" x="218.017578"/>
     <use xlink:href="#DejaVuSans-43" x="249.804688"/>
     <use xlink:href="#DejaVuSans-75" x="319.628906"/>
     <use xlink:href="#DejaVuSans-72" x="383.007812"/>
     <use xlink:href="#DejaVuSans-76" x="424.121094"/>
     <use xlink:href="#DejaVuSans-65" x="483.300781"/>
    </g>
   </g>
   <g id="legend_1">
    <g id="patch_7">
     <path d="M 308.131563 294.798125 
L 431.07375 294.798125 
Q 433.07375 294.798125 433.07375 292.798125 
L 433.07375 279.12 
Q 433.07375 277.12 431.07375 277.12 
L 308.131563 277.12 
Q 306.131563 277.12 306.131563 279.12 
L 306.131563 292.798125 
Q 306.131563 294.798125 308.131563 294.798125 
z
" style="fill: #ffffff; opacity: 0.8; stroke: #cccccc; stroke-linejoin: miter"/>
    </g>
    <g id="line2d_15">
     <path d="M 310.131563 285.218438 
L 320.131563 285.218438 
L 330.131563 285.218438 
" style="fill: none; stroke: #008000; stroke-width: 1.5; stroke-linecap: square"/>
    </g>
    <g id="text_16">
     <!-- SVM (AUC = 0.77) -->
     <g transform="translate(338.131563 288.718438) scale(0.1 -0.1)">
      <defs>
       <path id="DejaVuSans-53" d="M 3425 4513 
L 3425 3897 
Q 3066 4069 2747 4153 
Q 2428 4238 2131 4238 
Q 1616 4238 1336 4038 
Q 1056 3838 1056 3469 
Q 1056 3159 1242 3001 
Q 1428 2844 1947 2747 
L 2328 2669 
Q 3034 2534 3370 2195 
Q 3706 1856 3706 1288 
Q 3706 609 3251 259 
Q 2797 -91 1919 -91 
Q 1588 -91 1214 -16 
Q 841 59 441 206 
L 441 856 
Q 825 641 1194 531 
Q 1563 422 1919 422 
Q 2459 422 2753 634 
Q 3047 847 3047 1241 
Q 3047 1584 2836 1778 
Q 2625 1972 2144 2069 
L 1759 2144 
Q 1053 2284 737 2584 
Q 422 2884 422 3419 
Q 422 4038 858 4394 
Q 1294 4750 2059 4750 
Q 2388 4750 2728 4690 
Q 3069 4631 3425 4513 
z
" transform="scale(0.015625)"/>
       <path id="DejaVuSans-56" d="M 1831 0 
L 50 4666 
L 709 4666 
L 2188 738 
L 3669 4666 
L 4325 4666 
L 2547 0 
L 1831 0 
z
" transform="scale(0.015625)"/>
       <path id="DejaVuSans-4d" d="M 628 4666 
L 1569 4666 
L 2759 1491 
L 3956 4666 
L 4897 4666 
L 4897 0 
L 4281 0 
L 4281 4097 
L 3078 897 
L 2444 897 
L 1241 4097 
L 1241 0 
L 628 0 
L 628 4666 
z
" transform="scale(0.015625)"/>
       <path id="DejaVuSans-28" d="M 1984 4856 
Q 1566 4138 1362 3434 
Q 1159 2731 1159 2009 
Q 1159 1288 1364 580 
Q 1569 -128 1984 -844 
L 1484 -844 
Q 1016 -109 783 600 
Q 550 1309 550 2009 
Q 550 2706 781 3412 
Q 1013 4119 1484 4856 
L 1984 4856 
z
" transform="scale(0.015625)"/>
       <path id="DejaVuSans-41" d="M 2188 4044 
L 1331 1722 
L 3047 1722 
L 2188 4044 
z
M 1831 4666 
L 2547 4666 
L 4325 0 
L 3669 0 
L 3244 1197 
L 1141 1197 
L 716 0 
L 50 0 
L 1831 4666 
z
" transform="scale(0.015625)"/>
       <path id="DejaVuSans-55" d="M 556 4666 
L 1191 4666 
L 1191 1831 
Q 1191 1081 1462 751 
Q 1734 422 2344 422 
Q 2950 422 3222 751 
Q 3494 1081 3494 1831 
L 3494 4666 
L 4128 4666 
L 4128 1753 
Q 4128 841 3676 375 
Q 3225 -91 2344 -91 
Q 1459 -91 1007 375 
Q 556 841 556 1753 
L 556 4666 
z
" transform="scale(0.015625)"/>
       <path id="DejaVuSans-3d" d="M 678 2906 
L 4684 2906 
L 4684 2381 
L 678 2381 
L 678 2906 
z
M 678 1631 
L 4684 1631 
L 4684 1100 
L 678 1100 
L 678 1631 
z
" transform="scale(0.015625)"/>
       <path id="DejaVuSans-37" d="M 525 4666 
L 3525 4666 
L 3525 4397 
L 1831 0 
L 1172 0 
L 2766 4134 
L 525 4134 
L 525 4666 
z
" transform="scale(0.015625)"/>
       <path id="DejaVuSans-29" d="M 513 4856 
L 1013 4856 
Q 1481 4119 1714 3412 
Q 1947 2706 1947 2009 
Q 1947 1309 1714 600 
Q 1481 -109 1013 -844 
L 513 -844 
Q 928 -128 1133 580 
Q 1338 1288 1338 2009 
Q 1338 2731 1133 3434 
Q 928 4138 513 4856 
z
" transform="scale(0.015625)"/>
      </defs>
      <use xlink:href="#DejaVuSans-53"/>
      <use xlink:href="#DejaVuSans-56" x="63.476562"/>
      <use xlink:href="#DejaVuSans-4d" x="131.884766"/>
      <use xlink:href="#DejaVuSans-20" x="218.164062"/>
      <use xlink:href="#DejaVuSans-28" x="249.951172"/>
      <use xlink:href="#DejaVuSans-41" x="288.964844"/>
      <use xlink:href="#DejaVuSans-55" x="357.373047"/>
      <use xlink:href="#DejaVuSans-43" x="430.566406"/>
      <use xlink:href="#DejaVuSans-20" x="500.390625"/>
      <use xlink:href="#DejaVuSans-3d" x="532.177734"/>
      <use xlink:href="#DejaVuSans-20" x="615.966797"/>
      <use xlink:href="#DejaVuSans-30" x="647.753906"/>
      <use xlink:href="#DejaVuSans-2e" x="711.376953"/>
      <use xlink:href="#DejaVuSans-37" x="743.164062"/>
      <use xlink:href="#DejaVuSans-37" x="806.787109"/>
      <use xlink:href="#DejaVuSans-29" x="870.410156"/>
     </g>
    </g>
   </g>
  </g>
 </g>
 <defs>
  <clipPath id="p10a2ec12cc">
   <rect x="43.78125" y="22.318125" width="394.2925" height="277.48"/>
  </clipPath>
 </defs>
</svg>
