<?xml version="1.0" encoding="utf-8" standalone="no"?>
<!DOCTYPE svg PUBLIC "-//W3C//DTD SVG 1.1//EN"
  "http://www.w3.org/Graphics/SVG/1.1/DTD/svg11.dtd">
<svg xmlns:xlink="http://www.w3.org/1999/xlink" width="453.225312pt" height="337.354375pt" viewBox="0 0 453.225312 337.354375" xmlns="http://www.w3.org/2000/svg" version="1.1">
 <metadata>
  <rdf:RDF xmlns:dc="http://purl.org/dc/elements/1.1/" xmlns:cc="http://creativecommons.org/ns#" xmlns:rdf="http://www.w3.org/1999/02/22-rdf-syntax-ns#">
   <cc:Work>
    <dc:type rdf:resource="http://purl.org/dc/dcmitype/StillImage"/>
    <dc:date>2025-11-08T17:55:38.710605</dc:date>
    <dc:format>image/svg+xml</dc:format>
    <dc:creator>
     <cc:Agent>
      <dc:title>Matplotlib v3.9.1, https://matplotlib.org/</dc:title>
     </cc:Agent>
    </dc:creator>
   </cc:Work>
  </rdf:RDF>
 </metadata>
 <defs>
  <style type="text/css">*{stroke-linejoin: round; stroke-linecap: butt}</style>
 </defs>
 <g id="figure_1">
  <g id="patch_1">
   <path d="M 0 337.354375 
L 453.225312 337.354375 
L 453.225312 0 
L 0 0 
z
" style="fill: #ffffff"/>
  </g>
  <g id="axes_1">
   <g id="patch_2">
    <path d="M 43.78125 299.798125 
L 438.07375 299.798125 
L 438.07375 22.318125 
L 43.78125 22.318125 
z
" style="fill: #ffffff"/>
   </g>
   <g id="matplotlib.axis_1">
    <g id="xtick_1">
     <g id="line2d_1">
      <defs>
       <path id="m0a361a5bf1" d="M 0 0 
L 0 3.5 
" style="stroke: #000000; stroke-width: 0.8"/>
      </defs>
      <g>
       <use xlink:href="#m0a361a5bf1" x="43.78125" y="299.798125" style="stroke: #000000; stroke-width: 0.8"/>
      </g>
     </g>
     <g id="text_1">
      <!-- 0.0 -->
      <g transform="translate(35.829688 314.396563) scale(0.1 -0.1)">
       <defs>
        <path id="DejaVuSans-30" d="M 2034 4250 
Q 1547 4250 1301 3770 
Q 1056 3291 1056 2328 
Q 1056 1369 1301 889 
Q 1547 409 2034 409 
Q 2525 409 2770 889 
Q 3016 1369 3016 2328 
Q 3016 3291 2770 3770 
Q 2525 4250 2034 4250 
z
M 2034 4750 
Q 2819 4750 3233 4129 
Q 3647 3509 3647 2328 
Q 3647 1150 3233 529 
Q 2819 -91 2034 -91 
Q 1250 -91 836 529 
Q 422 1150 422 2328 
Q 422 3509 836 4129 
Q 1250 4750 2034 4750 
z
" transform="scale(0.015625)"/>
        <path id="DejaVuSans-2e" d="M 684 794 
L 1344 794 
L 1344 0 
L 684 0 
L 684 794 
z
" transform="scale(0.015625)"/>
       </defs>
       <use xlink:href="#DejaVuSans-30"/>
       <use xlink:href="#DejaVuSans-2e" x="63.623047"/>
       <use xlink:href="#DejaVuSans-30" x="95.410156"/>
      </g>
     </g>
    </g>
    <g id="xtick_2">
     <g id="line2d_2">
      <g>
       <use xlink:href="#m0a361a5bf1" x="122.63975" y="299.798125" style="stroke: #000000; stroke-width: 0.8"/>
      </g>
     </g>
     <g id="text_2">
      <!-- 0.2 -->
      <g transform="translate(114.688188 314.396563) scale(0.1 -0.1)">
       <defs>
        <path id="DejaVuSans-32" d="M 1228 531 
L 3431 531 
L 3431 0 
L 469 0 
L 469 531 
Q 828 903 1448 1529 
Q 2069 2156 2228 2338 
Q 2531 2678 2651 2914 
Q 2772 3150 2772 3378 
Q 2772 3750 2511 3984 
Q 2250 4219 1831 4219 
Q 1534 4219 1204 4116 
Q 875 4013 500 3803 
L 500 4441 
Q 881 4594 1212 4672 
Q 1544 4750 1819 4750 
Q 2544 4750 2975 4387 
Q 3406 4025 3406 3419 
Q 3406 3131 3298 2873 
Q 3191 2616 2906 2266 
Q 2828 2175 2409 1742 
Q 1991 1309 1228 531 
z
" transform="scale(0.015625)"/>
       </defs>
       <use xlink:href="#DejaVuSans-30"/>
       <use xlink:href="#DejaVuSans-2e" x="63.623047"/>
       <use xlink:href="#DejaVuSans-32" x="95.410156"/>
      </g>
     </g>
    </g>
    <g id="xtick_3">
     <g id="line2d_3">
      <g>
       <use xlink:href="#m0a361a5bf1" x="201.49825" y="299.798125" style="stroke: #000000; stroke-width: 0.8"/>
      </g>
     </g>
     <g id="text_3">
      <!-- 0.4 -->
      <g transform="translate(193.546688 314.396563) scale(0.1 -0.1)">
       <defs>
        <path id="DejaVuSans-34" d="M 2419 4116 
L 825 1625 
L 2419 1625 
L 2419 4116 
z
M 2253 4666 
L 3047 4666 
L 3047 1625 
L 3713 1625 
L 3713 1100 
L 3047 1100 
L 3047 0 
L 2419 0 
L 2419 1100 
L 313 1100 
L 313 1709 
L 2253 4666 
z
" transform="scale(0.015625)"/>
       </defs>
       <use xlink:href="#DejaVuSans-30"/>
       <use xlink:href="#DejaVuSans-2e" x="63.623047"/>
       <use xlink:href="#DejaVuSans-34" x="95.410156"/>
      </g>
     </g>
    </g>
    <g id="xtick_4">
     <g id="line2d_4">
      <g>
       <use xlink:href="#m0a361a5bf1" x="280.35675" y="299.798125" style="stroke: #000000; stroke-width: 0.8"/>
      </g>
     </g>
     <g id="text_4">
      <!-- 0.6 -->
      <g transform="translate(272.405188 314.396563) scale(0.1 -0.1)">
       <defs>
        <path id="DejaVuSans-36" d="M 2113 2584 
Q 1688 2584 1439 2293 
Q 1191 2003 1191 1497 
Q 1191 994 1439 701 
Q 1688 409 2113 409 
Q 2538 409 2786 701 
Q 3034 994 3034 1497 
Q 3034 2003 2786 2293 
Q 2538 2584 2113 2584 
z
M 3366 4563 
L 3366 3988 
Q 3128 4100 2886 4159 
Q 2644 4219 2406 4219 
Q 1781 4219 1451 3797 
Q 1122 3375 1075 2522 
Q 1259 2794 1537 2939 
Q 1816 3084 2150 3084 
Q 2853 3084 3261 2657 
Q 3669 2231 3669 1497 
Q 3669 778 3244 343 
Q 2819 -91 2113 -91 
Q 1303 -91 875 529 
Q 447 1150 447 2328 
Q 447 3434 972 4092 
Q 1497 4750 2381 4750 
Q 2619 4750 2861 4703 
Q 3103 4656 3366 4563 
z
" transform="scale(0.015625)"/>
       </defs>
       <use xlink:href="#DejaVuSans-30"/>
       <use xlink:href="#DejaVuSans-2e" x="63.623047"/>
       <use xlink:href="#DejaVuSans-36" x="95.410156"/>
      </g>
     </g>
    </g>
    <g id="xtick_5">
     <g id="line2d_5">
      <g>
       <use xlink:href="#m0a361a5bf1" x="359.21525" y="299.798125" style="stroke: #000000; stroke-width: 0.8"/>
      </g>
     </g>
     <g id="text_5">
      <!-- 0.8 -->
      <g transform="translate(351.263688 314.396563) scale(0.1 -0.1)">
       <defs>
        <path id="DejaVuSans-38" d="M 2034 2216 
Q 1584 2216 1326 1975 
Q 1069 1734 1069 1313 
Q 1069 891 1326 650 
Q 1584 409 2034 409 
Q 2484 409 2743 651 
Q 3003 894 3003 1313 
Q 3003 1734 2745 1975 
Q 2488 2216 2034 2216 
z
M 1403 2484 
Q 997 2584 770 2862 
Q 544 3141 544 3541 
Q 544 4100 942 4425 
Q 1341 4750 2034 4750 
Q 2731 4750 3128 4425 
Q 3525 4100 3525 3541 
Q 3525 3141 3298 2862 
Q 3072 2584 2669 2484 
Q 3125 2378 3379 2068 
Q 3634 1759 3634 1313 
Q 3634 634 3220 271 
Q 2806 -91 2034 -91 
Q 1263 -91 848 271 
Q 434 634 434 1313 
Q 434 1759 690 2068 
Q 947 2378 1403 2484 
z
M 1172 3481 
Q 1172 3119 1398 2916 
Q 1625 2713 2034 2713 
Q 2441 2713 2670 2916 
Q 2900 3119 2900 3481 
Q 2900 3844 2670 4047 
Q 2441 4250 2034 4250 
Q 1625 4250 1398 4047 
Q 1172 3844 1172 3481 
z
" transform="scale(0.015625)"/>
       </defs>
       <use xlink:href="#DejaVuSans-30"/>
       <use xlink:href="#DejaVuSans-2e" x="63.623047"/>
       <use xlink:href="#DejaVuSans-38" x="95.410156"/>
      </g>
     </g>
    </g>
    <g id="xtick_6">
     <g id="line2d_6">
      <g>
       <use xlink:href="#m0a361a5bf1" x="438.07375" y="299.798125" style="stroke: #000000; stroke-width: 0.8"/>
      </g>
     </g>
     <g id="text_6">
      <!-- 1.0 -->
      <g transform="translate(430.122187 314.396563) scale(0.1 -0.1)">
       <defs>
        <path id="DejaVuSans-31" d="M 794 531 
L 1825 531 
L 1825 4091 
L 703 3866 
L 703 4441 
L 1819 4666 
L 2450 4666 
L 2450 531 
L 3481 531 
L 3481 0 
L 794 0 
L 794 531 
z
" transform="scale(0.015625)"/>
       </defs>
       <use xlink:href="#DejaVuSans-31"/>
       <use xlink:href="#DejaVuSans-2e" x="63.623047"/>
       <use xlink:href="#DejaVuSans-30" x="95.410156"/>
      </g>
     </g>
    </g>
    <g id="text_7">
     <!-- False Positive Rate -->
     <g transform="translate(194.461094 328.074688) scale(0.1 -0.1)">
      <defs>
       <path id="DejaVuSans-46" d="M 628 4666 
L 3309 4666 
L 3309 4134 
L 1259 4134 
L 1259 2759 
L 3109 2759 
L 3109 2228 
L 1259 2228 
L 1259 0 
L 628 0 
L 628 4666 
z
" transform="scale(0.015625)"/>
       <path id="DejaVuSans-61" d="M 2194 1759 
Q 1497 1759 1228 1600 
Q 959 1441 959 1056 
Q 959 750 1161 570 
Q 1363 391 1709 391 
Q 2188 391 2477 730 
Q 2766 1069 2766 1631 
L 2766 1759 
L 2194 1759 
z
M 3341 1997 
L 3341 0 
L 2766 0 
L 2766 531 
Q 2569 213 2275 61 
Q 1981 -91 1556 -91 
Q 1019 -91 701 211 
Q 384 513 384 1019 
Q 384 1609 779 1909 
Q 1175 2209 1959 2209 
L 2766 2209 
L 2766 2266 
Q 2766 2663 2505 2880 
Q 2244 3097 1772 3097 
Q 1472 3097 1187 3025 
Q 903 2953 641 2809 
L 641 3341 
Q 956 3463 1253 3523 
Q 1550 3584 1831 3584 
Q 2591 3584 2966 3190 
Q 3341 2797 3341 1997 
z
" transform="scale(0.015625)"/>
       <path id="DejaVuSans-6c" d="M 603 4863 
L 1178 4863 
L 1178 0 
L 603 0 
L 603 4863 
z
" transform="scale(0.015625)"/>
       <path id="DejaVuSans-73" d="M 2834 3397 
L 2834 2853 
Q 2591 2978 2328 3040 
Q 2066 3103 1784 3103 
Q 1356 3103 1142 2972 
Q 928 2841 928 2578 
Q 928 2378 1081 2264 
Q 1234 2150 1697 2047 
L 1894 2003 
Q 2506 1872 2764 1633 
Q 3022 1394 3022 966 
Q 3022 478 2636 193 
Q 2250 -91 1575 -91 
Q 1294 -91 989 -36 
Q 684 19 347 128 
L 347 722 
Q 666 556 975 473 
Q 1284 391 1588 391 
Q 1994 391 2212 530 
Q 2431 669 2431 922 
Q 2431 1156 2273 1281 
Q 2116 1406 1581 1522 
L 1381 1569 
Q 847 1681 609 1914 
Q 372 2147 372 2553 
Q 372 3047 722 3315 
Q 1072 3584 1716 3584 
Q 2034 3584 2315 3537 
Q 2597 3491 2834 3397 
z
" transform="scale(0.015625)"/>
       <path id="DejaVuSans-65" d="M 3597 1894 
L 3597 1613 
L 953 1613 
Q 991 1019 1311 708 
Q 1631 397 2203 397 
Q 2534 397 2845 478 
Q 3156 559 3463 722 
L 3463 178 
Q 3153 47 2828 -22 
Q 2503 -91 2169 -91 
Q 1331 -91 842 396 
Q 353 884 353 1716 
Q 353 2575 817 3079 
Q 1281 3584 2069 3584 
Q 2775 3584 3186 3129 
Q 3597 2675 3597 1894 
z
M 3022 2063 
Q 3016 2534 2758 2815 
Q 2500 3097 2075 3097 
Q 1594 3097 1305 2825 
Q 1016 2553 972 2059 
L 3022 2063 
z
" transform="scale(0.015625)"/>
       <path id="DejaVuSans-20" transform="scale(0.015625)"/>
       <path id="DejaVuSans-50" d="M 1259 4147 
L 1259 2394 
L 2053 2394 
Q 2494 2394 2734 2622 
Q 2975 2850 2975 3272 
Q 2975 3691 2734 3919 
Q 2494 4147 2053 4147 
L 1259 4147 
z
M 628 4666 
L 2053 4666 
Q 2838 4666 3239 4311 
Q 3641 3956 3641 3272 
Q 3641 2581 3239 2228 
Q 2838 1875 2053 1875 
L 1259 1875 
L 1259 0 
L 628 0 
L 628 4666 
z
" transform="scale(0.015625)"/>
       <path id="DejaVuSans-6f" d="M 1959 3097 
Q 1497 3097 1228 2736 
Q 959 2375 959 1747 
Q 959 1119 1226 758 
Q 1494 397 1959 397 
Q 2419 397 2687 759 
Q 2956 1122 2956 1747 
Q 2956 2369 2687 2733 
Q 2419 3097 1959 3097 
z
M 1959 3584 
Q 2709 3584 3137 3096 
Q 3566 2609 3566 1747 
Q 3566 888 3137 398 
Q 2709 -91 1959 -91 
Q 1206 -91 779 398 
Q 353 888 353 1747 
Q 353 2609 779 3096 
Q 1206 3584 1959 3584 
z
" transform="scale(0.015625)"/>
       <path id="DejaVuSans-69" d="M 603 3500 
L 1178 3500 
L 1178 0 
L 603 0 
L 603 3500 
z
M 603 4863 
L 1178 4863 
L 1178 4134 
L 603 4134 
L 603 4863 
z
" transform="scale(0.015625)"/>
       <path id="DejaVuSans-74" d="M 1172 4494 
L 1172 3500 
L 2356 3500 
L 2356 3053 
L 1172 3053 
L 1172 1153 
Q 1172 725 1289 603 
Q 1406 481 1766 481 
L 2356 481 
L 2356 0 
L 1766 0 
Q 1100 0 847 248 
Q 594 497 594 1153 
L 594 3053 
L 172 3053 
L 172 3500 
L 594 3500 
L 594 4494 
L 1172 4494 
z
" transform="scale(0.015625)"/>
       <path id="DejaVuSans-76" d="M 191 3500 
L 800 3500 
L 1894 563 
L 2988 3500 
L 3597 3500 
L 2284 0 
L 1503 0 
L 191 3500 
z
" transform="scale(0.015625)"/>
       <path id="DejaVuSans-52" d="M 2841 2188 
Q 3044 2119 3236 1894 
Q 3428 1669 3622 1275 
L 4263 0 
L 3584 0 
L 2988 1197 
Q 2756 1666 2539 1819 
Q 2322 1972 1947 1972 
L 1259 1972 
L 1259 0 
L 628 0 
L 628 4666 
L 2053 4666 
Q 2853 4666 3247 4331 
Q 3641 3997 3641 3322 
Q 3641 2881 3436 2590 
Q 3231 2300 2841 2188 
z
M 1259 4147 
L 1259 2491 
L 2053 2491 
Q 2509 2491 2742 2702 
Q 2975 2913 2975 3322 
Q 2975 3731 2742 3939 
Q 2509 4147 2053 4147 
L 1259 4147 
z
" transform="scale(0.015625)"/>
      </defs>
      <use xlink:href="#DejaVuSans-46"/>
      <use xlink:href="#DejaVuSans-61" x="48.394531"/>
      <use xlink:href="#DejaVuSans-6c" x="109.673828"/>
      <use xlink:href="#DejaVuSans-73" x="137.457031"/>
      <use xlink:href="#DejaVuSans-65" x="189.556641"/>
      <use xlink:href="#DejaVuSans-20" x="251.080078"/>
      <use xlink:href="#DejaVuSans-50" x="282.867188"/>
      <use xlink:href="#DejaVuSans-6f" x="339.544922"/>
      <use xlink:href="#DejaVuSans-73" x="400.726562"/>
      <use xlink:href="#DejaVuSans-69" x="452.826172"/>
      <use xlink:href="#DejaVuSans-74" x="480.609375"/>
      <use xlink:href="#DejaVuSans-69" x="519.818359"/>
      <use xlink:href="#DejaVuSans-76" x="547.601562"/>
      <use xlink:href="#DejaVuSans-65" x="606.78125"/>
      <use xlink:href="#DejaVuSans-20" x="668.304688"/>
      <use xlink:href="#DejaVuSans-52" x="700.091797"/>
      <use xlink:href="#DejaVuSans-61" x="767.324219"/>
      <use xlink:href="#DejaVuSans-74" x="828.603516"/>
      <use xlink:href="#DejaVuSans-65" x="867.8125"/>
     </g>
    </g>
   </g>
   <g id="matplotlib.axis_2">
    <g id="ytick_1">
     <g id="line2d_7">
      <defs>
       <path id="mdea21d0d0f" d="M 0 0 
L -3.5 0 
" style="stroke: #000000; stroke-width: 0.8"/>
      </defs>
      <g>
       <use xlink:href="#mdea21d0d0f" x="43.78125" y="299.798125" style="stroke: #000000; stroke-width: 0.8"/>
      </g>
     </g>
     <g id="text_8">
      <!-- 0.0 -->
      <g transform="translate(20.878125 303.597344) scale(0.1 -0.1)">
       <use xlink:href="#DejaVuSans-30"/>
       <use xlink:href="#DejaVuSans-2e" x="63.623047"/>
       <use xlink:href="#DejaVuSans-30" x="95.410156"/>
      </g>
     </g>
    </g>
    <g id="ytick_2">
     <g id="line2d_8">
      <g>
       <use xlink:href="#mdea21d0d0f" x="43.78125" y="246.944792" style="stroke: #000000; stroke-width: 0.8"/>
      </g>
     </g>
     <g id="text_9">
      <!-- 0.2 -->
      <g transform="translate(20.878125 250.74401) scale(0.1 -0.1)">
       <use xlink:href="#DejaVuSans-30"/>
       <use xlink:href="#DejaVuSans-2e" x="63.623047"/>
       <use xlink:href="#DejaVuSans-32" x="95.410156"/>
      </g>
     </g>
    </g>
    <g id="ytick_3">
     <g id="line2d_9">
      <g>
       <use xlink:href="#mdea21d0d0f" x="43.78125" y="194.091458" style="stroke: #000000; stroke-width: 0.8"/>
      </g>
     </g>
     <g id="text_10">
      <!-- 0.4 -->
      <g transform="translate(20.878125 197.890677) scale(0.1 -0.1)">
       <use xlink:href="#DejaVuSans-30"/>
       <use xlink:href="#DejaVuSans-2e" x="63.623047"/>
       <use xlink:href="#DejaVuSans-34" x="95.410156"/>
      </g>
     </g>
    </g>
    <g id="ytick_4">
     <g id="line2d_10">
      <g>
       <use xlink:href="#mdea21d0d0f" x="43.78125" y="141.238125" style="stroke: #000000; stroke-width: 0.8"/>
      </g>
     </g>
     <g id="text_11">
      <!-- 0.6 -->
      <g transform="translate(20.878125 145.037344) scale(0.1 -0.1)">
       <use xlink:href="#DejaVuSans-30"/>
       <use xlink:href="#DejaVuSans-2e" x="63.623047"/>
       <use xlink:href="#DejaVuSans-36" x="95.410156"/>
      </g>
     </g>
    </g>
    <g id="ytick_5">
     <g id="line2d_11">
      <g>
       <use xlink:href="#mdea21d0d0f" x="43.78125" y="88.384792" style="stroke: #000000; stroke-width: 0.8"/>
      </g>
     </g>
     <g id="text_12">
      <!-- 0.8 -->
      <g transform="translate(20.878125 92.18401) scale(0.1 -0.1)">
       <use xlink:href="#DejaVuSans-30"/>
       <use xlink:href="#DejaVuSans-2e" x="63.623047"/>
       <use xlink:href="#DejaVuSans-38" x="95.410156"/>
      </g>
     </g>
    </g>
    <g id="ytick_6">
     <g id="line2d_12">
      <g>
       <use xlink:href="#mdea21d0d0f" x="43.78125" y="35.531458" style="stroke: #000000; stroke-width: 0.8"/>
      </g>
     </g>
     <g id="text_13">
      <!-- 1.0 -->
      <g transform="translate(20.878125 39.330677) scale(0.1 -0.1)">
       <use xlink:href="#DejaVuSans-31"/>
       <use xlink:href="#DejaVuSans-2e" x="63.623047"/>
       <use xlink:href="#DejaVuSans-30" x="95.410156"/>
      </g>
     </g>
    </g>
    <g id="text_14">
     <!-- True Positive Rate -->
     <g transform="translate(14.798438 205.587813) rotate(-90) scale(0.1 -0.1)">
      <defs>
       <path id="DejaVuSans-54" d="M -19 4666 
L 3928 4666 
L 3928 4134 
L 2272 4134 
L 2272 0 
L 1638 0 
L 1638 4134 
L -19 4134 
L -19 4666 
z
" transform="scale(0.015625)"/>
       <path id="DejaVuSans-72" d="M 2631 2963 
Q 2534 3019 2420 3045 
Q 2306 3072 2169 3072 
Q 1681 3072 1420 2755 
Q 1159 2438 1159 1844 
L 1159 0 
L 581 0 
L 581 3500 
L 1159 3500 
L 1159 2956 
Q 1341 3275 1631 3429 
Q 1922 3584 2338 3584 
Q 2397 3584 2469 3576 
Q 2541 3569 2628 3553 
L 2631 2963 
z
" transform="scale(0.015625)"/>
       <path id="DejaVuSans-75" d="M 544 1381 
L 544 3500 
L 1119 3500 
L 1119 1403 
Q 1119 906 1312 657 
Q 1506 409 1894 409 
Q 2359 409 2629 706 
Q 2900 1003 2900 1516 
L 2900 3500 
L 3475 3500 
L 3475 0 
L 2900 0 
L 2900 538 
Q 2691 219 2414 64 
Q 2138 -91 1772 -91 
Q 1169 -91 856 284 
Q 544 659 544 1381 
z
M 1991 3584 
L 1991 3584 
z
" transform="scale(0.015625)"/>
      </defs>
      <use xlink:href="#DejaVuSans-54"/>
      <use xlink:href="#DejaVuSans-72" x="46.333984"/>
      <use xlink:href="#DejaVuSans-75" x="87.447266"/>
      <use xlink:href="#DejaVuSans-65" x="150.826172"/>
      <use xlink:href="#DejaVuSans-20" x="212.349609"/>
      <use xlink:href="#DejaVuSans-50" x="244.136719"/>
      <use xlink:href="#DejaVuSans-6f" x="300.814453"/>
      <use xlink:href="#DejaVuSans-73" x="361.996094"/>
      <use xlink:href="#DejaVuSans-69" x="414.095703"/>
      <use xlink:href="#DejaVuSans-74" x="441.878906"/>
      <use xlink:href="#DejaVuSans-69" x="481.087891"/>
      <use xlink:href="#DejaVuSans-76" x="508.871094"/>
      <use xlink:href="#DejaVuSans-65" x="568.050781"/>
      <use xlink:href="#DejaVuSans-20" x="629.574219"/>
      <use xlink:href="#DejaVuSans-52" x="661.361328"/>
      <use xlink:href="#DejaVuSans-61" x="728.59375"/>
      <use xlink:href="#DejaVuSans-74" x="789.873047"/>
      <use xlink:href="#DejaVuSans-65" x="829.082031"/>
     </g>
    </g>
   </g>
   <g id="line2d_13">
    <path d="M 43.78125 299.798125 
L 43.78125 296.880354 
L 44.113146 296.880354 
L 44.113146 292.71211 
L 44.445042 292.71211 
L 44.445042 291.670049 
L 45.108834 291.670049 
L 45.108834 288.543866 
L 45.44073 288.543866 
L 45.44073 287.710218 
L 45.772626 287.710218 
L 45.772626 286.251332 
L 46.104522 286.251332 
L 46.104522 284.792447 
L 46.436418 284.792447 
L 46.436418 282.499913 
L 46.768314 282.499913 
L 46.768314 280.624203 
L 47.10021 280.624203 
L 47.10021 277.914844 
L 47.432106 277.914844 
L 47.432106 277.706432 
L 47.764003 277.706432 
L 47.764003 276.872783 
L 48.095899 276.872783 
L 48.095899 274.163425 
L 48.427795 274.163425 
L 48.427795 273.7466 
L 48.759691 273.7466 
L 48.759691 271.245654 
L 49.091587 271.245654 
L 49.091587 267.494234 
L 49.423483 267.494234 
L 49.423483 264.368051 
L 49.755379 264.368051 
L 49.755379 258.740922 
L 50.087275 258.740922 
L 50.087275 258.115685 
L 50.419171 258.115685 
L 50.419171 256.6568 
L 50.751067 256.6568 
L 50.751067 254.989502 
L 51.082963 254.989502 
L 51.082963 252.071732 
L 51.414859 252.071732 
L 51.414859 249.153961 
L 51.746755 249.153961 
L 51.746755 246.653015 
L 52.078651 246.653015 
L 52.078651 246.23619 
L 52.410547 246.23619 
L 52.410547 243.526832 
L 52.742443 243.526832 
L 52.742443 243.110007 
L 53.074339 243.110007 
L 53.074339 241.859534 
L 53.406235 241.859534 
L 53.406235 237.69129 
L 53.738131 237.69129 
L 53.738131 237.482878 
L 54.070027 237.482878 
L 54.070027 234.773519 
L 54.401923 234.773519 
L 54.401923 232.689397 
L 54.733819 232.689397 
L 54.733819 232.480985 
L 55.065715 232.480985 
L 55.065715 232.064161 
L 55.397612 232.064161 
L 55.397612 231.647336 
L 55.729508 231.647336 
L 55.729508 231.230512 
L 56.061404 231.230512 
L 56.061404 229.563214 
L 56.725196 229.563214 
L 56.725196 228.104329 
L 57.057092 228.104329 
L 57.057092 226.228619 
L 57.388988 226.228619 
L 57.388988 224.561322 
L 57.720884 224.561322 
L 57.720884 223.936085 
L 58.384676 223.936085 
L 58.384676 222.894024 
L 58.716572 222.894024 
L 58.716572 221.226726 
L 59.048468 221.226726 
L 59.048468 220.393078 
L 59.380364 220.393078 
L 59.380364 217.892131 
L 59.71226 217.892131 
L 59.71226 217.266895 
L 60.044156 217.266895 
L 60.044156 217.058483 
L 60.707948 217.058483 
L 60.707948 215.391185 
L 61.039844 215.391185 
L 61.039844 214.974361 
L 62.367428 214.974361 
L 62.367428 214.765948 
L 62.699324 214.765948 
L 62.699324 214.557536 
L 63.031221 214.557536 
L 63.031221 214.349124 
L 63.363117 214.349124 
L 63.363117 212.681826 
L 63.695013 212.681826 
L 63.695013 212.265002 
L 64.026909 212.265002 
L 64.026909 211.639765 
L 65.022597 211.639765 
L 65.022597 211.222941 
L 65.354493 211.222941 
L 65.354493 211.014529 
L 65.686389 211.014529 
L 65.686389 210.597704 
L 66.350181 210.597704 
L 66.350181 210.18088 
L 67.013973 210.18088 
L 67.013973 209.138819 
L 67.345869 209.138819 
L 67.345869 208.721995 
L 67.677765 208.721995 
L 67.677765 207.679934 
L 68.341557 207.679934 
L 68.341557 207.054697 
L 68.673453 207.054697 
L 68.673453 206.42946 
L 69.005349 206.42946 
L 69.005349 205.178987 
L 69.337245 205.178987 
L 69.337245 204.136926 
L 69.669141 204.136926 
L 69.669141 201.844392 
L 70.001037 201.844392 
L 70.001037 201.219155 
L 70.332934 201.219155 
L 70.332934 200.385507 
L 70.996726 200.385507 
L 70.996726 199.135034 
L 71.328622 199.135034 
L 71.328622 198.926621 
L 71.660518 198.926621 
L 71.660518 196.217263 
L 71.992414 196.217263 
L 71.992414 194.549965 
L 72.656206 194.549965 
L 72.656206 193.507904 
L 72.988102 193.507904 
L 72.988102 191.632194 
L 73.319998 191.632194 
L 73.319998 191.006958 
L 73.651894 191.006958 
L 73.651894 188.297599 
L 74.315686 188.297599 
L 74.315686 186.630302 
L 74.647582 186.630302 
L 74.647582 185.171416 
L 74.979478 185.171416 
L 74.979478 183.087294 
L 75.311374 183.087294 
L 75.311374 181.211585 
L 75.64327 181.211585 
L 75.64327 178.91905 
L 75.975166 178.91905 
L 75.975166 178.502226 
L 76.307062 178.502226 
L 76.307062 175.792867 
L 76.970854 175.792867 
L 76.970854 175.376043 
L 77.30275 175.376043 
L 77.30275 175.167631 
L 77.966543 175.167631 
L 77.966543 174.750806 
L 78.298439 174.750806 
L 78.298439 173.500333 
L 78.962231 173.500333 
L 78.962231 172.875097 
L 79.626023 172.875097 
L 79.626023 171.207799 
L 79.957919 171.207799 
L 79.957919 170.999387 
L 80.289815 170.999387 
L 80.289815 169.540501 
L 80.953607 169.540501 
L 80.953607 168.081616 
L 81.285503 168.081616 
L 81.285503 165.372257 
L 81.617399 165.372257 
L 81.617399 165.163845 
L 82.281191 165.163845 
L 82.281191 164.955433 
L 82.613087 164.955433 
L 82.613087 163.913372 
L 82.944983 163.913372 
L 82.944983 163.496548 
L 83.276879 163.496548 
L 83.276879 163.079723 
L 83.608775 163.079723 
L 83.608775 161.82925 
L 83.940671 161.82925 
L 83.940671 161.620838 
L 84.272567 161.620838 
L 84.272567 160.787189 
L 84.604463 160.787189 
L 84.604463 159.536716 
L 84.936359 159.536716 
L 84.936359 157.03577 
L 85.268255 157.03577 
L 85.268255 155.993709 
L 85.600152 155.993709 
L 85.600152 154.951648 
L 86.263944 154.951648 
L 86.263944 153.28435 
L 86.59584 153.28435 
L 86.59584 153.075938 
L 86.927736 153.075938 
L 86.927736 152.242289 
L 87.259632 152.242289 
L 87.259632 151.825465 
L 88.587216 151.825465 
L 88.587216 151.200228 
L 89.251008 151.200228 
L 89.251008 150.991816 
L 89.9148 150.991816 
L 89.9148 150.783404 
L 90.578592 150.783404 
L 90.578592 150.158167 
L 90.910488 150.158167 
L 90.910488 149.949755 
L 91.242384 149.949755 
L 91.242384 148.282457 
L 91.906176 148.282457 
L 91.906176 147.865633 
L 92.238072 147.865633 
L 92.238072 147.448808 
L 92.901864 147.448808 
L 92.901864 147.240396 
L 94.229449 147.240396 
L 94.229449 146.61516 
L 94.561345 146.61516 
L 94.561345 145.989923 
L 95.557033 145.989923 
L 95.557033 145.781511 
L 95.888929 145.781511 
L 95.888929 144.73945 
L 96.220825 144.73945 
L 96.220825 143.697389 
L 96.884617 143.697389 
L 96.884617 143.488977 
L 97.880305 143.488977 
L 97.880305 142.446916 
L 98.212201 142.446916 
L 98.212201 142.030091 
L 98.544097 142.030091 
L 98.544097 141.613267 
L 98.875993 141.613267 
L 98.875993 140.98803 
L 99.539785 140.98803 
L 99.539785 140.779618 
L 99.871681 140.779618 
L 99.871681 139.320733 
L 100.535473 139.320733 
L 100.535473 138.903908 
L 101.531162 138.903908 
L 101.531162 137.028199 
L 102.52685 137.028199 
L 102.52685 136.402962 
L 103.854434 136.402962 
L 103.854434 136.19455 
L 104.18633 136.19455 
L 104.18633 135.777725 
L 104.518226 135.777725 
L 104.518226 135.569313 
L 104.850122 135.569313 
L 104.850122 134.527252 
L 105.513914 134.527252 
L 105.513914 134.31884 
L 105.84581 134.31884 
L 105.84581 134.110428 
L 106.509602 134.110428 
L 106.509602 133.693603 
L 107.173394 133.693603 
L 107.173394 133.485191 
L 107.50529 133.485191 
L 107.50529 132.234718 
L 108.169082 132.234718 
L 108.169082 131.401069 
L 108.500979 131.401069 
L 108.500979 131.192657 
L 109.164771 131.192657 
L 109.164771 130.56742 
L 111.819939 130.56742 
L 111.819939 130.359008 
L 112.151835 130.359008 
L 112.151835 129.525359 
L 112.815627 129.525359 
L 112.815627 129.316947 
L 113.147523 129.316947 
L 113.147523 129.108535 
L 113.479419 129.108535 
L 113.479419 128.900123 
L 113.811315 128.900123 
L 113.811315 127.64965 
L 114.143211 127.64965 
L 114.143211 126.607589 
L 114.807003 126.607589 
L 114.807003 125.77394 
L 115.138899 125.77394 
L 115.138899 125.357116 
L 115.802691 125.357116 
L 115.802691 124.940291 
L 116.134588 124.940291 
L 116.134588 124.523467 
L 116.466484 124.523467 
L 116.466484 124.106642 
L 117.130276 124.106642 
L 117.130276 123.689818 
L 117.462172 123.689818 
L 117.462172 123.272994 
L 117.794068 123.272994 
L 117.794068 123.064581 
L 118.45786 123.064581 
L 118.45786 121.605696 
L 119.121652 121.605696 
L 119.121652 121.188872 
L 119.453548 121.188872 
L 119.453548 120.355223 
L 119.785444 120.355223 
L 119.785444 119.938398 
L 120.781132 119.938398 
L 120.781132 119.521574 
L 121.444924 119.521574 
L 121.444924 119.313162 
L 122.440612 119.313162 
L 122.440612 119.10475 
L 123.436301 119.10475 
L 123.436301 118.687925 
L 124.100093 118.687925 
L 124.100093 118.062689 
L 124.431989 118.062689 
L 124.431989 117.854276 
L 124.763885 117.854276 
L 124.763885 117.645864 
L 125.427677 117.645864 
L 125.427677 117.22904 
L 125.759573 117.22904 
L 125.759573 117.020628 
L 126.091469 117.020628 
L 126.091469 116.186979 
L 126.423365 116.186979 
L 126.423365 115.35333 
L 127.419053 115.35333 
L 127.419053 114.936506 
L 128.414741 114.936506 
L 128.414741 114.728093 
L 128.746637 114.728093 
L 128.746637 114.519681 
L 130.074221 114.519681 
L 130.074221 114.311269 
L 130.406117 114.311269 
L 130.406117 113.894445 
L 130.738013 113.894445 
L 130.738013 113.686032 
L 131.06991 113.686032 
L 131.06991 113.47762 
L 131.401806 113.47762 
L 131.401806 113.269208 
L 132.397494 113.269208 
L 132.397494 113.060796 
L 133.393182 113.060796 
L 133.393182 112.018735 
L 133.725078 112.018735 
L 133.725078 111.60191 
L 134.056974 111.60191 
L 134.056974 111.393498 
L 134.720766 111.393498 
L 134.720766 111.185086 
L 135.052662 111.185086 
L 135.052662 110.976674 
L 135.716454 110.976674 
L 135.716454 110.351437 
L 136.04835 110.351437 
L 136.04835 110.143025 
L 136.380246 110.143025 
L 136.380246 109.934613 
L 137.044038 109.934613 
L 137.044038 109.517789 
L 137.375934 109.517789 
L 137.375934 109.309376 
L 137.70783 109.309376 
L 137.70783 109.100964 
L 138.371622 109.100964 
L 138.371622 108.892552 
L 139.035415 108.892552 
L 139.035415 108.058903 
L 139.367311 108.058903 
L 139.367311 107.642079 
L 140.362999 107.642079 
L 140.362999 107.225254 
L 140.694895 107.225254 
L 140.694895 107.016842 
L 142.022479 107.016842 
L 142.022479 106.391606 
L 142.354375 106.391606 
L 142.354375 106.183193 
L 142.686271 106.183193 
L 142.686271 105.557957 
L 146.005231 105.557957 
L 146.005231 105.141132 
L 147.664712 105.141132 
L 147.664712 104.099071 
L 147.996608 104.099071 
L 147.996608 103.890659 
L 148.6604 103.890659 
L 148.6604 103.682247 
L 150.651776 103.682247 
L 150.651776 103.05701 
L 152.975048 103.05701 
L 152.975048 102.848598 
L 154.302633 102.848598 
L 154.302633 102.431774 
L 154.634529 102.431774 
L 154.634529 102.014949 
L 156.625905 102.014949 
L 156.625905 101.806537 
L 156.957801 101.806537 
L 156.957801 101.181301 
L 157.289697 101.181301 
L 157.289697 100.972888 
L 157.621593 100.972888 
L 157.621593 100.347652 
L 158.285385 100.347652 
L 158.285385 99.930827 
L 158.949177 99.930827 
L 158.949177 99.514003 
L 159.281073 99.514003 
L 159.281073 98.471942 
L 159.944865 98.471942 
L 159.944865 98.26353 
L 160.608657 98.26353 
L 160.608657 97.429881 
L 160.940553 97.429881 
L 160.940553 96.804644 
L 161.604346 96.804644 
L 161.604346 95.554171 
L 161.936242 95.554171 
L 161.936242 94.720522 
L 163.263826 94.720522 
L 163.263826 94.51211 
L 163.595722 94.51211 
L 163.595722 93.886874 
L 164.259514 93.886874 
L 164.259514 93.678461 
L 164.59141 93.678461 
L 164.59141 93.261637 
L 164.923306 93.261637 
L 164.923306 93.053225 
L 165.587098 93.053225 
L 165.587098 92.6364 
L 165.918994 92.6364 
L 165.918994 92.011164 
L 166.582786 92.011164 
L 166.582786 91.802752 
L 166.914682 91.802752 
L 166.914682 91.59434 
L 167.91037 91.59434 
L 167.91037 91.385927 
L 168.242266 91.385927 
L 168.242266 90.969103 
L 168.574162 90.969103 
L 168.574162 90.760691 
L 171.893123 90.760691 
L 171.893123 90.343866 
L 172.225019 90.343866 
L 172.225019 90.135454 
L 173.220707 90.135454 
L 173.220707 89.927042 
L 173.884499 89.927042 
L 173.884499 89.71863 
L 174.880187 89.71863 
L 174.880187 89.301805 
L 177.535356 89.301805 
L 177.535356 88.884981 
L 177.867252 88.884981 
L 177.867252 88.676569 
L 178.199148 88.676569 
L 178.199148 88.259744 
L 178.86294 88.259744 
L 178.86294 88.051332 
L 179.526732 88.051332 
L 179.526732 87.634508 
L 179.858628 87.634508 
L 179.858628 87.217683 
L 180.190524 87.217683 
L 180.190524 87.009271 
L 180.52242 87.009271 
L 180.52242 86.800859 
L 180.854316 86.800859 
L 180.854316 86.175622 
L 181.518108 86.175622 
L 181.518108 85.96721 
L 182.513796 85.96721 
L 182.513796 85.133561 
L 182.845692 85.133561 
L 182.845692 84.925149 
L 183.84138 84.925149 
L 183.84138 84.508325 
L 184.173277 84.508325 
L 184.173277 84.0915 
L 184.505173 84.0915 
L 184.505173 83.883088 
L 185.832757 83.883088 
L 185.832757 83.674676 
L 186.164653 83.674676 
L 186.164653 82.841027 
L 186.496549 82.841027 
L 186.496549 82.424203 
L 187.824133 82.424203 
L 187.824133 82.215791 
L 188.156029 82.215791 
L 188.156029 81.798966 
L 188.819821 81.798966 
L 188.819821 80.965317 
L 190.479301 80.965317 
L 190.479301 80.756905 
L 190.811197 80.756905 
L 190.811197 80.548493 
L 191.143093 80.548493 
L 191.143093 80.340081 
L 192.470678 80.340081 
L 192.470678 80.131669 
L 193.798262 80.131669 
L 193.798262 79.923256 
L 195.457742 79.923256 
L 195.457742 79.506432 
L 195.789638 79.506432 
L 195.789638 79.29802 
L 196.785326 79.29802 
L 196.785326 79.089608 
L 197.449118 79.089608 
L 197.449118 78.672783 
L 199.108598 78.672783 
L 199.108598 78.464371 
L 199.440495 78.464371 
L 199.440495 78.255959 
L 201.099975 78.255959 
L 201.099975 78.047547 
L 201.763767 78.047547 
L 201.763767 77.630722 
L 202.095663 77.630722 
L 202.095663 77.42231 
L 204.750831 77.42231 
L 204.750831 77.005486 
L 205.414623 77.005486 
L 205.414623 75.963425 
L 206.078415 75.963425 
L 206.078415 75.5466 
L 207.074104 75.5466 
L 207.074104 75.338188 
L 207.406 75.338188 
L 207.406 75.129776 
L 208.401688 75.129776 
L 208.401688 74.921364 
L 209.06548 74.921364 
L 209.06548 74.712951 
L 211.720648 74.712951 
L 211.720648 74.504539 
L 212.052544 74.504539 
L 212.052544 74.296127 
L 213.380128 74.296127 
L 213.380128 73.879303 
L 213.712024 73.879303 
L 213.712024 73.670891 
L 214.375816 73.670891 
L 214.375816 73.045654 
L 215.703401 73.045654 
L 215.703401 72.837242 
L 216.035297 72.837242 
L 216.035297 72.212005 
L 218.026673 72.212005 
L 218.026673 72.003593 
L 218.690465 72.003593 
L 218.690465 71.795181 
L 219.022361 71.795181 
L 219.022361 71.586769 
L 220.018049 71.586769 
L 220.018049 71.378356 
L 220.681841 71.378356 
L 220.681841 71.169944 
L 222.673218 71.169944 
L 222.673218 70.961532 
L 224.000802 70.961532 
L 224.000802 70.75312 
L 224.332698 70.75312 
L 224.332698 70.544708 
L 224.99649 70.544708 
L 224.99649 70.336295 
L 225.328386 70.336295 
L 225.328386 69.919471 
L 225.992178 69.919471 
L 225.992178 69.502647 
L 226.324074 69.502647 
L 226.324074 69.294234 
L 226.65597 69.294234 
L 226.65597 69.085822 
L 226.987866 69.085822 
L 226.987866 68.87741 
L 227.319762 68.87741 
L 227.319762 68.668998 
L 228.31545 68.668998 
L 228.31545 68.460586 
L 229.311138 68.460586 
L 229.311138 68.252173 
L 230.638723 68.252173 
L 230.638723 68.043761 
L 230.970619 68.043761 
L 230.970619 67.835349 
L 231.634411 67.835349 
L 231.634411 67.418525 
L 232.630099 67.418525 
L 232.630099 67.210112 
L 234.289579 67.210112 
L 234.289579 67.0017 
L 236.612851 67.0017 
L 236.612851 66.584876 
L 237.60854 66.584876 
L 237.60854 66.376464 
L 238.272332 66.376464 
L 238.272332 65.751227 
L 238.936124 65.751227 
L 238.936124 65.334403 
L 239.599916 65.334403 
L 239.599916 65.12599 
L 240.595604 65.12599 
L 240.595604 64.917578 
L 241.923188 64.917578 
L 241.923188 64.292342 
L 244.24646 64.292342 
L 244.24646 63.875517 
L 245.242149 63.875517 
L 245.242149 63.667105 
L 246.237837 63.667105 
L 246.237837 63.458693 
L 246.901629 63.458693 
L 246.901629 63.250281 
L 247.233525 63.250281 
L 247.233525 63.041868 
L 248.229213 63.041868 
L 248.229213 62.833456 
L 248.893005 62.833456 
L 248.893005 62.625044 
L 249.888693 62.625044 
L 249.888693 62.416632 
L 250.884381 62.416632 
L 250.884381 62.20822 
L 252.875758 62.20822 
L 252.875758 61.791395 
L 256.194718 61.791395 
L 256.194718 61.582983 
L 256.526614 61.582983 
L 256.526614 61.374571 
L 256.85851 61.374571 
L 256.85851 61.166159 
L 257.522302 61.166159 
L 257.522302 60.749334 
L 261.173159 60.749334 
L 261.173159 60.540922 
L 262.500743 60.540922 
L 262.500743 60.33251 
L 263.496431 60.33251 
L 263.496431 59.915685 
L 267.81108 59.915685 
L 267.81108 59.707273 
L 268.474872 59.707273 
L 268.474872 59.290449 
L 268.806768 59.290449 
L 268.806768 58.873624 
L 269.47056 58.873624 
L 269.47056 58.665212 
L 270.134352 58.665212 
L 270.134352 58.4568 
L 271.461936 58.4568 
L 271.461936 58.248388 
L 272.125728 58.248388 
L 272.125728 58.039976 
L 272.78952 58.039976 
L 272.78952 57.831563 
L 274.117104 57.831563 
L 274.117104 57.623151 
L 274.780896 57.623151 
L 274.780896 57.206327 
L 275.112793 57.206327 
L 275.112793 56.997915 
L 275.776585 56.997915 
L 275.776585 56.789502 
L 276.440377 56.789502 
L 276.440377 56.58109 
L 276.772273 56.58109 
L 276.772273 56.372678 
L 278.099857 56.372678 
L 278.099857 55.955854 
L 279.095545 55.955854 
L 279.095545 55.747442 
L 280.755025 55.747442 
L 280.755025 55.539029 
L 284.073986 55.539029 
L 284.073986 55.330617 
L 285.40157 55.330617 
L 285.40157 55.122205 
L 285.733466 55.122205 
L 285.733466 54.913793 
L 288.056738 54.913793 
L 288.056738 54.705381 
L 289.716218 54.705381 
L 289.716218 54.496968 
L 293.035179 54.496968 
L 293.035179 54.288556 
L 293.367075 54.288556 
L 293.367075 54.080144 
L 293.698971 54.080144 
L 293.698971 53.871732 
L 296.022243 53.871732 
L 296.022243 53.66332 
L 297.681723 53.66332 
L 297.681723 53.454907 
L 298.677412 53.454907 
L 298.677412 53.246495 
L 299.009308 53.246495 
L 299.009308 53.038083 
L 301.664476 53.038083 
L 301.664476 52.829671 
L 301.996372 52.829671 
L 301.996372 52.621259 
L 302.660164 52.621259 
L 302.660164 52.204434 
L 302.99206 52.204434 
L 302.99206 51.996022 
L 303.655852 51.996022 
L 303.655852 51.78761 
L 307.306709 51.78761 
L 307.306709 51.579198 
L 308.634293 51.579198 
L 308.634293 51.370785 
L 309.961877 51.370785 
L 309.961877 51.162373 
L 310.957565 51.162373 
L 310.957565 50.953961 
L 311.953253 50.953961 
L 311.953253 50.537137 
L 313.280838 50.537137 
L 313.280838 50.328724 
L 314.276526 50.328724 
L 314.276526 50.120312 
L 315.272214 50.120312 
L 315.272214 49.9119 
L 316.931694 49.9119 
L 316.931694 49.703488 
L 319.918758 49.703488 
L 319.918758 49.495076 
L 322.242031 49.495076 
L 322.242031 49.286663 
L 324.565303 49.286663 
L 324.565303 49.078251 
L 326.556679 49.078251 
L 326.556679 48.869839 
L 326.888575 48.869839 
L 326.888575 48.661427 
L 328.548056 48.661427 
L 328.548056 48.453015 
L 328.879952 48.453015 
L 328.879952 48.244602 
L 330.207536 48.244602 
L 330.207536 48.03619 
L 331.867016 48.03619 
L 331.867016 47.619366 
L 333.1946 47.619366 
L 333.1946 47.410954 
L 333.526496 47.410954 
L 333.526496 47.202541 
L 334.190288 47.202541 
L 334.190288 46.994129 
L 338.173041 46.994129 
L 338.173041 46.785717 
L 339.500625 46.785717 
L 339.500625 46.577305 
L 340.164417 46.577305 
L 340.164417 46.368893 
L 341.492001 46.368893 
L 341.492001 46.16048 
L 342.155793 46.16048 
L 342.155793 45.952068 
L 343.151481 45.952068 
L 343.151481 45.743656 
L 344.14717 45.743656 
L 344.14717 45.535244 
L 344.479066 45.535244 
L 344.479066 45.326832 
L 349.789402 45.326832 
L 349.789402 45.118419 
L 354.104051 45.118419 
L 354.104051 44.910007 
L 354.767843 44.910007 
L 354.767843 44.701595 
L 359.414388 44.701595 
L 359.414388 44.284771 
L 359.746284 44.284771 
L 359.746284 44.076358 
L 361.073868 44.076358 
L 361.073868 43.867946 
L 361.73766 43.867946 
L 361.73766 43.659534 
L 362.401452 43.659534 
L 362.401452 43.034297 
L 364.060932 43.034297 
L 364.060932 42.617473 
L 366.716101 42.617473 
L 366.716101 41.783824 
L 369.039373 41.783824 
L 369.039373 41.575412 
L 373.354021 41.575412 
L 373.354021 41.367 
L 374.681606 41.367 
L 374.681606 41.158588 
L 376.00919 41.158588 
L 376.00919 40.950175 
L 378.996254 40.950175 
L 378.996254 40.324939 
L 381.319527 40.324939 
L 381.319527 40.116527 
L 382.647111 40.116527 
L 382.647111 39.908114 
L 382.979007 39.908114 
L 382.979007 39.699702 
L 390.28072 39.699702 
L 390.28072 39.49129 
L 390.944512 39.49129 
L 390.944512 39.282878 
L 391.9402 39.282878 
L 391.9402 39.074466 
L 392.272096 39.074466 
L 392.272096 38.657641 
L 401.897081 38.657641 
L 401.897081 38.449229 
L 405.216042 38.449229 
L 405.216042 38.240817 
L 408.203106 38.240817 
L 408.203106 38.032405 
L 409.198794 38.032405 
L 409.198794 37.823993 
L 410.526378 37.823993 
L 410.526378 37.61558 
L 413.513443 37.61558 
L 413.513443 37.407168 
L 420.151364 37.407168 
L 420.151364 37.198756 
L 420.48326 37.198756 
L 420.48326 36.990344 
L 420.815156 36.990344 
L 420.815156 36.781932 
L 423.470324 36.781932 
L 423.470324 36.573519 
L 425.4617 36.573519 
L 425.4617 36.365107 
L 428.116869 36.365107 
L 428.116869 36.156695 
L 430.772037 36.156695 
L 430.772037 35.948283 
L 431.435829 35.948283 
L 431.435829 35.739871 
L 432.763413 35.739871 
L 432.763413 35.531458 
L 438.07375 35.531458 
L 438.07375 35.531458 
" clip-path="url(#p2caa235d07)" style="fill: none; stroke: #008000; stroke-width: 1.5; stroke-linecap: square"/>
   </g>
   <g id="line2d_14">
    <path d="M 43.78125 299.798125 
L 438.07375 35.531458 
" clip-path="url(#p2caa235d07)" style="fill: none; stroke-dasharray: 5.55,2.4; stroke-dashoffset: 0; stroke: #000000; stroke-width: 1.5"/>
   </g>
   <g id="patch_3">
    <path d="M 43.78125 299.798125 
L 43.78125 22.318125 
" style="fill: none; stroke: #000000; stroke-width: 0.8; stroke-linejoin: miter; stroke-linecap: square"/>
   </g>
   <g id="patch_4">
    <path d="M 438.07375 299.798125 
L 438.07375 22.318125 
" style="fill: none; stroke: #000000; stroke-width: 0.8; stroke-linejoin: miter; stroke-linecap: square"/>
   </g>
   <g id="patch_5">
    <path d="M 43.78125 299.798125 
L 438.07375 299.798125 
" style="fill: none; stroke: #000000; stroke-width: 0.8; stroke-linejoin: miter; stroke-linecap: square"/>
   </g>
   <g id="patch_6">
    <path d="M 43.78125 22.318125 
L 438.07375 22.318125 
" style="fill: none; stroke: #000000; stroke-width: 0.8; stroke-linejoin: miter; stroke-linecap: square"/>
   </g>
   <g id="text_15">
    <!-- ROC Curve -->
    <g transform="translate(208.236875 16.318125) scale(0.12 -0.12)">
     <defs>
      <path id="DejaVuSans-4f" d="M 2522 4238 
Q 1834 4238 1429 3725 
Q 1025 3213 1025 2328 
Q 1025 1447 1429 934 
Q 1834 422 2522 422 
Q 3209 422 3611 934 
Q 4013 1447 4013 2328 
Q 4013 3213 3611 3725 
Q 3209 4238 2522 4238 
z
M 2522 4750 
Q 3503 4750 4090 4092 
Q 4678 3434 4678 2328 
Q 4678 1225 4090 567 
Q 3503 -91 2522 -91 
Q 1538 -91 948 565 
Q 359 1222 359 2328 
Q 359 3434 948 4092 
Q 1538 4750 2522 4750 
z
" transform="scale(0.015625)"/>
      <path id="DejaVuSans-43" d="M 4122 4306 
L 4122 3641 
Q 3803 3938 3442 4084 
Q 3081 4231 2675 4231 
Q 1875 4231 1450 3742 
Q 1025 3253 1025 2328 
Q 1025 1406 1450 917 
Q 1875 428 2675 428 
Q 3081 428 3442 575 
Q 3803 722 4122 1019 
L 4122 359 
Q 3791 134 3420 21 
Q 3050 -91 2638 -91 
Q 1578 -91 968 557 
Q 359 1206 359 2328 
Q 359 3453 968 4101 
Q 1578 4750 2638 4750 
Q 3056 4750 3426 4639 
Q 3797 4528 4122 4306 
z
" transform="scale(0.015625)"/>
     </defs>
     <use xlink:href="#DejaVuSans-52"/>
     <use xlink:href="#DejaVuSans-4f" x="69.482422"/>
     <use xlink:href="#DejaVuSans-43" x="148.193359"/>
     <use xlink:href="#DejaVuSans-20" x="218.017578"/>
     <use xlink:href="#DejaVuSans-43" x="249.804688"/>
     <use xlink:href="#DejaVuSans-75" x="319.628906"/>
     <use xlink:href="#DejaVuSans-72" x="383.007812"/>
     <use xlink:href="#DejaVuSans-76" x="424.121094"/>
     <use xlink:href="#DejaVuSans-65" x="483.300781"/>
    </g>
   </g>
   <g id="legend_1">
    <g id="patch_7">
     <path d="M 317.24875 294.798125 
L 431.07375 294.798125 
Q 433.07375 294.798125 433.07375 292.798125 
L 433.07375 279.12 
Q 433.07375 277.12 431.07375 277.12 
L 317.24875 277.12 
Q 315.24875 277.12 315.24875 279.12 
L 315.24875 292.798125 
Q 315.24875 294.798125 317.24875 294.798125 
z
" style="fill: #ffffff; opacity: 0.8; stroke: #cccccc; stroke-linejoin: miter"/>
    </g>
    <g id="line2d_15">
     <path d="M 319.24875 285.218438 
L 329.24875 285.218438 
L 339.24875 285.218438 
" style="fill: none; stroke: #008000; stroke-width: 1.5; stroke-linecap: square"/>
    </g>
    <g id="text_16">
     <!-- RF (AUC = 0.81) -->
     <g transform="translate(347.24875 288.718438) scale(0.1 -0.1)">
      <defs>
       <path id="DejaVuSans-28" d="M 1984 4856 
Q 1566 4138 1362 3434 
Q 1159 2731 1159 2009 
Q 1159 1288 1364 580 
Q 1569 -128 1984 -844 
L 1484 -844 
Q 1016 -109 783 600 
Q 550 1309 550 2009 
Q 550 2706 781 3412 
Q 1013 4119 1484 4856 
L 1984 4856 
z
" transform="scale(0.015625)"/>
       <path id="DejaVuSans-41" d="M 2188 4044 
L 1331 1722 
L 3047 1722 
L 2188 4044 
z
M 1831 4666 
L 2547 4666 
L 4325 0 
L 3669 0 
L 3244 1197 
L 1141 1197 
L 716 0 
L 50 0 
L 1831 4666 
z
" transform="scale(0.015625)"/>
       <path id="DejaVuSans-55" d="M 556 4666 
L 1191 4666 
L 1191 1831 
Q 1191 1081 1462 751 
Q 1734 422 2344 422 
Q 2950 422 3222 751 
Q 3494 1081 3494 1831 
L 3494 4666 
L 4128 4666 
L 4128 1753 
Q 4128 841 3676 375 
Q 3225 -91 2344 -91 
Q 1459 -91 1007 375 
Q 556 841 556 1753 
L 556 4666 
z
" transform="scale(0.015625)"/>
       <path id="DejaVuSans-3d" d="M 678 2906 
L 4684 2906 
L 4684 2381 
L 678 2381 
L 678 2906 
z
M 678 1631 
L 4684 1631 
L 4684 1100 
L 678 1100 
L 678 1631 
z
" transform="scale(0.015625)"/>
       <path id="DejaVuSans-29" d="M 513 4856 
L 1013 4856 
Q 1481 4119 1714 3412 
Q 1947 2706 1947 2009 
Q 1947 1309 1714 600 
Q 1481 -109 1013 -844 
L 513 -844 
Q 928 -128 1133 580 
Q 1338 1288 1338 2009 
Q 1338 2731 1133 3434 
Q 928 4138 513 4856 
z
" transform="scale(0.015625)"/>
      </defs>
      <use xlink:href="#DejaVuSans-52"/>
      <use xlink:href="#DejaVuSans-46" x="69.482422"/>
      <use xlink:href="#DejaVuSans-20" x="127.001953"/>
      <use xlink:href="#DejaVuSans-28" x="158.789062"/>
      <use xlink:href="#DejaVuSans-41" x="197.802734"/>
      <use xlink:href="#DejaVuSans-55" x="266.210938"/>
      <use xlink:href="#DejaVuSans-43" x="339.404297"/>
      <use xlink:href="#DejaVuSans-20" x="409.228516"/>
      <use xlink:href="#DejaVuSans-3d" x="441.015625"/>
      <use xlink:href="#DejaVuSans-20" x="524.804688"/>
      <use xlink:href="#DejaVuSans-30" x="556.591797"/>
      <use xlink:href="#DejaVuSans-2e" x="620.214844"/>
      <use xlink:href="#DejaVuSans-38" x="652.001953"/>
      <use xlink:href="#DejaVuSans-31" x="715.625"/>
      <use xlink:href="#DejaVuSans-29" x="779.248047"/>
     </g>
    </g>
   </g>
  </g>
 </g>
 <defs>
  <clipPath id="p2caa235d07">
   <rect x="43.78125" y="22.318125" width="394.2925" height="277.48"/>
  </clipPath>
 </defs>
</svg>
