<?xml version="1.0" encoding="utf-8" standalone="no"?>
<!DOCTYPE svg PUBLIC "-//W3C//DTD SVG 1.1//EN"
  "http://www.w3.org/Graphics/SVG/1.1/DTD/svg11.dtd">
<svg xmlns:xlink="http://www.w3.org/1999/xlink" width="453.225312pt" height="337.354375pt" viewBox="0 0 453.225312 337.354375" xmlns="http://www.w3.org/2000/svg" version="1.1">
 <metadata>
  <rdf:RDF xmlns:dc="http://purl.org/dc/elements/1.1/" xmlns:cc="http://creativecommons.org/ns#" xmlns:rdf="http://www.w3.org/1999/02/22-rdf-syntax-ns#">
   <cc:Work>
    <dc:type rdf:resource="http://purl.org/dc/dcmitype/StillImage"/>
    <dc:date>2025-11-08T18:02:41.692546</dc:date>
    <dc:format>image/svg+xml</dc:format>
    <dc:creator>
     <cc:Agent>
      <dc:title>Matplotlib v3.9.1, https://matplotlib.org/</dc:title>
     </cc:Agent>
    </dc:creator>
   </cc:Work>
  </rdf:RDF>
 </metadata>
 <defs>
  <style type="text/css">*{stroke-linejoin: round; stroke-linecap: butt}</style>
 </defs>
 <g id="figure_1">
  <g id="patch_1">
   <path d="M 0 337.354375 
L 453.225312 337.354375 
L 453.225312 0 
L 0 0 
z
" style="fill: #ffffff"/>
  </g>
  <g id="axes_1">
   <g id="patch_2">
    <path d="M 43.78125 299.798125 
L 438.07375 299.798125 
L 438.07375 22.318125 
L 43.78125 22.318125 
z
" style="fill: #ffffff"/>
   </g>
   <g id="matplotlib.axis_1">
    <g id="xtick_1">
     <g id="line2d_1">
      <defs>
       <path id="mf45b6ddb6d" d="M 0 0 
L 0 3.5 
" style="stroke: #000000; stroke-width: 0.8"/>
      </defs>
      <g>
       <use xlink:href="#mf45b6ddb6d" x="43.78125" y="299.798125" style="stroke: #000000; stroke-width: 0.8"/>
      </g>
     </g>
     <g id="text_1">
      <!-- 0.0 -->
      <g transform="translate(35.829688 314.396563) scale(0.1 -0.1)">
       <defs>
        <path id="DejaVuSans-30" d="M 2034 4250 
Q 1547 4250 1301 3770 
Q 1056 3291 1056 2328 
Q 1056 1369 1301 889 
Q 1547 409 2034 409 
Q 2525 409 2770 889 
Q 3016 1369 3016 2328 
Q 3016 3291 2770 3770 
Q 2525 4250 2034 4250 
z
M 2034 4750 
Q 2819 4750 3233 4129 
Q 3647 3509 3647 2328 
Q 3647 1150 3233 529 
Q 2819 -91 2034 -91 
Q 1250 -91 836 529 
Q 422 1150 422 2328 
Q 422 3509 836 4129 
Q 1250 4750 2034 4750 
z
" transform="scale(0.015625)"/>
        <path id="DejaVuSans-2e" d="M 684 794 
L 1344 794 
L 1344 0 
L 684 0 
L 684 794 
z
" transform="scale(0.015625)"/>
       </defs>
       <use xlink:href="#DejaVuSans-30"/>
       <use xlink:href="#DejaVuSans-2e" x="63.623047"/>
       <use xlink:href="#DejaVuSans-30" x="95.410156"/>
      </g>
     </g>
    </g>
    <g id="xtick_2">
     <g id="line2d_2">
      <g>
       <use xlink:href="#mf45b6ddb6d" x="122.63975" y="299.798125" style="stroke: #000000; stroke-width: 0.8"/>
      </g>
     </g>
     <g id="text_2">
      <!-- 0.2 -->
      <g transform="translate(114.688188 314.396563) scale(0.1 -0.1)">
       <defs>
        <path id="DejaVuSans-32" d="M 1228 531 
L 3431 531 
L 3431 0 
L 469 0 
L 469 531 
Q 828 903 1448 1529 
Q 2069 2156 2228 2338 
Q 2531 2678 2651 2914 
Q 2772 3150 2772 3378 
Q 2772 3750 2511 3984 
Q 2250 4219 1831 4219 
Q 1534 4219 1204 4116 
Q 875 4013 500 3803 
L 500 4441 
Q 881 4594 1212 4672 
Q 1544 4750 1819 4750 
Q 2544 4750 2975 4387 
Q 3406 4025 3406 3419 
Q 3406 3131 3298 2873 
Q 3191 2616 2906 2266 
Q 2828 2175 2409 1742 
Q 1991 1309 1228 531 
z
" transform="scale(0.015625)"/>
       </defs>
       <use xlink:href="#DejaVuSans-30"/>
       <use xlink:href="#DejaVuSans-2e" x="63.623047"/>
       <use xlink:href="#DejaVuSans-32" x="95.410156"/>
      </g>
     </g>
    </g>
    <g id="xtick_3">
     <g id="line2d_3">
      <g>
       <use xlink:href="#mf45b6ddb6d" x="201.49825" y="299.798125" style="stroke: #000000; stroke-width: 0.8"/>
      </g>
     </g>
     <g id="text_3">
      <!-- 0.4 -->
      <g transform="translate(193.546688 314.396563) scale(0.1 -0.1)">
       <defs>
        <path id="DejaVuSans-34" d="M 2419 4116 
L 825 1625 
L 2419 1625 
L 2419 4116 
z
M 2253 4666 
L 3047 4666 
L 3047 1625 
L 3713 1625 
L 3713 1100 
L 3047 1100 
L 3047 0 
L 2419 0 
L 2419 1100 
L 313 1100 
L 313 1709 
L 2253 4666 
z
" transform="scale(0.015625)"/>
       </defs>
       <use xlink:href="#DejaVuSans-30"/>
       <use xlink:href="#DejaVuSans-2e" x="63.623047"/>
       <use xlink:href="#DejaVuSans-34" x="95.410156"/>
      </g>
     </g>
    </g>
    <g id="xtick_4">
     <g id="line2d_4">
      <g>
       <use xlink:href="#mf45b6ddb6d" x="280.35675" y="299.798125" style="stroke: #000000; stroke-width: 0.8"/>
      </g>
     </g>
     <g id="text_4">
      <!-- 0.6 -->
      <g transform="translate(272.405188 314.396563) scale(0.1 -0.1)">
       <defs>
        <path id="DejaVuSans-36" d="M 2113 2584 
Q 1688 2584 1439 2293 
Q 1191 2003 1191 1497 
Q 1191 994 1439 701 
Q 1688 409 2113 409 
Q 2538 409 2786 701 
Q 3034 994 3034 1497 
Q 3034 2003 2786 2293 
Q 2538 2584 2113 2584 
z
M 3366 4563 
L 3366 3988 
Q 3128 4100 2886 4159 
Q 2644 4219 2406 4219 
Q 1781 4219 1451 3797 
Q 1122 3375 1075 2522 
Q 1259 2794 1537 2939 
Q 1816 3084 2150 3084 
Q 2853 3084 3261 2657 
Q 3669 2231 3669 1497 
Q 3669 778 3244 343 
Q 2819 -91 2113 -91 
Q 1303 -91 875 529 
Q 447 1150 447 2328 
Q 447 3434 972 4092 
Q 1497 4750 2381 4750 
Q 2619 4750 2861 4703 
Q 3103 4656 3366 4563 
z
" transform="scale(0.015625)"/>
       </defs>
       <use xlink:href="#DejaVuSans-30"/>
       <use xlink:href="#DejaVuSans-2e" x="63.623047"/>
       <use xlink:href="#DejaVuSans-36" x="95.410156"/>
      </g>
     </g>
    </g>
    <g id="xtick_5">
     <g id="line2d_5">
      <g>
       <use xlink:href="#mf45b6ddb6d" x="359.21525" y="299.798125" style="stroke: #000000; stroke-width: 0.8"/>
      </g>
     </g>
     <g id="text_5">
      <!-- 0.8 -->
      <g transform="translate(351.263688 314.396563) scale(0.1 -0.1)">
       <defs>
        <path id="DejaVuSans-38" d="M 2034 2216 
Q 1584 2216 1326 1975 
Q 1069 1734 1069 1313 
Q 1069 891 1326 650 
Q 1584 409 2034 409 
Q 2484 409 2743 651 
Q 3003 894 3003 1313 
Q 3003 1734 2745 1975 
Q 2488 2216 2034 2216 
z
M 1403 2484 
Q 997 2584 770 2862 
Q 544 3141 544 3541 
Q 544 4100 942 4425 
Q 1341 4750 2034 4750 
Q 2731 4750 3128 4425 
Q 3525 4100 3525 3541 
Q 3525 3141 3298 2862 
Q 3072 2584 2669 2484 
Q 3125 2378 3379 2068 
Q 3634 1759 3634 1313 
Q 3634 634 3220 271 
Q 2806 -91 2034 -91 
Q 1263 -91 848 271 
Q 434 634 434 1313 
Q 434 1759 690 2068 
Q 947 2378 1403 2484 
z
M 1172 3481 
Q 1172 3119 1398 2916 
Q 1625 2713 2034 2713 
Q 2441 2713 2670 2916 
Q 2900 3119 2900 3481 
Q 2900 3844 2670 4047 
Q 2441 4250 2034 4250 
Q 1625 4250 1398 4047 
Q 1172 3844 1172 3481 
z
" transform="scale(0.015625)"/>
       </defs>
       <use xlink:href="#DejaVuSans-30"/>
       <use xlink:href="#DejaVuSans-2e" x="63.623047"/>
       <use xlink:href="#DejaVuSans-38" x="95.410156"/>
      </g>
     </g>
    </g>
    <g id="xtick_6">
     <g id="line2d_6">
      <g>
       <use xlink:href="#mf45b6ddb6d" x="438.07375" y="299.798125" style="stroke: #000000; stroke-width: 0.8"/>
      </g>
     </g>
     <g id="text_6">
      <!-- 1.0 -->
      <g transform="translate(430.122187 314.396563) scale(0.1 -0.1)">
       <defs>
        <path id="DejaVuSans-31" d="M 794 531 
L 1825 531 
L 1825 4091 
L 703 3866 
L 703 4441 
L 1819 4666 
L 2450 4666 
L 2450 531 
L 3481 531 
L 3481 0 
L 794 0 
L 794 531 
z
" transform="scale(0.015625)"/>
       </defs>
       <use xlink:href="#DejaVuSans-31"/>
       <use xlink:href="#DejaVuSans-2e" x="63.623047"/>
       <use xlink:href="#DejaVuSans-30" x="95.410156"/>
      </g>
     </g>
    </g>
    <g id="text_7">
     <!-- False Positive Rate -->
     <g transform="translate(194.461094 328.074688) scale(0.1 -0.1)">
      <defs>
       <path id="DejaVuSans-46" d="M 628 4666 
L 3309 4666 
L 3309 4134 
L 1259 4134 
L 1259 2759 
L 3109 2759 
L 3109 2228 
L 1259 2228 
L 1259 0 
L 628 0 
L 628 4666 
z
" transform="scale(0.015625)"/>
       <path id="DejaVuSans-61" d="M 2194 1759 
Q 1497 1759 1228 1600 
Q 959 1441 959 1056 
Q 959 750 1161 570 
Q 1363 391 1709 391 
Q 2188 391 2477 730 
Q 2766 1069 2766 1631 
L 2766 1759 
L 2194 1759 
z
M 3341 1997 
L 3341 0 
L 2766 0 
L 2766 531 
Q 2569 213 2275 61 
Q 1981 -91 1556 -91 
Q 1019 -91 701 211 
Q 384 513 384 1019 
Q 384 1609 779 1909 
Q 1175 2209 1959 2209 
L 2766 2209 
L 2766 2266 
Q 2766 2663 2505 2880 
Q 2244 3097 1772 3097 
Q 1472 3097 1187 3025 
Q 903 2953 641 2809 
L 641 3341 
Q 956 3463 1253 3523 
Q 1550 3584 1831 3584 
Q 2591 3584 2966 3190 
Q 3341 2797 3341 1997 
z
" transform="scale(0.015625)"/>
       <path id="DejaVuSans-6c" d="M 603 4863 
L 1178 4863 
L 1178 0 
L 603 0 
L 603 4863 
z
" transform="scale(0.015625)"/>
       <path id="DejaVuSans-73" d="M 2834 3397 
L 2834 2853 
Q 2591 2978 2328 3040 
Q 2066 3103 1784 3103 
Q 1356 3103 1142 2972 
Q 928 2841 928 2578 
Q 928 2378 1081 2264 
Q 1234 2150 1697 2047 
L 1894 2003 
Q 2506 1872 2764 1633 
Q 3022 1394 3022 966 
Q 3022 478 2636 193 
Q 2250 -91 1575 -91 
Q 1294 -91 989 -36 
Q 684 19 347 128 
L 347 722 
Q 666 556 975 473 
Q 1284 391 1588 391 
Q 1994 391 2212 530 
Q 2431 669 2431 922 
Q 2431 1156 2273 1281 
Q 2116 1406 1581 1522 
L 1381 1569 
Q 847 1681 609 1914 
Q 372 2147 372 2553 
Q 372 3047 722 3315 
Q 1072 3584 1716 3584 
Q 2034 3584 2315 3537 
Q 2597 3491 2834 3397 
z
" transform="scale(0.015625)"/>
       <path id="DejaVuSans-65" d="M 3597 1894 
L 3597 1613 
L 953 1613 
Q 991 1019 1311 708 
Q 1631 397 2203 397 
Q 2534 397 2845 478 
Q 3156 559 3463 722 
L 3463 178 
Q 3153 47 2828 -22 
Q 2503 -91 2169 -91 
Q 1331 -91 842 396 
Q 353 884 353 1716 
Q 353 2575 817 3079 
Q 1281 3584 2069 3584 
Q 2775 3584 3186 3129 
Q 3597 2675 3597 1894 
z
M 3022 2063 
Q 3016 2534 2758 2815 
Q 2500 3097 2075 3097 
Q 1594 3097 1305 2825 
Q 1016 2553 972 2059 
L 3022 2063 
z
" transform="scale(0.015625)"/>
       <path id="DejaVuSans-20" transform="scale(0.015625)"/>
       <path id="DejaVuSans-50" d="M 1259 4147 
L 1259 2394 
L 2053 2394 
Q 2494 2394 2734 2622 
Q 2975 2850 2975 3272 
Q 2975 3691 2734 3919 
Q 2494 4147 2053 4147 
L 1259 4147 
z
M 628 4666 
L 2053 4666 
Q 2838 4666 3239 4311 
Q 3641 3956 3641 3272 
Q 3641 2581 3239 2228 
Q 2838 1875 2053 1875 
L 1259 1875 
L 1259 0 
L 628 0 
L 628 4666 
z
" transform="scale(0.015625)"/>
       <path id="DejaVuSans-6f" d="M 1959 3097 
Q 1497 3097 1228 2736 
Q 959 2375 959 1747 
Q 959 1119 1226 758 
Q 1494 397 1959 397 
Q 2419 397 2687 759 
Q 2956 1122 2956 1747 
Q 2956 2369 2687 2733 
Q 2419 3097 1959 3097 
z
M 1959 3584 
Q 2709 3584 3137 3096 
Q 3566 2609 3566 1747 
Q 3566 888 3137 398 
Q 2709 -91 1959 -91 
Q 1206 -91 779 398 
Q 353 888 353 1747 
Q 353 2609 779 3096 
Q 1206 3584 1959 3584 
z
" transform="scale(0.015625)"/>
       <path id="DejaVuSans-69" d="M 603 3500 
L 1178 3500 
L 1178 0 
L 603 0 
L 603 3500 
z
M 603 4863 
L 1178 4863 
L 1178 4134 
L 603 4134 
L 603 4863 
z
" transform="scale(0.015625)"/>
       <path id="DejaVuSans-74" d="M 1172 4494 
L 1172 3500 
L 2356 3500 
L 2356 3053 
L 1172 3053 
L 1172 1153 
Q 1172 725 1289 603 
Q 1406 481 1766 481 
L 2356 481 
L 2356 0 
L 1766 0 
Q 1100 0 847 248 
Q 594 497 594 1153 
L 594 3053 
L 172 3053 
L 172 3500 
L 594 3500 
L 594 4494 
L 1172 4494 
z
" transform="scale(0.015625)"/>
       <path id="DejaVuSans-76" d="M 191 3500 
L 800 3500 
L 1894 563 
L 2988 3500 
L 3597 3500 
L 2284 0 
L 1503 0 
L 191 3500 
z
" transform="scale(0.015625)"/>
       <path id="DejaVuSans-52" d="M 2841 2188 
Q 3044 2119 3236 1894 
Q 3428 1669 3622 1275 
L 4263 0 
L 3584 0 
L 2988 1197 
Q 2756 1666 2539 1819 
Q 2322 1972 1947 1972 
L 1259 1972 
L 1259 0 
L 628 0 
L 628 4666 
L 2053 4666 
Q 2853 4666 3247 4331 
Q 3641 3997 3641 3322 
Q 3641 2881 3436 2590 
Q 3231 2300 2841 2188 
z
M 1259 4147 
L 1259 2491 
L 2053 2491 
Q 2509 2491 2742 2702 
Q 2975 2913 2975 3322 
Q 2975 3731 2742 3939 
Q 2509 4147 2053 4147 
L 1259 4147 
z
" transform="scale(0.015625)"/>
      </defs>
      <use xlink:href="#DejaVuSans-46"/>
      <use xlink:href="#DejaVuSans-61" x="48.394531"/>
      <use xlink:href="#DejaVuSans-6c" x="109.673828"/>
      <use xlink:href="#DejaVuSans-73" x="137.457031"/>
      <use xlink:href="#DejaVuSans-65" x="189.556641"/>
      <use xlink:href="#DejaVuSans-20" x="251.080078"/>
      <use xlink:href="#DejaVuSans-50" x="282.867188"/>
      <use xlink:href="#DejaVuSans-6f" x="339.544922"/>
      <use xlink:href="#DejaVuSans-73" x="400.726562"/>
      <use xlink:href="#DejaVuSans-69" x="452.826172"/>
      <use xlink:href="#DejaVuSans-74" x="480.609375"/>
      <use xlink:href="#DejaVuSans-69" x="519.818359"/>
      <use xlink:href="#DejaVuSans-76" x="547.601562"/>
      <use xlink:href="#DejaVuSans-65" x="606.78125"/>
      <use xlink:href="#DejaVuSans-20" x="668.304688"/>
      <use xlink:href="#DejaVuSans-52" x="700.091797"/>
      <use xlink:href="#DejaVuSans-61" x="767.324219"/>
      <use xlink:href="#DejaVuSans-74" x="828.603516"/>
      <use xlink:href="#DejaVuSans-65" x="867.8125"/>
     </g>
    </g>
   </g>
   <g id="matplotlib.axis_2">
    <g id="ytick_1">
     <g id="line2d_7">
      <defs>
       <path id="m7f81f72e77" d="M 0 0 
L -3.5 0 
" style="stroke: #000000; stroke-width: 0.8"/>
      </defs>
      <g>
       <use xlink:href="#m7f81f72e77" x="43.78125" y="299.798125" style="stroke: #000000; stroke-width: 0.8"/>
      </g>
     </g>
     <g id="text_8">
      <!-- 0.0 -->
      <g transform="translate(20.878125 303.597344) scale(0.1 -0.1)">
       <use xlink:href="#DejaVuSans-30"/>
       <use xlink:href="#DejaVuSans-2e" x="63.623047"/>
       <use xlink:href="#DejaVuSans-30" x="95.410156"/>
      </g>
     </g>
    </g>
    <g id="ytick_2">
     <g id="line2d_8">
      <g>
       <use xlink:href="#m7f81f72e77" x="43.78125" y="246.944792" style="stroke: #000000; stroke-width: 0.8"/>
      </g>
     </g>
     <g id="text_9">
      <!-- 0.2 -->
      <g transform="translate(20.878125 250.74401) scale(0.1 -0.1)">
       <use xlink:href="#DejaVuSans-30"/>
       <use xlink:href="#DejaVuSans-2e" x="63.623047"/>
       <use xlink:href="#DejaVuSans-32" x="95.410156"/>
      </g>
     </g>
    </g>
    <g id="ytick_3">
     <g id="line2d_9">
      <g>
       <use xlink:href="#m7f81f72e77" x="43.78125" y="194.091458" style="stroke: #000000; stroke-width: 0.8"/>
      </g>
     </g>
     <g id="text_10">
      <!-- 0.4 -->
      <g transform="translate(20.878125 197.890677) scale(0.1 -0.1)">
       <use xlink:href="#DejaVuSans-30"/>
       <use xlink:href="#DejaVuSans-2e" x="63.623047"/>
       <use xlink:href="#DejaVuSans-34" x="95.410156"/>
      </g>
     </g>
    </g>
    <g id="ytick_4">
     <g id="line2d_10">
      <g>
       <use xlink:href="#m7f81f72e77" x="43.78125" y="141.238125" style="stroke: #000000; stroke-width: 0.8"/>
      </g>
     </g>
     <g id="text_11">
      <!-- 0.6 -->
      <g transform="translate(20.878125 145.037344) scale(0.1 -0.1)">
       <use xlink:href="#DejaVuSans-30"/>
       <use xlink:href="#DejaVuSans-2e" x="63.623047"/>
       <use xlink:href="#DejaVuSans-36" x="95.410156"/>
      </g>
     </g>
    </g>
    <g id="ytick_5">
     <g id="line2d_11">
      <g>
       <use xlink:href="#m7f81f72e77" x="43.78125" y="88.384792" style="stroke: #000000; stroke-width: 0.8"/>
      </g>
     </g>
     <g id="text_12">
      <!-- 0.8 -->
      <g transform="translate(20.878125 92.18401) scale(0.1 -0.1)">
       <use xlink:href="#DejaVuSans-30"/>
       <use xlink:href="#DejaVuSans-2e" x="63.623047"/>
       <use xlink:href="#DejaVuSans-38" x="95.410156"/>
      </g>
     </g>
    </g>
    <g id="ytick_6">
     <g id="line2d_12">
      <g>
       <use xlink:href="#m7f81f72e77" x="43.78125" y="35.531458" style="stroke: #000000; stroke-width: 0.8"/>
      </g>
     </g>
     <g id="text_13">
      <!-- 1.0 -->
      <g transform="translate(20.878125 39.330677) scale(0.1 -0.1)">
       <use xlink:href="#DejaVuSans-31"/>
       <use xlink:href="#DejaVuSans-2e" x="63.623047"/>
       <use xlink:href="#DejaVuSans-30" x="95.410156"/>
      </g>
     </g>
    </g>
    <g id="text_14">
     <!-- True Positive Rate -->
     <g transform="translate(14.798438 205.587813) rotate(-90) scale(0.1 -0.1)">
      <defs>
       <path id="DejaVuSans-54" d="M -19 4666 
L 3928 4666 
L 3928 4134 
L 2272 4134 
L 2272 0 
L 1638 0 
L 1638 4134 
L -19 4134 
L -19 4666 
z
" transform="scale(0.015625)"/>
       <path id="DejaVuSans-72" d="M 2631 2963 
Q 2534 3019 2420 3045 
Q 2306 3072 2169 3072 
Q 1681 3072 1420 2755 
Q 1159 2438 1159 1844 
L 1159 0 
L 581 0 
L 581 3500 
L 1159 3500 
L 1159 2956 
Q 1341 3275 1631 3429 
Q 1922 3584 2338 3584 
Q 2397 3584 2469 3576 
Q 2541 3569 2628 3553 
L 2631 2963 
z
" transform="scale(0.015625)"/>
       <path id="DejaVuSans-75" d="M 544 1381 
L 544 3500 
L 1119 3500 
L 1119 1403 
Q 1119 906 1312 657 
Q 1506 409 1894 409 
Q 2359 409 2629 706 
Q 2900 1003 2900 1516 
L 2900 3500 
L 3475 3500 
L 3475 0 
L 2900 0 
L 2900 538 
Q 2691 219 2414 64 
Q 2138 -91 1772 -91 
Q 1169 -91 856 284 
Q 544 659 544 1381 
z
M 1991 3584 
L 1991 3584 
z
" transform="scale(0.015625)"/>
      </defs>
      <use xlink:href="#DejaVuSans-54"/>
      <use xlink:href="#DejaVuSans-72" x="46.333984"/>
      <use xlink:href="#DejaVuSans-75" x="87.447266"/>
      <use xlink:href="#DejaVuSans-65" x="150.826172"/>
      <use xlink:href="#DejaVuSans-20" x="212.349609"/>
      <use xlink:href="#DejaVuSans-50" x="244.136719"/>
      <use xlink:href="#DejaVuSans-6f" x="300.814453"/>
      <use xlink:href="#DejaVuSans-73" x="361.996094"/>
      <use xlink:href="#DejaVuSans-69" x="414.095703"/>
      <use xlink:href="#DejaVuSans-74" x="441.878906"/>
      <use xlink:href="#DejaVuSans-69" x="481.087891"/>
      <use xlink:href="#DejaVuSans-76" x="508.871094"/>
      <use xlink:href="#DejaVuSans-65" x="568.050781"/>
      <use xlink:href="#DejaVuSans-20" x="629.574219"/>
      <use xlink:href="#DejaVuSans-52" x="661.361328"/>
      <use xlink:href="#DejaVuSans-61" x="728.59375"/>
      <use xlink:href="#DejaVuSans-74" x="789.873047"/>
      <use xlink:href="#DejaVuSans-65" x="829.082031"/>
     </g>
    </g>
   </g>
   <g id="line2d_13">
    <path d="M 43.78125 299.798125 
L 43.78125 292.570636 
L 44.136789 292.570636 
L 44.136789 269.405605 
L 44.492328 269.405605 
L 44.492328 258.842351 
L 44.847866 258.842351 
L 44.847866 257.54511 
L 45.203405 257.54511 
L 45.203405 256.803829 
L 45.558944 256.803829 
L 45.558944 250.50294 
L 45.914483 250.50294 
L 45.914483 248.464418 
L 46.270021 248.464418 
L 46.270021 247.723137 
L 46.62556 247.723137 
L 46.62556 246.425895 
L 46.981099 246.425895 
L 46.981099 235.677321 
L 47.336638 235.677321 
L 47.336638 232.526877 
L 47.692177 232.526877 
L 47.692177 230.858995 
L 48.047715 230.858995 
L 48.047715 230.673674 
L 48.403254 230.673674 
L 48.403254 229.932393 
L 48.758793 229.932393 
L 48.758793 228.820472 
L 49.114332 228.820472 
L 49.114332 228.449831 
L 49.46987 228.449831 
L 49.46987 226.411309 
L 49.825409 226.411309 
L 49.825409 224.372786 
L 50.180948 224.372786 
L 50.180948 223.260865 
L 50.536487 223.260865 
L 50.536487 220.11042 
L 51.247564 220.11042 
L 51.247564 218.627859 
L 51.603103 218.627859 
L 51.603103 214.180173 
L 51.958642 214.180173 
L 51.958642 213.624212 
L 52.314181 213.624212 
L 52.314181 208.620565 
L 52.669719 208.620565 
L 52.669719 207.879284 
L 53.025258 207.879284 
L 53.025258 206.026082 
L 53.380797 206.026082 
L 53.380797 205.840762 
L 53.736336 205.840762 
L 53.736336 204.72884 
L 54.091874 204.72884 
L 54.091874 204.17288 
L 54.447413 204.17288 
L 54.447413 203.987559 
L 54.802952 203.987559 
L 54.802952 203.616919 
L 55.158491 203.616919 
L 55.158491 203.246278 
L 55.51403 203.246278 
L 55.51403 198.798593 
L 55.869568 198.798593 
L 55.869568 195.462828 
L 56.225107 195.462828 
L 56.225107 194.721547 
L 56.580646 194.721547 
L 56.580646 193.238985 
L 56.936185 193.238985 
L 56.936185 192.497704 
L 57.291723 192.497704 
L 57.291723 192.127064 
L 58.002801 192.127064 
L 58.002801 191.941744 
L 58.35834 191.941744 
L 58.35834 190.829822 
L 58.713878 190.829822 
L 58.713878 189.903221 
L 59.069417 189.903221 
L 59.069417 189.717901 
L 59.424956 189.717901 
L 59.424956 188.235339 
L 59.780495 188.235339 
L 59.780495 186.382136 
L 60.136034 186.382136 
L 60.136034 186.196816 
L 60.491572 186.196816 
L 60.491572 183.972973 
L 60.847111 183.972973 
L 60.847111 182.490411 
L 61.20265 182.490411 
L 61.20265 182.305091 
L 61.558189 182.305091 
L 61.558189 180.081248 
L 61.913727 180.081248 
L 61.913727 179.710607 
L 62.269266 179.710607 
L 62.269266 179.339967 
L 62.624805 179.339967 
L 62.624805 177.486765 
L 62.980344 177.486765 
L 62.980344 176.374843 
L 63.335883 176.374843 
L 63.335883 176.004203 
L 63.691421 176.004203 
L 63.691421 173.595039 
L 64.758038 173.595039 
L 64.758038 173.409719 
L 65.469115 173.409719 
L 65.469115 173.224399 
L 65.824654 173.224399 
L 65.824654 172.853758 
L 66.180193 172.853758 
L 66.180193 172.483118 
L 66.535732 172.483118 
L 66.535732 172.297798 
L 66.89127 172.297798 
L 66.89127 170.444595 
L 67.246809 170.444595 
L 67.246809 168.406073 
L 67.602348 168.406073 
L 67.602348 166.923511 
L 67.957887 166.923511 
L 67.957887 166.18223 
L 68.313425 166.18223 
L 68.313425 165.811589 
L 68.668964 165.811589 
L 68.668964 164.699668 
L 69.024503 164.699668 
L 69.024503 164.514348 
L 69.73558 164.514348 
L 69.73558 163.587746 
L 70.091119 163.587746 
L 70.091119 163.031786 
L 70.802197 163.031786 
L 70.802197 162.846465 
L 71.157736 162.846465 
L 71.157736 162.105184 
L 71.513274 162.105184 
L 71.513274 161.734544 
L 71.868813 161.734544 
L 71.868813 160.807943 
L 72.224352 160.807943 
L 72.224352 160.251982 
L 72.579891 160.251982 
L 72.579891 160.066662 
L 72.935429 160.066662 
L 72.935429 159.881341 
L 73.290968 159.881341 
L 73.290968 158.5841 
L 73.646507 158.5841 
L 73.646507 158.028139 
L 74.357585 158.028139 
L 74.357585 157.657499 
L 74.713123 157.657499 
L 74.713123 157.286858 
L 75.068662 157.286858 
L 75.068662 153.765773 
L 76.135278 153.765773 
L 76.135278 153.209813 
L 76.490817 153.209813 
L 76.490817 152.653852 
L 77.201895 152.653852 
L 77.201895 152.283211 
L 77.557433 152.283211 
L 77.557433 151.912571 
L 77.912972 151.912571 
L 77.912972 150.059369 
L 78.62405 150.059369 
L 78.62405 149.874048 
L 78.979589 149.874048 
L 78.979589 149.318088 
L 79.690666 149.318088 
L 79.690666 148.206166 
L 80.046205 148.206166 
L 80.046205 148.020846 
L 81.112821 148.020846 
L 81.112821 147.464885 
L 81.46836 147.464885 
L 81.46836 147.279565 
L 82.179438 147.279565 
L 82.179438 146.167643 
L 82.534976 146.167643 
L 82.534976 145.055722 
L 82.890515 145.055722 
L 82.890515 144.870402 
L 83.246054 144.870402 
L 83.246054 144.685082 
L 83.957131 144.685082 
L 83.957131 143.75848 
L 84.31267 143.75848 
L 84.31267 143.20252 
L 84.668209 143.20252 
L 84.668209 143.017199 
L 85.023748 143.017199 
L 85.023748 142.090598 
L 85.734825 142.090598 
L 85.734825 140.793356 
L 86.090364 140.793356 
L 86.090364 140.422716 
L 87.15698 140.422716 
L 87.15698 139.681435 
L 87.868058 139.681435 
L 87.868058 137.828233 
L 88.223597 137.828233 
L 88.223597 137.272272 
L 89.290213 137.272272 
L 89.290213 136.345671 
L 89.645752 136.345671 
L 89.645752 135.97503 
L 90.001291 135.97503 
L 90.001291 134.492468 
L 90.356829 134.492468 
L 90.356829 134.307148 
L 90.712368 134.307148 
L 90.712368 133.380547 
L 91.067907 133.380547 
L 91.067907 133.195226 
L 91.423446 133.195226 
L 91.423446 133.009906 
L 91.778984 133.009906 
L 91.778984 132.824586 
L 92.134523 132.824586 
L 92.134523 132.268625 
L 92.490062 132.268625 
L 92.490062 132.083305 
L 93.912217 132.083305 
L 93.912217 131.897985 
L 94.267756 131.897985 
L 94.267756 131.156704 
L 94.623295 131.156704 
L 94.623295 129.674142 
L 94.978833 129.674142 
L 94.978833 127.450299 
L 95.689911 127.450299 
L 95.689911 127.079658 
L 96.04545 127.079658 
L 96.04545 124.855816 
L 96.400989 124.855816 
L 96.400989 124.670495 
L 96.756527 124.670495 
L 96.756527 124.299855 
L 97.112066 124.299855 
L 97.112066 124.114535 
L 97.467605 124.114535 
L 97.467605 123.373254 
L 97.823144 123.373254 
L 97.823144 123.187933 
L 98.88976 123.187933 
L 98.88976 122.817293 
L 99.600837 122.817293 
L 99.600837 122.631973 
L 99.956376 122.631973 
L 99.956376 121.520051 
L 100.311915 121.520051 
L 100.311915 121.334731 
L 100.667454 121.334731 
L 100.667454 121.149411 
L 101.73407 121.149411 
L 101.73407 120.77877 
L 102.445148 120.77877 
L 102.445148 119.666849 
L 102.800686 119.666849 
L 102.800686 119.296208 
L 103.511764 119.296208 
L 103.511764 118.369607 
L 103.867303 118.369607 
L 103.867303 117.998967 
L 104.57838 117.998967 
L 104.57838 117.628326 
L 104.933919 117.628326 
L 104.933919 117.072365 
L 105.289458 117.072365 
L 105.289458 116.701725 
L 106.000535 116.701725 
L 106.000535 116.516405 
L 106.356074 116.516405 
L 106.356074 114.848522 
L 106.711613 114.848522 
L 106.711613 114.477882 
L 107.778229 114.477882 
L 107.778229 113.921921 
L 108.133768 113.921921 
L 108.133768 112.81 
L 108.844846 112.81 
L 108.844846 112.624679 
L 109.555923 112.624679 
L 109.555923 112.439359 
L 109.911462 112.439359 
L 109.911462 112.254039 
L 110.267001 112.254039 
L 110.267001 112.068719 
L 110.622539 112.068719 
L 110.622539 111.512758 
L 111.333617 111.512758 
L 111.333617 110.771477 
L 113.46685 110.771477 
L 113.46685 110.586157 
L 114.177927 110.586157 
L 114.177927 110.215516 
L 115.600082 110.215516 
L 115.600082 110.030196 
L 116.31116 110.030196 
L 116.31116 109.474235 
L 116.666699 109.474235 
L 116.666699 108.732954 
L 117.377776 108.732954 
L 117.377776 108.362314 
L 117.733315 108.362314 
L 117.733315 108.176994 
L 118.088854 108.176994 
L 118.088854 107.621033 
L 119.15547 107.621033 
L 119.15547 107.250392 
L 119.511009 107.250392 
L 119.511009 106.879752 
L 119.866548 106.879752 
L 119.866548 106.138471 
L 120.222086 106.138471 
L 120.222086 105.58251 
L 120.933164 105.58251 
L 120.933164 105.21187 
L 121.288703 105.21187 
L 121.288703 105.026549 
L 121.644241 105.026549 
L 121.644241 104.841229 
L 121.99978 104.841229 
L 121.99978 103.729308 
L 122.355319 103.729308 
L 122.355319 102.988027 
L 122.710858 102.988027 
L 122.710858 102.246746 
L 123.066397 102.246746 
L 123.066397 102.061426 
L 124.488552 102.061426 
L 124.488552 101.876105 
L 124.84409 101.876105 
L 124.84409 100.949504 
L 125.199629 100.949504 
L 125.199629 100.764184 
L 127.332862 100.764184 
L 127.332862 100.393543 
L 128.043939 100.393543 
L 128.043939 100.208223 
L 128.755017 100.208223 
L 128.755017 100.022903 
L 129.110556 100.022903 
L 129.110556 99.837583 
L 130.532711 99.837583 
L 130.532711 99.652262 
L 130.88825 99.652262 
L 130.88825 99.096302 
L 131.599327 99.096302 
L 131.599327 98.540341 
L 131.954866 98.540341 
L 131.954866 98.355021 
L 133.021482 98.355021 
L 133.021482 97.79906 
L 133.377021 97.79906 
L 133.377021 97.61374 
L 133.73256 97.61374 
L 133.73256 97.42842 
L 134.799176 97.42842 
L 134.799176 96.872459 
L 135.154715 96.872459 
L 135.154715 96.131178 
L 135.510254 96.131178 
L 135.510254 95.760537 
L 135.865792 95.760537 
L 135.865792 95.575217 
L 136.57687 95.575217 
L 136.57687 95.389897 
L 136.932409 95.389897 
L 136.932409 94.833936 
L 137.643486 94.833936 
L 137.643486 94.648616 
L 139.776719 94.648616 
L 139.776719 93.722015 
L 140.487796 93.722015 
L 140.487796 93.536694 
L 140.843335 93.536694 
L 140.843335 93.351374 
L 142.26549 93.351374 
L 142.26549 93.166054 
L 142.621029 93.166054 
L 142.621029 92.980734 
L 143.332107 92.980734 
L 143.332107 92.795413 
L 144.043184 92.795413 
L 144.043184 92.239453 
L 144.398723 92.239453 
L 144.398723 91.683492 
L 145.1098 91.683492 
L 145.1098 91.312852 
L 145.465339 91.312852 
L 145.465339 91.127531 
L 145.820878 91.127531 
L 145.820878 90.571571 
L 146.531956 90.571571 
L 146.531956 90.01561 
L 146.887494 90.01561 
L 146.887494 89.459649 
L 147.598572 89.459649 
L 147.598572 89.274329 
L 148.309649 89.274329 
L 148.309649 88.347728 
L 149.376266 88.347728 
L 149.376266 87.421126 
L 149.731805 87.421126 
L 149.731805 86.679845 
L 150.087343 86.679845 
L 150.087343 86.494525 
L 150.442882 86.494525 
L 150.442882 86.123885 
L 150.798421 86.123885 
L 150.798421 85.938564 
L 151.15396 85.938564 
L 151.15396 85.753244 
L 151.865037 85.753244 
L 151.865037 85.567924 
L 152.576115 85.567924 
L 152.576115 85.382604 
L 152.931654 85.382604 
L 152.931654 85.197283 
L 153.642731 85.197283 
L 153.642731 85.011963 
L 154.709347 85.011963 
L 154.709347 84.826643 
L 155.420425 84.826643 
L 155.420425 84.456003 
L 155.775964 84.456003 
L 155.775964 84.085362 
L 156.131502 84.085362 
L 156.131502 83.344081 
L 156.487041 83.344081 
L 156.487041 83.158761 
L 156.84258 83.158761 
L 156.84258 82.973441 
L 157.553658 82.973441 
L 157.553658 82.6028 
L 157.909196 82.6028 
L 157.909196 82.41748 
L 158.620274 82.41748 
L 158.620274 80.564277 
L 158.975813 80.564277 
L 158.975813 80.193637 
L 159.68689 80.193637 
L 159.68689 80.008317 
L 160.042429 80.008317 
L 160.042429 79.822996 
L 161.109045 79.822996 
L 161.109045 79.637676 
L 161.464584 79.637676 
L 161.464584 79.452356 
L 161.820123 79.452356 
L 161.820123 79.267036 
L 162.175662 79.267036 
L 162.175662 79.081715 
L 163.953356 79.081715 
L 163.953356 78.896395 
L 164.308894 78.896395 
L 164.308894 78.711075 
L 165.731049 78.711075 
L 165.731049 77.969794 
L 166.442127 77.969794 
L 166.442127 77.599154 
L 166.797666 77.599154 
L 166.797666 77.043193 
L 169.286437 77.043193 
L 169.286437 76.857873 
L 169.641976 76.857873 
L 169.641976 75.931271 
L 170.353053 75.931271 
L 170.353053 75.745951 
L 170.708592 75.745951 
L 170.708592 75.560631 
L 171.41967 75.560631 
L 171.41967 75.375311 
L 172.130747 75.375311 
L 172.130747 75.18999 
L 172.841825 75.18999 
L 172.841825 75.00467 
L 173.197364 75.00467 
L 173.197364 74.81935 
L 173.552902 74.81935 
L 173.552902 74.448709 
L 174.975057 74.448709 
L 174.975057 74.078069 
L 176.041674 74.078069 
L 176.041674 73.892749 
L 177.819368 73.892749 
L 177.819368 73.707428 
L 178.174906 73.707428 
L 178.174906 73.522108 
L 179.9526 73.522108 
L 179.9526 73.336788 
L 180.663678 73.336788 
L 180.663678 73.151468 
L 181.374755 73.151468 
L 181.374755 72.966147 
L 182.796911 72.966147 
L 182.796911 72.780827 
L 183.863527 72.780827 
L 183.863527 72.410187 
L 184.930143 72.410187 
L 184.930143 71.668906 
L 186.352298 71.668906 
L 186.352298 71.112945 
L 186.707837 71.112945 
L 186.707837 70.742305 
L 188.129992 70.742305 
L 188.129992 70.556984 
L 188.84107 70.556984 
L 188.84107 70.371664 
L 190.974302 70.371664 
L 190.974302 70.186344 
L 191.68538 70.186344 
L 191.68538 69.630383 
L 193.463074 69.630383 
L 193.463074 69.074422 
L 194.174151 69.074422 
L 194.174151 68.889102 
L 194.52969 68.889102 
L 194.52969 68.703782 
L 196.307384 68.703782 
L 196.307384 68.147821 
L 196.662923 68.147821 
L 196.662923 67.777181 
L 197.729539 67.777181 
L 197.729539 67.40654 
L 198.085078 67.40654 
L 198.085078 67.22122 
L 198.440617 67.22122 
L 198.440617 67.0359 
L 198.796155 67.0359 
L 198.796155 66.850579 
L 199.862772 66.850579 
L 199.862772 66.665259 
L 200.21831 66.665259 
L 200.21831 66.479939 
L 201.640466 66.479939 
L 201.640466 66.294619 
L 202.707082 66.294619 
L 202.707082 66.109298 
L 204.129237 66.109298 
L 204.129237 65.923978 
L 206.618008 65.923978 
L 206.618008 65.738658 
L 207.329086 65.738658 
L 207.329086 65.553338 
L 207.684625 65.553338 
L 207.684625 65.368017 
L 208.751241 65.368017 
L 208.751241 64.626737 
L 209.10678 64.626737 
L 209.10678 64.441416 
L 209.817857 64.441416 
L 209.817857 64.070776 
L 210.528935 64.070776 
L 210.528935 63.700135 
L 210.884474 63.700135 
L 210.884474 63.514815 
L 211.595551 63.514815 
L 211.595551 63.144175 
L 212.662167 63.144175 
L 212.662167 62.958854 
L 213.017706 62.958854 
L 213.017706 62.588214 
L 213.373245 62.588214 
L 213.373245 62.402894 
L 213.728784 62.402894 
L 213.728784 62.217573 
L 214.084323 62.217573 
L 214.084323 61.476292 
L 214.439861 61.476292 
L 214.439861 61.105652 
L 214.7954 61.105652 
L 214.7954 60.735011 
L 215.506478 60.735011 
L 215.506478 60.549691 
L 216.217555 60.549691 
L 216.217555 60.179051 
L 217.284172 60.179051 
L 217.284172 59.99373 
L 217.63971 59.99373 
L 217.63971 59.43777 
L 217.995249 59.43777 
L 217.995249 59.252449 
L 219.417404 59.252449 
L 219.417404 59.067129 
L 220.484021 59.067129 
L 220.484021 58.511168 
L 221.906176 58.511168 
L 221.906176 58.140528 
L 223.683869 58.140528 
L 223.683869 57.769888 
L 224.394947 57.769888 
L 224.394947 57.584567 
L 224.750486 57.584567 
L 224.750486 57.213927 
L 225.106025 57.213927 
L 225.106025 57.028607 
L 226.172641 57.028607 
L 226.172641 56.843286 
L 227.239257 56.843286 
L 227.239257 56.657966 
L 227.950335 56.657966 
L 227.950335 56.472646 
L 228.661412 56.472646 
L 228.661412 56.287326 
L 230.083567 56.287326 
L 230.083567 56.102005 
L 231.861261 56.102005 
L 231.861261 55.546045 
L 232.927878 55.546045 
L 232.927878 55.360724 
L 233.283416 55.360724 
L 233.283416 55.175404 
L 234.350033 55.175404 
L 234.350033 54.990084 
L 237.194343 54.990084 
L 237.194343 54.804764 
L 239.327576 54.804764 
L 239.327576 54.619443 
L 239.683114 54.619443 
L 239.683114 54.434123 
L 241.105269 54.434123 
L 241.105269 54.063483 
L 241.460808 54.063483 
L 241.460808 53.878162 
L 242.882963 53.878162 
L 242.882963 53.692842 
L 243.594041 53.692842 
L 243.594041 53.507522 
L 245.016196 53.507522 
L 245.016196 53.322202 
L 246.082812 53.322202 
L 246.082812 52.951561 
L 246.438351 52.951561 
L 246.438351 52.766241 
L 249.993739 52.766241 
L 249.993739 52.580921 
L 252.838049 52.580921 
L 252.838049 52.3956 
L 256.037898 52.3956 
L 256.037898 52.21028 
L 257.815592 52.21028 
L 257.815592 52.02496 
L 259.593286 52.02496 
L 259.593286 51.83964 
L 261.370979 51.83964 
L 261.370979 51.654319 
L 261.726518 51.654319 
L 261.726518 51.468999 
L 264.570828 51.468999 
L 264.570828 51.098359 
L 265.637445 51.098359 
L 265.637445 50.542398 
L 266.704061 50.542398 
L 266.704061 50.357078 
L 267.0596 50.357078 
L 267.0596 50.171758 
L 270.259449 50.171758 
L 270.259449 49.986437 
L 271.326065 49.986437 
L 271.326065 49.801117 
L 272.037143 49.801117 
L 272.037143 49.615797 
L 272.74822 49.615797 
L 272.74822 49.430477 
L 273.459298 49.430477 
L 273.459298 49.245156 
L 278.792379 49.245156 
L 278.792379 49.059836 
L 279.147918 49.059836 
L 279.147918 48.874516 
L 280.214534 48.874516 
L 280.214534 48.689196 
L 280.570073 48.689196 
L 280.570073 48.503875 
L 280.925612 48.503875 
L 280.925612 48.318555 
L 281.992228 48.318555 
L 281.992228 48.133235 
L 282.347767 48.133235 
L 282.347767 47.947915 
L 283.769922 47.947915 
L 283.769922 47.762594 
L 285.547616 47.762594 
L 285.547616 47.391954 
L 286.969771 47.391954 
L 286.969771 47.206634 
L 288.747465 47.206634 
L 288.747465 46.835993 
L 291.947314 46.835993 
L 291.947314 46.650673 
L 292.302853 46.650673 
L 292.302853 46.280032 
L 292.658392 46.280032 
L 292.658392 46.094712 
L 294.791624 46.094712 
L 294.791624 45.909392 
L 297.991473 45.909392 
L 297.991473 45.724072 
L 300.124706 45.724072 
L 300.124706 45.538751 
L 304.035632 45.538751 
L 304.035632 44.79747 
L 306.879943 44.79747 
L 306.879943 44.61215 
L 309.013175 44.61215 
L 309.013175 44.42683 
L 320.390416 44.42683 
L 320.390416 44.24151 
L 322.16811 44.24151 
L 322.16811 44.05619 
L 326.434575 44.05619 
L 326.434575 43.870869 
L 328.923346 43.870869 
L 328.923346 43.685549 
L 329.278885 43.685549 
L 329.278885 43.314909 
L 330.70104 43.314909 
L 330.70104 43.129588 
L 332.123195 43.129588 
L 332.123195 42.944268 
L 333.545351 42.944268 
L 333.545351 42.758948 
L 335.323044 42.758948 
L 335.323044 42.573628 
L 338.167355 42.573628 
L 338.167355 42.388307 
L 338.878432 42.388307 
L 338.878432 42.202987 
L 345.633669 42.202987 
L 345.633669 42.017667 
L 347.055824 42.017667 
L 347.055824 41.832347 
L 348.833518 41.832347 
L 348.833518 41.647026 
L 350.96675 41.647026 
L 350.96675 41.276386 
L 353.811061 41.276386 
L 353.811061 41.091066 
L 354.522138 41.091066 
L 354.522138 40.905745 
L 359.85522 40.905745 
L 359.85522 40.535105 
L 364.832763 40.535105 
L 364.832763 40.349785 
L 370.876922 40.349785 
L 370.876922 40.164464 
L 374.076771 40.164464 
L 374.076771 39.793824 
L 374.43231 39.793824 
L 374.43231 39.608504 
L 374.787848 39.608504 
L 374.787848 39.423183 
L 377.632158 39.423183 
L 377.632158 39.237863 
L 379.409852 39.237863 
L 379.409852 39.052543 
L 389.009399 39.052543 
L 389.009399 38.867223 
L 392.209248 38.867223 
L 392.209248 38.681902 
L 392.564787 38.681902 
L 392.564787 38.496582 
L 394.69802 38.496582 
L 394.69802 38.311262 
L 396.475713 38.311262 
L 396.475713 38.125942 
L 397.186791 38.125942 
L 397.186791 37.940621 
L 410.697264 37.940621 
L 410.697264 37.755301 
L 413.897113 37.755301 
L 413.897113 37.569981 
L 418.163579 37.569981 
L 418.163579 37.384661 
L 419.585734 37.384661 
L 419.585734 37.199341 
L 420.296811 37.199341 
L 420.296811 37.01402 
L 421.363428 37.01402 
L 421.363428 36.8287 
L 421.718966 36.8287 
L 421.718966 36.64338 
L 428.474203 36.64338 
L 428.474203 36.45806 
L 429.896358 36.45806 
L 429.896358 36.272739 
L 430.251897 36.272739 
L 430.251897 36.087419 
L 433.096207 36.087419 
L 433.096207 35.716779 
L 437.362672 35.716779 
L 437.362672 35.531458 
L 438.07375 35.531458 
L 438.07375 35.531458 
" clip-path="url(#pbbee2cd38d)" style="fill: none; stroke: #008000; stroke-width: 1.5; stroke-linecap: square"/>
   </g>
   <g id="line2d_14">
    <path d="M 43.78125 299.798125 
L 438.07375 35.531458 
" clip-path="url(#pbbee2cd38d)" style="fill: none; stroke-dasharray: 5.55,2.4; stroke-dashoffset: 0; stroke: #000000; stroke-width: 1.5"/>
   </g>
   <g id="patch_3">
    <path d="M 43.78125 299.798125 
L 43.78125 22.318125 
" style="fill: none; stroke: #000000; stroke-width: 0.8; stroke-linejoin: miter; stroke-linecap: square"/>
   </g>
   <g id="patch_4">
    <path d="M 438.07375 299.798125 
L 438.07375 22.318125 
" style="fill: none; stroke: #000000; stroke-width: 0.8; stroke-linejoin: miter; stroke-linecap: square"/>
   </g>
   <g id="patch_5">
    <path d="M 43.78125 299.798125 
L 438.07375 299.798125 
" style="fill: none; stroke: #000000; stroke-width: 0.8; stroke-linejoin: miter; stroke-linecap: square"/>
   </g>
   <g id="patch_6">
    <path d="M 43.78125 22.318125 
L 438.07375 22.318125 
" style="fill: none; stroke: #000000; stroke-width: 0.8; stroke-linejoin: miter; stroke-linecap: square"/>
   </g>
   <g id="text_15">
    <!-- ROC Curve -->
    <g transform="translate(208.236875 16.318125) scale(0.12 -0.12)">
     <defs>
      <path id="DejaVuSans-4f" d="M 2522 4238 
Q 1834 4238 1429 3725 
Q 1025 3213 1025 2328 
Q 1025 1447 1429 934 
Q 1834 422 2522 422 
Q 3209 422 3611 934 
Q 4013 1447 4013 2328 
Q 4013 3213 3611 3725 
Q 3209 4238 2522 4238 
z
M 2522 4750 
Q 3503 4750 4090 4092 
Q 4678 3434 4678 2328 
Q 4678 1225 4090 567 
Q 3503 -91 2522 -91 
Q 1538 -91 948 565 
Q 359 1222 359 2328 
Q 359 3434 948 4092 
Q 1538 4750 2522 4750 
z
" transform="scale(0.015625)"/>
      <path id="DejaVuSans-43" d="M 4122 4306 
L 4122 3641 
Q 3803 3938 3442 4084 
Q 3081 4231 2675 4231 
Q 1875 4231 1450 3742 
Q 1025 3253 1025 2328 
Q 1025 1406 1450 917 
Q 1875 428 2675 428 
Q 3081 428 3442 575 
Q 3803 722 4122 1019 
L 4122 359 
Q 3791 134 3420 21 
Q 3050 -91 2638 -91 
Q 1578 -91 968 557 
Q 359 1206 359 2328 
Q 359 3453 968 4101 
Q 1578 4750 2638 4750 
Q 3056 4750 3426 4639 
Q 3797 4528 4122 4306 
z
" transform="scale(0.015625)"/>
     </defs>
     <use xlink:href="#DejaVuSans-52"/>
     <use xlink:href="#DejaVuSans-4f" x="69.482422"/>
     <use xlink:href="#DejaVuSans-43" x="148.193359"/>
     <use xlink:href="#DejaVuSans-20" x="218.017578"/>
     <use xlink:href="#DejaVuSans-43" x="249.804688"/>
     <use xlink:href="#DejaVuSans-75" x="319.628906"/>
     <use xlink:href="#DejaVuSans-72" x="383.007812"/>
     <use xlink:href="#DejaVuSans-76" x="424.121094"/>
     <use xlink:href="#DejaVuSans-65" x="483.300781"/>
    </g>
   </g>
   <g id="legend_1">
    <g id="patch_7">
     <path d="M 317.24875 294.798125 
L 431.07375 294.798125 
Q 433.07375 294.798125 433.07375 292.798125 
L 433.07375 279.12 
Q 433.07375 277.12 431.07375 277.12 
L 317.24875 277.12 
Q 315.24875 277.12 315.24875 279.12 
L 315.24875 292.798125 
Q 315.24875 294.798125 317.24875 294.798125 
z
" style="fill: #ffffff; opacity: 0.8; stroke: #cccccc; stroke-linejoin: miter"/>
    </g>
    <g id="line2d_15">
     <path d="M 319.24875 285.218438 
L 329.24875 285.218438 
L 339.24875 285.218438 
" style="fill: none; stroke: #008000; stroke-width: 1.5; stroke-linecap: square"/>
    </g>
    <g id="text_16">
     <!-- RF (AUC = 0.85) -->
     <g transform="translate(347.24875 288.718438) scale(0.1 -0.1)">
      <defs>
       <path id="DejaVuSans-28" d="M 1984 4856 
Q 1566 4138 1362 3434 
Q 1159 2731 1159 2009 
Q 1159 1288 1364 580 
Q 1569 -128 1984 -844 
L 1484 -844 
Q 1016 -109 783 600 
Q 550 1309 550 2009 
Q 550 2706 781 3412 
Q 1013 4119 1484 4856 
L 1984 4856 
z
" transform="scale(0.015625)"/>
       <path id="DejaVuSans-41" d="M 2188 4044 
L 1331 1722 
L 3047 1722 
L 2188 4044 
z
M 1831 4666 
L 2547 4666 
L 4325 0 
L 3669 0 
L 3244 1197 
L 1141 1197 
L 716 0 
L 50 0 
L 1831 4666 
z
" transform="scale(0.015625)"/>
       <path id="DejaVuSans-55" d="M 556 4666 
L 1191 4666 
L 1191 1831 
Q 1191 1081 1462 751 
Q 1734 422 2344 422 
Q 2950 422 3222 751 
Q 3494 1081 3494 1831 
L 3494 4666 
L 4128 4666 
L 4128 1753 
Q 4128 841 3676 375 
Q 3225 -91 2344 -91 
Q 1459 -91 1007 375 
Q 556 841 556 1753 
L 556 4666 
z
" transform="scale(0.015625)"/>
       <path id="DejaVuSans-3d" d="M 678 2906 
L 4684 2906 
L 4684 2381 
L 678 2381 
L 678 2906 
z
M 678 1631 
L 4684 1631 
L 4684 1100 
L 678 1100 
L 678 1631 
z
" transform="scale(0.015625)"/>
       <path id="DejaVuSans-35" d="M 691 4666 
L 3169 4666 
L 3169 4134 
L 1269 4134 
L 1269 2991 
Q 1406 3038 1543 3061 
Q 1681 3084 1819 3084 
Q 2600 3084 3056 2656 
Q 3513 2228 3513 1497 
Q 3513 744 3044 326 
Q 2575 -91 1722 -91 
Q 1428 -91 1123 -41 
Q 819 9 494 109 
L 494 744 
Q 775 591 1075 516 
Q 1375 441 1709 441 
Q 2250 441 2565 725 
Q 2881 1009 2881 1497 
Q 2881 1984 2565 2268 
Q 2250 2553 1709 2553 
Q 1456 2553 1204 2497 
Q 953 2441 691 2322 
L 691 4666 
z
" transform="scale(0.015625)"/>
       <path id="DejaVuSans-29" d="M 513 4856 
L 1013 4856 
Q 1481 4119 1714 3412 
Q 1947 2706 1947 2009 
Q 1947 1309 1714 600 
Q 1481 -109 1013 -844 
L 513 -844 
Q 928 -128 1133 580 
Q 1338 1288 1338 2009 
Q 1338 2731 1133 3434 
Q 928 4138 513 4856 
z
" transform="scale(0.015625)"/>
      </defs>
      <use xlink:href="#DejaVuSans-52"/>
      <use xlink:href="#DejaVuSans-46" x="69.482422"/>
      <use xlink:href="#DejaVuSans-20" x="127.001953"/>
      <use xlink:href="#DejaVuSans-28" x="158.789062"/>
      <use xlink:href="#DejaVuSans-41" x="197.802734"/>
      <use xlink:href="#DejaVuSans-55" x="266.210938"/>
      <use xlink:href="#DejaVuSans-43" x="339.404297"/>
      <use xlink:href="#DejaVuSans-20" x="409.228516"/>
      <use xlink:href="#DejaVuSans-3d" x="441.015625"/>
      <use xlink:href="#DejaVuSans-20" x="524.804688"/>
      <use xlink:href="#DejaVuSans-30" x="556.591797"/>
      <use xlink:href="#DejaVuSans-2e" x="620.214844"/>
      <use xlink:href="#DejaVuSans-38" x="652.001953"/>
      <use xlink:href="#DejaVuSans-35" x="715.625"/>
      <use xlink:href="#DejaVuSans-29" x="779.248047"/>
     </g>
    </g>
   </g>
  </g>
 </g>
 <defs>
  <clipPath id="pbbee2cd38d">
   <rect x="43.78125" y="22.318125" width="394.2925" height="277.48"/>
  </clipPath>
 </defs>
</svg>
