<?xml version="1.0" encoding="utf-8" standalone="no"?>
<!DOCTYPE svg PUBLIC "-//W3C//DTD SVG 1.1//EN"
  "http://www.w3.org/Graphics/SVG/1.1/DTD/svg11.dtd">
<svg xmlns:xlink="http://www.w3.org/1999/xlink" width="453.225312pt" height="337.354375pt" viewBox="0 0 453.225312 337.354375" xmlns="http://www.w3.org/2000/svg" version="1.1">
 <metadata>
  <rdf:RDF xmlns:dc="http://purl.org/dc/elements/1.1/" xmlns:cc="http://creativecommons.org/ns#" xmlns:rdf="http://www.w3.org/1999/02/22-rdf-syntax-ns#">
   <cc:Work>
    <dc:type rdf:resource="http://purl.org/dc/dcmitype/StillImage"/>
    <dc:date>2025-11-08T17:47:25.633023</dc:date>
    <dc:format>image/svg+xml</dc:format>
    <dc:creator>
     <cc:Agent>
      <dc:title>Matplotlib v3.9.1, https://matplotlib.org/</dc:title>
     </cc:Agent>
    </dc:creator>
   </cc:Work>
  </rdf:RDF>
 </metadata>
 <defs>
  <style type="text/css">*{stroke-linejoin: round; stroke-linecap: butt}</style>
 </defs>
 <g id="figure_1">
  <g id="patch_1">
   <path d="M 0 337.354375 
L 453.225312 337.354375 
L 453.225312 0 
L 0 0 
z
" style="fill: #ffffff"/>
  </g>
  <g id="axes_1">
   <g id="patch_2">
    <path d="M 43.78125 299.798125 
L 438.07375 299.798125 
L 438.07375 22.318125 
L 43.78125 22.318125 
z
" style="fill: #ffffff"/>
   </g>
   <g id="matplotlib.axis_1">
    <g id="xtick_1">
     <g id="line2d_1">
      <defs>
       <path id="m8896f79b1f" d="M 0 0 
L 0 3.5 
" style="stroke: #000000; stroke-width: 0.8"/>
      </defs>
      <g>
       <use xlink:href="#m8896f79b1f" x="43.78125" y="299.798125" style="stroke: #000000; stroke-width: 0.8"/>
      </g>
     </g>
     <g id="text_1">
      <!-- 0.0 -->
      <g transform="translate(35.829688 314.396563) scale(0.1 -0.1)">
       <defs>
        <path id="DejaVuSans-30" d="M 2034 4250 
Q 1547 4250 1301 3770 
Q 1056 3291 1056 2328 
Q 1056 1369 1301 889 
Q 1547 409 2034 409 
Q 2525 409 2770 889 
Q 3016 1369 3016 2328 
Q 3016 3291 2770 3770 
Q 2525 4250 2034 4250 
z
M 2034 4750 
Q 2819 4750 3233 4129 
Q 3647 3509 3647 2328 
Q 3647 1150 3233 529 
Q 2819 -91 2034 -91 
Q 1250 -91 836 529 
Q 422 1150 422 2328 
Q 422 3509 836 4129 
Q 1250 4750 2034 4750 
z
" transform="scale(0.015625)"/>
        <path id="DejaVuSans-2e" d="M 684 794 
L 1344 794 
L 1344 0 
L 684 0 
L 684 794 
z
" transform="scale(0.015625)"/>
       </defs>
       <use xlink:href="#DejaVuSans-30"/>
       <use xlink:href="#DejaVuSans-2e" x="63.623047"/>
       <use xlink:href="#DejaVuSans-30" x="95.410156"/>
      </g>
     </g>
    </g>
    <g id="xtick_2">
     <g id="line2d_2">
      <g>
       <use xlink:href="#m8896f79b1f" x="122.63975" y="299.798125" style="stroke: #000000; stroke-width: 0.8"/>
      </g>
     </g>
     <g id="text_2">
      <!-- 0.2 -->
      <g transform="translate(114.688188 314.396563) scale(0.1 -0.1)">
       <defs>
        <path id="DejaVuSans-32" d="M 1228 531 
L 3431 531 
L 3431 0 
L 469 0 
L 469 531 
Q 828 903 1448 1529 
Q 2069 2156 2228 2338 
Q 2531 2678 2651 2914 
Q 2772 3150 2772 3378 
Q 2772 3750 2511 3984 
Q 2250 4219 1831 4219 
Q 1534 4219 1204 4116 
Q 875 4013 500 3803 
L 500 4441 
Q 881 4594 1212 4672 
Q 1544 4750 1819 4750 
Q 2544 4750 2975 4387 
Q 3406 4025 3406 3419 
Q 3406 3131 3298 2873 
Q 3191 2616 2906 2266 
Q 2828 2175 2409 1742 
Q 1991 1309 1228 531 
z
" transform="scale(0.015625)"/>
       </defs>
       <use xlink:href="#DejaVuSans-30"/>
       <use xlink:href="#DejaVuSans-2e" x="63.623047"/>
       <use xlink:href="#DejaVuSans-32" x="95.410156"/>
      </g>
     </g>
    </g>
    <g id="xtick_3">
     <g id="line2d_3">
      <g>
       <use xlink:href="#m8896f79b1f" x="201.49825" y="299.798125" style="stroke: #000000; stroke-width: 0.8"/>
      </g>
     </g>
     <g id="text_3">
      <!-- 0.4 -->
      <g transform="translate(193.546688 314.396563) scale(0.1 -0.1)">
       <defs>
        <path id="DejaVuSans-34" d="M 2419 4116 
L 825 1625 
L 2419 1625 
L 2419 4116 
z
M 2253 4666 
L 3047 4666 
L 3047 1625 
L 3713 1625 
L 3713 1100 
L 3047 1100 
L 3047 0 
L 2419 0 
L 2419 1100 
L 313 1100 
L 313 1709 
L 2253 4666 
z
" transform="scale(0.015625)"/>
       </defs>
       <use xlink:href="#DejaVuSans-30"/>
       <use xlink:href="#DejaVuSans-2e" x="63.623047"/>
       <use xlink:href="#DejaVuSans-34" x="95.410156"/>
      </g>
     </g>
    </g>
    <g id="xtick_4">
     <g id="line2d_4">
      <g>
       <use xlink:href="#m8896f79b1f" x="280.35675" y="299.798125" style="stroke: #000000; stroke-width: 0.8"/>
      </g>
     </g>
     <g id="text_4">
      <!-- 0.6 -->
      <g transform="translate(272.405188 314.396563) scale(0.1 -0.1)">
       <defs>
        <path id="DejaVuSans-36" d="M 2113 2584 
Q 1688 2584 1439 2293 
Q 1191 2003 1191 1497 
Q 1191 994 1439 701 
Q 1688 409 2113 409 
Q 2538 409 2786 701 
Q 3034 994 3034 1497 
Q 3034 2003 2786 2293 
Q 2538 2584 2113 2584 
z
M 3366 4563 
L 3366 3988 
Q 3128 4100 2886 4159 
Q 2644 4219 2406 4219 
Q 1781 4219 1451 3797 
Q 1122 3375 1075 2522 
Q 1259 2794 1537 2939 
Q 1816 3084 2150 3084 
Q 2853 3084 3261 2657 
Q 3669 2231 3669 1497 
Q 3669 778 3244 343 
Q 2819 -91 2113 -91 
Q 1303 -91 875 529 
Q 447 1150 447 2328 
Q 447 3434 972 4092 
Q 1497 4750 2381 4750 
Q 2619 4750 2861 4703 
Q 3103 4656 3366 4563 
z
" transform="scale(0.015625)"/>
       </defs>
       <use xlink:href="#DejaVuSans-30"/>
       <use xlink:href="#DejaVuSans-2e" x="63.623047"/>
       <use xlink:href="#DejaVuSans-36" x="95.410156"/>
      </g>
     </g>
    </g>
    <g id="xtick_5">
     <g id="line2d_5">
      <g>
       <use xlink:href="#m8896f79b1f" x="359.21525" y="299.798125" style="stroke: #000000; stroke-width: 0.8"/>
      </g>
     </g>
     <g id="text_5">
      <!-- 0.8 -->
      <g transform="translate(351.263688 314.396563) scale(0.1 -0.1)">
       <defs>
        <path id="DejaVuSans-38" d="M 2034 2216 
Q 1584 2216 1326 1975 
Q 1069 1734 1069 1313 
Q 1069 891 1326 650 
Q 1584 409 2034 409 
Q 2484 409 2743 651 
Q 3003 894 3003 1313 
Q 3003 1734 2745 1975 
Q 2488 2216 2034 2216 
z
M 1403 2484 
Q 997 2584 770 2862 
Q 544 3141 544 3541 
Q 544 4100 942 4425 
Q 1341 4750 2034 4750 
Q 2731 4750 3128 4425 
Q 3525 4100 3525 3541 
Q 3525 3141 3298 2862 
Q 3072 2584 2669 2484 
Q 3125 2378 3379 2068 
Q 3634 1759 3634 1313 
Q 3634 634 3220 271 
Q 2806 -91 2034 -91 
Q 1263 -91 848 271 
Q 434 634 434 1313 
Q 434 1759 690 2068 
Q 947 2378 1403 2484 
z
M 1172 3481 
Q 1172 3119 1398 2916 
Q 1625 2713 2034 2713 
Q 2441 2713 2670 2916 
Q 2900 3119 2900 3481 
Q 2900 3844 2670 4047 
Q 2441 4250 2034 4250 
Q 1625 4250 1398 4047 
Q 1172 3844 1172 3481 
z
" transform="scale(0.015625)"/>
       </defs>
       <use xlink:href="#DejaVuSans-30"/>
       <use xlink:href="#DejaVuSans-2e" x="63.623047"/>
       <use xlink:href="#DejaVuSans-38" x="95.410156"/>
      </g>
     </g>
    </g>
    <g id="xtick_6">
     <g id="line2d_6">
      <g>
       <use xlink:href="#m8896f79b1f" x="438.07375" y="299.798125" style="stroke: #000000; stroke-width: 0.8"/>
      </g>
     </g>
     <g id="text_6">
      <!-- 1.0 -->
      <g transform="translate(430.122187 314.396563) scale(0.1 -0.1)">
       <defs>
        <path id="DejaVuSans-31" d="M 794 531 
L 1825 531 
L 1825 4091 
L 703 3866 
L 703 4441 
L 1819 4666 
L 2450 4666 
L 2450 531 
L 3481 531 
L 3481 0 
L 794 0 
L 794 531 
z
" transform="scale(0.015625)"/>
       </defs>
       <use xlink:href="#DejaVuSans-31"/>
       <use xlink:href="#DejaVuSans-2e" x="63.623047"/>
       <use xlink:href="#DejaVuSans-30" x="95.410156"/>
      </g>
     </g>
    </g>
    <g id="text_7">
     <!-- False Positive Rate -->
     <g transform="translate(194.461094 328.074688) scale(0.1 -0.1)">
      <defs>
       <path id="DejaVuSans-46" d="M 628 4666 
L 3309 4666 
L 3309 4134 
L 1259 4134 
L 1259 2759 
L 3109 2759 
L 3109 2228 
L 1259 2228 
L 1259 0 
L 628 0 
L 628 4666 
z
" transform="scale(0.015625)"/>
       <path id="DejaVuSans-61" d="M 2194 1759 
Q 1497 1759 1228 1600 
Q 959 1441 959 1056 
Q 959 750 1161 570 
Q 1363 391 1709 391 
Q 2188 391 2477 730 
Q 2766 1069 2766 1631 
L 2766 1759 
L 2194 1759 
z
M 3341 1997 
L 3341 0 
L 2766 0 
L 2766 531 
Q 2569 213 2275 61 
Q 1981 -91 1556 -91 
Q 1019 -91 701 211 
Q 384 513 384 1019 
Q 384 1609 779 1909 
Q 1175 2209 1959 2209 
L 2766 2209 
L 2766 2266 
Q 2766 2663 2505 2880 
Q 2244 3097 1772 3097 
Q 1472 3097 1187 3025 
Q 903 2953 641 2809 
L 641 3341 
Q 956 3463 1253 3523 
Q 1550 3584 1831 3584 
Q 2591 3584 2966 3190 
Q 3341 2797 3341 1997 
z
" transform="scale(0.015625)"/>
       <path id="DejaVuSans-6c" d="M 603 4863 
L 1178 4863 
L 1178 0 
L 603 0 
L 603 4863 
z
" transform="scale(0.015625)"/>
       <path id="DejaVuSans-73" d="M 2834 3397 
L 2834 2853 
Q 2591 2978 2328 3040 
Q 2066 3103 1784 3103 
Q 1356 3103 1142 2972 
Q 928 2841 928 2578 
Q 928 2378 1081 2264 
Q 1234 2150 1697 2047 
L 1894 2003 
Q 2506 1872 2764 1633 
Q 3022 1394 3022 966 
Q 3022 478 2636 193 
Q 2250 -91 1575 -91 
Q 1294 -91 989 -36 
Q 684 19 347 128 
L 347 722 
Q 666 556 975 473 
Q 1284 391 1588 391 
Q 1994 391 2212 530 
Q 2431 669 2431 922 
Q 2431 1156 2273 1281 
Q 2116 1406 1581 1522 
L 1381 1569 
Q 847 1681 609 1914 
Q 372 2147 372 2553 
Q 372 3047 722 3315 
Q 1072 3584 1716 3584 
Q 2034 3584 2315 3537 
Q 2597 3491 2834 3397 
z
" transform="scale(0.015625)"/>
       <path id="DejaVuSans-65" d="M 3597 1894 
L 3597 1613 
L 953 1613 
Q 991 1019 1311 708 
Q 1631 397 2203 397 
Q 2534 397 2845 478 
Q 3156 559 3463 722 
L 3463 178 
Q 3153 47 2828 -22 
Q 2503 -91 2169 -91 
Q 1331 -91 842 396 
Q 353 884 353 1716 
Q 353 2575 817 3079 
Q 1281 3584 2069 3584 
Q 2775 3584 3186 3129 
Q 3597 2675 3597 1894 
z
M 3022 2063 
Q 3016 2534 2758 2815 
Q 2500 3097 2075 3097 
Q 1594 3097 1305 2825 
Q 1016 2553 972 2059 
L 3022 2063 
z
" transform="scale(0.015625)"/>
       <path id="DejaVuSans-20" transform="scale(0.015625)"/>
       <path id="DejaVuSans-50" d="M 1259 4147 
L 1259 2394 
L 2053 2394 
Q 2494 2394 2734 2622 
Q 2975 2850 2975 3272 
Q 2975 3691 2734 3919 
Q 2494 4147 2053 4147 
L 1259 4147 
z
M 628 4666 
L 2053 4666 
Q 2838 4666 3239 4311 
Q 3641 3956 3641 3272 
Q 3641 2581 3239 2228 
Q 2838 1875 2053 1875 
L 1259 1875 
L 1259 0 
L 628 0 
L 628 4666 
z
" transform="scale(0.015625)"/>
       <path id="DejaVuSans-6f" d="M 1959 3097 
Q 1497 3097 1228 2736 
Q 959 2375 959 1747 
Q 959 1119 1226 758 
Q 1494 397 1959 397 
Q 2419 397 2687 759 
Q 2956 1122 2956 1747 
Q 2956 2369 2687 2733 
Q 2419 3097 1959 3097 
z
M 1959 3584 
Q 2709 3584 3137 3096 
Q 3566 2609 3566 1747 
Q 3566 888 3137 398 
Q 2709 -91 1959 -91 
Q 1206 -91 779 398 
Q 353 888 353 1747 
Q 353 2609 779 3096 
Q 1206 3584 1959 3584 
z
" transform="scale(0.015625)"/>
       <path id="DejaVuSans-69" d="M 603 3500 
L 1178 3500 
L 1178 0 
L 603 0 
L 603 3500 
z
M 603 4863 
L 1178 4863 
L 1178 4134 
L 603 4134 
L 603 4863 
z
" transform="scale(0.015625)"/>
       <path id="DejaVuSans-74" d="M 1172 4494 
L 1172 3500 
L 2356 3500 
L 2356 3053 
L 1172 3053 
L 1172 1153 
Q 1172 725 1289 603 
Q 1406 481 1766 481 
L 2356 481 
L 2356 0 
L 1766 0 
Q 1100 0 847 248 
Q 594 497 594 1153 
L 594 3053 
L 172 3053 
L 172 3500 
L 594 3500 
L 594 4494 
L 1172 4494 
z
" transform="scale(0.015625)"/>
       <path id="DejaVuSans-76" d="M 191 3500 
L 800 3500 
L 1894 563 
L 2988 3500 
L 3597 3500 
L 2284 0 
L 1503 0 
L 191 3500 
z
" transform="scale(0.015625)"/>
       <path id="DejaVuSans-52" d="M 2841 2188 
Q 3044 2119 3236 1894 
Q 3428 1669 3622 1275 
L 4263 0 
L 3584 0 
L 2988 1197 
Q 2756 1666 2539 1819 
Q 2322 1972 1947 1972 
L 1259 1972 
L 1259 0 
L 628 0 
L 628 4666 
L 2053 4666 
Q 2853 4666 3247 4331 
Q 3641 3997 3641 3322 
Q 3641 2881 3436 2590 
Q 3231 2300 2841 2188 
z
M 1259 4147 
L 1259 2491 
L 2053 2491 
Q 2509 2491 2742 2702 
Q 2975 2913 2975 3322 
Q 2975 3731 2742 3939 
Q 2509 4147 2053 4147 
L 1259 4147 
z
" transform="scale(0.015625)"/>
      </defs>
      <use xlink:href="#DejaVuSans-46"/>
      <use xlink:href="#DejaVuSans-61" x="48.394531"/>
      <use xlink:href="#DejaVuSans-6c" x="109.673828"/>
      <use xlink:href="#DejaVuSans-73" x="137.457031"/>
      <use xlink:href="#DejaVuSans-65" x="189.556641"/>
      <use xlink:href="#DejaVuSans-20" x="251.080078"/>
      <use xlink:href="#DejaVuSans-50" x="282.867188"/>
      <use xlink:href="#DejaVuSans-6f" x="339.544922"/>
      <use xlink:href="#DejaVuSans-73" x="400.726562"/>
      <use xlink:href="#DejaVuSans-69" x="452.826172"/>
      <use xlink:href="#DejaVuSans-74" x="480.609375"/>
      <use xlink:href="#DejaVuSans-69" x="519.818359"/>
      <use xlink:href="#DejaVuSans-76" x="547.601562"/>
      <use xlink:href="#DejaVuSans-65" x="606.78125"/>
      <use xlink:href="#DejaVuSans-20" x="668.304688"/>
      <use xlink:href="#DejaVuSans-52" x="700.091797"/>
      <use xlink:href="#DejaVuSans-61" x="767.324219"/>
      <use xlink:href="#DejaVuSans-74" x="828.603516"/>
      <use xlink:href="#DejaVuSans-65" x="867.8125"/>
     </g>
    </g>
   </g>
   <g id="matplotlib.axis_2">
    <g id="ytick_1">
     <g id="line2d_7">
      <defs>
       <path id="mfd12dfd2f1" d="M 0 0 
L -3.5 0 
" style="stroke: #000000; stroke-width: 0.8"/>
      </defs>
      <g>
       <use xlink:href="#mfd12dfd2f1" x="43.78125" y="299.798125" style="stroke: #000000; stroke-width: 0.8"/>
      </g>
     </g>
     <g id="text_8">
      <!-- 0.0 -->
      <g transform="translate(20.878125 303.597344) scale(0.1 -0.1)">
       <use xlink:href="#DejaVuSans-30"/>
       <use xlink:href="#DejaVuSans-2e" x="63.623047"/>
       <use xlink:href="#DejaVuSans-30" x="95.410156"/>
      </g>
     </g>
    </g>
    <g id="ytick_2">
     <g id="line2d_8">
      <g>
       <use xlink:href="#mfd12dfd2f1" x="43.78125" y="246.944792" style="stroke: #000000; stroke-width: 0.8"/>
      </g>
     </g>
     <g id="text_9">
      <!-- 0.2 -->
      <g transform="translate(20.878125 250.74401) scale(0.1 -0.1)">
       <use xlink:href="#DejaVuSans-30"/>
       <use xlink:href="#DejaVuSans-2e" x="63.623047"/>
       <use xlink:href="#DejaVuSans-32" x="95.410156"/>
      </g>
     </g>
    </g>
    <g id="ytick_3">
     <g id="line2d_9">
      <g>
       <use xlink:href="#mfd12dfd2f1" x="43.78125" y="194.091458" style="stroke: #000000; stroke-width: 0.8"/>
      </g>
     </g>
     <g id="text_10">
      <!-- 0.4 -->
      <g transform="translate(20.878125 197.890677) scale(0.1 -0.1)">
       <use xlink:href="#DejaVuSans-30"/>
       <use xlink:href="#DejaVuSans-2e" x="63.623047"/>
       <use xlink:href="#DejaVuSans-34" x="95.410156"/>
      </g>
     </g>
    </g>
    <g id="ytick_4">
     <g id="line2d_10">
      <g>
       <use xlink:href="#mfd12dfd2f1" x="43.78125" y="141.238125" style="stroke: #000000; stroke-width: 0.8"/>
      </g>
     </g>
     <g id="text_11">
      <!-- 0.6 -->
      <g transform="translate(20.878125 145.037344) scale(0.1 -0.1)">
       <use xlink:href="#DejaVuSans-30"/>
       <use xlink:href="#DejaVuSans-2e" x="63.623047"/>
       <use xlink:href="#DejaVuSans-36" x="95.410156"/>
      </g>
     </g>
    </g>
    <g id="ytick_5">
     <g id="line2d_11">
      <g>
       <use xlink:href="#mfd12dfd2f1" x="43.78125" y="88.384792" style="stroke: #000000; stroke-width: 0.8"/>
      </g>
     </g>
     <g id="text_12">
      <!-- 0.8 -->
      <g transform="translate(20.878125 92.18401) scale(0.1 -0.1)">
       <use xlink:href="#DejaVuSans-30"/>
       <use xlink:href="#DejaVuSans-2e" x="63.623047"/>
       <use xlink:href="#DejaVuSans-38" x="95.410156"/>
      </g>
     </g>
    </g>
    <g id="ytick_6">
     <g id="line2d_12">
      <g>
       <use xlink:href="#mfd12dfd2f1" x="43.78125" y="35.531458" style="stroke: #000000; stroke-width: 0.8"/>
      </g>
     </g>
     <g id="text_13">
      <!-- 1.0 -->
      <g transform="translate(20.878125 39.330677) scale(0.1 -0.1)">
       <use xlink:href="#DejaVuSans-31"/>
       <use xlink:href="#DejaVuSans-2e" x="63.623047"/>
       <use xlink:href="#DejaVuSans-30" x="95.410156"/>
      </g>
     </g>
    </g>
    <g id="text_14">
     <!-- True Positive Rate -->
     <g transform="translate(14.798438 205.587813) rotate(-90) scale(0.1 -0.1)">
      <defs>
       <path id="DejaVuSans-54" d="M -19 4666 
L 3928 4666 
L 3928 4134 
L 2272 4134 
L 2272 0 
L 1638 0 
L 1638 4134 
L -19 4134 
L -19 4666 
z
" transform="scale(0.015625)"/>
       <path id="DejaVuSans-72" d="M 2631 2963 
Q 2534 3019 2420 3045 
Q 2306 3072 2169 3072 
Q 1681 3072 1420 2755 
Q 1159 2438 1159 1844 
L 1159 0 
L 581 0 
L 581 3500 
L 1159 3500 
L 1159 2956 
Q 1341 3275 1631 3429 
Q 1922 3584 2338 3584 
Q 2397 3584 2469 3576 
Q 2541 3569 2628 3553 
L 2631 2963 
z
" transform="scale(0.015625)"/>
       <path id="DejaVuSans-75" d="M 544 1381 
L 544 3500 
L 1119 3500 
L 1119 1403 
Q 1119 906 1312 657 
Q 1506 409 1894 409 
Q 2359 409 2629 706 
Q 2900 1003 2900 1516 
L 2900 3500 
L 3475 3500 
L 3475 0 
L 2900 0 
L 2900 538 
Q 2691 219 2414 64 
Q 2138 -91 1772 -91 
Q 1169 -91 856 284 
Q 544 659 544 1381 
z
M 1991 3584 
L 1991 3584 
z
" transform="scale(0.015625)"/>
      </defs>
      <use xlink:href="#DejaVuSans-54"/>
      <use xlink:href="#DejaVuSans-72" x="46.333984"/>
      <use xlink:href="#DejaVuSans-75" x="87.447266"/>
      <use xlink:href="#DejaVuSans-65" x="150.826172"/>
      <use xlink:href="#DejaVuSans-20" x="212.349609"/>
      <use xlink:href="#DejaVuSans-50" x="244.136719"/>
      <use xlink:href="#DejaVuSans-6f" x="300.814453"/>
      <use xlink:href="#DejaVuSans-73" x="361.996094"/>
      <use xlink:href="#DejaVuSans-69" x="414.095703"/>
      <use xlink:href="#DejaVuSans-74" x="441.878906"/>
      <use xlink:href="#DejaVuSans-69" x="481.087891"/>
      <use xlink:href="#DejaVuSans-76" x="508.871094"/>
      <use xlink:href="#DejaVuSans-65" x="568.050781"/>
      <use xlink:href="#DejaVuSans-20" x="629.574219"/>
      <use xlink:href="#DejaVuSans-52" x="661.361328"/>
      <use xlink:href="#DejaVuSans-61" x="728.59375"/>
      <use xlink:href="#DejaVuSans-74" x="789.873047"/>
      <use xlink:href="#DejaVuSans-65" x="829.082031"/>
     </g>
    </g>
   </g>
   <g id="line2d_13">
    <path d="M 43.78125 299.798125 
L 43.78125 299.589713 
L 44.113146 299.589713 
L 44.113146 297.297179 
L 44.445042 297.297179 
L 44.445042 295.213057 
L 44.776938 295.213057 
L 44.776938 293.545759 
L 45.108834 293.545759 
L 45.108834 288.752279 
L 45.44073 288.752279 
L 45.44073 286.459744 
L 45.772626 286.459744 
L 45.772626 285.209271 
L 46.104522 285.209271 
L 46.104522 284.375622 
L 46.436418 284.375622 
L 46.436418 283.541974 
L 46.768314 283.541974 
L 46.768314 282.916737 
L 47.764003 282.916737 
L 47.764003 281.457852 
L 48.095899 281.457852 
L 48.095899 280.207378 
L 48.427795 280.207378 
L 48.427795 279.790554 
L 48.759691 279.790554 
L 48.759691 279.165317 
L 49.755379 279.165317 
L 49.755379 277.914844 
L 50.087275 277.914844 
L 50.087275 276.039134 
L 50.419171 276.039134 
L 50.419171 275.413898 
L 50.751067 275.413898 
L 50.751067 269.161532 
L 51.082963 269.161532 
L 51.082963 268.95312 
L 51.414859 268.95312 
L 51.414859 267.702647 
L 51.746755 267.702647 
L 51.746755 267.285822 
L 52.078651 267.285822 
L 52.078651 261.867105 
L 52.410547 261.867105 
L 52.410547 257.698861 
L 52.742443 257.698861 
L 52.742443 256.6568 
L 53.074339 256.6568 
L 53.074339 255.197915 
L 53.406235 255.197915 
L 53.406235 254.155854 
L 53.738131 254.155854 
L 53.738131 253.947442 
L 54.070027 253.947442 
L 54.070027 253.530617 
L 54.401923 253.530617 
L 54.401923 252.488556 
L 54.733819 252.488556 
L 54.733819 251.238083 
L 55.065715 251.238083 
L 55.065715 250.821259 
L 55.397612 250.821259 
L 55.397612 250.612846 
L 55.729508 250.612846 
L 55.729508 249.98761 
L 56.725196 249.98761 
L 56.725196 248.320312 
L 57.057092 248.320312 
L 57.057092 247.486663 
L 57.388988 247.486663 
L 57.388988 246.23619 
L 57.720884 246.23619 
L 57.720884 244.777305 
L 58.05278 244.777305 
L 58.05278 243.735244 
L 58.384676 243.735244 
L 58.384676 243.526832 
L 58.716572 243.526832 
L 58.716572 241.44271 
L 59.048468 241.44271 
L 59.048468 240.609061 
L 59.380364 240.609061 
L 59.380364 239.150175 
L 59.71226 239.150175 
L 59.71226 238.941763 
L 60.044156 238.941763 
L 60.044156 236.649229 
L 60.376052 236.649229 
L 60.376052 235.398756 
L 60.707948 235.398756 
L 60.707948 232.064161 
L 61.039844 232.064161 
L 61.039844 231.647336 
L 61.37174 231.647336 
L 61.37174 231.438924 
L 61.703636 231.438924 
L 61.703636 230.188451 
L 62.035532 230.188451 
L 62.035532 229.563214 
L 62.699324 229.563214 
L 62.699324 228.104329 
L 63.031221 228.104329 
L 63.031221 223.727673 
L 63.695013 223.727673 
L 63.695013 222.4772 
L 64.026909 222.4772 
L 64.026909 222.060375 
L 64.690701 222.060375 
L 64.690701 221.435139 
L 65.022597 221.435139 
L 65.022597 219.559429 
L 65.354493 219.559429 
L 65.354493 219.142604 
L 65.686389 219.142604 
L 65.686389 215.599597 
L 66.018285 215.599597 
L 66.018285 211.639765 
L 66.350181 211.639765 
L 66.350181 210.389292 
L 66.682077 210.389292 
L 66.682077 204.553751 
L 67.013973 204.553751 
L 67.013973 203.720102 
L 67.345869 203.720102 
L 67.345869 197.259324 
L 67.677765 197.259324 
L 67.677765 196.842499 
L 68.009661 196.842499 
L 68.009661 195.175202 
L 68.341557 195.175202 
L 68.341557 194.96679 
L 68.673453 194.96679 
L 68.673453 192.257431 
L 69.005349 192.257431 
L 69.005349 190.173309 
L 69.669141 190.173309 
L 69.669141 188.506011 
L 70.001037 188.506011 
L 70.001037 186.421889 
L 70.332934 186.421889 
L 70.332934 185.379828 
L 70.66483 185.379828 
L 70.66483 183.087294 
L 70.996726 183.087294 
L 70.996726 182.878882 
L 71.328622 182.878882 
L 71.328622 181.836821 
L 71.660518 181.836821 
L 71.660518 181.003172 
L 72.32431 181.003172 
L 72.32431 178.91905 
L 72.656206 178.91905 
L 72.656206 177.668577 
L 72.988102 177.668577 
L 72.988102 177.251753 
L 73.319998 177.251753 
L 73.319998 176.209692 
L 73.98379 176.209692 
L 73.98379 176.00128 
L 74.315686 176.00128 
L 74.315686 173.708745 
L 74.647582 173.708745 
L 74.647582 173.083509 
L 75.311374 173.083509 
L 75.311374 172.875097 
L 75.64327 172.875097 
L 75.64327 170.790975 
L 76.638958 170.790975 
L 76.638958 169.123677 
L 76.970854 169.123677 
L 76.970854 168.49844 
L 77.30275 168.49844 
L 77.30275 168.081616 
L 77.634646 168.081616 
L 77.634646 167.247967 
L 77.966543 167.247967 
L 77.966543 166.831143 
L 78.298439 166.831143 
L 78.298439 166.622731 
L 78.630335 166.622731 
L 78.630335 166.414318 
L 78.962231 166.414318 
L 78.962231 165.997494 
L 79.294127 165.997494 
L 79.294127 165.58067 
L 79.626023 165.58067 
L 79.626023 164.538609 
L 80.953607 164.538609 
L 80.953607 162.662899 
L 81.285503 162.662899 
L 81.285503 162.454487 
L 81.617399 162.454487 
L 81.617399 161.82925 
L 82.281191 161.82925 
L 82.281191 160.787189 
L 82.613087 160.787189 
L 82.613087 159.536716 
L 83.276879 159.536716 
L 83.276879 159.328304 
L 83.608775 159.328304 
L 83.608775 158.494655 
L 83.940671 158.494655 
L 83.940671 157.869418 
L 84.272567 157.869418 
L 84.272567 157.03577 
L 84.936359 157.03577 
L 84.936359 156.827357 
L 85.932048 156.827357 
L 85.932048 156.618945 
L 86.263944 156.618945 
L 86.263944 155.785296 
L 87.259632 155.785296 
L 87.259632 154.326411 
L 87.923424 154.326411 
L 87.923424 153.909587 
L 88.25532 153.909587 
L 88.25532 153.701174 
L 88.587216 153.701174 
L 88.587216 153.28435 
L 89.251008 153.28435 
L 89.251008 152.659113 
L 89.582904 152.659113 
L 89.582904 152.033877 
L 90.246696 152.033877 
L 90.246696 150.158167 
L 90.578592 150.158167 
L 90.578592 149.53293 
L 90.910488 149.53293 
L 90.910488 148.907694 
L 91.242384 148.907694 
L 91.242384 148.490869 
L 91.57428 148.490869 
L 91.57428 146.823572 
L 91.906176 146.823572 
L 91.906176 146.61516 
L 92.238072 146.61516 
L 92.238072 146.406748 
L 92.569968 146.406748 
L 92.569968 145.573099 
L 92.901864 145.573099 
L 92.901864 145.156274 
L 94.229449 145.156274 
L 94.229449 144.947862 
L 94.561345 144.947862 
L 94.561345 144.322626 
L 95.225137 144.322626 
L 95.225137 143.697389 
L 95.557033 143.697389 
L 95.557033 142.655328 
L 95.888929 142.655328 
L 95.888929 142.446916 
L 96.552721 142.446916 
L 96.552721 142.030091 
L 97.548409 142.030091 
L 97.548409 141.404855 
L 98.212201 141.404855 
L 98.212201 140.779618 
L 98.544097 140.779618 
L 98.544097 140.571206 
L 98.875993 140.571206 
L 98.875993 140.362794 
L 99.539785 140.362794 
L 99.539785 140.154382 
L 99.871681 140.154382 
L 99.871681 138.487084 
L 100.203577 138.487084 
L 100.203577 137.861847 
L 101.199266 137.861847 
L 101.199266 137.236611 
L 102.194954 137.236611 
L 102.194954 136.819786 
L 102.858746 136.819786 
L 102.858746 136.611374 
L 103.522538 136.611374 
L 103.522538 136.402962 
L 103.854434 136.402962 
L 103.854434 136.19455 
L 104.18633 136.19455 
L 104.18633 135.986138 
L 104.850122 135.986138 
L 104.850122 135.569313 
L 105.513914 135.569313 
L 105.513914 135.152489 
L 106.841498 135.152489 
L 106.841498 134.735664 
L 107.50529 134.735664 
L 107.50529 134.527252 
L 108.169082 134.527252 
L 108.169082 134.31884 
L 109.496667 134.31884 
L 109.496667 133.693603 
L 109.828563 133.693603 
L 109.828563 133.276779 
L 110.160459 133.276779 
L 110.160459 133.068367 
L 110.492355 133.068367 
L 110.492355 132.44313 
L 110.824251 132.44313 
L 110.824251 130.775833 
L 111.819939 130.775833 
L 111.819939 130.150596 
L 112.151835 130.150596 
L 112.151835 129.942184 
L 112.483731 129.942184 
L 112.483731 129.733772 
L 113.147523 129.733772 
L 113.147523 129.316947 
L 114.143211 129.316947 
L 114.143211 129.108535 
L 114.475107 129.108535 
L 114.475107 128.900123 
L 115.138899 128.900123 
L 115.138899 127.858062 
L 116.134588 127.858062 
L 116.134588 127.64965 
L 116.466484 127.64965 
L 116.466484 127.232825 
L 117.794068 127.232825 
L 117.794068 126.816001 
L 119.121652 126.816001 
L 119.121652 126.190764 
L 119.453548 126.190764 
L 119.453548 125.77394 
L 119.785444 125.77394 
L 119.785444 125.357116 
L 120.781132 125.357116 
L 120.781132 124.940291 
L 121.444924 124.940291 
L 121.444924 124.731879 
L 121.77682 124.731879 
L 121.77682 124.523467 
L 122.440612 124.523467 
L 122.440612 123.89823 
L 123.436301 123.89823 
L 123.436301 123.481406 
L 123.768197 123.481406 
L 123.768197 121.605696 
L 124.100093 121.605696 
L 124.100093 121.397284 
L 124.763885 121.397284 
L 124.763885 120.980459 
L 125.095781 120.980459 
L 125.095781 120.355223 
L 125.427677 120.355223 
L 125.427677 119.938398 
L 126.091469 119.938398 
L 126.091469 119.729986 
L 126.423365 119.729986 
L 126.423365 119.313162 
L 127.087157 119.313162 
L 127.087157 118.271101 
L 127.750949 118.271101 
L 127.750949 117.437452 
L 128.082845 117.437452 
L 128.082845 117.22904 
L 128.414741 117.22904 
L 128.414741 116.395391 
L 128.746637 116.395391 
L 128.746637 116.186979 
L 129.078533 116.186979 
L 129.078533 115.978567 
L 130.738013 115.978567 
L 130.738013 115.561742 
L 131.06991 115.561742 
L 131.06991 115.35333 
L 131.733702 115.35333 
L 131.733702 114.936506 
L 132.72939 114.936506 
L 132.72939 114.519681 
L 133.393182 114.519681 
L 133.393182 114.102857 
L 133.725078 114.102857 
L 133.725078 112.852384 
L 134.38887 112.852384 
L 134.38887 112.643971 
L 135.052662 112.643971 
L 135.052662 112.227147 
L 135.384558 112.227147 
L 135.384558 112.018735 
L 135.716454 112.018735 
L 135.716454 111.60191 
L 136.380246 111.60191 
L 136.380246 111.393498 
L 137.375934 111.393498 
L 137.375934 111.185086 
L 137.70783 111.185086 
L 137.70783 110.768262 
L 138.703519 110.768262 
L 138.703519 110.351437 
L 139.367311 110.351437 
L 139.367311 110.143025 
L 140.694895 110.143025 
L 140.694895 109.726201 
L 141.690583 109.726201 
L 141.690583 109.517789 
L 142.022479 109.517789 
L 142.022479 109.309376 
L 142.354375 109.309376 
L 142.354375 109.100964 
L 143.681959 109.100964 
L 143.681959 108.68414 
L 144.345751 108.68414 
L 144.345751 108.267315 
L 145.341439 108.267315 
L 145.341439 107.850491 
L 146.005231 107.850491 
L 146.005231 107.225254 
L 146.337128 107.225254 
L 146.337128 107.016842 
L 146.669024 107.016842 
L 146.669024 106.600018 
L 147.00092 106.600018 
L 147.00092 105.974781 
L 147.332816 105.974781 
L 147.332816 105.766369 
L 147.664712 105.766369 
L 147.664712 105.557957 
L 148.992296 105.557957 
L 148.992296 105.141132 
L 149.324192 105.141132 
L 149.324192 104.93272 
L 149.987984 104.93272 
L 149.987984 104.724308 
L 150.31988 104.724308 
L 150.31988 104.515896 
L 150.983672 104.515896 
L 150.983672 103.682247 
L 151.315568 103.682247 
L 151.315568 103.473835 
L 152.311256 103.473835 
L 152.311256 103.265423 
L 152.643152 103.265423 
L 152.643152 103.05701 
L 153.306944 103.05701 
L 153.306944 102.848598 
L 153.63884 102.848598 
L 153.63884 102.640186 
L 153.970737 102.640186 
L 153.970737 102.431774 
L 154.302633 102.431774 
L 154.302633 102.223362 
L 154.634529 102.223362 
L 154.634529 102.014949 
L 155.630217 102.014949 
L 155.630217 101.598125 
L 156.294009 101.598125 
L 156.294009 101.389713 
L 156.625905 101.389713 
L 161.936242 100.556064 
L 161.936242 100.347652 
L 163.263826 100.347652 
L 163.263826 100.13924 
L 163.927618 100.13924 
L 163.927618 99.722415 
L 165.255202 99.722415 
L 165.255202 99.514003 
L 166.582786 99.514003 
L 166.582786 98.888766 
L 167.246578 98.888766 
L 167.246578 98.680354 
L 167.91037 98.680354 
L 167.91037 98.471942 
L 168.242266 98.471942 
L 168.242266 98.26353 
L 169.237955 98.26353 
L 169.237955 98.055118 
L 169.569851 98.055118 
L 169.569851 97.638293 
L 169.901747 97.638293 
L 169.901747 97.429881 
L 171.561227 97.429881 
L 171.561227 97.221469 
L 172.225019 97.221469 
L 172.225019 96.804644 
L 173.220707 96.804644 
L 173.220707 96.596232 
L 173.552603 96.596232 
L 173.552603 96.38782 
L 174.216395 96.38782 
L 174.216395 96.179408 
L 174.880187 96.179408 
L 174.880187 95.762583 
L 175.212083 95.762583 
L 175.212083 95.345759 
L 175.543979 95.345759 
L 175.543979 95.137347 
L 175.875875 95.137347 
L 175.875875 94.928935 
L 176.207771 94.928935 
L 176.207771 94.720522 
L 176.539668 94.720522 
L 176.539668 94.51211 
L 176.871564 94.51211 
L 176.871564 94.303698 
L 177.867252 94.303698 
L 177.867252 94.095286 
L 178.199148 94.095286 
L 178.199148 93.886874 
L 179.194836 93.886874 
L 179.194836 93.678461 
L 179.526732 93.678461 
L 179.526732 93.261637 
L 179.858628 93.261637 
L 179.858628 93.053225 
L 180.52242 93.053225 
L 180.52242 92.427988 
L 180.854316 92.427988 
L 180.854316 92.011164 
L 181.186212 92.011164 
L 181.186212 91.59434 
L 182.1819 91.59434 
L 182.1819 90.969103 
L 182.845692 90.969103 
L 182.845692 90.760691 
L 183.509484 90.760691 
L 183.509484 90.552279 
L 183.84138 90.552279 
L 183.84138 90.343866 
L 184.173277 90.343866 
L 184.173277 89.927042 
L 185.832757 89.927042 
L 185.832757 89.301805 
L 186.828445 89.301805 
L 186.828445 88.884981 
L 187.824133 88.884981 
L 187.824133 88.468157 
L 188.487925 88.468157 
L 188.487925 88.259744 
L 188.819821 88.259744 
L 188.819821 88.051332 
L 189.815509 88.051332 
L 189.815509 87.634508 
L 190.479301 87.634508 
L 190.479301 87.426096 
L 190.811197 87.426096 
L 190.811197 86.592447 
L 191.143093 86.592447 
L 191.143093 86.384035 
L 191.806886 86.384035 
L 191.806886 85.550386 
L 192.470678 85.550386 
L 192.470678 84.716737 
L 192.802574 84.716737 
L 192.802574 84.508325 
L 193.13447 84.508325 
L 193.13447 84.299913 
L 193.466366 84.299913 
L 193.466366 84.0915 
L 194.79395 84.0915 
L 194.79395 83.883088 
L 195.457742 83.883088 
L 195.457742 83.674676 
L 196.45343 83.674676 
L 196.45343 83.466264 
L 196.785326 83.466264 
L 196.785326 83.257852 
L 197.781014 83.257852 
L 197.781014 83.049439 
L 198.11291 83.049439 
L 198.11291 82.424203 
L 198.776702 82.424203 
L 198.776702 81.382142 
L 199.772391 81.382142 
L 199.772391 81.17373 
L 200.436183 81.17373 
L 200.436183 80.965317 
L 201.099975 80.965317 
L 201.099975 80.756905 
L 201.431871 80.756905 
L 201.431871 79.923256 
L 202.095663 79.923256 
L 202.095663 79.506432 
L 202.759455 79.506432 
L 202.759455 79.29802 
L 203.423247 79.29802 
L 203.423247 79.089608 
L 206.078415 79.089608 
L 206.078415 78.672783 
L 207.406 78.672783 
L 207.406 78.255959 
L 208.069792 78.255959 
L 208.069792 78.047547 
L 210.393064 78.047547 
L 210.393064 77.42231 
L 211.056856 77.42231 
L 211.056856 77.005486 
L 211.720648 77.005486 
L 211.720648 76.380249 
L 212.716336 76.380249 
L 212.716336 76.171837 
L 213.712024 76.171837 
L 213.712024 75.963425 
L 214.04392 75.963425 
L 214.04392 75.5466 
L 214.707713 75.5466 
L 214.707713 74.712951 
L 215.703401 74.712951 
L 215.703401 74.296127 
L 216.367193 74.296127 
L 216.367193 73.670891 
L 217.030985 73.670891 
L 217.030985 73.254066 
L 218.690465 73.254066 
L 218.690465 73.045654 
L 219.022361 73.045654 
L 219.022361 72.003593 
L 220.018049 72.003593 
L 220.018049 71.169944 
L 220.349945 71.169944 
L 220.349945 70.75312 
L 220.681841 70.75312 
L 220.681841 70.544708 
L 221.013737 70.544708 
L 221.013737 69.919471 
L 221.345633 69.919471 
L 221.345633 69.294234 
L 222.009426 69.294234 
L 222.009426 69.085822 
L 223.668906 69.085822 
L 223.668906 68.668998 
L 224.000802 68.668998 
L 224.000802 68.460586 
L 224.99649 68.460586 
L 224.99649 68.252173 
L 225.660282 68.252173 
L 225.660282 67.835349 
L 225.992178 67.835349 
L 225.992178 67.626937 
L 226.324074 67.626937 
L 226.324074 67.418525 
L 228.979242 67.418525 
L 228.979242 67.210112 
L 229.311138 67.210112 
L 229.311138 67.0017 
L 229.974931 67.0017 
L 229.974931 66.793288 
L 230.306827 66.793288 
L 230.306827 66.584876 
L 231.966307 66.584876 
L 231.966307 66.168051 
L 233.625787 66.168051 
L 233.625787 65.751227 
L 235.617163 65.751227 
L 235.617163 65.542815 
L 236.280955 65.542815 
L 236.280955 65.334403 
L 237.276644 65.334403 
L 237.276644 65.12599 
L 237.940436 65.12599 
L 237.940436 64.709166 
L 238.936124 64.709166 
L 238.936124 64.500754 
L 240.263708 64.500754 
L 240.263708 64.292342 
L 240.595604 64.292342 
L 240.595604 64.083929 
L 240.9275 64.083929 
L 240.9275 63.667105 
L 242.255084 63.667105 
L 242.255084 63.250281 
L 243.582668 63.250281 
L 243.582668 63.041868 
L 245.242149 63.041868 
L 245.242149 62.833456 
L 245.574045 62.833456 
L 245.574045 62.416632 
L 246.237837 62.416632 
L 246.237837 61.999807 
L 246.569733 61.999807 
L 246.569733 61.791395 
L 247.233525 61.791395 
L 247.233525 61.582983 
L 247.897317 61.582983 
L 247.897317 60.957746 
L 249.224901 60.957746 
L 249.224901 60.749334 
L 249.888693 60.749334 
L 249.888693 60.540922 
L 250.552485 60.540922 
L 250.552485 60.33251 
L 254.535238 60.33251 
L 254.535238 60.124098 
L 254.867134 60.124098 
L 254.867134 59.915685 
L 255.530926 59.915685 
L 255.530926 59.290449 
L 257.190406 59.290449 
L 257.190406 59.082037 
L 257.854198 59.082037 
L 257.854198 58.665212 
L 258.849886 58.665212 
L 258.849886 58.4568 
L 260.841263 58.4568 
L 260.841263 58.248388 
L 261.505055 58.248388 
L 261.505055 58.039976 
L 265.487807 58.039976 
L 265.487807 57.831563 
L 266.151599 57.831563 
L 266.151599 57.206327 
L 267.81108 57.206327 
L 267.81108 56.997915 
L 268.474872 56.997915 
L 268.474872 56.789502 
L 270.134352 56.789502 
L 270.134352 56.58109 
L 271.13004 56.58109 
L 271.13004 56.164266 
L 272.125728 56.164266 
L 272.125728 55.955854 
L 273.121416 55.955854 
L 273.121416 55.747442 
L 274.117104 55.747442 
L 274.117104 55.539029 
L 275.444689 55.539029 
L 275.444689 55.330617 
L 275.776585 55.330617 
L 275.776585 54.913793 
L 276.772273 54.913793 
L 276.772273 54.705381 
L 277.104169 54.705381 
L 277.104169 54.496968 
L 278.763649 54.496968 
L 278.763649 54.288556 
L 280.091233 54.288556 
L 280.091233 54.080144 
L 281.086921 54.080144 
L 281.086921 53.871732 
L 281.750713 53.871732 
L 281.750713 53.66332 
L 286.397258 53.66332 
L 286.397258 53.454907 
L 286.729154 53.454907 
L 286.729154 53.246495 
L 287.06105 53.246495 
L 287.06105 53.038083 
L 289.716218 53.038083 
L 289.716218 52.412846 
L 290.048114 52.412846 
L 290.048114 52.204434 
L 292.371387 52.204434 
L 292.371387 51.996022 
L 294.030867 51.996022 
L 294.030867 51.579198 
L 295.690347 51.579198 
L 295.690347 51.162373 
L 296.354139 51.162373 
L 296.354139 50.745549 
L 297.681723 50.745549 
L 297.681723 50.328724 
L 301.33258 50.328724 
L 301.33258 49.9119 
L 304.319644 49.9119 
L 304.319644 49.703488 
L 304.983436 49.703488 
L 304.983436 49.495076 
L 306.642917 49.495076 
L 306.642917 49.286663 
L 309.961877 49.286663 
L 309.961877 49.078251 
L 311.621357 49.078251 
L 311.621357 48.661427 
L 312.617045 48.661427 
L 312.617045 48.453015 
L 325.560991 48.453015 
L 325.560991 48.244602 
L 325.892887 48.244602 
L 325.892887 48.03619 
L 327.884263 48.03619 
L 327.884263 47.827778 
L 329.211848 47.827778 
L 329.211848 47.619366 
L 329.543744 47.619366 
L 329.543744 47.202541 
L 330.539432 47.202541 
L 330.539432 46.994129 
L 333.526496 46.994129 
L 333.526496 46.577305 
L 337.509249 46.577305 
L 337.509249 46.368893 
L 337.841145 46.368893 
L 337.841145 45.952068 
L 338.173041 45.952068 
L 338.173041 45.743656 
L 340.828209 45.743656 
L 340.828209 45.535244 
L 345.142858 45.535244 
L 345.142858 45.326832 
L 347.46613 45.326832 
L 347.46613 45.118419 
L 348.461818 45.118419 
L 348.461818 44.701595 
L 351.116987 44.701595 
L 351.116987 44.284771 
L 351.448883 44.284771 
L 351.448883 44.076358 
L 353.772155 44.076358 
L 353.772155 43.867946 
L 358.418699 43.867946 
L 358.418699 43.659534 
L 363.729036 43.659534 
L 363.729036 43.451122 
L 365.720412 43.451122 
L 365.720412 43.24271 
L 367.711789 43.24271 
L 367.711789 43.034297 
L 368.707477 43.034297 
L 368.707477 42.825885 
L 371.362645 42.825885 
L 371.362645 42.617473 
L 371.694541 42.617473 
L 371.694541 42.409061 
L 372.690229 42.409061 
L 372.690229 42.200649 
L 373.022125 42.200649 
L 373.022125 41.992236 
L 376.672982 41.992236 
L 376.672982 41.783824 
L 381.319527 41.783824 
L 381.319527 41.575412 
L 381.983319 41.575412 
L 381.983319 41.367 
L 385.302279 41.367 
L 385.302279 41.158588 
L 386.297967 41.158588 
L 386.297967 40.950175 
L 387.625551 40.950175 
L 387.625551 40.741763 
L 387.957447 40.741763 
L 387.957447 40.533351 
L 388.621239 40.533351 
L 388.621239 40.324939 
L 388.953136 40.324939 
L 388.953136 40.116527 
L 390.28072 40.116527 
L 390.28072 39.908114 
L 390.612616 39.908114 
L 390.612616 39.699702 
L 393.267784 39.699702 
L 393.267784 39.49129 
L 395.591056 39.49129 
L 395.591056 39.282878 
L 395.922952 39.282878 
L 395.922952 39.074466 
L 398.578121 39.074466 
L 398.578121 38.866053 
L 399.241913 38.866053 
L 399.241913 38.657641 
L 400.569497 38.657641 
L 400.569497 38.449229 
L 406.543626 38.449229 
L 406.543626 38.240817 
L 406.875522 38.240817 
L 406.875522 38.032405 
L 410.194482 38.032405 
L 410.194482 37.823993 
L 417.164299 37.823993 
L 417.164299 37.407168 
L 417.496195 37.407168 
L 417.496195 36.990344 
L 420.48326 36.990344 
L 420.48326 36.781932 
L 423.80222 36.781932 
L 423.80222 36.573519 
L 426.457388 36.573519 
L 426.457388 36.365107 
L 427.784973 36.365107 
L 427.784973 36.156695 
L 431.103933 36.156695 
L 431.103933 35.739871 
L 436.41427 35.739871 
L 436.41427 35.531458 
L 438.07375 35.531458 
L 438.07375 35.531458 
" clip-path="url(#p7e26891a7e)" style="fill: none; stroke: #008000; stroke-width: 1.5; stroke-linecap: square"/>
   </g>
   <g id="line2d_14">
    <path d="M 43.78125 299.798125 
L 438.07375 35.531458 
" clip-path="url(#p7e26891a7e)" style="fill: none; stroke-dasharray: 5.55,2.4; stroke-dashoffset: 0; stroke: #000000; stroke-width: 1.5"/>
   </g>
   <g id="patch_3">
    <path d="M 43.78125 299.798125 
L 43.78125 22.318125 
" style="fill: none; stroke: #000000; stroke-width: 0.8; stroke-linejoin: miter; stroke-linecap: square"/>
   </g>
   <g id="patch_4">
    <path d="M 438.07375 299.798125 
L 438.07375 22.318125 
" style="fill: none; stroke: #000000; stroke-width: 0.8; stroke-linejoin: miter; stroke-linecap: square"/>
   </g>
   <g id="patch_5">
    <path d="M 43.78125 299.798125 
L 438.07375 299.798125 
" style="fill: none; stroke: #000000; stroke-width: 0.8; stroke-linejoin: miter; stroke-linecap: square"/>
   </g>
   <g id="patch_6">
    <path d="M 43.78125 22.318125 
L 438.07375 22.318125 
" style="fill: none; stroke: #000000; stroke-width: 0.8; stroke-linejoin: miter; stroke-linecap: square"/>
   </g>
   <g id="text_15">
    <!-- ROC Curve -->
    <g transform="translate(208.236875 16.318125) scale(0.12 -0.12)">
     <defs>
      <path id="DejaVuSans-4f" d="M 2522 4238 
Q 1834 4238 1429 3725 
Q 1025 3213 1025 2328 
Q 1025 1447 1429 934 
Q 1834 422 2522 422 
Q 3209 422 3611 934 
Q 4013 1447 4013 2328 
Q 4013 3213 3611 3725 
Q 3209 4238 2522 4238 
z
M 2522 4750 
Q 3503 4750 4090 4092 
Q 4678 3434 4678 2328 
Q 4678 1225 4090 567 
Q 3503 -91 2522 -91 
Q 1538 -91 948 565 
Q 359 1222 359 2328 
Q 359 3434 948 4092 
Q 1538 4750 2522 4750 
z
" transform="scale(0.015625)"/>
      <path id="DejaVuSans-43" d="M 4122 4306 
L 4122 3641 
Q 3803 3938 3442 4084 
Q 3081 4231 2675 4231 
Q 1875 4231 1450 3742 
Q 1025 3253 1025 2328 
Q 1025 1406 1450 917 
Q 1875 428 2675 428 
Q 3081 428 3442 575 
Q 3803 722 4122 1019 
L 4122 359 
Q 3791 134 3420 21 
Q 3050 -91 2638 -91 
Q 1578 -91 968 557 
Q 359 1206 359 2328 
Q 359 3453 968 4101 
Q 1578 4750 2638 4750 
Q 3056 4750 3426 4639 
Q 3797 4528 4122 4306 
z
" transform="scale(0.015625)"/>
     </defs>
     <use xlink:href="#DejaVuSans-52"/>
     <use xlink:href="#DejaVuSans-4f" x="69.482422"/>
     <use xlink:href="#DejaVuSans-43" x="148.193359"/>
     <use xlink:href="#DejaVuSans-20" x="218.017578"/>
     <use xlink:href="#DejaVuSans-43" x="249.804688"/>
     <use xlink:href="#DejaVuSans-75" x="319.628906"/>
     <use xlink:href="#DejaVuSans-72" x="383.007812"/>
     <use xlink:href="#DejaVuSans-76" x="424.121094"/>
     <use xlink:href="#DejaVuSans-65" x="483.300781"/>
    </g>
   </g>
   <g id="legend_1">
    <g id="patch_7">
     <path d="M 308.131563 294.798125 
L 431.07375 294.798125 
Q 433.07375 294.798125 433.07375 292.798125 
L 433.07375 279.12 
Q 433.07375 277.12 431.07375 277.12 
L 308.131563 277.12 
Q 306.131563 277.12 306.131563 279.12 
L 306.131563 292.798125 
Q 306.131563 294.798125 308.131563 294.798125 
z
" style="fill: #ffffff; opacity: 0.8; stroke: #cccccc; stroke-linejoin: miter"/>
    </g>
    <g id="line2d_15">
     <path d="M 310.131563 285.218438 
L 320.131563 285.218438 
L 330.131563 285.218438 
" style="fill: none; stroke: #008000; stroke-width: 1.5; stroke-linecap: square"/>
    </g>
    <g id="text_16">
     <!-- SVM (AUC = 0.81) -->
     <g transform="translate(338.131563 288.718438) scale(0.1 -0.1)">
      <defs>
       <path id="DejaVuSans-53" d="M 3425 4513 
L 3425 3897 
Q 3066 4069 2747 4153 
Q 2428 4238 2131 4238 
Q 1616 4238 1336 4038 
Q 1056 3838 1056 3469 
Q 1056 3159 1242 3001 
Q 1428 2844 1947 2747 
L 2328 2669 
Q 3034 2534 3370 2195 
Q 3706 1856 3706 1288 
Q 3706 609 3251 259 
Q 2797 -91 1919 -91 
Q 1588 -91 1214 -16 
Q 841 59 441 206 
L 441 856 
Q 825 641 1194 531 
Q 1563 422 1919 422 
Q 2459 422 2753 634 
Q 3047 847 3047 1241 
Q 3047 1584 2836 1778 
Q 2625 1972 2144 2069 
L 1759 2144 
Q 1053 2284 737 2584 
Q 422 2884 422 3419 
Q 422 4038 858 4394 
Q 1294 4750 2059 4750 
Q 2388 4750 2728 4690 
Q 3069 4631 3425 4513 
z
" transform="scale(0.015625)"/>
       <path id="DejaVuSans-56" d="M 1831 0 
L 50 4666 
L 709 4666 
L 2188 738 
L 3669 4666 
L 4325 4666 
L 2547 0 
L 1831 0 
z
" transform="scale(0.015625)"/>
       <path id="DejaVuSans-4d" d="M 628 4666 
L 1569 4666 
L 2759 1491 
L 3956 4666 
L 4897 4666 
L 4897 0 
L 4281 0 
L 4281 4097 
L 3078 897 
L 2444 897 
L 1241 4097 
L 1241 0 
L 628 0 
L 628 4666 
z
" transform="scale(0.015625)"/>
       <path id="DejaVuSans-28" d="M 1984 4856 
Q 1566 4138 1362 3434 
Q 1159 2731 1159 2009 
Q 1159 1288 1364 580 
Q 1569 -128 1984 -844 
L 1484 -844 
Q 1016 -109 783 600 
Q 550 1309 550 2009 
Q 550 2706 781 3412 
Q 1013 4119 1484 4856 
L 1984 4856 
z
" transform="scale(0.015625)"/>
       <path id="DejaVuSans-41" d="M 2188 4044 
L 1331 1722 
L 3047 1722 
L 2188 4044 
z
M 1831 4666 
L 2547 4666 
L 4325 0 
L 3669 0 
L 3244 1197 
L 1141 1197 
L 716 0 
L 50 0 
L 1831 4666 
z
" transform="scale(0.015625)"/>
       <path id="DejaVuSans-55" d="M 556 4666 
L 1191 4666 
L 1191 1831 
Q 1191 1081 1462 751 
Q 1734 422 2344 422 
Q 2950 422 3222 751 
Q 3494 1081 3494 1831 
L 3494 4666 
L 4128 4666 
L 4128 1753 
Q 4128 841 3676 375 
Q 3225 -91 2344 -91 
Q 1459 -91 1007 375 
Q 556 841 556 1753 
L 556 4666 
z
" transform="scale(0.015625)"/>
       <path id="DejaVuSans-3d" d="M 678 2906 
L 4684 2906 
L 4684 2381 
L 678 2381 
L 678 2906 
z
M 678 1631 
L 4684 1631 
L 4684 1100 
L 678 1100 
L 678 1631 
z
" transform="scale(0.015625)"/>
       <path id="DejaVuSans-29" d="M 513 4856 
L 1013 4856 
Q 1481 4119 1714 3412 
Q 1947 2706 1947 2009 
Q 1947 1309 1714 600 
Q 1481 -109 1013 -844 
L 513 -844 
Q 928 -128 1133 580 
Q 1338 1288 1338 2009 
Q 1338 2731 1133 3434 
Q 928 4138 513 4856 
z
" transform="scale(0.015625)"/>
      </defs>
      <use xlink:href="#DejaVuSans-53"/>
      <use xlink:href="#DejaVuSans-56" x="63.476562"/>
      <use xlink:href="#DejaVuSans-4d" x="131.884766"/>
      <use xlink:href="#DejaVuSans-20" x="218.164062"/>
      <use xlink:href="#DejaVuSans-28" x="249.951172"/>
      <use xlink:href="#DejaVuSans-41" x="288.964844"/>
      <use xlink:href="#DejaVuSans-55" x="357.373047"/>
      <use xlink:href="#DejaVuSans-43" x="430.566406"/>
      <use xlink:href="#DejaVuSans-20" x="500.390625"/>
      <use xlink:href="#DejaVuSans-3d" x="532.177734"/>
      <use xlink:href="#DejaVuSans-20" x="615.966797"/>
      <use xlink:href="#DejaVuSans-30" x="647.753906"/>
      <use xlink:href="#DejaVuSans-2e" x="711.376953"/>
      <use xlink:href="#DejaVuSans-38" x="743.164062"/>
      <use xlink:href="#DejaVuSans-31" x="806.787109"/>
      <use xlink:href="#DejaVuSans-29" x="870.410156"/>
     </g>
    </g>
   </g>
  </g>
 </g>
 <defs>
  <clipPath id="p7e26891a7e">
   <rect x="43.78125" y="22.318125" width="394.2925" height="277.48"/>
  </clipPath>
 </defs>
</svg>
