<?xml version="1.0" encoding="utf-8" standalone="no"?>
<!DOCTYPE svg PUBLIC "-//W3C//DTD SVG 1.1//EN"
  "http://www.w3.org/Graphics/SVG/1.1/DTD/svg11.dtd">
<svg xmlns:xlink="http://www.w3.org/1999/xlink" width="453.225312pt" height="337.354375pt" viewBox="0 0 453.225312 337.354375" xmlns="http://www.w3.org/2000/svg" version="1.1">
 <metadata>
  <rdf:RDF xmlns:dc="http://purl.org/dc/elements/1.1/" xmlns:cc="http://creativecommons.org/ns#" xmlns:rdf="http://www.w3.org/1999/02/22-rdf-syntax-ns#">
   <cc:Work>
    <dc:type rdf:resource="http://purl.org/dc/dcmitype/StillImage"/>
    <dc:date>2025-11-08T18:11:27.686119</dc:date>
    <dc:format>image/svg+xml</dc:format>
    <dc:creator>
     <cc:Agent>
      <dc:title>Matplotlib v3.9.1, https://matplotlib.org/</dc:title>
     </cc:Agent>
    </dc:creator>
   </cc:Work>
  </rdf:RDF>
 </metadata>
 <defs>
  <style type="text/css">*{stroke-linejoin: round; stroke-linecap: butt}</style>
 </defs>
 <g id="figure_1">
  <g id="patch_1">
   <path d="M 0 337.354375 
L 453.225312 337.354375 
L 453.225312 0 
L 0 0 
z
" style="fill: #ffffff"/>
  </g>
  <g id="axes_1">
   <g id="patch_2">
    <path d="M 43.78125 299.798125 
L 438.07375 299.798125 
L 438.07375 22.318125 
L 43.78125 22.318125 
z
" style="fill: #ffffff"/>
   </g>
   <g id="matplotlib.axis_1">
    <g id="xtick_1">
     <g id="line2d_1">
      <defs>
       <path id="m7ae3e3cabe" d="M 0 0 
L 0 3.5 
" style="stroke: #000000; stroke-width: 0.8"/>
      </defs>
      <g>
       <use xlink:href="#m7ae3e3cabe" x="43.78125" y="299.798125" style="stroke: #000000; stroke-width: 0.8"/>
      </g>
     </g>
     <g id="text_1">
      <!-- 0.0 -->
      <g transform="translate(35.829688 314.396563) scale(0.1 -0.1)">
       <defs>
        <path id="DejaVuSans-30" d="M 2034 4250 
Q 1547 4250 1301 3770 
Q 1056 3291 1056 2328 
Q 1056 1369 1301 889 
Q 1547 409 2034 409 
Q 2525 409 2770 889 
Q 3016 1369 3016 2328 
Q 3016 3291 2770 3770 
Q 2525 4250 2034 4250 
z
M 2034 4750 
Q 2819 4750 3233 4129 
Q 3647 3509 3647 2328 
Q 3647 1150 3233 529 
Q 2819 -91 2034 -91 
Q 1250 -91 836 529 
Q 422 1150 422 2328 
Q 422 3509 836 4129 
Q 1250 4750 2034 4750 
z
" transform="scale(0.015625)"/>
        <path id="DejaVuSans-2e" d="M 684 794 
L 1344 794 
L 1344 0 
L 684 0 
L 684 794 
z
" transform="scale(0.015625)"/>
       </defs>
       <use xlink:href="#DejaVuSans-30"/>
       <use xlink:href="#DejaVuSans-2e" x="63.623047"/>
       <use xlink:href="#DejaVuSans-30" x="95.410156"/>
      </g>
     </g>
    </g>
    <g id="xtick_2">
     <g id="line2d_2">
      <g>
       <use xlink:href="#m7ae3e3cabe" x="122.63975" y="299.798125" style="stroke: #000000; stroke-width: 0.8"/>
      </g>
     </g>
     <g id="text_2">
      <!-- 0.2 -->
      <g transform="translate(114.688188 314.396563) scale(0.1 -0.1)">
       <defs>
        <path id="DejaVuSans-32" d="M 1228 531 
L 3431 531 
L 3431 0 
L 469 0 
L 469 531 
Q 828 903 1448 1529 
Q 2069 2156 2228 2338 
Q 2531 2678 2651 2914 
Q 2772 3150 2772 3378 
Q 2772 3750 2511 3984 
Q 2250 4219 1831 4219 
Q 1534 4219 1204 4116 
Q 875 4013 500 3803 
L 500 4441 
Q 881 4594 1212 4672 
Q 1544 4750 1819 4750 
Q 2544 4750 2975 4387 
Q 3406 4025 3406 3419 
Q 3406 3131 3298 2873 
Q 3191 2616 2906 2266 
Q 2828 2175 2409 1742 
Q 1991 1309 1228 531 
z
" transform="scale(0.015625)"/>
       </defs>
       <use xlink:href="#DejaVuSans-30"/>
       <use xlink:href="#DejaVuSans-2e" x="63.623047"/>
       <use xlink:href="#DejaVuSans-32" x="95.410156"/>
      </g>
     </g>
    </g>
    <g id="xtick_3">
     <g id="line2d_3">
      <g>
       <use xlink:href="#m7ae3e3cabe" x="201.49825" y="299.798125" style="stroke: #000000; stroke-width: 0.8"/>
      </g>
     </g>
     <g id="text_3">
      <!-- 0.4 -->
      <g transform="translate(193.546688 314.396563) scale(0.1 -0.1)">
       <defs>
        <path id="DejaVuSans-34" d="M 2419 4116 
L 825 1625 
L 2419 1625 
L 2419 4116 
z
M 2253 4666 
L 3047 4666 
L 3047 1625 
L 3713 1625 
L 3713 1100 
L 3047 1100 
L 3047 0 
L 2419 0 
L 2419 1100 
L 313 1100 
L 313 1709 
L 2253 4666 
z
" transform="scale(0.015625)"/>
       </defs>
       <use xlink:href="#DejaVuSans-30"/>
       <use xlink:href="#DejaVuSans-2e" x="63.623047"/>
       <use xlink:href="#DejaVuSans-34" x="95.410156"/>
      </g>
     </g>
    </g>
    <g id="xtick_4">
     <g id="line2d_4">
      <g>
       <use xlink:href="#m7ae3e3cabe" x="280.35675" y="299.798125" style="stroke: #000000; stroke-width: 0.8"/>
      </g>
     </g>
     <g id="text_4">
      <!-- 0.6 -->
      <g transform="translate(272.405188 314.396563) scale(0.1 -0.1)">
       <defs>
        <path id="DejaVuSans-36" d="M 2113 2584 
Q 1688 2584 1439 2293 
Q 1191 2003 1191 1497 
Q 1191 994 1439 701 
Q 1688 409 2113 409 
Q 2538 409 2786 701 
Q 3034 994 3034 1497 
Q 3034 2003 2786 2293 
Q 2538 2584 2113 2584 
z
M 3366 4563 
L 3366 3988 
Q 3128 4100 2886 4159 
Q 2644 4219 2406 4219 
Q 1781 4219 1451 3797 
Q 1122 3375 1075 2522 
Q 1259 2794 1537 2939 
Q 1816 3084 2150 3084 
Q 2853 3084 3261 2657 
Q 3669 2231 3669 1497 
Q 3669 778 3244 343 
Q 2819 -91 2113 -91 
Q 1303 -91 875 529 
Q 447 1150 447 2328 
Q 447 3434 972 4092 
Q 1497 4750 2381 4750 
Q 2619 4750 2861 4703 
Q 3103 4656 3366 4563 
z
" transform="scale(0.015625)"/>
       </defs>
       <use xlink:href="#DejaVuSans-30"/>
       <use xlink:href="#DejaVuSans-2e" x="63.623047"/>
       <use xlink:href="#DejaVuSans-36" x="95.410156"/>
      </g>
     </g>
    </g>
    <g id="xtick_5">
     <g id="line2d_5">
      <g>
       <use xlink:href="#m7ae3e3cabe" x="359.21525" y="299.798125" style="stroke: #000000; stroke-width: 0.8"/>
      </g>
     </g>
     <g id="text_5">
      <!-- 0.8 -->
      <g transform="translate(351.263688 314.396563) scale(0.1 -0.1)">
       <defs>
        <path id="DejaVuSans-38" d="M 2034 2216 
Q 1584 2216 1326 1975 
Q 1069 1734 1069 1313 
Q 1069 891 1326 650 
Q 1584 409 2034 409 
Q 2484 409 2743 651 
Q 3003 894 3003 1313 
Q 3003 1734 2745 1975 
Q 2488 2216 2034 2216 
z
M 1403 2484 
Q 997 2584 770 2862 
Q 544 3141 544 3541 
Q 544 4100 942 4425 
Q 1341 4750 2034 4750 
Q 2731 4750 3128 4425 
Q 3525 4100 3525 3541 
Q 3525 3141 3298 2862 
Q 3072 2584 2669 2484 
Q 3125 2378 3379 2068 
Q 3634 1759 3634 1313 
Q 3634 634 3220 271 
Q 2806 -91 2034 -91 
Q 1263 -91 848 271 
Q 434 634 434 1313 
Q 434 1759 690 2068 
Q 947 2378 1403 2484 
z
M 1172 3481 
Q 1172 3119 1398 2916 
Q 1625 2713 2034 2713 
Q 2441 2713 2670 2916 
Q 2900 3119 2900 3481 
Q 2900 3844 2670 4047 
Q 2441 4250 2034 4250 
Q 1625 4250 1398 4047 
Q 1172 3844 1172 3481 
z
" transform="scale(0.015625)"/>
       </defs>
       <use xlink:href="#DejaVuSans-30"/>
       <use xlink:href="#DejaVuSans-2e" x="63.623047"/>
       <use xlink:href="#DejaVuSans-38" x="95.410156"/>
      </g>
     </g>
    </g>
    <g id="xtick_6">
     <g id="line2d_6">
      <g>
       <use xlink:href="#m7ae3e3cabe" x="438.07375" y="299.798125" style="stroke: #000000; stroke-width: 0.8"/>
      </g>
     </g>
     <g id="text_6">
      <!-- 1.0 -->
      <g transform="translate(430.122187 314.396563) scale(0.1 -0.1)">
       <defs>
        <path id="DejaVuSans-31" d="M 794 531 
L 1825 531 
L 1825 4091 
L 703 3866 
L 703 4441 
L 1819 4666 
L 2450 4666 
L 2450 531 
L 3481 531 
L 3481 0 
L 794 0 
L 794 531 
z
" transform="scale(0.015625)"/>
       </defs>
       <use xlink:href="#DejaVuSans-31"/>
       <use xlink:href="#DejaVuSans-2e" x="63.623047"/>
       <use xlink:href="#DejaVuSans-30" x="95.410156"/>
      </g>
     </g>
    </g>
    <g id="text_7">
     <!-- False Positive Rate -->
     <g transform="translate(194.461094 328.074688) scale(0.1 -0.1)">
      <defs>
       <path id="DejaVuSans-46" d="M 628 4666 
L 3309 4666 
L 3309 4134 
L 1259 4134 
L 1259 2759 
L 3109 2759 
L 3109 2228 
L 1259 2228 
L 1259 0 
L 628 0 
L 628 4666 
z
" transform="scale(0.015625)"/>
       <path id="DejaVuSans-61" d="M 2194 1759 
Q 1497 1759 1228 1600 
Q 959 1441 959 1056 
Q 959 750 1161 570 
Q 1363 391 1709 391 
Q 2188 391 2477 730 
Q 2766 1069 2766 1631 
L 2766 1759 
L 2194 1759 
z
M 3341 1997 
L 3341 0 
L 2766 0 
L 2766 531 
Q 2569 213 2275 61 
Q 1981 -91 1556 -91 
Q 1019 -91 701 211 
Q 384 513 384 1019 
Q 384 1609 779 1909 
Q 1175 2209 1959 2209 
L 2766 2209 
L 2766 2266 
Q 2766 2663 2505 2880 
Q 2244 3097 1772 3097 
Q 1472 3097 1187 3025 
Q 903 2953 641 2809 
L 641 3341 
Q 956 3463 1253 3523 
Q 1550 3584 1831 3584 
Q 2591 3584 2966 3190 
Q 3341 2797 3341 1997 
z
" transform="scale(0.015625)"/>
       <path id="DejaVuSans-6c" d="M 603 4863 
L 1178 4863 
L 1178 0 
L 603 0 
L 603 4863 
z
" transform="scale(0.015625)"/>
       <path id="DejaVuSans-73" d="M 2834 3397 
L 2834 2853 
Q 2591 2978 2328 3040 
Q 2066 3103 1784 3103 
Q 1356 3103 1142 2972 
Q 928 2841 928 2578 
Q 928 2378 1081 2264 
Q 1234 2150 1697 2047 
L 1894 2003 
Q 2506 1872 2764 1633 
Q 3022 1394 3022 966 
Q 3022 478 2636 193 
Q 2250 -91 1575 -91 
Q 1294 -91 989 -36 
Q 684 19 347 128 
L 347 722 
Q 666 556 975 473 
Q 1284 391 1588 391 
Q 1994 391 2212 530 
Q 2431 669 2431 922 
Q 2431 1156 2273 1281 
Q 2116 1406 1581 1522 
L 1381 1569 
Q 847 1681 609 1914 
Q 372 2147 372 2553 
Q 372 3047 722 3315 
Q 1072 3584 1716 3584 
Q 2034 3584 2315 3537 
Q 2597 3491 2834 3397 
z
" transform="scale(0.015625)"/>
       <path id="DejaVuSans-65" d="M 3597 1894 
L 3597 1613 
L 953 1613 
Q 991 1019 1311 708 
Q 1631 397 2203 397 
Q 2534 397 2845 478 
Q 3156 559 3463 722 
L 3463 178 
Q 3153 47 2828 -22 
Q 2503 -91 2169 -91 
Q 1331 -91 842 396 
Q 353 884 353 1716 
Q 353 2575 817 3079 
Q 1281 3584 2069 3584 
Q 2775 3584 3186 3129 
Q 3597 2675 3597 1894 
z
M 3022 2063 
Q 3016 2534 2758 2815 
Q 2500 3097 2075 3097 
Q 1594 3097 1305 2825 
Q 1016 2553 972 2059 
L 3022 2063 
z
" transform="scale(0.015625)"/>
       <path id="DejaVuSans-20" transform="scale(0.015625)"/>
       <path id="DejaVuSans-50" d="M 1259 4147 
L 1259 2394 
L 2053 2394 
Q 2494 2394 2734 2622 
Q 2975 2850 2975 3272 
Q 2975 3691 2734 3919 
Q 2494 4147 2053 4147 
L 1259 4147 
z
M 628 4666 
L 2053 4666 
Q 2838 4666 3239 4311 
Q 3641 3956 3641 3272 
Q 3641 2581 3239 2228 
Q 2838 1875 2053 1875 
L 1259 1875 
L 1259 0 
L 628 0 
L 628 4666 
z
" transform="scale(0.015625)"/>
       <path id="DejaVuSans-6f" d="M 1959 3097 
Q 1497 3097 1228 2736 
Q 959 2375 959 1747 
Q 959 1119 1226 758 
Q 1494 397 1959 397 
Q 2419 397 2687 759 
Q 2956 1122 2956 1747 
Q 2956 2369 2687 2733 
Q 2419 3097 1959 3097 
z
M 1959 3584 
Q 2709 3584 3137 3096 
Q 3566 2609 3566 1747 
Q 3566 888 3137 398 
Q 2709 -91 1959 -91 
Q 1206 -91 779 398 
Q 353 888 353 1747 
Q 353 2609 779 3096 
Q 1206 3584 1959 3584 
z
" transform="scale(0.015625)"/>
       <path id="DejaVuSans-69" d="M 603 3500 
L 1178 3500 
L 1178 0 
L 603 0 
L 603 3500 
z
M 603 4863 
L 1178 4863 
L 1178 4134 
L 603 4134 
L 603 4863 
z
" transform="scale(0.015625)"/>
       <path id="DejaVuSans-74" d="M 1172 4494 
L 1172 3500 
L 2356 3500 
L 2356 3053 
L 1172 3053 
L 1172 1153 
Q 1172 725 1289 603 
Q 1406 481 1766 481 
L 2356 481 
L 2356 0 
L 1766 0 
Q 1100 0 847 248 
Q 594 497 594 1153 
L 594 3053 
L 172 3053 
L 172 3500 
L 594 3500 
L 594 4494 
L 1172 4494 
z
" transform="scale(0.015625)"/>
       <path id="DejaVuSans-76" d="M 191 3500 
L 800 3500 
L 1894 563 
L 2988 3500 
L 3597 3500 
L 2284 0 
L 1503 0 
L 191 3500 
z
" transform="scale(0.015625)"/>
       <path id="DejaVuSans-52" d="M 2841 2188 
Q 3044 2119 3236 1894 
Q 3428 1669 3622 1275 
L 4263 0 
L 3584 0 
L 2988 1197 
Q 2756 1666 2539 1819 
Q 2322 1972 1947 1972 
L 1259 1972 
L 1259 0 
L 628 0 
L 628 4666 
L 2053 4666 
Q 2853 4666 3247 4331 
Q 3641 3997 3641 3322 
Q 3641 2881 3436 2590 
Q 3231 2300 2841 2188 
z
M 1259 4147 
L 1259 2491 
L 2053 2491 
Q 2509 2491 2742 2702 
Q 2975 2913 2975 3322 
Q 2975 3731 2742 3939 
Q 2509 4147 2053 4147 
L 1259 4147 
z
" transform="scale(0.015625)"/>
      </defs>
      <use xlink:href="#DejaVuSans-46"/>
      <use xlink:href="#DejaVuSans-61" x="48.394531"/>
      <use xlink:href="#DejaVuSans-6c" x="109.673828"/>
      <use xlink:href="#DejaVuSans-73" x="137.457031"/>
      <use xlink:href="#DejaVuSans-65" x="189.556641"/>
      <use xlink:href="#DejaVuSans-20" x="251.080078"/>
      <use xlink:href="#DejaVuSans-50" x="282.867188"/>
      <use xlink:href="#DejaVuSans-6f" x="339.544922"/>
      <use xlink:href="#DejaVuSans-73" x="400.726562"/>
      <use xlink:href="#DejaVuSans-69" x="452.826172"/>
      <use xlink:href="#DejaVuSans-74" x="480.609375"/>
      <use xlink:href="#DejaVuSans-69" x="519.818359"/>
      <use xlink:href="#DejaVuSans-76" x="547.601562"/>
      <use xlink:href="#DejaVuSans-65" x="606.78125"/>
      <use xlink:href="#DejaVuSans-20" x="668.304688"/>
      <use xlink:href="#DejaVuSans-52" x="700.091797"/>
      <use xlink:href="#DejaVuSans-61" x="767.324219"/>
      <use xlink:href="#DejaVuSans-74" x="828.603516"/>
      <use xlink:href="#DejaVuSans-65" x="867.8125"/>
     </g>
    </g>
   </g>
   <g id="matplotlib.axis_2">
    <g id="ytick_1">
     <g id="line2d_7">
      <defs>
       <path id="medd41ef389" d="M 0 0 
L -3.5 0 
" style="stroke: #000000; stroke-width: 0.8"/>
      </defs>
      <g>
       <use xlink:href="#medd41ef389" x="43.78125" y="299.798125" style="stroke: #000000; stroke-width: 0.8"/>
      </g>
     </g>
     <g id="text_8">
      <!-- 0.0 -->
      <g transform="translate(20.878125 303.597344) scale(0.1 -0.1)">
       <use xlink:href="#DejaVuSans-30"/>
       <use xlink:href="#DejaVuSans-2e" x="63.623047"/>
       <use xlink:href="#DejaVuSans-30" x="95.410156"/>
      </g>
     </g>
    </g>
    <g id="ytick_2">
     <g id="line2d_8">
      <g>
       <use xlink:href="#medd41ef389" x="43.78125" y="246.944792" style="stroke: #000000; stroke-width: 0.8"/>
      </g>
     </g>
     <g id="text_9">
      <!-- 0.2 -->
      <g transform="translate(20.878125 250.74401) scale(0.1 -0.1)">
       <use xlink:href="#DejaVuSans-30"/>
       <use xlink:href="#DejaVuSans-2e" x="63.623047"/>
       <use xlink:href="#DejaVuSans-32" x="95.410156"/>
      </g>
     </g>
    </g>
    <g id="ytick_3">
     <g id="line2d_9">
      <g>
       <use xlink:href="#medd41ef389" x="43.78125" y="194.091458" style="stroke: #000000; stroke-width: 0.8"/>
      </g>
     </g>
     <g id="text_10">
      <!-- 0.4 -->
      <g transform="translate(20.878125 197.890677) scale(0.1 -0.1)">
       <use xlink:href="#DejaVuSans-30"/>
       <use xlink:href="#DejaVuSans-2e" x="63.623047"/>
       <use xlink:href="#DejaVuSans-34" x="95.410156"/>
      </g>
     </g>
    </g>
    <g id="ytick_4">
     <g id="line2d_10">
      <g>
       <use xlink:href="#medd41ef389" x="43.78125" y="141.238125" style="stroke: #000000; stroke-width: 0.8"/>
      </g>
     </g>
     <g id="text_11">
      <!-- 0.6 -->
      <g transform="translate(20.878125 145.037344) scale(0.1 -0.1)">
       <use xlink:href="#DejaVuSans-30"/>
       <use xlink:href="#DejaVuSans-2e" x="63.623047"/>
       <use xlink:href="#DejaVuSans-36" x="95.410156"/>
      </g>
     </g>
    </g>
    <g id="ytick_5">
     <g id="line2d_11">
      <g>
       <use xlink:href="#medd41ef389" x="43.78125" y="88.384792" style="stroke: #000000; stroke-width: 0.8"/>
      </g>
     </g>
     <g id="text_12">
      <!-- 0.8 -->
      <g transform="translate(20.878125 92.18401) scale(0.1 -0.1)">
       <use xlink:href="#DejaVuSans-30"/>
       <use xlink:href="#DejaVuSans-2e" x="63.623047"/>
       <use xlink:href="#DejaVuSans-38" x="95.410156"/>
      </g>
     </g>
    </g>
    <g id="ytick_6">
     <g id="line2d_12">
      <g>
       <use xlink:href="#medd41ef389" x="43.78125" y="35.531458" style="stroke: #000000; stroke-width: 0.8"/>
      </g>
     </g>
     <g id="text_13">
      <!-- 1.0 -->
      <g transform="translate(20.878125 39.330677) scale(0.1 -0.1)">
       <use xlink:href="#DejaVuSans-31"/>
       <use xlink:href="#DejaVuSans-2e" x="63.623047"/>
       <use xlink:href="#DejaVuSans-30" x="95.410156"/>
      </g>
     </g>
    </g>
    <g id="text_14">
     <!-- True Positive Rate -->
     <g transform="translate(14.798438 205.587813) rotate(-90) scale(0.1 -0.1)">
      <defs>
       <path id="DejaVuSans-54" d="M -19 4666 
L 3928 4666 
L 3928 4134 
L 2272 4134 
L 2272 0 
L 1638 0 
L 1638 4134 
L -19 4134 
L -19 4666 
z
" transform="scale(0.015625)"/>
       <path id="DejaVuSans-72" d="M 2631 2963 
Q 2534 3019 2420 3045 
Q 2306 3072 2169 3072 
Q 1681 3072 1420 2755 
Q 1159 2438 1159 1844 
L 1159 0 
L 581 0 
L 581 3500 
L 1159 3500 
L 1159 2956 
Q 1341 3275 1631 3429 
Q 1922 3584 2338 3584 
Q 2397 3584 2469 3576 
Q 2541 3569 2628 3553 
L 2631 2963 
z
" transform="scale(0.015625)"/>
       <path id="DejaVuSans-75" d="M 544 1381 
L 544 3500 
L 1119 3500 
L 1119 1403 
Q 1119 906 1312 657 
Q 1506 409 1894 409 
Q 2359 409 2629 706 
Q 2900 1003 2900 1516 
L 2900 3500 
L 3475 3500 
L 3475 0 
L 2900 0 
L 2900 538 
Q 2691 219 2414 64 
Q 2138 -91 1772 -91 
Q 1169 -91 856 284 
Q 544 659 544 1381 
z
M 1991 3584 
L 1991 3584 
z
" transform="scale(0.015625)"/>
      </defs>
      <use xlink:href="#DejaVuSans-54"/>
      <use xlink:href="#DejaVuSans-72" x="46.333984"/>
      <use xlink:href="#DejaVuSans-75" x="87.447266"/>
      <use xlink:href="#DejaVuSans-65" x="150.826172"/>
      <use xlink:href="#DejaVuSans-20" x="212.349609"/>
      <use xlink:href="#DejaVuSans-50" x="244.136719"/>
      <use xlink:href="#DejaVuSans-6f" x="300.814453"/>
      <use xlink:href="#DejaVuSans-73" x="361.996094"/>
      <use xlink:href="#DejaVuSans-69" x="414.095703"/>
      <use xlink:href="#DejaVuSans-74" x="441.878906"/>
      <use xlink:href="#DejaVuSans-69" x="481.087891"/>
      <use xlink:href="#DejaVuSans-76" x="508.871094"/>
      <use xlink:href="#DejaVuSans-65" x="568.050781"/>
      <use xlink:href="#DejaVuSans-20" x="629.574219"/>
      <use xlink:href="#DejaVuSans-52" x="661.361328"/>
      <use xlink:href="#DejaVuSans-61" x="728.59375"/>
      <use xlink:href="#DejaVuSans-74" x="789.873047"/>
      <use xlink:href="#DejaVuSans-65" x="829.082031"/>
     </g>
    </g>
   </g>
   <g id="line2d_13">
    <path d="M 43.78125 299.798125 
L 43.78125 298.756064 
L 44.030172 298.756064 
L 44.030172 297.922415 
L 44.279094 297.922415 
L 44.279094 297.505591 
L 44.528016 297.505591 
L 44.528016 294.58782 
L 44.776938 294.58782 
L 44.776938 291.461637 
L 45.02586 291.461637 
L 45.02586 288.127042 
L 45.274782 288.127042 
L 45.274782 283.125149 
L 45.523704 283.125149 
L 45.523704 282.708325 
L 45.772626 282.708325 
L 45.772626 282.2915 
L 46.021548 282.2915 
L 46.021548 279.37373 
L 46.27047 279.37373 
L 46.27047 277.706432 
L 46.519392 277.706432 
L 46.519392 277.289608 
L 46.768314 277.289608 
L 46.768314 277.081195 
L 47.017236 277.081195 
L 47.017236 271.870891 
L 47.266158 271.870891 
L 47.266158 270.412005 
L 48.012925 270.412005 
L 48.012925 268.744708 
L 48.261847 268.744708 
L 48.261847 268.327883 
L 48.510769 268.327883 
L 48.510769 264.784876 
L 48.759691 264.784876 
L 48.759691 264.368051 
L 49.008613 264.368051 
L 49.008613 262.909166 
L 49.257535 262.909166 
L 49.257535 262.492342 
L 49.506457 262.492342 
L 49.506457 260.40822 
L 49.755379 260.40822 
L 49.755379 258.115685 
L 50.004301 258.115685 
L 50.004301 257.490449 
L 50.502145 257.490449 
L 50.502145 255.406327 
L 50.751067 255.406327 
L 50.751067 253.113793 
L 50.999989 253.113793 
L 50.999989 248.737137 
L 51.248911 248.737137 
L 51.248911 246.653015 
L 51.497833 246.653015 
L 51.497833 246.444602 
L 51.995677 246.444602 
L 51.995677 244.777305 
L 52.244599 244.777305 
L 52.244599 243.735244 
L 52.493521 243.735244 
L 52.493521 243.110007 
L 52.742443 243.110007 
L 52.742443 241.44271 
L 53.240287 241.44271 
L 53.240287 241.234297 
L 53.738131 241.234297 
L 53.738131 240.400649 
L 53.987053 240.400649 
L 53.987053 239.983824 
L 54.235975 239.983824 
L 54.235975 237.482878 
L 54.733819 237.482878 
L 54.733819 236.649229 
L 55.231664 236.649229 
L 55.231664 235.607168 
L 55.480586 235.607168 
L 55.480586 234.773519 
L 55.729508 234.773519 
L 55.729508 234.565107 
L 55.97843 234.565107 
L 55.97843 233.731458 
L 56.227352 233.731458 
L 56.227352 231.230512 
L 56.476274 231.230512 
L 56.476274 230.813688 
L 56.725196 230.813688 
L 56.725196 230.605275 
L 57.22304 230.605275 
L 57.22304 229.354802 
L 57.720884 229.354802 
L 57.720884 227.687505 
L 57.969806 227.687505 
L 57.969806 227.062268 
L 58.46765 227.062268 
L 58.46765 226.645444 
L 58.716572 226.645444 
L 58.716572 226.437031 
L 58.965494 226.437031 
L 58.965494 225.811795 
L 59.214416 225.811795 
L 59.214416 224.144497 
L 59.463338 224.144497 
L 59.463338 223.936085 
L 59.71226 223.936085 
L 59.71226 223.727673 
L 60.459026 223.727673 
L 60.459026 223.519261 
L 60.707948 223.519261 
L 60.707948 223.102436 
L 60.95687 223.102436 
L 60.95687 221.435139 
L 61.205792 221.435139 
L 61.205792 221.018314 
L 61.454714 221.018314 
L 61.454714 220.393078 
L 61.703636 220.393078 
L 61.703636 219.976253 
L 61.952558 219.976253 
L 61.952558 219.351017 
L 62.450402 219.351017 
L 62.450402 216.641658 
L 62.699324 216.641658 
L 62.699324 216.433246 
L 63.446091 216.433246 
L 63.446091 214.557536 
L 63.695013 214.557536 
L 63.695013 213.9323 
L 64.192857 213.9323 
L 64.192857 212.265002 
L 64.690701 212.265002 
L 64.690701 211.848178 
L 64.939623 211.848178 
L 64.939623 211.222941 
L 65.188545 211.222941 
L 65.188545 211.014529 
L 65.437467 211.014529 
L 65.437467 210.806117 
L 65.686389 210.806117 
L 65.686389 209.972468 
L 65.935311 209.972468 
L 65.935311 209.764056 
L 66.184233 209.764056 
L 66.184233 209.555643 
L 66.433155 209.555643 
L 66.433155 209.347231 
L 66.930999 209.347231 
L 66.930999 208.721995 
L 67.428843 208.721995 
L 67.428843 208.30517 
L 67.677765 208.30517 
L 67.677765 208.096758 
L 67.926687 208.096758 
L 67.926687 207.054697 
L 68.424531 207.054697 
L 68.424531 205.804224 
L 68.673453 205.804224 
L 68.673453 204.970575 
L 68.922375 204.970575 
L 68.922375 204.553751 
L 69.171297 204.553751 
L 69.171297 203.094865 
L 69.420219 203.094865 
L 69.420219 202.886453 
L 69.669141 202.886453 
L 69.669141 202.469629 
L 70.166985 202.469629 
L 70.166985 199.76027 
L 70.415908 199.76027 
L 70.415908 199.135034 
L 70.66483 199.135034 
L 70.66483 198.926621 
L 70.913752 198.926621 
L 70.913752 198.718209 
L 71.411596 198.718209 
L 71.411596 198.092973 
L 71.660518 198.092973 
L 71.660518 197.88456 
L 72.158362 197.88456 
L 72.158362 197.467736 
L 72.656206 197.467736 
L 72.656206 195.592026 
L 72.905128 195.592026 
L 72.905128 195.383614 
L 73.402972 195.383614 
L 73.402972 195.175202 
L 73.651894 195.175202 
L 73.651894 193.716316 
L 74.149738 193.716316 
L 74.149738 193.507904 
L 74.647582 193.507904 
L 74.647582 193.299492 
L 74.896504 193.299492 
L 74.896504 192.882668 
L 75.394348 192.882668 
L 75.394348 192.674255 
L 75.64327 192.674255 
L 75.64327 192.049019 
L 75.892192 192.049019 
L 75.892192 191.423782 
L 76.141114 191.423782 
L 76.141114 191.21537 
L 76.390036 191.21537 
L 76.390036 190.173309 
L 76.638958 190.173309 
L 76.638958 189.964897 
L 76.88788 189.964897 
L 76.88788 188.922836 
L 77.136802 188.922836 
L 77.136802 187.880775 
L 78.132491 187.880775 
L 78.132491 187.047126 
L 78.381413 187.047126 
L 78.381413 186.630302 
L 79.128179 186.630302 
L 79.128179 186.421889 
L 79.874945 186.421889 
L 79.874945 185.588241 
L 80.123867 185.588241 
L 80.123867 185.171416 
L 80.372789 185.171416 
L 80.372789 184.337767 
L 80.621711 184.337767 
L 80.621711 184.129355 
L 80.870633 184.129355 
L 80.870633 182.67047 
L 81.119555 182.67047 
L 81.119555 181.836821 
L 81.368477 181.836821 
L 81.368477 181.419997 
L 81.617399 181.419997 
L 81.617399 179.752699 
L 81.866321 179.752699 
L 81.866321 179.544287 
L 82.364165 179.544287 
L 82.364165 179.127463 
L 82.613087 179.127463 
L 82.613087 178.91905 
L 82.862009 178.91905 
L 82.862009 177.876989 
L 83.110931 177.876989 
L 83.110931 177.460165 
L 84.106619 177.460165 
L 84.106619 177.251753 
L 84.355541 177.251753 
L 84.355541 176.209692 
L 84.853385 176.209692 
L 84.853385 176.00128 
L 85.102307 176.00128 
L 85.102307 175.792867 
L 85.351229 175.792867 
L 85.351229 175.584455 
L 85.849074 175.584455 
L 85.849074 175.167631 
L 86.097996 175.167631 
L 86.097996 174.959219 
L 86.59584 174.959219 
L 86.59584 173.708745 
L 86.844762 173.708745 
L 86.844762 172.24986 
L 87.342606 172.24986 
L 87.342606 171.833036 
L 87.591528 171.833036 
L 87.591528 171.207799 
L 88.089372 171.207799 
L 88.089372 170.999387 
L 88.587216 170.999387 
L 88.587216 170.790975 
L 89.08506 170.790975 
L 89.08506 170.37415 
L 89.333982 170.37415 
L 89.333982 169.957326 
L 89.582904 169.957326 
L 89.582904 169.332089 
L 89.831826 169.332089 
L 89.831826 168.706853 
L 90.080748 168.706853 
L 90.080748 167.873204 
L 90.32967 167.873204 
L 90.32967 167.664792 
L 90.578592 167.664792 
L 90.578592 166.622731 
L 91.076436 166.622731 
L 91.076436 165.789082 
L 91.325358 165.789082 
L 91.325358 165.58067 
L 91.57428 165.58067 
L 91.57428 165.372257 
L 91.823202 165.163845 
L 91.823202 164.538609 
L 92.321046 164.538609 
L 92.321046 163.913372 
L 92.81889 163.913372 
L 92.81889 163.079723 
L 93.067813 163.079723 
L 93.067813 162.246075 
L 93.814579 162.246075 
L 93.814579 162.037662 
L 94.312423 162.037662 
L 94.312423 161.412426 
L 95.308111 161.412426 
L 95.308111 161.204014 
L 95.557033 161.204014 
L 95.557033 160.995601 
L 96.054877 160.995601 
L 96.054877 160.370365 
L 96.303799 160.370365 
L 96.303799 159.95354 
L 97.797331 159.95354 
L 97.797331 159.119892 
L 98.295175 159.119892 
L 98.295175 158.494655 
L 98.544097 158.494655 
L 98.544097 157.244182 
L 99.041941 157.244182 
L 99.041941 156.618945 
L 99.788707 156.618945 
L 99.788707 156.410533 
L 100.286551 156.410533 
L 100.286551 155.993709 
L 100.535473 155.993709 
L 100.535473 155.785296 
L 101.531162 155.785296 
L 101.531162 155.368472 
L 101.780084 155.368472 
L 101.780084 154.951648 
L 102.52685 154.951648 
L 102.52685 154.743235 
L 103.024694 154.743235 
L 103.024694 154.326411 
L 103.273616 154.326411 
L 103.273616 152.867526 
L 103.522538 152.867526 
L 103.522538 152.659113 
L 103.77146 152.659113 
L 103.77146 152.450701 
L 104.020382 152.450701 
L 104.020382 152.242289 
L 104.269304 152.242289 
L 104.269304 151.200228 
L 104.767148 151.200228 
L 104.767148 150.574991 
L 105.762836 150.574991 
L 105.762836 150.366579 
L 106.26068 150.366579 
L 106.26068 150.158167 
L 106.509602 150.158167 
L 106.509602 149.116106 
L 106.758524 149.116106 
L 106.758524 148.490869 
L 107.007446 148.490869 
L 107.007446 148.282457 
L 107.256368 148.282457 
L 107.256368 147.865633 
L 107.50529 147.865633 
L 107.50529 147.657221 
L 107.754212 147.657221 
L 107.754212 147.448808 
L 108.003134 147.448808 
L 108.003134 147.031984 
L 108.252057 147.031984 
L 108.252057 146.198335 
L 108.998823 146.198335 
L 108.998823 145.781511 
L 109.496667 145.781511 
L 109.496667 145.573099 
L 111.239121 145.573099 
L 111.239121 145.156274 
L 111.488043 145.156274 
L 111.488043 144.114213 
L 111.985887 144.114213 
L 111.985887 143.488977 
L 112.234809 143.488977 
L 112.234809 143.280565 
L 112.732653 143.280565 
L 112.732653 142.446916 
L 112.981575 142.446916 
L 112.981575 142.030091 
L 113.230497 142.030091 
L 113.230497 141.821679 
L 113.728341 141.821679 
L 113.728341 140.98803 
L 114.226185 140.98803 
L 114.226185 139.945969 
L 114.475107 139.945969 
L 114.475107 139.320733 
L 114.724029 139.320733 
L 114.724029 138.903908 
L 114.972951 138.903908 
L 114.972951 138.695496 
L 115.221873 138.695496 
L 115.221873 138.07026 
L 116.217562 138.07026 
L 116.217562 137.861847 
L 117.960016 137.861847 
L 117.960016 137.653435 
L 118.208938 137.653435 
L 118.208938 137.445023 
L 119.453548 137.445023 
L 119.453548 137.028199 
L 119.70247 137.028199 
L 119.70247 136.402962 
L 120.200314 136.402962 
L 120.200314 135.569313 
L 120.94708 135.569313 
L 120.94708 134.944077 
L 121.693846 134.944077 
L 121.693846 134.527252 
L 122.938456 134.527252 
L 122.938456 134.31884 
L 123.436301 134.31884 
L 123.436301 134.110428 
L 124.183067 134.110428 
L 124.183067 133.693603 
L 125.427677 133.693603 
L 125.427677 132.44313 
L 126.174443 132.44313 
L 126.174443 132.234718 
L 127.916897 132.234718 
L 127.916897 132.026306 
L 128.414741 132.026306 
L 128.414741 131.609481 
L 128.912585 131.609481 
L 128.912585 130.56742 
L 129.161507 130.56742 
L 129.161507 130.359008 
L 129.659351 130.359008 
L 129.659351 130.150596 
L 130.157195 130.150596 
L 130.157195 129.942184 
L 130.406117 129.942184 
L 130.406117 129.733772 
L 130.655039 129.733772 
L 130.655039 129.316947 
L 130.903961 129.316947 
L 130.903961 128.900123 
L 131.152884 128.900123 
L 131.152884 128.691711 
L 131.401806 128.691711 
L 131.401806 128.274886 
L 131.650728 128.274886 
L 131.650728 128.066474 
L 132.148572 128.066474 
L 132.148572 127.64965 
L 132.397494 127.64965 
L 132.397494 127.024413 
L 132.646416 127.024413 
L 132.646416 126.816001 
L 132.895338 126.816001 
L 132.895338 126.607589 
L 133.642104 126.607589 
L 133.642104 126.190764 
L 133.891026 126.190764 
L 133.891026 125.982352 
L 134.139948 125.982352 
L 134.139948 125.77394 
L 135.135636 125.77394 
L 135.135636 125.565528 
L 135.63348 125.565528 
L 135.63348 125.357116 
L 135.882402 125.357116 
L 135.882402 125.148703 
L 136.131324 125.148703 
L 136.131324 124.523467 
L 137.127012 124.523467 
L 137.127012 124.315055 
L 137.375934 124.315055 
L 137.375934 123.89823 
L 137.624856 123.89823 
L 137.624856 123.272994 
L 137.873778 123.272994 
L 137.873778 123.064581 
L 138.620545 123.064581 
L 138.620545 122.856169 
L 140.114077 122.856169 
L 140.114077 122.439345 
L 140.362999 122.439345 
L 140.362999 122.230933 
L 140.611921 122.230933 
L 140.611921 122.02252 
L 141.358687 122.02252 
L 141.358687 121.814108 
L 141.856531 121.814108 
L 141.856531 120.772047 
L 142.105453 120.772047 
L 142.105453 120.146811 
L 142.354375 120.146811 
L 142.354375 119.729986 
L 143.101141 119.729986 
L 143.101141 119.521574 
L 143.350063 119.521574 
L 143.350063 119.10475 
L 143.847907 119.10475 
L 143.847907 118.896337 
L 144.594673 118.896337 
L 144.594673 118.687925 
L 145.341439 118.687925 
L 145.341439 118.479513 
L 145.839283 118.479513 
L 145.839283 117.645864 
L 146.834972 117.645864 
L 146.834972 117.22904 
L 147.83066 117.22904 
L 147.83066 116.603803 
L 148.328504 116.603803 
L 148.328504 116.395391 
L 148.577426 116.395391 
L 148.577426 115.978567 
L 149.07527 115.978567 
L 149.07527 115.770154 
L 149.822036 115.770154 
L 149.822036 115.561742 
L 150.070958 115.561742 
L 150.070958 115.35333 
L 150.817724 115.35333 
L 150.817724 114.728093 
L 151.315568 114.728093 
L 151.315568 114.102857 
L 151.56449 114.102857 
L 151.56449 113.269208 
L 152.062334 113.269208 
L 152.062334 113.060796 
L 154.551555 113.060796 
L 154.551555 112.852384 
L 155.298321 112.852384 
L 155.298321 112.435559 
L 155.547243 112.435559 
L 155.547243 112.018735 
L 155.796165 112.018735 
L 155.796165 111.810323 
L 156.294009 111.810323 
L 156.294009 111.60191 
L 156.542931 111.60191 
L 156.542931 111.393498 
L 157.289697 111.393498 
L 157.289697 111.185086 
L 160.027839 111.185086 
L 160.027839 110.768262 
L 161.272449 110.768262 
L 161.272449 109.934613 
L 162.019216 109.934613 
L 162.019216 109.517789 
L 162.268138 109.517789 
L 162.268138 109.100964 
L 162.51706 109.100964 
L 162.51706 108.267315 
L 163.512748 108.267315 
L 163.512748 108.058903 
L 163.76167 108.058903 
L 163.76167 107.642079 
L 164.508436 107.642079 
L 164.508436 107.433667 
L 164.757358 107.433667 
L 164.757358 107.225254 
L 165.00628 107.225254 
L 165.00628 107.016842 
L 165.255202 107.016842 
L 165.255202 106.391606 
L 165.753046 106.391606 
L 165.753046 106.183193 
L 166.001968 106.183193 
L 166.001968 105.974781 
L 166.499812 105.974781 
L 166.499812 105.557957 
L 166.748734 105.557957 
L 166.748734 105.141132 
L 167.246578 105.141132 
L 167.246578 104.099071 
L 167.744422 104.099071 
L 167.744422 103.890659 
L 167.993344 103.890659 
L 167.993344 103.682247 
L 168.242266 103.682247 
L 168.242266 103.473835 
L 168.74011 103.473835 
L 168.74011 102.223362 
L 169.237955 102.223362 
L 169.237955 102.014949 
L 169.735799 102.014949 
L 169.735799 101.806537 
L 169.984721 101.806537 
L 169.984721 101.598125 
L 170.233643 101.598125 
L 170.233643 101.389713 
L 170.482565 101.389713 
L 170.482565 100.972888 
L 171.229331 100.972888 
L 171.229331 100.764476 
L 171.478253 100.764476 
L 171.478253 100.556064 
L 171.727175 100.556064 
L 171.727175 99.930827 
L 172.225019 99.930827 
L 172.225019 99.722415 
L 172.473941 99.722415 
L 172.473941 99.514003 
L 173.220707 99.514003 
L 173.220707 99.305591 
L 173.718551 99.305591 
L 173.718551 98.888766 
L 173.967473 98.888766 
L 173.967473 98.680354 
L 174.465317 98.680354 
L 174.465317 98.26353 
L 174.714239 98.26353 
L 174.714239 98.055118 
L 176.207771 98.055118 
L 176.207771 97.638293 
L 176.954538 97.638293 
L 176.954538 97.429881 
L 178.696992 97.429881 
L 178.696992 97.221469 
L 179.69268 97.221469 
L 179.69268 96.596232 
L 180.190524 96.596232 
L 180.190524 96.38782 
L 180.439446 96.38782 
L 180.439446 96.179408 
L 180.93729 96.179408 
L 180.93729 95.970996 
L 182.679744 95.970996 
L 182.679744 95.762583 
L 183.42651 95.762583 
L 183.42651 95.554171 
L 184.422199 95.554171 
L 184.422199 95.345759 
L 184.671121 95.345759 
L 184.671121 95.137347 
L 184.920043 95.137347 
L 184.920043 94.928935 
L 185.915731 94.928935 
L 185.915731 94.720522 
L 186.164653 94.720522 
L 186.164653 94.303698 
L 186.413575 94.303698 
L 186.413575 94.095286 
L 186.662497 94.095286 
L 186.662497 93.678461 
L 188.156029 93.678461 
L 188.156029 93.053225 
L 188.404951 93.053225 
L 188.404951 92.844813 
L 188.653873 92.844813 
L 188.653873 92.427988 
L 188.902795 92.427988 
L 188.902795 92.011164 
L 189.151717 92.011164 
L 189.151717 91.59434 
L 191.143093 91.59434 
L 191.143093 91.177515 
L 191.392015 91.177515 
L 191.392015 90.343866 
L 191.88986 90.343866 
L 191.88986 89.927042 
L 192.138782 89.927042 
L 192.138782 89.093393 
L 192.885548 89.093393 
L 192.885548 88.884981 
L 195.125846 88.884981 
L 195.125846 88.676569 
L 196.370456 88.676569 
L 196.370456 88.051332 
L 196.8683 88.051332 
L 196.8683 87.84292 
L 197.366144 87.84292 
L 197.366144 87.634508 
L 197.615066 87.634508 
L 197.615066 87.217683 
L 198.361832 87.217683 
L 198.361832 87.009271 
L 199.357521 87.009271 
L 199.357521 86.800859 
L 201.099975 86.800859 
L 201.099975 86.592447 
L 201.348897 86.592447 
L 201.597819 86.384035 
L 202.344585 86.384035 
L 202.344585 86.175622 
L 202.593507 86.175622 
L 202.593507 85.96721 
L 202.842429 85.96721 
L 202.842429 85.758798 
L 203.589195 85.758798 
L 203.589195 84.925149 
L 204.833805 84.925149 
L 204.833805 84.716737 
L 205.829493 84.716737 
L 205.829493 84.508325 
L 206.327337 84.508325 
L 206.327337 84.299913 
L 206.576259 84.299913 
L 206.576259 84.0915 
L 208.069792 84.0915 
L 208.069792 83.883088 
L 209.563324 83.883088 
L 209.563324 83.674676 
L 209.812246 83.674676 
L 209.812246 83.466264 
L 210.061168 83.466264 
L 210.061168 83.049439 
L 210.31009 83.049439 
L 210.31009 82.841027 
L 210.807934 82.841027 
L 210.807934 82.424203 
L 211.056856 82.424203 
L 211.056856 82.215791 
L 211.803622 82.215791 
L 211.803622 82.007378 
L 212.052544 82.007378 
L 212.052544 81.798966 
L 213.048232 81.798966 
L 213.048232 81.382142 
L 213.546076 81.382142 
L 213.546076 80.965317 
L 214.541765 80.965317 
L 214.541765 80.756905 
L 215.039609 80.756905 
L 215.039609 80.548493 
L 216.035297 80.548493 
L 216.035297 80.340081 
L 216.782063 80.340081 
L 216.782063 80.131669 
L 217.279907 80.131669 
L 217.279907 79.923256 
L 217.528829 79.923256 
L 217.528829 79.506432 
L 218.524517 79.506432 
L 218.524517 79.29802 
L 219.022361 79.29802 
L 219.022361 79.089608 
L 220.764815 79.089608 
L 220.764815 78.881195 
L 221.511581 78.881195 
L 221.511581 78.672783 
L 221.760503 78.672783 
L 221.760503 78.464371 
L 222.258348 78.464371 
L 222.258348 78.255959 
L 222.756192 78.255959 
L 222.756192 77.630722 
L 223.005114 77.630722 
L 223.005114 77.213898 
L 223.75188 77.213898 
L 223.75188 76.588661 
L 225.245412 76.588661 
L 225.245412 76.380249 
L 225.494334 76.380249 
L 225.494334 76.171837 
L 225.743256 76.171837 
L 225.743256 75.5466 
L 225.992178 75.5466 
L 225.992178 75.338188 
L 226.2411 75.338188 
L 226.2411 74.921364 
L 227.48571 74.921364 
L 227.48571 74.712951 
L 228.481398 74.712951 
L 228.481398 74.504539 
L 229.477086 74.504539 
L 229.477086 74.296127 
L 232.713073 74.296127 
L 232.713073 74.087715 
L 233.708761 74.087715 
L 233.708761 73.879303 
L 234.455527 73.879303 
L 234.455527 73.462478 
L 235.949059 73.462478 
L 235.949059 73.254066 
L 237.19367 73.254066 
L 237.19367 73.045654 
L 238.43828 73.045654 
L 238.43828 72.837242 
L 240.180734 72.837242 
L 240.180734 72.62883 
L 242.17211 72.62883 
L 242.17211 72.420417 
L 242.918876 72.420417 
L 242.918876 72.003593 
L 244.163486 72.003593 
L 244.163486 71.795181 
L 245.159175 71.795181 
L 245.159175 71.586769 
L 245.408097 71.586769 
L 245.408097 71.169944 
L 245.905941 71.169944 
L 245.905941 70.961532 
L 246.403785 70.961532 
L 246.403785 70.544708 
L 247.648395 70.544708 
L 247.648395 70.336295 
L 247.897317 70.336295 
L 247.897317 70.127883 
L 248.146239 70.127883 
L 248.146239 69.919471 
L 248.644083 69.919471 
L 248.644083 69.502647 
L 249.390849 69.502647 
L 249.390849 69.294234 
L 252.377914 69.294234 
L 252.377914 68.87741 
L 253.12468 68.87741 
L 253.12468 68.668998 
L 254.36929 68.668998 
L 254.36929 68.252173 
L 256.111744 68.252173 
L 256.111744 68.043761 
L 258.10312 68.043761 
L 258.10312 67.835349 
L 261.836951 67.835349 
L 261.836951 67.626937 
L 262.334795 67.626937 
L 262.334795 67.418525 
L 262.832639 67.418525 
L 262.832639 67.210112 
L 263.579405 67.210112 
L 263.828327 67.0017 
L 267.313235 67.0017 
L 267.313235 66.793288 
L 267.562158 66.793288 
L 267.562158 66.584876 
L 267.81108 66.584876 
L 267.81108 66.376464 
L 268.557846 66.376464 
L 268.557846 65.751227 
L 269.553534 65.751227 
L 269.553534 65.542815 
L 270.051378 65.542815 
L 270.051378 65.12599 
L 274.780896 65.12599 
L 274.780896 64.917578 
L 275.776585 64.917578 
L 275.776585 64.709166 
L 277.021195 64.709166 
L 277.021195 64.500754 
L 277.270117 64.500754 
L 277.270117 64.292342 
L 277.767961 64.292342 
L 277.767961 64.083929 
L 279.759337 64.083929 
L 279.759337 63.875517 
L 280.257181 63.875517 
L 280.257181 63.458693 
L 280.506103 63.458693 
L 280.506103 63.250281 
L 282.746402 63.250281 
L 282.746402 62.833456 
L 283.244246 62.833456 
L 283.244246 62.625044 
L 284.9867 62.625044 
L 284.9867 62.416632 
L 289.218374 62.416632 
L 289.218374 62.20822 
L 289.96514 62.20822 
L 289.96514 61.999807 
L 290.462985 61.999807 
L 290.462985 61.791395 
L 292.454361 61.791395 
L 292.454361 61.582983 
L 293.698971 61.582983 
L 293.698971 61.166159 
L 294.694659 61.166159 
L 294.694659 60.749334 
L 295.441425 60.749334 
L 295.441425 60.540922 
L 296.188191 60.540922 
L 296.188191 60.33251 
L 296.686035 60.33251 
L 296.686035 60.124098 
L 296.934957 60.124098 
L 296.934957 59.498861 
L 299.175256 59.498861 
L 299.175256 59.290449 
L 299.424178 59.290449 
L 299.424178 59.082037 
L 299.6731 59.082037 
L 299.6731 58.873624 
L 300.419866 58.873624 
L 300.419866 58.665212 
L 301.166632 58.665212 
L 301.166632 58.4568 
L 301.913398 58.4568 
L 301.913398 58.248388 
L 302.16232 58.248388 
L 302.16232 57.831563 
L 302.660164 57.831563 
L 302.660164 57.623151 
L 303.158008 57.623151 
L 303.158008 57.414739 
L 307.638605 57.414739 
L 307.638605 57.206327 
L 307.887527 56.997915 
L 308.136449 56.997915 
L 308.136449 56.789502 
L 310.874591 56.789502 
L 310.874591 56.58109 
L 311.870279 56.58109 
L 312.119201 56.372678 
L 312.368123 56.372678 
L 312.368123 56.164266 
L 312.865967 56.164266 
L 312.865967 55.955854 
L 313.363812 55.955854 
L 313.363812 55.747442 
L 315.106266 55.747442 
L 315.106266 55.539029 
L 317.346564 55.539029 
L 317.346564 55.122205 
L 319.835784 55.122205 
L 319.835784 54.913793 
L 324.565303 54.913793 
L 324.565303 54.705381 
L 325.560991 54.705381 
L 325.560991 54.080144 
L 325.809913 54.080144 
L 325.809913 53.871732 
L 326.805601 53.871732 
L 326.805601 53.246495 
L 328.796978 53.246495 
L 328.796978 53.038083 
L 330.539432 53.038083 
L 330.539432 52.829671 
L 330.788354 52.829671 
L 330.788354 52.621259 
L 331.53512 52.621259 
L 332.032964 52.412846 
L 332.032964 52.204434 
L 334.02434 52.204434 
L 334.02434 51.78761 
L 337.509249 51.78761 
L 337.509249 51.370785 
L 340.247391 51.370785 
L 340.247391 51.162373 
L 340.745235 51.162373 
L 340.745235 50.953961 
L 342.736611 50.953961 
L 342.736611 50.745549 
L 343.234455 50.745549 
L 343.234455 50.537137 
L 344.727988 50.537137 
L 344.727988 50.328724 
L 345.225832 50.328724 
L 345.225832 50.120312 
L 345.972598 50.120312 
L 345.972598 49.9119 
L 346.968286 49.9119 
L 346.968286 49.703488 
L 347.217208 49.703488 
L 347.217208 49.495076 
L 348.959662 49.495076 
L 348.959662 49.286663 
L 349.95535 49.286663 
L 349.95535 49.078251 
L 350.453194 49.078251 
L 350.453194 48.869839 
L 350.702116 48.869839 
L 350.702116 48.661427 
L 350.951039 48.661427 
L 350.951039 48.453015 
L 351.199961 48.453015 
L 351.199961 48.244602 
L 356.676245 48.244602 
L 356.676245 48.03619 
L 357.423011 48.03619 
L 357.423011 47.827778 
L 357.671933 47.827778 
L 357.671933 47.619366 
L 359.414388 47.619366 
L 359.414388 47.410954 
L 360.90792 47.410954 
L 360.90792 47.202541 
L 361.903608 47.202541 
L 361.903608 46.994129 
L 364.143906 46.994129 
L 364.143906 46.785717 
L 364.890672 46.785717 
L 364.890672 46.577305 
L 365.388516 46.577305 
L 365.388516 46.368893 
L 367.130971 46.368893 
L 367.130971 46.16048 
L 367.379893 45.952068 
L 367.877737 45.952068 
L 367.877737 45.743656 
L 368.375581 45.743656 
L 368.375581 45.535244 
L 368.624503 45.535244 
L 368.624503 45.118419 
L 370.118035 45.118419 
L 370.118035 44.910007 
L 370.366957 44.910007 
L 370.366957 44.701595 
L 370.615879 44.701595 
L 370.615879 44.493183 
L 371.362645 44.493183 
L 371.362645 44.284771 
L 373.354021 44.284771 
L 373.354021 44.076358 
L 373.851866 44.076358 
L 373.851866 43.659534 
L 374.100788 43.659534 
L 374.100788 43.451122 
L 376.092164 43.451122 
L 376.092164 42.825885 
L 376.83893 42.825885 
L 376.83893 42.617473 
L 377.087852 42.617473 
L 377.087852 42.409061 
L 377.585696 42.409061 
L 377.585696 41.992236 
L 379.079228 41.992236 
L 379.079228 41.783824 
L 382.315215 41.783824 
L 382.315215 41.575412 
L 382.813059 41.575412 
L 382.813059 41.158588 
L 385.800123 41.158588 
L 385.800123 40.950175 
L 388.040421 40.950175 
L 388.040421 40.741763 
L 388.787188 40.741763 
L 388.787188 40.533351 
L 389.03611 40.533351 
L 389.03611 40.324939 
L 389.782876 40.324939 
L 389.782876 39.908114 
L 391.027486 39.908114 
L 391.027486 39.699702 
L 391.774252 39.699702 
L 391.774252 39.49129 
L 392.272096 39.49129 
L 392.272096 39.282878 
L 393.765628 39.282878 
L 393.765628 39.074466 
L 394.263472 39.074466 
L 394.263472 38.866053 
L 395.757004 38.866053 
L 395.757004 38.657641 
L 398.744069 38.657641 
L 398.744069 38.449229 
L 404.469276 38.449229 
L 404.469276 38.240817 
L 405.962808 38.240817 
L 405.962808 38.032405 
L 407.207418 38.032405 
L 407.207418 37.823993 
L 409.696638 37.823993 
L 409.696638 37.61558 
L 413.679391 37.61558 
L 413.679391 37.407168 
L 414.675079 37.407168 
L 414.675079 37.198756 
L 415.919689 37.198756 
L 415.919689 36.990344 
L 422.391662 36.990344 
L 422.391662 36.781932 
L 426.125492 36.781932 
L 426.125492 36.573519 
L 429.361479 36.573519 
L 429.361479 36.365107 
L 430.606089 36.365107 
L 430.606089 36.156695 
L 431.601777 36.156695 
L 431.601777 35.948283 
L 434.588842 35.948283 
L 434.588842 35.739871 
L 436.580218 35.739871 
L 436.580218 35.531458 
L 438.07375 35.531458 
L 438.07375 35.531458 
" clip-path="url(#p227009da29)" style="fill: none; stroke: #008000; stroke-width: 1.5; stroke-linecap: square"/>
   </g>
   <g id="line2d_14">
    <path d="M 43.78125 299.798125 
L 438.07375 35.531458 
" clip-path="url(#p227009da29)" style="fill: none; stroke-dasharray: 5.55,2.4; stroke-dashoffset: 0; stroke: #000000; stroke-width: 1.5"/>
   </g>
   <g id="patch_3">
    <path d="M 43.78125 299.798125 
L 43.78125 22.318125 
" style="fill: none; stroke: #000000; stroke-width: 0.8; stroke-linejoin: miter; stroke-linecap: square"/>
   </g>
   <g id="patch_4">
    <path d="M 438.07375 299.798125 
L 438.07375 22.318125 
" style="fill: none; stroke: #000000; stroke-width: 0.8; stroke-linejoin: miter; stroke-linecap: square"/>
   </g>
   <g id="patch_5">
    <path d="M 43.78125 299.798125 
L 438.07375 299.798125 
" style="fill: none; stroke: #000000; stroke-width: 0.8; stroke-linejoin: miter; stroke-linecap: square"/>
   </g>
   <g id="patch_6">
    <path d="M 43.78125 22.318125 
L 438.07375 22.318125 
" style="fill: none; stroke: #000000; stroke-width: 0.8; stroke-linejoin: miter; stroke-linecap: square"/>
   </g>
   <g id="text_15">
    <!-- ROC Curve -->
    <g transform="translate(208.236875 16.318125) scale(0.12 -0.12)">
     <defs>
      <path id="DejaVuSans-4f" d="M 2522 4238 
Q 1834 4238 1429 3725 
Q 1025 3213 1025 2328 
Q 1025 1447 1429 934 
Q 1834 422 2522 422 
Q 3209 422 3611 934 
Q 4013 1447 4013 2328 
Q 4013 3213 3611 3725 
Q 3209 4238 2522 4238 
z
M 2522 4750 
Q 3503 4750 4090 4092 
Q 4678 3434 4678 2328 
Q 4678 1225 4090 567 
Q 3503 -91 2522 -91 
Q 1538 -91 948 565 
Q 359 1222 359 2328 
Q 359 3434 948 4092 
Q 1538 4750 2522 4750 
z
" transform="scale(0.015625)"/>
      <path id="DejaVuSans-43" d="M 4122 4306 
L 4122 3641 
Q 3803 3938 3442 4084 
Q 3081 4231 2675 4231 
Q 1875 4231 1450 3742 
Q 1025 3253 1025 2328 
Q 1025 1406 1450 917 
Q 1875 428 2675 428 
Q 3081 428 3442 575 
Q 3803 722 4122 1019 
L 4122 359 
Q 3791 134 3420 21 
Q 3050 -91 2638 -91 
Q 1578 -91 968 557 
Q 359 1206 359 2328 
Q 359 3453 968 4101 
Q 1578 4750 2638 4750 
Q 3056 4750 3426 4639 
Q 3797 4528 4122 4306 
z
" transform="scale(0.015625)"/>
     </defs>
     <use xlink:href="#DejaVuSans-52"/>
     <use xlink:href="#DejaVuSans-4f" x="69.482422"/>
     <use xlink:href="#DejaVuSans-43" x="148.193359"/>
     <use xlink:href="#DejaVuSans-20" x="218.017578"/>
     <use xlink:href="#DejaVuSans-43" x="249.804688"/>
     <use xlink:href="#DejaVuSans-75" x="319.628906"/>
     <use xlink:href="#DejaVuSans-72" x="383.007812"/>
     <use xlink:href="#DejaVuSans-76" x="424.121094"/>
     <use xlink:href="#DejaVuSans-65" x="483.300781"/>
    </g>
   </g>
   <g id="legend_1">
    <g id="patch_7">
     <path d="M 317.24875 294.798125 
L 431.07375 294.798125 
Q 433.07375 294.798125 433.07375 292.798125 
L 433.07375 279.12 
Q 433.07375 277.12 431.07375 277.12 
L 317.24875 277.12 
Q 315.24875 277.12 315.24875 279.12 
L 315.24875 292.798125 
Q 315.24875 294.798125 317.24875 294.798125 
z
" style="fill: #ffffff; opacity: 0.8; stroke: #cccccc; stroke-linejoin: miter"/>
    </g>
    <g id="line2d_15">
     <path d="M 319.24875 285.218438 
L 329.24875 285.218438 
L 339.24875 285.218438 
" style="fill: none; stroke: #008000; stroke-width: 1.5; stroke-linecap: square"/>
    </g>
    <g id="text_16">
     <!-- RF (AUC = 0.78) -->
     <g transform="translate(347.24875 288.718438) scale(0.1 -0.1)">
      <defs>
       <path id="DejaVuSans-28" d="M 1984 4856 
Q 1566 4138 1362 3434 
Q 1159 2731 1159 2009 
Q 1159 1288 1364 580 
Q 1569 -128 1984 -844 
L 1484 -844 
Q 1016 -109 783 600 
Q 550 1309 550 2009 
Q 550 2706 781 3412 
Q 1013 4119 1484 4856 
L 1984 4856 
z
" transform="scale(0.015625)"/>
       <path id="DejaVuSans-41" d="M 2188 4044 
L 1331 1722 
L 3047 1722 
L 2188 4044 
z
M 1831 4666 
L 2547 4666 
L 4325 0 
L 3669 0 
L 3244 1197 
L 1141 1197 
L 716 0 
L 50 0 
L 1831 4666 
z
" transform="scale(0.015625)"/>
       <path id="DejaVuSans-55" d="M 556 4666 
L 1191 4666 
L 1191 1831 
Q 1191 1081 1462 751 
Q 1734 422 2344 422 
Q 2950 422 3222 751 
Q 3494 1081 3494 1831 
L 3494 4666 
L 4128 4666 
L 4128 1753 
Q 4128 841 3676 375 
Q 3225 -91 2344 -91 
Q 1459 -91 1007 375 
Q 556 841 556 1753 
L 556 4666 
z
" transform="scale(0.015625)"/>
       <path id="DejaVuSans-3d" d="M 678 2906 
L 4684 2906 
L 4684 2381 
L 678 2381 
L 678 2906 
z
M 678 1631 
L 4684 1631 
L 4684 1100 
L 678 1100 
L 678 1631 
z
" transform="scale(0.015625)"/>
       <path id="DejaVuSans-37" d="M 525 4666 
L 3525 4666 
L 3525 4397 
L 1831 0 
L 1172 0 
L 2766 4134 
L 525 4134 
L 525 4666 
z
" transform="scale(0.015625)"/>
       <path id="DejaVuSans-29" d="M 513 4856 
L 1013 4856 
Q 1481 4119 1714 3412 
Q 1947 2706 1947 2009 
Q 1947 1309 1714 600 
Q 1481 -109 1013 -844 
L 513 -844 
Q 928 -128 1133 580 
Q 1338 1288 1338 2009 
Q 1338 2731 1133 3434 
Q 928 4138 513 4856 
z
" transform="scale(0.015625)"/>
      </defs>
      <use xlink:href="#DejaVuSans-52"/>
      <use xlink:href="#DejaVuSans-46" x="69.482422"/>
      <use xlink:href="#DejaVuSans-20" x="127.001953"/>
      <use xlink:href="#DejaVuSans-28" x="158.789062"/>
      <use xlink:href="#DejaVuSans-41" x="197.802734"/>
      <use xlink:href="#DejaVuSans-55" x="266.210938"/>
      <use xlink:href="#DejaVuSans-43" x="339.404297"/>
      <use xlink:href="#DejaVuSans-20" x="409.228516"/>
      <use xlink:href="#DejaVuSans-3d" x="441.015625"/>
      <use xlink:href="#DejaVuSans-20" x="524.804688"/>
      <use xlink:href="#DejaVuSans-30" x="556.591797"/>
      <use xlink:href="#DejaVuSans-2e" x="620.214844"/>
      <use xlink:href="#DejaVuSans-37" x="652.001953"/>
      <use xlink:href="#DejaVuSans-38" x="715.625"/>
      <use xlink:href="#DejaVuSans-29" x="779.248047"/>
     </g>
    </g>
   </g>
  </g>
 </g>
 <defs>
  <clipPath id="p227009da29">
   <rect x="43.78125" y="22.318125" width="394.2925" height="277.48"/>
  </clipPath>
 </defs>
</svg>
