<?xml version="1.0" encoding="utf-8" standalone="no"?>
<!DOCTYPE svg PUBLIC "-//W3C//DTD SVG 1.1//EN"
  "http://www.w3.org/Graphics/SVG/1.1/DTD/svg11.dtd">
<svg xmlns:xlink="http://www.w3.org/1999/xlink" width="453.225312pt" height="337.354375pt" viewBox="0 0 453.225312 337.354375" xmlns="http://www.w3.org/2000/svg" version="1.1">
 <metadata>
  <rdf:RDF xmlns:dc="http://purl.org/dc/elements/1.1/" xmlns:cc="http://creativecommons.org/ns#" xmlns:rdf="http://www.w3.org/1999/02/22-rdf-syntax-ns#">
   <cc:Work>
    <dc:type rdf:resource="http://purl.org/dc/dcmitype/StillImage"/>
    <dc:date>2025-11-09T12:34:52.066126</dc:date>
    <dc:format>image/svg+xml</dc:format>
    <dc:creator>
     <cc:Agent>
      <dc:title>Matplotlib v3.9.1, https://matplotlib.org/</dc:title>
     </cc:Agent>
    </dc:creator>
   </cc:Work>
  </rdf:RDF>
 </metadata>
 <defs>
  <style type="text/css">*{stroke-linejoin: round; stroke-linecap: butt}</style>
 </defs>
 <g id="figure_1">
  <g id="patch_1">
   <path d="M 0 337.354375 
L 453.225312 337.354375 
L 453.225312 0 
L 0 0 
z
" style="fill: #ffffff"/>
  </g>
  <g id="axes_1">
   <g id="patch_2">
    <path d="M 43.78125 299.798125 
L 438.07375 299.798125 
L 438.07375 22.318125 
L 43.78125 22.318125 
z
" style="fill: #ffffff"/>
   </g>
   <g id="matplotlib.axis_1">
    <g id="xtick_1">
     <g id="line2d_1">
      <defs>
       <path id="m146b1cdace" d="M 0 0 
L 0 3.5 
" style="stroke: #000000; stroke-width: 0.8"/>
      </defs>
      <g>
       <use xlink:href="#m146b1cdace" x="43.78125" y="299.798125" style="stroke: #000000; stroke-width: 0.8"/>
      </g>
     </g>
     <g id="text_1">
      <!-- 0.0 -->
      <g transform="translate(35.829688 314.396563) scale(0.1 -0.1)">
       <defs>
        <path id="DejaVuSans-30" d="M 2034 4250 
Q 1547 4250 1301 3770 
Q 1056 3291 1056 2328 
Q 1056 1369 1301 889 
Q 1547 409 2034 409 
Q 2525 409 2770 889 
Q 3016 1369 3016 2328 
Q 3016 3291 2770 3770 
Q 2525 4250 2034 4250 
z
M 2034 4750 
Q 2819 4750 3233 4129 
Q 3647 3509 3647 2328 
Q 3647 1150 3233 529 
Q 2819 -91 2034 -91 
Q 1250 -91 836 529 
Q 422 1150 422 2328 
Q 422 3509 836 4129 
Q 1250 4750 2034 4750 
z
" transform="scale(0.015625)"/>
        <path id="DejaVuSans-2e" d="M 684 794 
L 1344 794 
L 1344 0 
L 684 0 
L 684 794 
z
" transform="scale(0.015625)"/>
       </defs>
       <use xlink:href="#DejaVuSans-30"/>
       <use xlink:href="#DejaVuSans-2e" x="63.623047"/>
       <use xlink:href="#DejaVuSans-30" x="95.410156"/>
      </g>
     </g>
    </g>
    <g id="xtick_2">
     <g id="line2d_2">
      <g>
       <use xlink:href="#m146b1cdace" x="122.63975" y="299.798125" style="stroke: #000000; stroke-width: 0.8"/>
      </g>
     </g>
     <g id="text_2">
      <!-- 0.2 -->
      <g transform="translate(114.688188 314.396563) scale(0.1 -0.1)">
       <defs>
        <path id="DejaVuSans-32" d="M 1228 531 
L 3431 531 
L 3431 0 
L 469 0 
L 469 531 
Q 828 903 1448 1529 
Q 2069 2156 2228 2338 
Q 2531 2678 2651 2914 
Q 2772 3150 2772 3378 
Q 2772 3750 2511 3984 
Q 2250 4219 1831 4219 
Q 1534 4219 1204 4116 
Q 875 4013 500 3803 
L 500 4441 
Q 881 4594 1212 4672 
Q 1544 4750 1819 4750 
Q 2544 4750 2975 4387 
Q 3406 4025 3406 3419 
Q 3406 3131 3298 2873 
Q 3191 2616 2906 2266 
Q 2828 2175 2409 1742 
Q 1991 1309 1228 531 
z
" transform="scale(0.015625)"/>
       </defs>
       <use xlink:href="#DejaVuSans-30"/>
       <use xlink:href="#DejaVuSans-2e" x="63.623047"/>
       <use xlink:href="#DejaVuSans-32" x="95.410156"/>
      </g>
     </g>
    </g>
    <g id="xtick_3">
     <g id="line2d_3">
      <g>
       <use xlink:href="#m146b1cdace" x="201.49825" y="299.798125" style="stroke: #000000; stroke-width: 0.8"/>
      </g>
     </g>
     <g id="text_3">
      <!-- 0.4 -->
      <g transform="translate(193.546688 314.396563) scale(0.1 -0.1)">
       <defs>
        <path id="DejaVuSans-34" d="M 2419 4116 
L 825 1625 
L 2419 1625 
L 2419 4116 
z
M 2253 4666 
L 3047 4666 
L 3047 1625 
L 3713 1625 
L 3713 1100 
L 3047 1100 
L 3047 0 
L 2419 0 
L 2419 1100 
L 313 1100 
L 313 1709 
L 2253 4666 
z
" transform="scale(0.015625)"/>
       </defs>
       <use xlink:href="#DejaVuSans-30"/>
       <use xlink:href="#DejaVuSans-2e" x="63.623047"/>
       <use xlink:href="#DejaVuSans-34" x="95.410156"/>
      </g>
     </g>
    </g>
    <g id="xtick_4">
     <g id="line2d_4">
      <g>
       <use xlink:href="#m146b1cdace" x="280.35675" y="299.798125" style="stroke: #000000; stroke-width: 0.8"/>
      </g>
     </g>
     <g id="text_4">
      <!-- 0.6 -->
      <g transform="translate(272.405188 314.396563) scale(0.1 -0.1)">
       <defs>
        <path id="DejaVuSans-36" d="M 2113 2584 
Q 1688 2584 1439 2293 
Q 1191 2003 1191 1497 
Q 1191 994 1439 701 
Q 1688 409 2113 409 
Q 2538 409 2786 701 
Q 3034 994 3034 1497 
Q 3034 2003 2786 2293 
Q 2538 2584 2113 2584 
z
M 3366 4563 
L 3366 3988 
Q 3128 4100 2886 4159 
Q 2644 4219 2406 4219 
Q 1781 4219 1451 3797 
Q 1122 3375 1075 2522 
Q 1259 2794 1537 2939 
Q 1816 3084 2150 3084 
Q 2853 3084 3261 2657 
Q 3669 2231 3669 1497 
Q 3669 778 3244 343 
Q 2819 -91 2113 -91 
Q 1303 -91 875 529 
Q 447 1150 447 2328 
Q 447 3434 972 4092 
Q 1497 4750 2381 4750 
Q 2619 4750 2861 4703 
Q 3103 4656 3366 4563 
z
" transform="scale(0.015625)"/>
       </defs>
       <use xlink:href="#DejaVuSans-30"/>
       <use xlink:href="#DejaVuSans-2e" x="63.623047"/>
       <use xlink:href="#DejaVuSans-36" x="95.410156"/>
      </g>
     </g>
    </g>
    <g id="xtick_5">
     <g id="line2d_5">
      <g>
       <use xlink:href="#m146b1cdace" x="359.21525" y="299.798125" style="stroke: #000000; stroke-width: 0.8"/>
      </g>
     </g>
     <g id="text_5">
      <!-- 0.8 -->
      <g transform="translate(351.263688 314.396563) scale(0.1 -0.1)">
       <defs>
        <path id="DejaVuSans-38" d="M 2034 2216 
Q 1584 2216 1326 1975 
Q 1069 1734 1069 1313 
Q 1069 891 1326 650 
Q 1584 409 2034 409 
Q 2484 409 2743 651 
Q 3003 894 3003 1313 
Q 3003 1734 2745 1975 
Q 2488 2216 2034 2216 
z
M 1403 2484 
Q 997 2584 770 2862 
Q 544 3141 544 3541 
Q 544 4100 942 4425 
Q 1341 4750 2034 4750 
Q 2731 4750 3128 4425 
Q 3525 4100 3525 3541 
Q 3525 3141 3298 2862 
Q 3072 2584 2669 2484 
Q 3125 2378 3379 2068 
Q 3634 1759 3634 1313 
Q 3634 634 3220 271 
Q 2806 -91 2034 -91 
Q 1263 -91 848 271 
Q 434 634 434 1313 
Q 434 1759 690 2068 
Q 947 2378 1403 2484 
z
M 1172 3481 
Q 1172 3119 1398 2916 
Q 1625 2713 2034 2713 
Q 2441 2713 2670 2916 
Q 2900 3119 2900 3481 
Q 2900 3844 2670 4047 
Q 2441 4250 2034 4250 
Q 1625 4250 1398 4047 
Q 1172 3844 1172 3481 
z
" transform="scale(0.015625)"/>
       </defs>
       <use xlink:href="#DejaVuSans-30"/>
       <use xlink:href="#DejaVuSans-2e" x="63.623047"/>
       <use xlink:href="#DejaVuSans-38" x="95.410156"/>
      </g>
     </g>
    </g>
    <g id="xtick_6">
     <g id="line2d_6">
      <g>
       <use xlink:href="#m146b1cdace" x="438.07375" y="299.798125" style="stroke: #000000; stroke-width: 0.8"/>
      </g>
     </g>
     <g id="text_6">
      <!-- 1.0 -->
      <g transform="translate(430.122187 314.396563) scale(0.1 -0.1)">
       <defs>
        <path id="DejaVuSans-31" d="M 794 531 
L 1825 531 
L 1825 4091 
L 703 3866 
L 703 4441 
L 1819 4666 
L 2450 4666 
L 2450 531 
L 3481 531 
L 3481 0 
L 794 0 
L 794 531 
z
" transform="scale(0.015625)"/>
       </defs>
       <use xlink:href="#DejaVuSans-31"/>
       <use xlink:href="#DejaVuSans-2e" x="63.623047"/>
       <use xlink:href="#DejaVuSans-30" x="95.410156"/>
      </g>
     </g>
    </g>
    <g id="text_7">
     <!-- False Positive Rate -->
     <g transform="translate(194.461094 328.074688) scale(0.1 -0.1)">
      <defs>
       <path id="DejaVuSans-46" d="M 628 4666 
L 3309 4666 
L 3309 4134 
L 1259 4134 
L 1259 2759 
L 3109 2759 
L 3109 2228 
L 1259 2228 
L 1259 0 
L 628 0 
L 628 4666 
z
" transform="scale(0.015625)"/>
       <path id="DejaVuSans-61" d="M 2194 1759 
Q 1497 1759 1228 1600 
Q 959 1441 959 1056 
Q 959 750 1161 570 
Q 1363 391 1709 391 
Q 2188 391 2477 730 
Q 2766 1069 2766 1631 
L 2766 1759 
L 2194 1759 
z
M 3341 1997 
L 3341 0 
L 2766 0 
L 2766 531 
Q 2569 213 2275 61 
Q 1981 -91 1556 -91 
Q 1019 -91 701 211 
Q 384 513 384 1019 
Q 384 1609 779 1909 
Q 1175 2209 1959 2209 
L 2766 2209 
L 2766 2266 
Q 2766 2663 2505 2880 
Q 2244 3097 1772 3097 
Q 1472 3097 1187 3025 
Q 903 2953 641 2809 
L 641 3341 
Q 956 3463 1253 3523 
Q 1550 3584 1831 3584 
Q 2591 3584 2966 3190 
Q 3341 2797 3341 1997 
z
" transform="scale(0.015625)"/>
       <path id="DejaVuSans-6c" d="M 603 4863 
L 1178 4863 
L 1178 0 
L 603 0 
L 603 4863 
z
" transform="scale(0.015625)"/>
       <path id="DejaVuSans-73" d="M 2834 3397 
L 2834 2853 
Q 2591 2978 2328 3040 
Q 2066 3103 1784 3103 
Q 1356 3103 1142 2972 
Q 928 2841 928 2578 
Q 928 2378 1081 2264 
Q 1234 2150 1697 2047 
L 1894 2003 
Q 2506 1872 2764 1633 
Q 3022 1394 3022 966 
Q 3022 478 2636 193 
Q 2250 -91 1575 -91 
Q 1294 -91 989 -36 
Q 684 19 347 128 
L 347 722 
Q 666 556 975 473 
Q 1284 391 1588 391 
Q 1994 391 2212 530 
Q 2431 669 2431 922 
Q 2431 1156 2273 1281 
Q 2116 1406 1581 1522 
L 1381 1569 
Q 847 1681 609 1914 
Q 372 2147 372 2553 
Q 372 3047 722 3315 
Q 1072 3584 1716 3584 
Q 2034 3584 2315 3537 
Q 2597 3491 2834 3397 
z
" transform="scale(0.015625)"/>
       <path id="DejaVuSans-65" d="M 3597 1894 
L 3597 1613 
L 953 1613 
Q 991 1019 1311 708 
Q 1631 397 2203 397 
Q 2534 397 2845 478 
Q 3156 559 3463 722 
L 3463 178 
Q 3153 47 2828 -22 
Q 2503 -91 2169 -91 
Q 1331 -91 842 396 
Q 353 884 353 1716 
Q 353 2575 817 3079 
Q 1281 3584 2069 3584 
Q 2775 3584 3186 3129 
Q 3597 2675 3597 1894 
z
M 3022 2063 
Q 3016 2534 2758 2815 
Q 2500 3097 2075 3097 
Q 1594 3097 1305 2825 
Q 1016 2553 972 2059 
L 3022 2063 
z
" transform="scale(0.015625)"/>
       <path id="DejaVuSans-20" transform="scale(0.015625)"/>
       <path id="DejaVuSans-50" d="M 1259 4147 
L 1259 2394 
L 2053 2394 
Q 2494 2394 2734 2622 
Q 2975 2850 2975 3272 
Q 2975 3691 2734 3919 
Q 2494 4147 2053 4147 
L 1259 4147 
z
M 628 4666 
L 2053 4666 
Q 2838 4666 3239 4311 
Q 3641 3956 3641 3272 
Q 3641 2581 3239 2228 
Q 2838 1875 2053 1875 
L 1259 1875 
L 1259 0 
L 628 0 
L 628 4666 
z
" transform="scale(0.015625)"/>
       <path id="DejaVuSans-6f" d="M 1959 3097 
Q 1497 3097 1228 2736 
Q 959 2375 959 1747 
Q 959 1119 1226 758 
Q 1494 397 1959 397 
Q 2419 397 2687 759 
Q 2956 1122 2956 1747 
Q 2956 2369 2687 2733 
Q 2419 3097 1959 3097 
z
M 1959 3584 
Q 2709 3584 3137 3096 
Q 3566 2609 3566 1747 
Q 3566 888 3137 398 
Q 2709 -91 1959 -91 
Q 1206 -91 779 398 
Q 353 888 353 1747 
Q 353 2609 779 3096 
Q 1206 3584 1959 3584 
z
" transform="scale(0.015625)"/>
       <path id="DejaVuSans-69" d="M 603 3500 
L 1178 3500 
L 1178 0 
L 603 0 
L 603 3500 
z
M 603 4863 
L 1178 4863 
L 1178 4134 
L 603 4134 
L 603 4863 
z
" transform="scale(0.015625)"/>
       <path id="DejaVuSans-74" d="M 1172 4494 
L 1172 3500 
L 2356 3500 
L 2356 3053 
L 1172 3053 
L 1172 1153 
Q 1172 725 1289 603 
Q 1406 481 1766 481 
L 2356 481 
L 2356 0 
L 1766 0 
Q 1100 0 847 248 
Q 594 497 594 1153 
L 594 3053 
L 172 3053 
L 172 3500 
L 594 3500 
L 594 4494 
L 1172 4494 
z
" transform="scale(0.015625)"/>
       <path id="DejaVuSans-76" d="M 191 3500 
L 800 3500 
L 1894 563 
L 2988 3500 
L 3597 3500 
L 2284 0 
L 1503 0 
L 191 3500 
z
" transform="scale(0.015625)"/>
       <path id="DejaVuSans-52" d="M 2841 2188 
Q 3044 2119 3236 1894 
Q 3428 1669 3622 1275 
L 4263 0 
L 3584 0 
L 2988 1197 
Q 2756 1666 2539 1819 
Q 2322 1972 1947 1972 
L 1259 1972 
L 1259 0 
L 628 0 
L 628 4666 
L 2053 4666 
Q 2853 4666 3247 4331 
Q 3641 3997 3641 3322 
Q 3641 2881 3436 2590 
Q 3231 2300 2841 2188 
z
M 1259 4147 
L 1259 2491 
L 2053 2491 
Q 2509 2491 2742 2702 
Q 2975 2913 2975 3322 
Q 2975 3731 2742 3939 
Q 2509 4147 2053 4147 
L 1259 4147 
z
" transform="scale(0.015625)"/>
      </defs>
      <use xlink:href="#DejaVuSans-46"/>
      <use xlink:href="#DejaVuSans-61" x="48.394531"/>
      <use xlink:href="#DejaVuSans-6c" x="109.673828"/>
      <use xlink:href="#DejaVuSans-73" x="137.457031"/>
      <use xlink:href="#DejaVuSans-65" x="189.556641"/>
      <use xlink:href="#DejaVuSans-20" x="251.080078"/>
      <use xlink:href="#DejaVuSans-50" x="282.867188"/>
      <use xlink:href="#DejaVuSans-6f" x="339.544922"/>
      <use xlink:href="#DejaVuSans-73" x="400.726562"/>
      <use xlink:href="#DejaVuSans-69" x="452.826172"/>
      <use xlink:href="#DejaVuSans-74" x="480.609375"/>
      <use xlink:href="#DejaVuSans-69" x="519.818359"/>
      <use xlink:href="#DejaVuSans-76" x="547.601562"/>
      <use xlink:href="#DejaVuSans-65" x="606.78125"/>
      <use xlink:href="#DejaVuSans-20" x="668.304688"/>
      <use xlink:href="#DejaVuSans-52" x="700.091797"/>
      <use xlink:href="#DejaVuSans-61" x="767.324219"/>
      <use xlink:href="#DejaVuSans-74" x="828.603516"/>
      <use xlink:href="#DejaVuSans-65" x="867.8125"/>
     </g>
    </g>
   </g>
   <g id="matplotlib.axis_2">
    <g id="ytick_1">
     <g id="line2d_7">
      <defs>
       <path id="m8c3241b5ae" d="M 0 0 
L -3.5 0 
" style="stroke: #000000; stroke-width: 0.8"/>
      </defs>
      <g>
       <use xlink:href="#m8c3241b5ae" x="43.78125" y="299.798125" style="stroke: #000000; stroke-width: 0.8"/>
      </g>
     </g>
     <g id="text_8">
      <!-- 0.0 -->
      <g transform="translate(20.878125 303.597344) scale(0.1 -0.1)">
       <use xlink:href="#DejaVuSans-30"/>
       <use xlink:href="#DejaVuSans-2e" x="63.623047"/>
       <use xlink:href="#DejaVuSans-30" x="95.410156"/>
      </g>
     </g>
    </g>
    <g id="ytick_2">
     <g id="line2d_8">
      <g>
       <use xlink:href="#m8c3241b5ae" x="43.78125" y="246.944792" style="stroke: #000000; stroke-width: 0.8"/>
      </g>
     </g>
     <g id="text_9">
      <!-- 0.2 -->
      <g transform="translate(20.878125 250.74401) scale(0.1 -0.1)">
       <use xlink:href="#DejaVuSans-30"/>
       <use xlink:href="#DejaVuSans-2e" x="63.623047"/>
       <use xlink:href="#DejaVuSans-32" x="95.410156"/>
      </g>
     </g>
    </g>
    <g id="ytick_3">
     <g id="line2d_9">
      <g>
       <use xlink:href="#m8c3241b5ae" x="43.78125" y="194.091458" style="stroke: #000000; stroke-width: 0.8"/>
      </g>
     </g>
     <g id="text_10">
      <!-- 0.4 -->
      <g transform="translate(20.878125 197.890677) scale(0.1 -0.1)">
       <use xlink:href="#DejaVuSans-30"/>
       <use xlink:href="#DejaVuSans-2e" x="63.623047"/>
       <use xlink:href="#DejaVuSans-34" x="95.410156"/>
      </g>
     </g>
    </g>
    <g id="ytick_4">
     <g id="line2d_10">
      <g>
       <use xlink:href="#m8c3241b5ae" x="43.78125" y="141.238125" style="stroke: #000000; stroke-width: 0.8"/>
      </g>
     </g>
     <g id="text_11">
      <!-- 0.6 -->
      <g transform="translate(20.878125 145.037344) scale(0.1 -0.1)">
       <use xlink:href="#DejaVuSans-30"/>
       <use xlink:href="#DejaVuSans-2e" x="63.623047"/>
       <use xlink:href="#DejaVuSans-36" x="95.410156"/>
      </g>
     </g>
    </g>
    <g id="ytick_5">
     <g id="line2d_11">
      <g>
       <use xlink:href="#m8c3241b5ae" x="43.78125" y="88.384792" style="stroke: #000000; stroke-width: 0.8"/>
      </g>
     </g>
     <g id="text_12">
      <!-- 0.8 -->
      <g transform="translate(20.878125 92.18401) scale(0.1 -0.1)">
       <use xlink:href="#DejaVuSans-30"/>
       <use xlink:href="#DejaVuSans-2e" x="63.623047"/>
       <use xlink:href="#DejaVuSans-38" x="95.410156"/>
      </g>
     </g>
    </g>
    <g id="ytick_6">
     <g id="line2d_12">
      <g>
       <use xlink:href="#m8c3241b5ae" x="43.78125" y="35.531458" style="stroke: #000000; stroke-width: 0.8"/>
      </g>
     </g>
     <g id="text_13">
      <!-- 1.0 -->
      <g transform="translate(20.878125 39.330677) scale(0.1 -0.1)">
       <use xlink:href="#DejaVuSans-31"/>
       <use xlink:href="#DejaVuSans-2e" x="63.623047"/>
       <use xlink:href="#DejaVuSans-30" x="95.410156"/>
      </g>
     </g>
    </g>
    <g id="text_14">
     <!-- True Positive Rate -->
     <g transform="translate(14.798438 205.587813) rotate(-90) scale(0.1 -0.1)">
      <defs>
       <path id="DejaVuSans-54" d="M -19 4666 
L 3928 4666 
L 3928 4134 
L 2272 4134 
L 2272 0 
L 1638 0 
L 1638 4134 
L -19 4134 
L -19 4666 
z
" transform="scale(0.015625)"/>
       <path id="DejaVuSans-72" d="M 2631 2963 
Q 2534 3019 2420 3045 
Q 2306 3072 2169 3072 
Q 1681 3072 1420 2755 
Q 1159 2438 1159 1844 
L 1159 0 
L 581 0 
L 581 3500 
L 1159 3500 
L 1159 2956 
Q 1341 3275 1631 3429 
Q 1922 3584 2338 3584 
Q 2397 3584 2469 3576 
Q 2541 3569 2628 3553 
L 2631 2963 
z
" transform="scale(0.015625)"/>
       <path id="DejaVuSans-75" d="M 544 1381 
L 544 3500 
L 1119 3500 
L 1119 1403 
Q 1119 906 1312 657 
Q 1506 409 1894 409 
Q 2359 409 2629 706 
Q 2900 1003 2900 1516 
L 2900 3500 
L 3475 3500 
L 3475 0 
L 2900 0 
L 2900 538 
Q 2691 219 2414 64 
Q 2138 -91 1772 -91 
Q 1169 -91 856 284 
Q 544 659 544 1381 
z
M 1991 3584 
L 1991 3584 
z
" transform="scale(0.015625)"/>
      </defs>
      <use xlink:href="#DejaVuSans-54"/>
      <use xlink:href="#DejaVuSans-72" x="46.333984"/>
      <use xlink:href="#DejaVuSans-75" x="87.447266"/>
      <use xlink:href="#DejaVuSans-65" x="150.826172"/>
      <use xlink:href="#DejaVuSans-20" x="212.349609"/>
      <use xlink:href="#DejaVuSans-50" x="244.136719"/>
      <use xlink:href="#DejaVuSans-6f" x="300.814453"/>
      <use xlink:href="#DejaVuSans-73" x="361.996094"/>
      <use xlink:href="#DejaVuSans-69" x="414.095703"/>
      <use xlink:href="#DejaVuSans-74" x="441.878906"/>
      <use xlink:href="#DejaVuSans-69" x="481.087891"/>
      <use xlink:href="#DejaVuSans-76" x="508.871094"/>
      <use xlink:href="#DejaVuSans-65" x="568.050781"/>
      <use xlink:href="#DejaVuSans-20" x="629.574219"/>
      <use xlink:href="#DejaVuSans-52" x="661.361328"/>
      <use xlink:href="#DejaVuSans-61" x="728.59375"/>
      <use xlink:href="#DejaVuSans-74" x="789.873047"/>
      <use xlink:href="#DejaVuSans-65" x="829.082031"/>
     </g>
    </g>
   </g>
   <g id="line2d_13">
    <path d="M 43.78125 299.798125 
L 43.78125 298.959183 
L 44.640275 298.959183 
L 44.640275 291.408707 
L 45.4993 291.408707 
L 45.4993 290.569765 
L 46.358325 290.569765 
L 46.358325 289.730823 
L 48.9354 289.730823 
L 48.9354 288.891882 
L 49.794425 288.891882 
L 49.794425 288.05294 
L 50.65345 288.05294 
L 50.65345 283.858231 
L 52.371501 283.858231 
L 52.371501 283.019289 
L 53.230526 283.019289 
L 53.230526 280.502464 
L 56.666626 280.502464 
L 56.666626 279.663522 
L 57.525651 279.663522 
L 57.525651 277.985638 
L 58.384676 277.985638 
L 58.384676 275.468813 
L 60.102726 275.468813 
L 60.102726 273.790929 
L 61.820776 273.790929 
L 61.820776 272.113046 
L 62.679801 272.113046 
L 62.679801 271.274104 
L 65.256876 271.274104 
L 65.256876 270.435162 
L 66.115901 270.435162 
L 66.115901 268.757278 
L 66.974926 268.757278 
L 66.974926 267.918337 
L 67.833952 267.918337 
L 67.833952 267.079395 
L 68.692977 267.079395 
L 68.692977 265.401511 
L 71.270052 265.401511 
L 71.270052 263.723628 
L 72.988102 263.723628 
L 72.988102 262.045744 
L 73.847127 262.045744 
L 73.847127 260.36786 
L 75.565177 260.36786 
L 75.565177 259.528919 
L 77.283227 259.528919 
L 77.283227 254.495268 
L 79.001277 254.495268 
L 79.001277 252.817384 
L 81.578352 252.817384 
L 81.578352 251.978442 
L 82.437377 251.978442 
L 82.437377 250.300559 
L 83.296403 250.300559 
L 83.296403 248.622675 
L 84.155428 248.622675 
L 84.155428 247.783733 
L 85.873478 247.783733 
L 85.873478 246.944792 
L 86.732503 246.944792 
L 86.732503 245.266908 
L 91.027628 245.266908 
L 91.027628 243.589024 
L 93.604703 243.589024 
L 93.604703 242.750083 
L 98.758853 242.750083 
L 98.758853 241.911141 
L 100.476904 241.911141 
L 104.772029 236.038548 
L 104.772029 235.199606 
L 105.631054 235.199606 
L 105.631054 233.521723 
L 106.490079 233.521723 
L 106.490079 231.843839 
L 107.349104 231.843839 
L 107.349104 229.327014 
L 108.208129 229.327014 
L 108.208129 227.64913 
L 109.067154 227.64913 
L 109.067154 225.971247 
L 110.785204 225.971247 
L 110.785204 224.293363 
L 115.08033 224.293363 
L 115.08033 218.420771 
L 117.657405 218.420771 
L 117.657405 216.742887 
L 119.375455 216.742887 
L 119.375455 215.903945 
L 121.093505 215.903945 
L 121.093505 214.226062 
L 122.811555 214.226062 
L 122.811555 212.548178 
L 124.529605 212.548178 
L 124.529605 210.870294 
L 127.10668 210.870294 
L 127.10668 210.031353 
L 128.82473 210.031353 
L 128.82473 209.192411 
L 133.978881 209.192411 
L 133.978881 207.514527 
L 134.837906 207.514527 
L 134.837906 206.675585 
L 135.696931 206.675585 
L 135.696931 205.836644 
L 138.274006 205.836644 
L 138.274006 204.997702 
L 139.992056 204.997702 
L 139.992056 204.15876 
L 140.851081 204.15876 
L 140.851081 203.319818 
L 141.710106 203.319818 
L 141.710106 201.641935 
L 143.428156 201.641935 
L 143.428156 199.964051 
L 148.582307 199.964051 
L 148.582307 198.286167 
L 149.441332 198.286167 
L 149.441332 197.447226 
L 152.018407 197.447226 
L 152.018407 194.9304 
L 152.877432 194.9304 
L 152.877432 193.252517 
L 155.454507 193.252517 
L 155.454507 191.574633 
L 158.890607 191.574633 
L 158.890607 190.735691 
L 159.749632 190.735691 
L 159.749632 189.896749 
L 160.608657 189.896749 
L 160.608657 189.057808 
L 164.044758 189.057808 
L 164.044758 188.218866 
L 165.762808 188.218866 
L 165.762808 187.379924 
L 166.621833 187.379924 
L 166.621833 186.540982 
L 168.339883 186.540982 
L 168.339883 185.70204 
L 170.916958 185.70204 
L 170.916958 182.346273 
L 173.494033 182.346273 
L 173.494033 181.507331 
L 175.212083 181.507331 
L 175.212083 179.829448 
L 176.930133 179.829448 
L 176.930133 178.151564 
L 178.648184 178.151564 
L 178.648184 177.312622 
L 179.507209 177.312622 
L 179.507209 173.117913 
L 184.661359 173.117913 
L 184.661359 170.601088 
L 186.379409 170.601088 
L 186.379409 169.762146 
L 188.097459 169.762146 
L 188.097459 167.245321 
L 190.674534 167.245321 
L 190.674534 166.406379 
L 191.533559 166.406379 
L 191.533559 165.567437 
L 193.251609 165.567437 
L 193.251609 163.050612 
L 194.110635 163.050612 
L 194.110635 161.372728 
L 196.68771 161.372728 
L 196.68771 160.533786 
L 198.40576 160.533786 
L 198.40576 159.694845 
L 200.12381 159.694845 
L 200.12381 158.855903 
L 201.84186 158.855903 
L 201.84186 158.016961 
L 206.136985 158.016961 
L 206.136985 157.178019 
L 206.99601 157.178019 
L 206.99601 156.339077 
L 211.291136 156.339077 
L 211.291136 155.500136 
L 212.150161 155.500136 
L 212.150161 153.822252 
L 213.009186 153.822252 
L 213.009186 151.305427 
L 214.727236 151.305427 
L 214.727236 149.627543 
L 215.586261 149.627543 
L 215.586261 148.788601 
L 220.740411 148.788601 
L 220.740411 146.271776 
L 221.599436 146.271776 
L 221.599436 142.916009 
L 225.894562 142.916009 
L 225.894562 140.399183 
L 227.612612 140.399183 
L 227.612612 138.7213 
L 229.330662 138.7213 
L 229.330662 137.882358 
L 230.189687 137.882358 
L 230.189687 134.526591 
L 236.202862 134.526591 
L 236.202862 132.848707 
L 237.061887 132.848707 
L 237.061887 132.009765 
L 238.779937 132.009765 
L 238.779937 131.170823 
L 245.652138 131.170823 
L 245.652138 129.49294 
L 246.511163 129.49294 
L 246.511163 128.653998 
L 249.947263 128.653998 
L 249.947263 127.815056 
L 250.806288 127.815056 
L 250.806288 126.976114 
L 252.524338 126.976114 
L 252.524338 125.298231 
L 257.678489 125.298231 
L 257.678489 124.459289 
L 259.396539 124.459289 
L 259.396539 123.620347 
L 261.114589 123.620347 
L 261.114589 122.781405 
L 265.409714 122.781405 
L 265.409714 121.942464 
L 266.268739 121.942464 
L 266.268739 119.425638 
L 270.563864 119.425638 
L 270.563864 118.586696 
L 273.14094 118.586696 
L 273.14094 117.747755 
L 273.999965 117.747755 
L 273.999965 116.908813 
L 274.85899 116.908813 
L 274.85899 116.069871 
L 275.718015 116.069871 
L 275.718015 115.230929 
L 276.57704 115.230929 
L 276.57704 114.391987 
L 280.01314 114.391987 
L 280.01314 112.714104 
L 280.872165 112.714104 
L 280.872165 111.875162 
L 282.590215 111.875162 
L 282.590215 111.03622 
L 284.308265 111.03622 
L 284.308265 110.197278 
L 289.462416 110.197278 
L 289.462416 108.519395 
L 291.180466 108.519395 
L 291.180466 106.002569 
L 294.616566 106.002569 
L 294.616566 105.163628 
L 296.334616 105.163628 
L 296.334616 102.646802 
L 298.052666 102.646802 
L 298.052666 101.80786 
L 300.629741 101.80786 
L 300.629741 100.968919 
L 303.206816 100.968919 
L 303.206816 100.129977 
L 305.783892 100.129977 
L 305.783892 99.291035 
L 306.642917 99.291035 
L 306.642917 98.452093 
L 307.501942 98.452093 
L 307.501942 97.613151 
L 308.360967 97.613151 
L 308.360967 95.935268 
L 310.079017 95.935268 
L 310.079017 95.096326 
L 310.938042 95.096326 
L 310.938042 94.257384 
L 311.797067 94.257384 
L 311.797067 90.901617 
L 313.515117 90.901617 
L 313.515117 90.062675 
L 316.092192 90.062675 
L 316.092192 88.384792 
L 322.964393 88.384792 
L 322.964393 87.54585 
L 323.823418 87.54585 
L 323.823418 84.190083 
L 326.400493 84.190083 
L 326.400493 83.351141 
L 328.977568 83.351141 
L 328.977568 82.512199 
L 331.554643 82.512199 
L 331.554643 80.834315 
L 334.990743 80.834315 
L 334.990743 79.995374 
L 336.708794 79.995374 
L 336.708794 78.31749 
L 338.426844 78.31749 
L 338.426844 77.478548 
L 341.862944 77.478548 
L 341.862944 76.639606 
L 343.580994 76.639606 
L 343.580994 75.800665 
L 346.158069 75.800665 
L 346.158069 74.961723 
L 347.017094 74.961723 
L 347.017094 73.283839 
L 348.735144 73.283839 
L 348.735144 71.605956 
L 349.594169 71.605956 
L 349.594169 70.767014 
L 351.312219 70.767014 
L 351.312219 69.08913 
L 353.889295 69.08913 
L 353.889295 68.250188 
L 356.46637 68.250188 
L 356.46637 67.411247 
L 357.325395 67.411247 
L 357.325395 64.894421 
L 361.62052 64.894421 
L 361.62052 62.377596 
L 362.479545 62.377596 
L 362.479545 59.860771 
L 365.915645 59.860771 
L 365.915645 58.182887 
L 370.210771 58.182887 
L 370.210771 55.666062 
L 372.787846 55.666062 
L 372.787846 54.82712 
L 374.505896 54.82712 
L 374.505896 53.149236 
L 376.223946 53.149236 
L 376.223946 52.310294 
L 377.941996 52.310294 
L 377.941996 51.471353 
L 383.096147 51.471353 
L 383.096147 50.632411 
L 389.109322 50.632411 
L 389.109322 49.793469 
L 389.968347 49.793469 
L 389.968347 48.954527 
L 390.827372 48.954527 
L 390.827372 47.276644 
L 395.981522 47.276644 
L 395.981522 46.437702 
L 398.558597 46.437702 
L 398.558597 45.59876 
L 405.430798 45.59876 
L 405.430798 44.759818 
L 408.866898 44.759818 
L 408.866898 43.920876 
L 412.302998 43.920876 
L 412.302998 42.242993 
L 414.880074 42.242993 
L 414.880074 40.565109 
L 417.457149 40.565109 
L 417.457149 38.887226 
L 420.034224 38.887226 
L 420.034224 38.048284 
L 421.752274 38.048284 
L 421.752274 37.209342 
L 432.060575 37.209342 
L 432.060575 36.3704 
L 437.214725 36.3704 
L 437.214725 35.531458 
L 438.07375 35.531458 
L 438.07375 35.531458 
" clip-path="url(#pa1a123d92a)" style="fill: none; stroke: #008000; stroke-width: 1.5; stroke-linecap: square"/>
   </g>
   <g id="line2d_14">
    <path d="M 43.78125 299.798125 
L 438.07375 35.531458 
" clip-path="url(#pa1a123d92a)" style="fill: none; stroke-dasharray: 5.55,2.4; stroke-dashoffset: 0; stroke: #000000; stroke-width: 1.5"/>
   </g>
   <g id="patch_3">
    <path d="M 43.78125 299.798125 
L 43.78125 22.318125 
" style="fill: none; stroke: #000000; stroke-width: 0.8; stroke-linejoin: miter; stroke-linecap: square"/>
   </g>
   <g id="patch_4">
    <path d="M 438.07375 299.798125 
L 438.07375 22.318125 
" style="fill: none; stroke: #000000; stroke-width: 0.8; stroke-linejoin: miter; stroke-linecap: square"/>
   </g>
   <g id="patch_5">
    <path d="M 43.78125 299.798125 
L 438.07375 299.798125 
" style="fill: none; stroke: #000000; stroke-width: 0.8; stroke-linejoin: miter; stroke-linecap: square"/>
   </g>
   <g id="patch_6">
    <path d="M 43.78125 22.318125 
L 438.07375 22.318125 
" style="fill: none; stroke: #000000; stroke-width: 0.8; stroke-linejoin: miter; stroke-linecap: square"/>
   </g>
   <g id="text_15">
    <!-- ROC Curve -->
    <g transform="translate(208.236875 16.318125) scale(0.12 -0.12)">
     <defs>
      <path id="DejaVuSans-4f" d="M 2522 4238 
Q 1834 4238 1429 3725 
Q 1025 3213 1025 2328 
Q 1025 1447 1429 934 
Q 1834 422 2522 422 
Q 3209 422 3611 934 
Q 4013 1447 4013 2328 
Q 4013 3213 3611 3725 
Q 3209 4238 2522 4238 
z
M 2522 4750 
Q 3503 4750 4090 4092 
Q 4678 3434 4678 2328 
Q 4678 1225 4090 567 
Q 3503 -91 2522 -91 
Q 1538 -91 948 565 
Q 359 1222 359 2328 
Q 359 3434 948 4092 
Q 1538 4750 2522 4750 
z
" transform="scale(0.015625)"/>
      <path id="DejaVuSans-43" d="M 4122 4306 
L 4122 3641 
Q 3803 3938 3442 4084 
Q 3081 4231 2675 4231 
Q 1875 4231 1450 3742 
Q 1025 3253 1025 2328 
Q 1025 1406 1450 917 
Q 1875 428 2675 428 
Q 3081 428 3442 575 
Q 3803 722 4122 1019 
L 4122 359 
Q 3791 134 3420 21 
Q 3050 -91 2638 -91 
Q 1578 -91 968 557 
Q 359 1206 359 2328 
Q 359 3453 968 4101 
Q 1578 4750 2638 4750 
Q 3056 4750 3426 4639 
Q 3797 4528 4122 4306 
z
" transform="scale(0.015625)"/>
     </defs>
     <use xlink:href="#DejaVuSans-52"/>
     <use xlink:href="#DejaVuSans-4f" x="69.482422"/>
     <use xlink:href="#DejaVuSans-43" x="148.193359"/>
     <use xlink:href="#DejaVuSans-20" x="218.017578"/>
     <use xlink:href="#DejaVuSans-43" x="249.804688"/>
     <use xlink:href="#DejaVuSans-75" x="319.628906"/>
     <use xlink:href="#DejaVuSans-72" x="383.007812"/>
     <use xlink:href="#DejaVuSans-76" x="424.121094"/>
     <use xlink:href="#DejaVuSans-65" x="483.300781"/>
    </g>
   </g>
   <g id="legend_1">
    <g id="patch_7">
     <path d="M 308.131563 294.798125 
L 431.07375 294.798125 
Q 433.07375 294.798125 433.07375 292.798125 
L 433.07375 279.12 
Q 433.07375 277.12 431.07375 277.12 
L 308.131563 277.12 
Q 306.131563 277.12 306.131563 279.12 
L 306.131563 292.798125 
Q 306.131563 294.798125 308.131563 294.798125 
z
" style="fill: #ffffff; opacity: 0.8; stroke: #cccccc; stroke-linejoin: miter"/>
    </g>
    <g id="line2d_15">
     <path d="M 310.131563 285.218438 
L 320.131563 285.218438 
L 330.131563 285.218438 
" style="fill: none; stroke: #008000; stroke-width: 1.5; stroke-linecap: square"/>
    </g>
    <g id="text_16">
     <!-- SVM (AUC = 0.60) -->
     <g transform="translate(338.131563 288.718438) scale(0.1 -0.1)">
      <defs>
       <path id="DejaVuSans-53" d="M 3425 4513 
L 3425 3897 
Q 3066 4069 2747 4153 
Q 2428 4238 2131 4238 
Q 1616 4238 1336 4038 
Q 1056 3838 1056 3469 
Q 1056 3159 1242 3001 
Q 1428 2844 1947 2747 
L 2328 2669 
Q 3034 2534 3370 2195 
Q 3706 1856 3706 1288 
Q 3706 609 3251 259 
Q 2797 -91 1919 -91 
Q 1588 -91 1214 -16 
Q 841 59 441 206 
L 441 856 
Q 825 641 1194 531 
Q 1563 422 1919 422 
Q 2459 422 2753 634 
Q 3047 847 3047 1241 
Q 3047 1584 2836 1778 
Q 2625 1972 2144 2069 
L 1759 2144 
Q 1053 2284 737 2584 
Q 422 2884 422 3419 
Q 422 4038 858 4394 
Q 1294 4750 2059 4750 
Q 2388 4750 2728 4690 
Q 3069 4631 3425 4513 
z
" transform="scale(0.015625)"/>
       <path id="DejaVuSans-56" d="M 1831 0 
L 50 4666 
L 709 4666 
L 2188 738 
L 3669 4666 
L 4325 4666 
L 2547 0 
L 1831 0 
z
" transform="scale(0.015625)"/>
       <path id="DejaVuSans-4d" d="M 628 4666 
L 1569 4666 
L 2759 1491 
L 3956 4666 
L 4897 4666 
L 4897 0 
L 4281 0 
L 4281 4097 
L 3078 897 
L 2444 897 
L 1241 4097 
L 1241 0 
L 628 0 
L 628 4666 
z
" transform="scale(0.015625)"/>
       <path id="DejaVuSans-28" d="M 1984 4856 
Q 1566 4138 1362 3434 
Q 1159 2731 1159 2009 
Q 1159 1288 1364 580 
Q 1569 -128 1984 -844 
L 1484 -844 
Q 1016 -109 783 600 
Q 550 1309 550 2009 
Q 550 2706 781 3412 
Q 1013 4119 1484 4856 
L 1984 4856 
z
" transform="scale(0.015625)"/>
       <path id="DejaVuSans-41" d="M 2188 4044 
L 1331 1722 
L 3047 1722 
L 2188 4044 
z
M 1831 4666 
L 2547 4666 
L 4325 0 
L 3669 0 
L 3244 1197 
L 1141 1197 
L 716 0 
L 50 0 
L 1831 4666 
z
" transform="scale(0.015625)"/>
       <path id="DejaVuSans-55" d="M 556 4666 
L 1191 4666 
L 1191 1831 
Q 1191 1081 1462 751 
Q 1734 422 2344 422 
Q 2950 422 3222 751 
Q 3494 1081 3494 1831 
L 3494 4666 
L 4128 4666 
L 4128 1753 
Q 4128 841 3676 375 
Q 3225 -91 2344 -91 
Q 1459 -91 1007 375 
Q 556 841 556 1753 
L 556 4666 
z
" transform="scale(0.015625)"/>
       <path id="DejaVuSans-3d" d="M 678 2906 
L 4684 2906 
L 4684 2381 
L 678 2381 
L 678 2906 
z
M 678 1631 
L 4684 1631 
L 4684 1100 
L 678 1100 
L 678 1631 
z
" transform="scale(0.015625)"/>
       <path id="DejaVuSans-29" d="M 513 4856 
L 1013 4856 
Q 1481 4119 1714 3412 
Q 1947 2706 1947 2009 
Q 1947 1309 1714 600 
Q 1481 -109 1013 -844 
L 513 -844 
Q 928 -128 1133 580 
Q 1338 1288 1338 2009 
Q 1338 2731 1133 3434 
Q 928 4138 513 4856 
z
" transform="scale(0.015625)"/>
      </defs>
      <use xlink:href="#DejaVuSans-53"/>
      <use xlink:href="#DejaVuSans-56" x="63.476562"/>
      <use xlink:href="#DejaVuSans-4d" x="131.884766"/>
      <use xlink:href="#DejaVuSans-20" x="218.164062"/>
      <use xlink:href="#DejaVuSans-28" x="249.951172"/>
      <use xlink:href="#DejaVuSans-41" x="288.964844"/>
      <use xlink:href="#DejaVuSans-55" x="357.373047"/>
      <use xlink:href="#DejaVuSans-43" x="430.566406"/>
      <use xlink:href="#DejaVuSans-20" x="500.390625"/>
      <use xlink:href="#DejaVuSans-3d" x="532.177734"/>
      <use xlink:href="#DejaVuSans-20" x="615.966797"/>
      <use xlink:href="#DejaVuSans-30" x="647.753906"/>
      <use xlink:href="#DejaVuSans-2e" x="711.376953"/>
      <use xlink:href="#DejaVuSans-36" x="743.164062"/>
      <use xlink:href="#DejaVuSans-30" x="806.787109"/>
      <use xlink:href="#DejaVuSans-29" x="870.410156"/>
     </g>
    </g>
   </g>
  </g>
 </g>
 <defs>
  <clipPath id="pa1a123d92a">
   <rect x="43.78125" y="22.318125" width="394.2925" height="277.48"/>
  </clipPath>
 </defs>
</svg>
